<svg width="25" height="25" viewBox="0 0 25 25" fill="none" xmlns="http://www.w3.org/2000/svg">
<path d="M11.47 19.345L11.41 16.48C11.38 15.84 11.405 15.28 11.485 14.8C11.575 14.31 11.78 13.87 12.1 13.48C12.42 13.09 12.905 12.72 13.555 12.37L14.2 12.04C14.5 11.89 14.72 11.69 14.86 11.44C15 11.18 15.09 10.865 15.13 10.495C15.17 10.125 15.19 9.7 15.19 9.22V5.095C15.19 4.655 15.09 4.295 14.89 4.015C14.69 3.725 14.365 3.53 13.915 3.43V0.759999C15.505 0.87 16.65 1.31 17.35 2.08C18.05 2.84 18.4 4.02 18.4 5.62C18.4 6.3 18.4 6.86 18.4 7.3C18.4 7.73 18.405 8.095 18.415 8.395C18.425 8.685 18.425 8.965 18.415 9.235C18.405 10.205 18.325 10.99 18.175 11.59C18.025 12.18 17.83 12.65 17.59 13C17.35 13.34 17.065 13.61 16.735 13.81C16.415 14 16.07 14.175 15.7 14.335L15.01 14.635C14.57 14.835 14.305 15.11 14.215 15.46C14.125 15.8 14.06 16.145 14.02 16.495L13.9 19.345H11.47ZM7.93 9.31C7.92 8.74 7.91 8.26 7.9 7.87C7.89 7.48 7.885 7.115 7.885 6.775C7.895 6.425 7.905 6.04 7.915 5.62C7.995 4.03 8.365 2.85 9.025 2.08C9.695 1.31 10.76 0.87 12.22 0.759999V3.46C11.86 3.56 11.585 3.745 11.395 4.015C11.205 4.285 11.095 4.645 11.065 5.095C11.035 5.745 11.02 6.44 11.02 7.18C11.02 7.92 11.035 8.63 11.065 9.31H7.93ZM10.405 25V21.76H15.01V25H10.405Z" fill="url(#paint0_linear_731_20482)"/>
<defs>
<linearGradient id="paint0_linear_731_20482" x1="7" y1="2.28571" x2="18.4142" y2="2.73481" gradientUnits="userSpaceOnUse">
<stop stop-color="#5A189A"/>
<stop offset="1" stop-color="#C77DFF"/>
</linearGradient>
</defs>
</svg>
