<svg width="24" height="25" viewBox="0 0 24 25" fill="none" xmlns="http://www.w3.org/2000/svg">
<path d="M10.97 19.345L10.91 16.48C10.88 15.84 10.905 15.28 10.985 14.8C11.075 14.31 11.28 13.87 11.6 13.48C11.92 13.09 12.405 12.72 13.055 12.37L13.7 12.04C14 11.89 14.22 11.69 14.36 11.44C14.5 11.18 14.59 10.865 14.63 10.495C14.67 10.125 14.69 9.7 14.69 9.22V5.095C14.69 4.655 14.59 4.295 14.39 4.015C14.19 3.725 13.865 3.53 13.415 3.43V0.759999C15.005 0.87 16.15 1.31 16.85 2.08C17.55 2.84 17.9 4.02 17.9 5.62C17.9 6.3 17.9 6.86 17.9 7.3C17.9 7.73 17.905 8.095 17.915 8.395C17.925 8.685 17.925 8.965 17.915 9.235C17.905 10.205 17.825 10.99 17.675 11.59C17.525 12.18 17.33 12.65 17.09 13C16.85 13.34 16.565 13.61 16.235 13.81C15.915 14 15.57 14.175 15.2 14.335L14.51 14.635C14.07 14.835 13.805 15.11 13.715 15.46C13.625 15.8 13.56 16.145 13.52 16.495L13.4 19.345H10.97ZM7.43 9.31C7.42 8.74 7.41 8.26 7.4 7.87C7.39 7.48 7.385 7.115 7.385 6.775C7.395 6.425 7.405 6.04 7.415 5.62C7.495 4.03 7.865 2.85 8.525 2.08C9.195 1.31 10.26 0.87 11.72 0.759999V3.46C11.36 3.56 11.085 3.745 10.895 4.015C10.705 4.285 10.595 4.645 10.565 5.095C10.535 5.745 10.52 6.44 10.52 7.18C10.52 7.92 10.535 8.63 10.565 9.31H7.43ZM9.905 25V21.76H14.51V25H9.905Z" fill="#FEF7FF"/>
</svg>
