<svg width="48" height="48" viewBox="0 0 48 48" fill="none" xmlns="http://www.w3.org/2000/svg">
<path d="M20.25 18V17.75H20H16H15.75V18V21.75H12H11.75V22V26V26.25H12H15.7481L15.75 30.0001L15.7501 30.25H16H20H20.2501L20.25 29.9999L20.2481 26.25H24H24.25V26V22V21.75H24H20.25V18ZM36.25 26V25.75H36H32H31.75V26V30V30.25H32H36H36.25V30V26ZM32.25 18V17.75H32H28H27.75V18V22V22.25H28H32H32.25V22V18ZM34 8.25C40.4893 8.25 45.75 13.5107 45.75 20V28C45.75 34.4893 40.4893 39.75 34 39.75H14C7.51065 39.75 2.25 34.4893 2.25 28V20C2.25 13.5107 7.51065 8.25 14 8.25H34Z" fill="url(#paint0_linear_207_1321)" stroke="#FEF7FF" stroke-width="0.5"/>
<defs>
<linearGradient id="paint0_linear_207_1321" x1="2" y1="9.71429" x2="47.0993" y2="15.0376" gradientUnits="userSpaceOnUse">
<stop stop-color="#240046"/>
<stop offset="1" stop-color="#5A189A"/>
</linearGradient>
</defs>
</svg>
