<svg width="48" height="48" viewBox="0 0 48 48" fill="none" xmlns="http://www.w3.org/2000/svg">
<mask id="path-1-outside-1_207_1309" maskUnits="userSpaceOnUse" x="5" y="3" width="39" height="41" fill="black">
<rect fill="white" x="5" y="3" width="39" height="41"/>
<path d="M6.136 43C6.12 42.392 6.104 41.896 6.088 41.512C6.088 41.128 6.08 40.784 6.064 40.48C6.064 40.16 6.064 39.808 6.064 39.424C6.064 39.04 6.064 38.552 6.064 37.96C6.064 37.352 6.072 36.56 6.088 35.584C6.136 33.584 6.408 31.872 6.904 30.448C7.416 29.008 8.136 27.784 9.064 26.776C9.992 25.768 11.096 24.904 12.376 24.184L15.232 22.528C16.4 21.84 17.128 21.048 17.416 20.152C17.72 19.24 17.896 18.336 17.944 17.44C18.008 16.416 18.04 15.344 18.04 14.224C18.056 13.088 18.032 12 17.968 10.96C17.92 10.176 17.696 9.56 17.296 9.112C16.912 8.664 16.352 8.368 15.616 8.224V4.264C18.064 4.424 19.824 5.088 20.896 6.256C21.984 7.424 22.584 9.256 22.696 11.752C22.712 12.136 22.72 12.592 22.72 13.12C22.736 13.632 22.744 14.168 22.744 14.728C22.744 15.272 22.736 15.792 22.72 16.288C22.72 16.784 22.712 17.2 22.696 17.536C22.632 19.104 22.36 20.456 21.88 21.592C21.4 22.728 20.736 23.712 19.888 24.544C19.056 25.36 18.064 26.104 16.912 26.776L13.792 28.576C13.088 28.976 12.52 29.56 12.088 30.328C11.656 31.08 11.344 31.912 11.152 32.824C10.976 33.736 10.888 34.656 10.888 35.584V43H6.136ZM6.136 18.304C6.104 17.408 6.08 16.592 6.064 15.856C6.048 15.12 6.032 14.424 6.016 13.768C6.016 13.112 6.024 12.432 6.04 11.728C6.136 9.28 6.728 7.472 7.816 6.304C8.904 5.12 10.6 4.44 12.904 4.264V8.248C12.184 8.392 11.648 8.696 11.296 9.16C10.96 9.608 10.784 10.168 10.768 10.84C10.736 12.008 10.72 13.216 10.72 14.464C10.72 15.712 10.744 16.992 10.792 18.304H6.136ZM13.6 43V38.848H22.504V43H13.6ZM25.2535 43L29.4775 27.448H33.0535L32.1175 33.52L29.8135 43H25.2535ZM25.4455 4.6H30.0055L32.0695 13.648L33.1975 21.424H37.4215L42.7255 43H38.1655L35.9815 33.52L34.8295 25.576H30.8215L25.4455 4.6ZM34.9975 19.576L35.8855 13.648L37.9735 4.6H42.5335L38.7655 19.576H34.9975Z"/>
</mask>
<path d="M6.136 43C6.12 42.392 6.104 41.896 6.088 41.512C6.088 41.128 6.08 40.784 6.064 40.48C6.064 40.16 6.064 39.808 6.064 39.424C6.064 39.04 6.064 38.552 6.064 37.96C6.064 37.352 6.072 36.56 6.088 35.584C6.136 33.584 6.408 31.872 6.904 30.448C7.416 29.008 8.136 27.784 9.064 26.776C9.992 25.768 11.096 24.904 12.376 24.184L15.232 22.528C16.4 21.84 17.128 21.048 17.416 20.152C17.72 19.24 17.896 18.336 17.944 17.44C18.008 16.416 18.04 15.344 18.04 14.224C18.056 13.088 18.032 12 17.968 10.96C17.92 10.176 17.696 9.56 17.296 9.112C16.912 8.664 16.352 8.368 15.616 8.224V4.264C18.064 4.424 19.824 5.088 20.896 6.256C21.984 7.424 22.584 9.256 22.696 11.752C22.712 12.136 22.72 12.592 22.72 13.12C22.736 13.632 22.744 14.168 22.744 14.728C22.744 15.272 22.736 15.792 22.72 16.288C22.72 16.784 22.712 17.2 22.696 17.536C22.632 19.104 22.36 20.456 21.88 21.592C21.4 22.728 20.736 23.712 19.888 24.544C19.056 25.36 18.064 26.104 16.912 26.776L13.792 28.576C13.088 28.976 12.52 29.56 12.088 30.328C11.656 31.08 11.344 31.912 11.152 32.824C10.976 33.736 10.888 34.656 10.888 35.584V43H6.136ZM6.136 18.304C6.104 17.408 6.08 16.592 6.064 15.856C6.048 15.12 6.032 14.424 6.016 13.768C6.016 13.112 6.024 12.432 6.04 11.728C6.136 9.28 6.728 7.472 7.816 6.304C8.904 5.12 10.6 4.44 12.904 4.264V8.248C12.184 8.392 11.648 8.696 11.296 9.16C10.96 9.608 10.784 10.168 10.768 10.84C10.736 12.008 10.72 13.216 10.72 14.464C10.72 15.712 10.744 16.992 10.792 18.304H6.136ZM13.6 43V38.848H22.504V43H13.6ZM25.2535 43L29.4775 27.448H33.0535L32.1175 33.52L29.8135 43H25.2535ZM25.4455 4.6H30.0055L32.0695 13.648L33.1975 21.424H37.4215L42.7255 43H38.1655L35.9815 33.52L34.8295 25.576H30.8215L25.4455 4.6ZM34.9975 19.576L35.8855 13.648L37.9735 4.6H42.5335L38.7655 19.576H34.9975Z" fill="url(#paint0_linear_207_1309)"/>
<path d="M6.136 43L5.63617 43.0132L5.64898 43.5H6.136V43ZM6.088 41.512H5.588V41.5224L5.58843 41.5328L6.088 41.512ZM6.064 40.48H5.564V40.4931L5.56469 40.5063L6.064 40.48ZM6.088 35.584L5.58813 35.572L5.58807 35.5758L6.088 35.584ZM6.904 30.448L6.43288 30.2805L6.43182 30.2835L6.904 30.448ZM9.064 26.776L8.69615 26.4373L9.064 26.776ZM12.376 24.184L12.6212 24.6198L12.6268 24.6165L12.376 24.184ZM15.232 22.528L15.4828 22.9606L15.4858 22.9588L15.232 22.528ZM17.416 20.152L16.9416 19.9939L16.94 19.999L17.416 20.152ZM17.944 17.44L17.445 17.4088L17.4447 17.4133L17.944 17.44ZM18.04 14.224L17.54 14.217V14.224H18.04ZM17.968 10.96L17.4689 10.9906L17.4689 10.9907L17.968 10.96ZM17.296 9.112L16.9163 9.43746L16.923 9.44501L17.296 9.112ZM15.616 8.224H15.116V8.63565L15.52 8.71469L15.616 8.224ZM15.616 4.264L15.6486 3.76506L15.116 3.73025V4.264H15.616ZM20.896 6.256L20.5276 6.5941L20.5301 6.5968L20.896 6.256ZM22.696 11.752L23.1956 11.7312L23.1955 11.7296L22.696 11.752ZM22.72 13.12H22.22V13.1278L22.2202 13.1356L22.72 13.12ZM22.72 16.288L22.2203 16.2719L22.22 16.2799V16.288H22.72ZM22.696 17.536L22.1966 17.5122L22.1964 17.5156L22.696 17.536ZM21.88 21.592L22.3406 21.7866L21.88 21.592ZM19.888 24.544L20.2381 24.901L20.2382 24.9009L19.888 24.544ZM16.912 26.776L17.1619 27.2091L17.1639 27.2079L16.912 26.776ZM13.792 28.576L14.039 29.0107L14.0419 29.0091L13.792 28.576ZM12.088 30.328L12.5216 30.5771L12.5238 30.5731L12.088 30.328ZM11.152 32.824L10.6627 32.721L10.6611 32.7293L11.152 32.824ZM10.888 43V43.5H11.388V43H10.888ZM6.136 18.304L5.63632 18.3218L5.65354 18.804H6.136V18.304ZM6.016 13.768H5.51585L5.51615 13.7802L6.016 13.768ZM6.04 11.728L5.54032 11.7084L5.54013 11.7166L6.04 11.728ZM7.816 6.304L8.18187 6.64481L8.18416 6.64231L7.816 6.304ZM12.904 4.264H13.404V3.72435L12.8659 3.76545L12.904 4.264ZM12.904 8.248L13.0021 8.73829L13.404 8.6579V8.248H12.904ZM11.296 9.16L10.8976 8.8578L10.896 8.86L11.296 9.16ZM10.768 10.84L11.2678 10.8537L11.2679 10.8519L10.768 10.84ZM10.792 18.304V18.804H11.3106L11.2917 18.2857L10.792 18.304ZM13.6 43H13.1V43.5H13.6V43ZM13.6 38.848V38.348H13.1V38.848H13.6ZM22.504 38.848H23.004V38.348H22.504V38.848ZM22.504 43V43.5H23.004V43H22.504ZM6.63583 42.9868C6.61979 42.3776 6.60372 41.8788 6.58757 41.4912L5.58843 41.5328C5.60428 41.9132 5.62021 42.4064 5.63617 43.0132L6.63583 42.9868ZM6.588 41.512C6.588 41.1214 6.57987 40.7684 6.56331 40.4537L5.56469 40.5063C5.58013 40.7996 5.588 41.1346 5.588 41.512H6.588ZM6.564 40.48C6.564 40.4794 6.564 40.4787 6.564 40.4781C6.564 40.4775 6.564 40.4769 6.564 40.4762C6.564 40.4756 6.564 40.475 6.564 40.4744C6.564 40.4737 6.564 40.4731 6.564 40.4725C6.564 40.4719 6.564 40.4712 6.564 40.4706C6.564 40.47 6.564 40.4694 6.564 40.4687C6.564 40.4681 6.564 40.4675 6.564 40.4669C6.564 40.4662 6.564 40.4656 6.564 40.465C6.564 40.4643 6.564 40.4637 6.564 40.4631C6.564 40.4625 6.564 40.4618 6.564 40.4612C6.564 40.4606 6.564 40.46 6.564 40.4593C6.564 40.4587 6.564 40.4581 6.564 40.4574C6.564 40.4568 6.564 40.4562 6.564 40.4556C6.564 40.4549 6.564 40.4543 6.564 40.4537C6.564 40.453 6.564 40.4524 6.564 40.4518C6.564 40.4512 6.564 40.4505 6.564 40.4499C6.564 40.4493 6.564 40.4486 6.564 40.448C6.564 40.4474 6.564 40.4468 6.564 40.4461C6.564 40.4455 6.564 40.4449 6.564 40.4442C6.564 40.4436 6.564 40.443 6.564 40.4424C6.564 40.4417 6.564 40.4411 6.564 40.4405C6.564 40.4398 6.564 40.4392 6.564 40.4386C6.564 40.4379 6.564 40.4373 6.564 40.4367C6.564 40.4361 6.564 40.4354 6.564 40.4348C6.564 40.4342 6.564 40.4335 6.564 40.4329C6.564 40.4323 6.564 40.4316 6.564 40.431C6.564 40.4304 6.564 40.4297 6.564 40.4291C6.564 40.4285 6.564 40.4278 6.564 40.4272C6.564 40.4266 6.564 40.4259 6.564 40.4253C6.564 40.4247 6.564 40.4241 6.564 40.4234C6.564 40.4228 6.564 40.4222 6.564 40.4215C6.564 40.4209 6.564 40.4203 6.564 40.4196C6.564 40.419 6.564 40.4184 6.564 40.4177C6.564 40.4171 6.564 40.4165 6.564 40.4158C6.564 40.4152 6.564 40.4146 6.564 40.4139C6.564 40.4133 6.564 40.4127 6.564 40.412C6.564 40.4114 6.564 40.4108 6.564 40.4101C6.564 40.4095 6.564 40.4089 6.564 40.4082C6.564 40.4076 6.564 40.407 6.564 40.4063C6.564 40.4057 6.564 40.405 6.564 40.4044C6.564 40.4038 6.564 40.4031 6.564 40.4025C6.564 40.4019 6.564 40.4012 6.564 40.4006C6.564 40.4 6.564 40.3993 6.564 40.3987C6.564 40.3981 6.564 40.3974 6.564 40.3968C6.564 40.3962 6.564 40.3955 6.564 40.3949C6.564 40.3942 6.564 40.3936 6.564 40.393C6.564 40.3923 6.564 40.3917 6.564 40.3911C6.564 40.3904 6.564 40.3898 6.564 40.3892C6.564 40.3885 6.564 40.3879 6.564 40.3872C6.564 40.3866 6.564 40.386 6.564 40.3853C6.564 40.3847 6.564 40.3841 6.564 40.3834C6.564 40.3828 6.564 40.3821 6.564 40.3815C6.564 40.3809 6.564 40.3802 6.564 40.3796C6.564 40.379 6.564 40.3783 6.564 40.3777C6.564 40.377 6.564 40.3764 6.564 40.3758C6.564 40.3751 6.564 40.3745 6.564 40.3739C6.564 40.3732 6.564 40.3726 6.564 40.3719C6.564 40.3713 6.564 40.3707 6.564 40.37C6.564 40.3694 6.564 40.3687 6.564 40.3681C6.564 40.3675 6.564 40.3668 6.564 40.3662C6.564 40.3655 6.564 40.3649 6.564 40.3643C6.564 40.3636 6.564 40.363 6.564 40.3623C6.564 40.3617 6.564 40.3611 6.564 40.3604C6.564 40.3598 6.564 40.3591 6.564 40.3585C6.564 40.3579 6.564 40.3572 6.564 40.3566C6.564 40.3559 6.564 40.3553 6.564 40.3547C6.564 40.354 6.564 40.3534 6.564 40.3527C6.564 40.3521 6.564 40.3514 6.564 40.3508C6.564 40.3502 6.564 40.3495 6.564 40.3489C6.564 40.3482 6.564 40.3476 6.564 40.347C6.564 40.3463 6.564 40.3457 6.564 40.345C6.564 40.3444 6.564 40.3437 6.564 40.3431C6.564 40.3425 6.564 40.3418 6.564 40.3412C6.564 40.3405 6.564 40.3399 6.564 40.3392C6.564 40.3386 6.564 40.338 6.564 40.3373C6.564 40.3367 6.564 40.336 6.564 40.3354C6.564 40.3347 6.564 40.3341 6.564 40.3335C6.564 40.3328 6.564 40.3322 6.564 40.3315C6.564 40.3309 6.564 40.3302 6.564 40.3296C6.564 40.3289 6.564 40.3283 6.564 40.3277C6.564 40.327 6.564 40.3264 6.564 40.3257C6.564 40.3251 6.564 40.3244 6.564 40.3238C6.564 40.3231 6.564 40.3225 6.564 40.3219C6.564 40.3212 6.564 40.3206 6.564 40.3199C6.564 40.3193 6.564 40.3186 6.564 40.318C6.564 40.3173 6.564 40.3167 6.564 40.316C6.564 40.3154 6.564 40.3148 6.564 40.3141C6.564 40.3135 6.564 40.3128 6.564 40.3122C6.564 40.3115 6.564 40.3109 6.564 40.3102C6.564 40.3096 6.564 40.3089 6.564 40.3083C6.564 40.3076 6.564 40.307 6.564 40.3063C6.564 40.3057 6.564 40.305 6.564 40.3044C6.564 40.3038 6.564 40.3031 6.564 40.3025C6.564 40.3018 6.564 40.3012 6.564 40.3005C6.564 40.2999 6.564 40.2992 6.564 40.2986C6.564 40.2979 6.564 40.2973 6.564 40.2966C6.564 40.296 6.564 40.2953 6.564 40.2947C6.564 40.294 6.564 40.2934 6.564 40.2927C6.564 40.2921 6.564 40.2914 6.564 40.2908C6.564 40.2901 6.564 40.2895 6.564 40.2888C6.564 40.2882 6.564 40.2875 6.564 40.2869C6.564 40.2862 6.564 40.2856 6.564 40.2849C6.564 40.2843 6.564 40.2836 6.564 40.283C6.564 40.2823 6.564 40.2817 6.564 40.281C6.564 40.2804 6.564 40.2797 6.564 40.2791C6.564 40.2784 6.564 40.2778 6.564 40.2771C6.564 40.2765 6.564 40.2758 6.564 40.2752C6.564 40.2745 6.564 40.2739 6.564 40.2732C6.564 40.2726 6.564 40.2719 6.564 40.2713C6.564 40.2706 6.564 40.27 6.564 40.2693C6.564 40.2687 6.564 40.268 6.564 40.2674C6.564 40.2667 6.564 40.2661 6.564 40.2654C6.564 40.2648 6.564 40.2641 6.564 40.2635C6.564 40.2628 6.564 40.2621 6.564 40.2615C6.564 40.2608 6.564 40.2602 6.564 40.2595C6.564 40.2589 6.564 40.2582 6.564 40.2576C6.564 40.2569 6.564 40.2563 6.564 40.2556C6.564 40.255 6.564 40.2543 6.564 40.2537C6.564 40.253 6.564 40.2523 6.564 40.2517C6.564 40.251 6.564 40.2504 6.564 40.2497C6.564 40.2491 6.564 40.2484 6.564 40.2478C6.564 40.2471 6.564 40.2465 6.564 40.2458C6.564 40.2451 6.564 40.2445 6.564 40.2438C6.564 40.2432 6.564 40.2425 6.564 40.2419C6.564 40.2412 6.564 40.2406 6.564 40.2399C6.564 40.2392 6.564 40.2386 6.564 40.2379C6.564 40.2373 6.564 40.2366 6.564 40.236C6.564 40.2353 6.564 40.2347 6.564 40.234C6.564 40.2333 6.564 40.2327 6.564 40.232C6.564 40.2314 6.564 40.2307 6.564 40.2301C6.564 40.2294 6.564 40.2287 6.564 40.2281C6.564 40.2274 6.564 40.2268 6.564 40.2261C6.564 40.2255 6.564 40.2248 6.564 40.2241C6.564 40.2235 6.564 40.2228 6.564 40.2222C6.564 40.2215 6.564 40.2209 6.564 40.2202C6.564 40.2195 6.564 40.2189 6.564 40.2182C6.564 40.2176 6.564 40.2169 6.564 40.2163C6.564 40.2156 6.564 40.2149 6.564 40.2143C6.564 40.2136 6.564 40.213 6.564 40.2123C6.564 40.2116 6.564 40.211 6.564 40.2103C6.564 40.2097 6.564 40.209 6.564 40.2083C6.564 40.2077 6.564 40.207 6.564 40.2064C6.564 40.2057 6.564 40.205 6.564 40.2044C6.564 40.2037 6.564 40.2031 6.564 40.2024C6.564 40.2017 6.564 40.2011 6.564 40.2004C6.564 40.1998 6.564 40.1991 6.564 40.1984C6.564 40.1978 6.564 40.1971 6.564 40.1965C6.564 40.1958 6.564 40.1951 6.564 40.1945C6.564 40.1938 6.564 40.1932 6.564 40.1925C6.564 40.1918 6.564 40.1912 6.564 40.1905C6.564 40.1898 6.564 40.1892 6.564 40.1885C6.564 40.1879 6.564 40.1872 6.564 40.1865C6.564 40.1859 6.564 40.1852 6.564 40.1846C6.564 40.1839 6.564 40.1832 6.564 40.1826C6.564 40.1819 6.564 40.1812 6.564 40.1806C6.564 40.1799 6.564 40.1793 6.564 40.1786C6.564 40.1779 6.564 40.1773 6.564 40.1766C6.564 40.1759 6.564 40.1753 6.564 40.1746C6.564 40.1739 6.564 40.1733 6.564 40.1726C6.564 40.172 6.564 40.1713 6.564 40.1706C6.564 40.17 6.564 40.1693 6.564 40.1686C6.564 40.168 6.564 40.1673 6.564 40.1666C6.564 40.166 6.564 40.1653 6.564 40.1646C6.564 40.164 6.564 40.1633 6.564 40.1627C6.564 40.162 6.564 40.1613 6.564 40.1607C6.564 40.16 6.564 40.1593 6.564 40.1587C6.564 40.158 6.564 40.1573 6.564 40.1567C6.564 40.156 6.564 40.1553 6.564 40.1547C6.564 40.154 6.564 40.1533 6.564 40.1527C6.564 40.152 6.564 40.1513 6.564 40.1507C6.564 40.15 6.564 40.1493 6.564 40.1487C6.564 40.148 6.564 40.1473 6.564 40.1467C6.564 40.146 6.564 40.1453 6.564 40.1447C6.564 40.144 6.564 40.1433 6.564 40.1427C6.564 40.142 6.564 40.1413 6.564 40.1407C6.564 40.14 6.564 40.1393 6.564 40.1387C6.564 40.138 6.564 40.1373 6.564 40.1367C6.564 40.136 6.564 40.1353 6.564 40.1346C6.564 40.134 6.564 40.1333 6.564 40.1326C6.564 40.132 6.564 40.1313 6.564 40.1306C6.564 40.13 6.564 40.1293 6.564 40.1286C6.564 40.128 6.564 40.1273 6.564 40.1266C6.564 40.1259 6.564 40.1253 6.564 40.1246C6.564 40.1239 6.564 40.1233 6.564 40.1226C6.564 40.1219 6.564 40.1213 6.564 40.1206C6.564 40.1199 6.564 40.1193 6.564 40.1186C6.564 40.1179 6.564 40.1172 6.564 40.1166C6.564 40.1159 6.564 40.1152 6.564 40.1146C6.564 40.1139 6.564 40.1132 6.564 40.1125C6.564 40.1119 6.564 40.1112 6.564 40.1105C6.564 40.1099 6.564 40.1092 6.564 40.1085C6.564 40.1078 6.564 40.1072 6.564 40.1065C6.564 40.1058 6.564 40.1052 6.564 40.1045C6.564 40.1038 6.564 40.1031 6.564 40.1025C6.564 40.1018 6.564 40.1011 6.564 40.1004C6.564 40.0998 6.564 40.0991 6.564 40.0984C6.564 40.0978 6.564 40.0971 6.564 40.0964C6.564 40.0957 6.564 40.0951 6.564 40.0944C6.564 40.0937 6.564 40.093 6.564 40.0924C6.564 40.0917 6.564 40.091 6.564 40.0904C6.564 40.0897 6.564 40.089 6.564 40.0883C6.564 40.0877 6.564 40.087 6.564 40.0863C6.564 40.0856 6.564 40.085 6.564 40.0843C6.564 40.0836 6.564 40.0829 6.564 40.0823C6.564 40.0816 6.564 40.0809 6.564 40.0802C6.564 40.0796 6.564 40.0789 6.564 40.0782C6.564 40.0775 6.564 40.0769 6.564 40.0762C6.564 40.0755 6.564 40.0748 6.564 40.0742C6.564 40.0735 6.564 40.0728 6.564 40.0721C6.564 40.0715 6.564 40.0708 6.564 40.0701C6.564 40.0694 6.564 40.0687 6.564 40.0681C6.564 40.0674 6.564 40.0667 6.564 40.066C6.564 40.0654 6.564 40.0647 6.564 40.064C6.564 40.0633 6.564 40.0627 6.564 40.062C6.564 40.0613 6.564 40.0606 6.564 40.0599C6.564 40.0593 6.564 40.0586 6.564 40.0579C6.564 40.0572 6.564 40.0566 6.564 40.0559C6.564 40.0552 6.564 40.0545 6.564 40.0538C6.564 40.0532 6.564 40.0525 6.564 40.0518C6.564 40.0511 6.564 40.0505 6.564 40.0498C6.564 40.0491 6.564 40.0484 6.564 40.0477C6.564 40.0471 6.564 40.0464 6.564 40.0457C6.564 40.045 6.564 40.0443 6.564 40.0437C6.564 40.043 6.564 40.0423 6.564 40.0416C6.564 40.0409 6.564 40.0403 6.564 40.0396C6.564 40.0389 6.564 40.0382 6.564 40.0375C6.564 40.0369 6.564 40.0362 6.564 40.0355C6.564 40.0348 6.564 40.0341 6.564 40.0335C6.564 40.0328 6.564 40.0321 6.564 40.0314C6.564 40.0307 6.564 40.0301 6.564 40.0294C6.564 40.0287 6.564 40.028 6.564 40.0273C6.564 40.0267 6.564 40.026 6.564 40.0253C6.564 40.0246 6.564 40.0239 6.564 40.0232C6.564 40.0226 6.564 40.0219 6.564 40.0212C6.564 40.0205 6.564 40.0198 6.564 40.0191C6.564 40.0185 6.564 40.0178 6.564 40.0171C6.564 40.0164 6.564 40.0157 6.564 40.0151C6.564 40.0144 6.564 40.0137 6.564 40.013C6.564 40.0123 6.564 40.0116 6.564 40.011C6.564 40.0103 6.564 40.0096 6.564 40.0089C6.564 40.0082 6.564 40.0075 6.564 40.0069C6.564 40.0062 6.564 40.0055 6.564 40.0048C6.564 40.0041 6.564 40.0034 6.564 40.0028C6.564 40.0021 6.564 40.0014 6.564 40.0007C6.564 40 6.564 39.9993 6.564 39.9986C6.564 39.998 6.564 39.9973 6.564 39.9966C6.564 39.9959 6.564 39.9952 6.564 39.9945C6.564 39.9938 6.564 39.9932 6.564 39.9925C6.564 39.9918 6.564 39.9911 6.564 39.9904C6.564 39.9897 6.564 39.989 6.564 39.9884C6.564 39.9877 6.564 39.987 6.564 39.9863C6.564 39.9856 6.564 39.9849 6.564 39.9842C6.564 39.9836 6.564 39.9829 6.564 39.9822C6.564 39.9815 6.564 39.9808 6.564 39.9801C6.564 39.9794 6.564 39.9787 6.564 39.9781C6.564 39.9774 6.564 39.9767 6.564 39.976C6.564 39.9753 6.564 39.9746 6.564 39.9739C6.564 39.9732 6.564 39.9726 6.564 39.9719C6.564 39.9712 6.564 39.9705 6.564 39.9698C6.564 39.9691 6.564 39.9684 6.564 39.9677C6.564 39.9671 6.564 39.9664 6.564 39.9657C6.564 39.965 6.564 39.9643 6.564 39.9636C6.564 39.9629 6.564 39.9622 6.564 39.9615C6.564 39.9609 6.564 39.9602 6.564 39.9595C6.564 39.9588 6.564 39.9581 6.564 39.9574C6.564 39.9567 6.564 39.956 6.564 39.9553C6.564 39.9546 6.564 39.954 6.564 39.9533C6.564 39.9526 6.564 39.9519 6.564 39.9512C6.564 39.9505 6.564 39.9498 6.564 39.9491C6.564 39.9484 6.564 39.9477 6.564 39.9471C6.564 39.9464 6.564 39.9457 6.564 39.945C6.564 39.9443 6.564 39.9436 6.564 39.9429C6.564 39.9422 6.564 39.9415 6.564 39.9408C6.564 39.9401 6.564 39.9394 6.564 39.9388C6.564 39.9381 6.564 39.9374 6.564 39.9367C6.564 39.936 6.564 39.9353 6.564 39.9346C6.564 39.9339 6.564 39.9332 6.564 39.9325C6.564 39.9318 6.564 39.9311 6.564 39.9304C6.564 39.9298 6.564 39.9291 6.564 39.9284C6.564 39.9277 6.564 39.927 6.564 39.9263C6.564 39.9256 6.564 39.9249 6.564 39.9242C6.564 39.9235 6.564 39.9228 6.564 39.9221C6.564 39.9214 6.564 39.9207 6.564 39.92C6.564 39.9193 6.564 39.9187 6.564 39.918C6.564 39.9173 6.564 39.9166 6.564 39.9159C6.564 39.9152 6.564 39.9145 6.564 39.9138C6.564 39.9131 6.564 39.9124 6.564 39.9117C6.564 39.911 6.564 39.9103 6.564 39.9096C6.564 39.9089 6.564 39.9082 6.564 39.9075C6.564 39.9068 6.564 39.9061 6.564 39.9055C6.564 39.9048 6.564 39.9041 6.564 39.9034C6.564 39.9027 6.564 39.902 6.564 39.9013C6.564 39.9006 6.564 39.8999 6.564 39.8992C6.564 39.8985 6.564 39.8978 6.564 39.8971C6.564 39.8964 6.564 39.8957 6.564 39.895C6.564 39.8943 6.564 39.8936 6.564 39.8929C6.564 39.8922 6.564 39.8915 6.564 39.8908C6.564 39.8901 6.564 39.8894 6.564 39.8887C6.564 39.888 6.564 39.8873 6.564 39.8866C6.564 39.8859 6.564 39.8852 6.564 39.8845C6.564 39.8838 6.564 39.8831 6.564 39.8824C6.564 39.8817 6.564 39.8811 6.564 39.8803C6.564 39.8797 6.564 39.879 6.564 39.8783C6.564 39.8776 6.564 39.8769 6.564 39.8762C6.564 39.8755 6.564 39.8748 6.564 39.8741C6.564 39.8734 6.564 39.8727 6.564 39.872C6.564 39.8713 6.564 39.8706 6.564 39.8699C6.564 39.8692 6.564 39.8685 6.564 39.8678C6.564 39.8671 6.564 39.8664 6.564 39.8657C6.564 39.865 6.564 39.8643 6.564 39.8636C6.564 39.8629 6.564 39.8622 6.564 39.8615C6.564 39.8608 6.564 39.8601 6.564 39.8594C6.564 39.8587 6.564 39.8579 6.564 39.8572C6.564 39.8565 6.564 39.8558 6.564 39.8551C6.564 39.8544 6.564 39.8537 6.564 39.853C6.564 39.8523 6.564 39.8516 6.564 39.8509C6.564 39.8502 6.564 39.8495 6.564 39.8488C6.564 39.8481 6.564 39.8474 6.564 39.8467C6.564 39.846 6.564 39.8453 6.564 39.8446C6.564 39.8439 6.564 39.8432 6.564 39.8425C6.564 39.8418 6.564 39.8411 6.564 39.8404C6.564 39.8397 6.564 39.839 6.564 39.8383C6.564 39.8376 6.564 39.8369 6.564 39.8362C6.564 39.8355 6.564 39.8348 6.564 39.8341C6.564 39.8334 6.564 39.8326 6.564 39.8319C6.564 39.8312 6.564 39.8305 6.564 39.8298C6.564 39.8291 6.564 39.8284 6.564 39.8277C6.564 39.827 6.564 39.8263 6.564 39.8256C6.564 39.8249 6.564 39.8242 6.564 39.8235C6.564 39.8228 6.564 39.8221 6.564 39.8214C6.564 39.8207 6.564 39.82 6.564 39.8193C6.564 39.8185 6.564 39.8178 6.564 39.8171C6.564 39.8164 6.564 39.8157 6.564 39.815C6.564 39.8143 6.564 39.8136 6.564 39.8129C6.564 39.8122 6.564 39.8115 6.564 39.8108C6.564 39.8101 6.564 39.8094 6.564 39.8087C6.564 39.8079 6.564 39.8072 6.564 39.8065C6.564 39.8058 6.564 39.8051 6.564 39.8044C6.564 39.8037 6.564 39.803 6.564 39.8023C6.564 39.8016 6.564 39.8009 6.564 39.8002C6.564 39.7995 6.564 39.7987 6.564 39.798C6.564 39.7973 6.564 39.7966 6.564 39.7959C6.564 39.7952 6.564 39.7945 6.564 39.7938C6.564 39.7931 6.564 39.7924 6.564 39.7917C6.564 39.791 6.564 39.7902 6.564 39.7895C6.564 39.7888 6.564 39.7881 6.564 39.7874C6.564 39.7867 6.564 39.786 6.564 39.7853C6.564 39.7846 6.564 39.7839 6.564 39.7831C6.564 39.7824 6.564 39.7817 6.564 39.781C6.564 39.7803 6.564 39.7796 6.564 39.7789C6.564 39.7782 6.564 39.7775 6.564 39.7768C6.564 39.776 6.564 39.7753 6.564 39.7746C6.564 39.7739 6.564 39.7732 6.564 39.7725C6.564 39.7718 6.564 39.7711 6.564 39.7704C6.564 39.7696 6.564 39.7689 6.564 39.7682C6.564 39.7675 6.564 39.7668 6.564 39.7661C6.564 39.7654 6.564 39.7647 6.564 39.764C6.564 39.7632 6.564 39.7625 6.564 39.7618C6.564 39.7611 6.564 39.7604 6.564 39.7597C6.564 39.759 6.564 39.7583 6.564 39.7575C6.564 39.7568 6.564 39.7561 6.564 39.7554C6.564 39.7547 6.564 39.754 6.564 39.7533C6.564 39.7525 6.564 39.7518 6.564 39.7511C6.564 39.7504 6.564 39.7497 6.564 39.749C6.564 39.7483 6.564 39.7476 6.564 39.7468C6.564 39.7461 6.564 39.7454 6.564 39.7447C6.564 39.744 6.564 39.7433 6.564 39.7425C6.564 39.7418 6.564 39.7411 6.564 39.7404C6.564 39.7397 6.564 39.739 6.564 39.7383C6.564 39.7375 6.564 39.7368 6.564 39.7361C6.564 39.7354 6.564 39.7347 6.564 39.734C6.564 39.7333 6.564 39.7325 6.564 39.7318C6.564 39.7311 6.564 39.7304 6.564 39.7297C6.564 39.729 6.564 39.7282 6.564 39.7275C6.564 39.7268 6.564 39.7261 6.564 39.7254C6.564 39.7247 6.564 39.7239 6.564 39.7232C6.564 39.7225 6.564 39.7218 6.564 39.7211C6.564 39.7204 6.564 39.7196 6.564 39.7189C6.564 39.7182 6.564 39.7175 6.564 39.7168C6.564 39.7161 6.564 39.7153 6.564 39.7146C6.564 39.7139 6.564 39.7132 6.564 39.7125C6.564 39.7117 6.564 39.711 6.564 39.7103C6.564 39.7096 6.564 39.7089 6.564 39.7082C6.564 39.7074 6.564 39.7067 6.564 39.706C6.564 39.7053 6.564 39.7046 6.564 39.7038C6.564 39.7031 6.564 39.7024 6.564 39.7017C6.564 39.701 6.564 39.7002 6.564 39.6995C6.564 39.6988 6.564 39.6981 6.564 39.6974C6.564 39.6966 6.564 39.6959 6.564 39.6952C6.564 39.6945 6.564 39.6938 6.564 39.6931C6.564 39.6923 6.564 39.6916 6.564 39.6909C6.564 39.6902 6.564 39.6894 6.564 39.6887C6.564 39.688 6.564 39.6873 6.564 39.6866C6.564 39.6858 6.564 39.6851 6.564 39.6844C6.564 39.6837 6.564 39.683 6.564 39.6822C6.564 39.6815 6.564 39.6808 6.564 39.6801C6.564 39.6794 6.564 39.6786 6.564 39.6779C6.564 39.6772 6.564 39.6765 6.564 39.6757C6.564 39.675 6.564 39.6743 6.564 39.6736C6.564 39.6729 6.564 39.6721 6.564 39.6714C6.564 39.6707 6.564 39.67 6.564 39.6692C6.564 39.6685 6.564 39.6678 6.564 39.6671C6.564 39.6663 6.564 39.6656 6.564 39.6649C6.564 39.6642 6.564 39.6635 6.564 39.6627C6.564 39.662 6.564 39.6613 6.564 39.6606C6.564 39.6598 6.564 39.6591 6.564 39.6584C6.564 39.6577 6.564 39.6569 6.564 39.6562C6.564 39.6555 6.564 39.6548 6.564 39.654C6.564 39.6533 6.564 39.6526 6.564 39.6519C6.564 39.6511 6.564 39.6504 6.564 39.6497C6.564 39.649 6.564 39.6482 6.564 39.6475C6.564 39.6468 6.564 39.6461 6.564 39.6453C6.564 39.6446 6.564 39.6439 6.564 39.6432C6.564 39.6424 6.564 39.6417 6.564 39.641C6.564 39.6403 6.564 39.6395 6.564 39.6388C6.564 39.6381 6.564 39.6374 6.564 39.6366C6.564 39.6359 6.564 39.6352 6.564 39.6344C6.564 39.6337 6.564 39.633 6.564 39.6323C6.564 39.6315 6.564 39.6308 6.564 39.6301C6.564 39.6294 6.564 39.6286 6.564 39.6279C6.564 39.6272 6.564 39.6264 6.564 39.6257C6.564 39.625 6.564 39.6243 6.564 39.6235C6.564 39.6228 6.564 39.6221 6.564 39.6213C6.564 39.6206 6.564 39.6199 6.564 39.6192C6.564 39.6184 6.564 39.6177 6.564 39.617C6.564 39.6162 6.564 39.6155 6.564 39.6148C6.564 39.6141 6.564 39.6133 6.564 39.6126C6.564 39.6119 6.564 39.6111 6.564 39.6104C6.564 39.6097 6.564 39.609 6.564 39.6082C6.564 39.6075 6.564 39.6068 6.564 39.606C6.564 39.6053 6.564 39.6046 6.564 39.6038C6.564 39.6031 6.564 39.6024 6.564 39.6017C6.564 39.6009 6.564 39.6002 6.564 39.5995C6.564 39.5987 6.564 39.598 6.564 39.5973C6.564 39.5965 6.564 39.5958 6.564 39.5951C6.564 39.5943 6.564 39.5936 6.564 39.5929C6.564 39.5922 6.564 39.5914 6.564 39.5907C6.564 39.59 6.564 39.5892 6.564 39.5885C6.564 39.5878 6.564 39.587 6.564 39.5863C6.564 39.5856 6.564 39.5848 6.564 39.5841C6.564 39.5834 6.564 39.5826 6.564 39.5819C6.564 39.5812 6.564 39.5804 6.564 39.5797C6.564 39.579 6.564 39.5782 6.564 39.5775C6.564 39.5768 6.564 39.576 6.564 39.5753C6.564 39.5746 6.564 39.5738 6.564 39.5731C6.564 39.5724 6.564 39.5716 6.564 39.5709C6.564 39.5702 6.564 39.5694 6.564 39.5687C6.564 39.568 6.564 39.5672 6.564 39.5665C6.564 39.5658 6.564 39.565 6.564 39.5643C6.564 39.5636 6.564 39.5628 6.564 39.5621C6.564 39.5614 6.564 39.5606 6.564 39.5599C6.564 39.5592 6.564 39.5584 6.564 39.5577C6.564 39.5569 6.564 39.5562 6.564 39.5555C6.564 39.5547 6.564 39.554 6.564 39.5533C6.564 39.5525 6.564 39.5518 6.564 39.5511C6.564 39.5503 6.564 39.5496 6.564 39.5489C6.564 39.5481 6.564 39.5474 6.564 39.5466C6.564 39.5459 6.564 39.5452 6.564 39.5444C6.564 39.5437 6.564 39.543 6.564 39.5422C6.564 39.5415 6.564 39.5407 6.564 39.54C6.564 39.5393 6.564 39.5385 6.564 39.5378C6.564 39.5371 6.564 39.5363 6.564 39.5356C6.564 39.5348 6.564 39.5341 6.564 39.5334C6.564 39.5326 6.564 39.5319 6.564 39.5312C6.564 39.5304 6.564 39.5297 6.564 39.5289C6.564 39.5282 6.564 39.5275 6.564 39.5267C6.564 39.526 6.564 39.5252 6.564 39.5245C6.564 39.5238 6.564 39.523 6.564 39.5223C6.564 39.5216 6.564 39.5208 6.564 39.5201C6.564 39.5193 6.564 39.5186 6.564 39.5179C6.564 39.5171 6.564 39.5164 6.564 39.5156C6.564 39.5149 6.564 39.5142 6.564 39.5134C6.564 39.5127 6.564 39.5119 6.564 39.5112C6.564 39.5105 6.564 39.5097 6.564 39.509C6.564 39.5082 6.564 39.5075 6.564 39.5067C6.564 39.506 6.564 39.5053 6.564 39.5045C6.564 39.5038 6.564 39.503 6.564 39.5023C6.564 39.5016 6.564 39.5008 6.564 39.5001C6.564 39.4993 6.564 39.4986 6.564 39.4979C6.564 39.4971 6.564 39.4964 6.564 39.4956C6.564 39.4949 6.564 39.4941 6.564 39.4934C6.564 39.4927 6.564 39.4919 6.564 39.4912C6.564 39.4904 6.564 39.4897 6.564 39.4889C6.564 39.4882 6.564 39.4875 6.564 39.4867C6.564 39.486 6.564 39.4852 6.564 39.4845C6.564 39.4837 6.564 39.483 6.564 39.4823C6.564 39.4815 6.564 39.4808 6.564 39.48C6.564 39.4793 6.564 39.4785 6.564 39.4778C6.564 39.477 6.564 39.4763 6.564 39.4756C6.564 39.4748 6.564 39.4741 6.564 39.4733C6.564 39.4726 6.564 39.4718 6.564 39.4711C6.564 39.4703 6.564 39.4696 6.564 39.4689C6.564 39.4681 6.564 39.4674 6.564 39.4666C6.564 39.4659 6.564 39.4651 6.564 39.4644C6.564 39.4636 6.564 39.4629 6.564 39.4621C6.564 39.4614 6.564 39.4607 6.564 39.4599C6.564 39.4592 6.564 39.4584 6.564 39.4577C6.564 39.4569 6.564 39.4562 6.564 39.4554C6.564 39.4547 6.564 39.4539 6.564 39.4532C6.564 39.4524 6.564 39.4517 6.564 39.4509C6.564 39.4502 6.564 39.4495 6.564 39.4487C6.564 39.448 6.564 39.4472 6.564 39.4465C6.564 39.4457 6.564 39.445 6.564 39.4442C6.564 39.4435 6.564 39.4427 6.564 39.442C6.564 39.4412 6.564 39.4405 6.564 39.4397C6.564 39.439 6.564 39.4382 6.564 39.4375C6.564 39.4367 6.564 39.436 6.564 39.4352C6.564 39.4345 6.564 39.4337 6.564 39.433C6.564 39.4322 6.564 39.4315 6.564 39.4307C6.564 39.43 6.564 39.4292 6.564 39.4285C6.564 39.4277 6.564 39.427 6.564 39.4263C6.564 39.4255 6.564 39.4248 6.564 39.424H5.564C5.564 39.4248 5.564 39.4255 5.564 39.4263C5.564 39.427 5.564 39.4277 5.564 39.4285C5.564 39.4292 5.564 39.43 5.564 39.4307C5.564 39.4315 5.564 39.4322 5.564 39.433C5.564 39.4337 5.564 39.4345 5.564 39.4352C5.564 39.436 5.564 39.4367 5.564 39.4375C5.564 39.4382 5.564 39.439 5.564 39.4397C5.564 39.4405 5.564 39.4412 5.564 39.442C5.564 39.4427 5.564 39.4435 5.564 39.4442C5.564 39.445 5.564 39.4457 5.564 39.4465C5.564 39.4472 5.564 39.448 5.564 39.4487C5.564 39.4495 5.564 39.4502 5.564 39.4509C5.564 39.4517 5.564 39.4524 5.564 39.4532C5.564 39.4539 5.564 39.4547 5.564 39.4554C5.564 39.4562 5.564 39.4569 5.564 39.4577C5.564 39.4584 5.564 39.4592 5.564 39.4599C5.564 39.4607 5.564 39.4614 5.564 39.4621C5.564 39.4629 5.564 39.4636 5.564 39.4644C5.564 39.4651 5.564 39.4659 5.564 39.4666C5.564 39.4674 5.564 39.4681 5.564 39.4689C5.564 39.4696 5.564 39.4703 5.564 39.4711C5.564 39.4718 5.564 39.4726 5.564 39.4733C5.564 39.4741 5.564 39.4748 5.564 39.4756C5.564 39.4763 5.564 39.477 5.564 39.4778C5.564 39.4785 5.564 39.4793 5.564 39.48C5.564 39.4808 5.564 39.4815 5.564 39.4823C5.564 39.483 5.564 39.4837 5.564 39.4845C5.564 39.4852 5.564 39.486 5.564 39.4867C5.564 39.4875 5.564 39.4882 5.564 39.4889C5.564 39.4897 5.564 39.4904 5.564 39.4912C5.564 39.4919 5.564 39.4927 5.564 39.4934C5.564 39.4941 5.564 39.4949 5.564 39.4956C5.564 39.4964 5.564 39.4971 5.564 39.4979C5.564 39.4986 5.564 39.4993 5.564 39.5001C5.564 39.5008 5.564 39.5016 5.564 39.5023C5.564 39.503 5.564 39.5038 5.564 39.5045C5.564 39.5053 5.564 39.506 5.564 39.5067C5.564 39.5075 5.564 39.5082 5.564 39.509C5.564 39.5097 5.564 39.5105 5.564 39.5112C5.564 39.5119 5.564 39.5127 5.564 39.5134C5.564 39.5142 5.564 39.5149 5.564 39.5156C5.564 39.5164 5.564 39.5171 5.564 39.5179C5.564 39.5186 5.564 39.5193 5.564 39.5201C5.564 39.5208 5.564 39.5216 5.564 39.5223C5.564 39.523 5.564 39.5238 5.564 39.5245C5.564 39.5252 5.564 39.526 5.564 39.5267C5.564 39.5275 5.564 39.5282 5.564 39.5289C5.564 39.5297 5.564 39.5304 5.564 39.5312C5.564 39.5319 5.564 39.5326 5.564 39.5334C5.564 39.5341 5.564 39.5348 5.564 39.5356C5.564 39.5363 5.564 39.5371 5.564 39.5378C5.564 39.5385 5.564 39.5393 5.564 39.54C5.564 39.5407 5.564 39.5415 5.564 39.5422C5.564 39.543 5.564 39.5437 5.564 39.5444C5.564 39.5452 5.564 39.5459 5.564 39.5466C5.564 39.5474 5.564 39.5481 5.564 39.5489C5.564 39.5496 5.564 39.5503 5.564 39.5511C5.564 39.5518 5.564 39.5525 5.564 39.5533C5.564 39.554 5.564 39.5547 5.564 39.5555C5.564 39.5562 5.564 39.5569 5.564 39.5577C5.564 39.5584 5.564 39.5592 5.564 39.5599C5.564 39.5606 5.564 39.5614 5.564 39.5621C5.564 39.5628 5.564 39.5636 5.564 39.5643C5.564 39.565 5.564 39.5658 5.564 39.5665C5.564 39.5672 5.564 39.568 5.564 39.5687C5.564 39.5694 5.564 39.5702 5.564 39.5709C5.564 39.5716 5.564 39.5724 5.564 39.5731C5.564 39.5738 5.564 39.5746 5.564 39.5753C5.564 39.576 5.564 39.5768 5.564 39.5775C5.564 39.5782 5.564 39.579 5.564 39.5797C5.564 39.5804 5.564 39.5812 5.564 39.5819C5.564 39.5826 5.564 39.5834 5.564 39.5841C5.564 39.5848 5.564 39.5856 5.564 39.5863C5.564 39.587 5.564 39.5878 5.564 39.5885C5.564 39.5892 5.564 39.59 5.564 39.5907C5.564 39.5914 5.564 39.5922 5.564 39.5929C5.564 39.5936 5.564 39.5943 5.564 39.5951C5.564 39.5958 5.564 39.5965 5.564 39.5973C5.564 39.598 5.564 39.5987 5.564 39.5995C5.564 39.6002 5.564 39.6009 5.564 39.6017C5.564 39.6024 5.564 39.6031 5.564 39.6038C5.564 39.6046 5.564 39.6053 5.564 39.606C5.564 39.6068 5.564 39.6075 5.564 39.6082C5.564 39.609 5.564 39.6097 5.564 39.6104C5.564 39.6111 5.564 39.6119 5.564 39.6126C5.564 39.6133 5.564 39.6141 5.564 39.6148C5.564 39.6155 5.564 39.6162 5.564 39.617C5.564 39.6177 5.564 39.6184 5.564 39.6192C5.564 39.6199 5.564 39.6206 5.564 39.6213C5.564 39.6221 5.564 39.6228 5.564 39.6235C5.564 39.6243 5.564 39.625 5.564 39.6257C5.564 39.6264 5.564 39.6272 5.564 39.6279C5.564 39.6286 5.564 39.6294 5.564 39.6301C5.564 39.6308 5.564 39.6315 5.564 39.6323C5.564 39.633 5.564 39.6337 5.564 39.6344C5.564 39.6352 5.564 39.6359 5.564 39.6366C5.564 39.6374 5.564 39.6381 5.564 39.6388C5.564 39.6395 5.564 39.6403 5.564 39.641C5.564 39.6417 5.564 39.6424 5.564 39.6432C5.564 39.6439 5.564 39.6446 5.564 39.6453C5.564 39.6461 5.564 39.6468 5.564 39.6475C5.564 39.6482 5.564 39.649 5.564 39.6497C5.564 39.6504 5.564 39.6511 5.564 39.6519C5.564 39.6526 5.564 39.6533 5.564 39.654C5.564 39.6548 5.564 39.6555 5.564 39.6562C5.564 39.6569 5.564 39.6577 5.564 39.6584C5.564 39.6591 5.564 39.6598 5.564 39.6606C5.564 39.6613 5.564 39.662 5.564 39.6627C5.564 39.6635 5.564 39.6642 5.564 39.6649C5.564 39.6656 5.564 39.6663 5.564 39.6671C5.564 39.6678 5.564 39.6685 5.564 39.6692C5.564 39.67 5.564 39.6707 5.564 39.6714C5.564 39.6721 5.564 39.6729 5.564 39.6736C5.564 39.6743 5.564 39.675 5.564 39.6757C5.564 39.6765 5.564 39.6772 5.564 39.6779C5.564 39.6786 5.564 39.6794 5.564 39.6801C5.564 39.6808 5.564 39.6815 5.564 39.6822C5.564 39.683 5.564 39.6837 5.564 39.6844C5.564 39.6851 5.564 39.6858 5.564 39.6866C5.564 39.6873 5.564 39.688 5.564 39.6887C5.564 39.6894 5.564 39.6902 5.564 39.6909C5.564 39.6916 5.564 39.6923 5.564 39.6931C5.564 39.6938 5.564 39.6945 5.564 39.6952C5.564 39.6959 5.564 39.6966 5.564 39.6974C5.564 39.6981 5.564 39.6988 5.564 39.6995C5.564 39.7002 5.564 39.701 5.564 39.7017C5.564 39.7024 5.564 39.7031 5.564 39.7038C5.564 39.7046 5.564 39.7053 5.564 39.706C5.564 39.7067 5.564 39.7074 5.564 39.7082C5.564 39.7089 5.564 39.7096 5.564 39.7103C5.564 39.711 5.564 39.7117 5.564 39.7125C5.564 39.7132 5.564 39.7139 5.564 39.7146C5.564 39.7153 5.564 39.7161 5.564 39.7168C5.564 39.7175 5.564 39.7182 5.564 39.7189C5.564 39.7196 5.564 39.7204 5.564 39.7211C5.564 39.7218 5.564 39.7225 5.564 39.7232C5.564 39.7239 5.564 39.7247 5.564 39.7254C5.564 39.7261 5.564 39.7268 5.564 39.7275C5.564 39.7282 5.564 39.729 5.564 39.7297C5.564 39.7304 5.564 39.7311 5.564 39.7318C5.564 39.7325 5.564 39.7333 5.564 39.734C5.564 39.7347 5.564 39.7354 5.564 39.7361C5.564 39.7368 5.564 39.7375 5.564 39.7383C5.564 39.739 5.564 39.7397 5.564 39.7404C5.564 39.7411 5.564 39.7418 5.564 39.7425C5.564 39.7433 5.564 39.744 5.564 39.7447C5.564 39.7454 5.564 39.7461 5.564 39.7468C5.564 39.7476 5.564 39.7483 5.564 39.749C5.564 39.7497 5.564 39.7504 5.564 39.7511C5.564 39.7518 5.564 39.7525 5.564 39.7533C5.564 39.754 5.564 39.7547 5.564 39.7554C5.564 39.7561 5.564 39.7568 5.564 39.7575C5.564 39.7583 5.564 39.759 5.564 39.7597C5.564 39.7604 5.564 39.7611 5.564 39.7618C5.564 39.7625 5.564 39.7632 5.564 39.764C5.564 39.7647 5.564 39.7654 5.564 39.7661C5.564 39.7668 5.564 39.7675 5.564 39.7682C5.564 39.7689 5.564 39.7696 5.564 39.7704C5.564 39.7711 5.564 39.7718 5.564 39.7725C5.564 39.7732 5.564 39.7739 5.564 39.7746C5.564 39.7753 5.564 39.776 5.564 39.7768C5.564 39.7775 5.564 39.7782 5.564 39.7789C5.564 39.7796 5.564 39.7803 5.564 39.781C5.564 39.7817 5.564 39.7824 5.564 39.7831C5.564 39.7839 5.564 39.7846 5.564 39.7853C5.564 39.786 5.564 39.7867 5.564 39.7874C5.564 39.7881 5.564 39.7888 5.564 39.7895C5.564 39.7902 5.564 39.791 5.564 39.7917C5.564 39.7924 5.564 39.7931 5.564 39.7938C5.564 39.7945 5.564 39.7952 5.564 39.7959C5.564 39.7966 5.564 39.7973 5.564 39.798C5.564 39.7987 5.564 39.7995 5.564 39.8002C5.564 39.8009 5.564 39.8016 5.564 39.8023C5.564 39.803 5.564 39.8037 5.564 39.8044C5.564 39.8051 5.564 39.8058 5.564 39.8065C5.564 39.8072 5.564 39.8079 5.564 39.8087C5.564 39.8094 5.564 39.8101 5.564 39.8108C5.564 39.8115 5.564 39.8122 5.564 39.8129C5.564 39.8136 5.564 39.8143 5.564 39.815C5.564 39.8157 5.564 39.8164 5.564 39.8171C5.564 39.8178 5.564 39.8185 5.564 39.8193C5.564 39.82 5.564 39.8207 5.564 39.8214C5.564 39.8221 5.564 39.8228 5.564 39.8235C5.564 39.8242 5.564 39.8249 5.564 39.8256C5.564 39.8263 5.564 39.827 5.564 39.8277C5.564 39.8284 5.564 39.8291 5.564 39.8298C5.564 39.8305 5.564 39.8312 5.564 39.8319C5.564 39.8326 5.564 39.8334 5.564 39.8341C5.564 39.8348 5.564 39.8355 5.564 39.8362C5.564 39.8369 5.564 39.8376 5.564 39.8383C5.564 39.839 5.564 39.8397 5.564 39.8404C5.564 39.8411 5.564 39.8418 5.564 39.8425C5.564 39.8432 5.564 39.8439 5.564 39.8446C5.564 39.8453 5.564 39.846 5.564 39.8467C5.564 39.8474 5.564 39.8481 5.564 39.8488C5.564 39.8495 5.564 39.8502 5.564 39.8509C5.564 39.8516 5.564 39.8523 5.564 39.853C5.564 39.8537 5.564 39.8544 5.564 39.8551C5.564 39.8558 5.564 39.8565 5.564 39.8572C5.564 39.8579 5.564 39.8587 5.564 39.8594C5.564 39.8601 5.564 39.8608 5.564 39.8615C5.564 39.8622 5.564 39.8629 5.564 39.8636C5.564 39.8643 5.564 39.865 5.564 39.8657C5.564 39.8664 5.564 39.8671 5.564 39.8678C5.564 39.8685 5.564 39.8692 5.564 39.8699C5.564 39.8706 5.564 39.8713 5.564 39.872C5.564 39.8727 5.564 39.8734 5.564 39.8741C5.564 39.8748 5.564 39.8755 5.564 39.8762C5.564 39.8769 5.564 39.8776 5.564 39.8783C5.564 39.879 5.564 39.8797 5.564 39.8803C5.564 39.8811 5.564 39.8817 5.564 39.8824C5.564 39.8831 5.564 39.8838 5.564 39.8845C5.564 39.8852 5.564 39.8859 5.564 39.8866C5.564 39.8873 5.564 39.888 5.564 39.8887C5.564 39.8894 5.564 39.8901 5.564 39.8908C5.564 39.8915 5.564 39.8922 5.564 39.8929C5.564 39.8936 5.564 39.8943 5.564 39.895C5.564 39.8957 5.564 39.8964 5.564 39.8971C5.564 39.8978 5.564 39.8985 5.564 39.8992C5.564 39.8999 5.564 39.9006 5.564 39.9013C5.564 39.902 5.564 39.9027 5.564 39.9034C5.564 39.9041 5.564 39.9048 5.564 39.9055C5.564 39.9061 5.564 39.9068 5.564 39.9075C5.564 39.9082 5.564 39.9089 5.564 39.9096C5.564 39.9103 5.564 39.911 5.564 39.9117C5.564 39.9124 5.564 39.9131 5.564 39.9138C5.564 39.9145 5.564 39.9152 5.564 39.9159C5.564 39.9166 5.564 39.9173 5.564 39.918C5.564 39.9187 5.564 39.9193 5.564 39.92C5.564 39.9207 5.564 39.9214 5.564 39.9221C5.564 39.9228 5.564 39.9235 5.564 39.9242C5.564 39.9249 5.564 39.9256 5.564 39.9263C5.564 39.927 5.564 39.9277 5.564 39.9284C5.564 39.9291 5.564 39.9298 5.564 39.9304C5.564 39.9311 5.564 39.9318 5.564 39.9325C5.564 39.9332 5.564 39.9339 5.564 39.9346C5.564 39.9353 5.564 39.936 5.564 39.9367C5.564 39.9374 5.564 39.9381 5.564 39.9388C5.564 39.9394 5.564 39.9401 5.564 39.9408C5.564 39.9415 5.564 39.9422 5.564 39.9429C5.564 39.9436 5.564 39.9443 5.564 39.945C5.564 39.9457 5.564 39.9464 5.564 39.9471C5.564 39.9477 5.564 39.9484 5.564 39.9491C5.564 39.9498 5.564 39.9505 5.564 39.9512C5.564 39.9519 5.564 39.9526 5.564 39.9533C5.564 39.954 5.564 39.9546 5.564 39.9553C5.564 39.956 5.564 39.9567 5.564 39.9574C5.564 39.9581 5.564 39.9588 5.564 39.9595C5.564 39.9602 5.564 39.9609 5.564 39.9615C5.564 39.9622 5.564 39.9629 5.564 39.9636C5.564 39.9643 5.564 39.965 5.564 39.9657C5.564 39.9664 5.564 39.9671 5.564 39.9677C5.564 39.9684 5.564 39.9691 5.564 39.9698C5.564 39.9705 5.564 39.9712 5.564 39.9719C5.564 39.9726 5.564 39.9732 5.564 39.9739C5.564 39.9746 5.564 39.9753 5.564 39.976C5.564 39.9767 5.564 39.9774 5.564 39.9781C5.564 39.9787 5.564 39.9794 5.564 39.9801C5.564 39.9808 5.564 39.9815 5.564 39.9822C5.564 39.9829 5.564 39.9836 5.564 39.9842C5.564 39.9849 5.564 39.9856 5.564 39.9863C5.564 39.987 5.564 39.9877 5.564 39.9884C5.564 39.989 5.564 39.9897 5.564 39.9904C5.564 39.9911 5.564 39.9918 5.564 39.9925C5.564 39.9932 5.564 39.9938 5.564 39.9945C5.564 39.9952 5.564 39.9959 5.564 39.9966C5.564 39.9973 5.564 39.998 5.564 39.9986C5.564 39.9993 5.564 40 5.564 40.0007C5.564 40.0014 5.564 40.0021 5.564 40.0028C5.564 40.0034 5.564 40.0041 5.564 40.0048C5.564 40.0055 5.564 40.0062 5.564 40.0069C5.564 40.0075 5.564 40.0082 5.564 40.0089C5.564 40.0096 5.564 40.0103 5.564 40.011C5.564 40.0116 5.564 40.0123 5.564 40.013C5.564 40.0137 5.564 40.0144 5.564 40.0151C5.564 40.0157 5.564 40.0164 5.564 40.0171C5.564 40.0178 5.564 40.0185 5.564 40.0191C5.564 40.0198 5.564 40.0205 5.564 40.0212C5.564 40.0219 5.564 40.0226 5.564 40.0232C5.564 40.0239 5.564 40.0246 5.564 40.0253C5.564 40.026 5.564 40.0267 5.564 40.0273C5.564 40.028 5.564 40.0287 5.564 40.0294C5.564 40.0301 5.564 40.0307 5.564 40.0314C5.564 40.0321 5.564 40.0328 5.564 40.0335C5.564 40.0341 5.564 40.0348 5.564 40.0355C5.564 40.0362 5.564 40.0369 5.564 40.0375C5.564 40.0382 5.564 40.0389 5.564 40.0396C5.564 40.0403 5.564 40.0409 5.564 40.0416C5.564 40.0423 5.564 40.043 5.564 40.0437C5.564 40.0443 5.564 40.045 5.564 40.0457C5.564 40.0464 5.564 40.0471 5.564 40.0477C5.564 40.0484 5.564 40.0491 5.564 40.0498C5.564 40.0505 5.564 40.0511 5.564 40.0518C5.564 40.0525 5.564 40.0532 5.564 40.0538C5.564 40.0545 5.564 40.0552 5.564 40.0559C5.564 40.0566 5.564 40.0572 5.564 40.0579C5.564 40.0586 5.564 40.0593 5.564 40.0599C5.564 40.0606 5.564 40.0613 5.564 40.062C5.564 40.0627 5.564 40.0633 5.564 40.064C5.564 40.0647 5.564 40.0654 5.564 40.066C5.564 40.0667 5.564 40.0674 5.564 40.0681C5.564 40.0687 5.564 40.0694 5.564 40.0701C5.564 40.0708 5.564 40.0715 5.564 40.0721C5.564 40.0728 5.564 40.0735 5.564 40.0742C5.564 40.0748 5.564 40.0755 5.564 40.0762C5.564 40.0769 5.564 40.0775 5.564 40.0782C5.564 40.0789 5.564 40.0796 5.564 40.0802C5.564 40.0809 5.564 40.0816 5.564 40.0823C5.564 40.0829 5.564 40.0836 5.564 40.0843C5.564 40.085 5.564 40.0856 5.564 40.0863C5.564 40.087 5.564 40.0877 5.564 40.0883C5.564 40.089 5.564 40.0897 5.564 40.0904C5.564 40.091 5.564 40.0917 5.564 40.0924C5.564 40.093 5.564 40.0937 5.564 40.0944C5.564 40.0951 5.564 40.0957 5.564 40.0964C5.564 40.0971 5.564 40.0978 5.564 40.0984C5.564 40.0991 5.564 40.0998 5.564 40.1004C5.564 40.1011 5.564 40.1018 5.564 40.1025C5.564 40.1031 5.564 40.1038 5.564 40.1045C5.564 40.1052 5.564 40.1058 5.564 40.1065C5.564 40.1072 5.564 40.1078 5.564 40.1085C5.564 40.1092 5.564 40.1099 5.564 40.1105C5.564 40.1112 5.564 40.1119 5.564 40.1125C5.564 40.1132 5.564 40.1139 5.564 40.1146C5.564 40.1152 5.564 40.1159 5.564 40.1166C5.564 40.1172 5.564 40.1179 5.564 40.1186C5.564 40.1193 5.564 40.1199 5.564 40.1206C5.564 40.1213 5.564 40.1219 5.564 40.1226C5.564 40.1233 5.564 40.1239 5.564 40.1246C5.564 40.1253 5.564 40.1259 5.564 40.1266C5.564 40.1273 5.564 40.128 5.564 40.1286C5.564 40.1293 5.564 40.13 5.564 40.1306C5.564 40.1313 5.564 40.132 5.564 40.1326C5.564 40.1333 5.564 40.134 5.564 40.1346C5.564 40.1353 5.564 40.136 5.564 40.1367C5.564 40.1373 5.564 40.138 5.564 40.1387C5.564 40.1393 5.564 40.14 5.564 40.1407C5.564 40.1413 5.564 40.142 5.564 40.1427C5.564 40.1433 5.564 40.144 5.564 40.1447C5.564 40.1453 5.564 40.146 5.564 40.1467C5.564 40.1473 5.564 40.148 5.564 40.1487C5.564 40.1493 5.564 40.15 5.564 40.1507C5.564 40.1513 5.564 40.152 5.564 40.1527C5.564 40.1533 5.564 40.154 5.564 40.1547C5.564 40.1553 5.564 40.156 5.564 40.1567C5.564 40.1573 5.564 40.158 5.564 40.1587C5.564 40.1593 5.564 40.16 5.564 40.1607C5.564 40.1613 5.564 40.162 5.564 40.1627C5.564 40.1633 5.564 40.164 5.564 40.1646C5.564 40.1653 5.564 40.166 5.564 40.1666C5.564 40.1673 5.564 40.168 5.564 40.1686C5.564 40.1693 5.564 40.17 5.564 40.1706C5.564 40.1713 5.564 40.172 5.564 40.1726C5.564 40.1733 5.564 40.1739 5.564 40.1746C5.564 40.1753 5.564 40.1759 5.564 40.1766C5.564 40.1773 5.564 40.1779 5.564 40.1786C5.564 40.1793 5.564 40.1799 5.564 40.1806C5.564 40.1812 5.564 40.1819 5.564 40.1826C5.564 40.1832 5.564 40.1839 5.564 40.1846C5.564 40.1852 5.564 40.1859 5.564 40.1865C5.564 40.1872 5.564 40.1879 5.564 40.1885C5.564 40.1892 5.564 40.1898 5.564 40.1905C5.564 40.1912 5.564 40.1918 5.564 40.1925C5.564 40.1932 5.564 40.1938 5.564 40.1945C5.564 40.1951 5.564 40.1958 5.564 40.1965C5.564 40.1971 5.564 40.1978 5.564 40.1984C5.564 40.1991 5.564 40.1998 5.564 40.2004C5.564 40.2011 5.564 40.2017 5.564 40.2024C5.564 40.2031 5.564 40.2037 5.564 40.2044C5.564 40.205 5.564 40.2057 5.564 40.2064C5.564 40.207 5.564 40.2077 5.564 40.2083C5.564 40.209 5.564 40.2097 5.564 40.2103C5.564 40.211 5.564 40.2116 5.564 40.2123C5.564 40.213 5.564 40.2136 5.564 40.2143C5.564 40.2149 5.564 40.2156 5.564 40.2163C5.564 40.2169 5.564 40.2176 5.564 40.2182C5.564 40.2189 5.564 40.2195 5.564 40.2202C5.564 40.2209 5.564 40.2215 5.564 40.2222C5.564 40.2228 5.564 40.2235 5.564 40.2241C5.564 40.2248 5.564 40.2255 5.564 40.2261C5.564 40.2268 5.564 40.2274 5.564 40.2281C5.564 40.2287 5.564 40.2294 5.564 40.2301C5.564 40.2307 5.564 40.2314 5.564 40.232C5.564 40.2327 5.564 40.2333 5.564 40.234C5.564 40.2347 5.564 40.2353 5.564 40.236C5.564 40.2366 5.564 40.2373 5.564 40.2379C5.564 40.2386 5.564 40.2392 5.564 40.2399C5.564 40.2406 5.564 40.2412 5.564 40.2419C5.564 40.2425 5.564 40.2432 5.564 40.2438C5.564 40.2445 5.564 40.2451 5.564 40.2458C5.564 40.2465 5.564 40.2471 5.564 40.2478C5.564 40.2484 5.564 40.2491 5.564 40.2497C5.564 40.2504 5.564 40.251 5.564 40.2517C5.564 40.2523 5.564 40.253 5.564 40.2537C5.564 40.2543 5.564 40.255 5.564 40.2556C5.564 40.2563 5.564 40.2569 5.564 40.2576C5.564 40.2582 5.564 40.2589 5.564 40.2595C5.564 40.2602 5.564 40.2608 5.564 40.2615C5.564 40.2621 5.564 40.2628 5.564 40.2635C5.564 40.2641 5.564 40.2648 5.564 40.2654C5.564 40.2661 5.564 40.2667 5.564 40.2674C5.564 40.268 5.564 40.2687 5.564 40.2693C5.564 40.27 5.564 40.2706 5.564 40.2713C5.564 40.2719 5.564 40.2726 5.564 40.2732C5.564 40.2739 5.564 40.2745 5.564 40.2752C5.564 40.2758 5.564 40.2765 5.564 40.2771C5.564 40.2778 5.564 40.2784 5.564 40.2791C5.564 40.2797 5.564 40.2804 5.564 40.281C5.564 40.2817 5.564 40.2823 5.564 40.283C5.564 40.2836 5.564 40.2843 5.564 40.2849C5.564 40.2856 5.564 40.2862 5.564 40.2869C5.564 40.2875 5.564 40.2882 5.564 40.2888C5.564 40.2895 5.564 40.2901 5.564 40.2908C5.564 40.2914 5.564 40.2921 5.564 40.2927C5.564 40.2934 5.564 40.294 5.564 40.2947C5.564 40.2953 5.564 40.296 5.564 40.2966C5.564 40.2973 5.564 40.2979 5.564 40.2986C5.564 40.2992 5.564 40.2999 5.564 40.3005C5.564 40.3012 5.564 40.3018 5.564 40.3025C5.564 40.3031 5.564 40.3038 5.564 40.3044C5.564 40.305 5.564 40.3057 5.564 40.3063C5.564 40.307 5.564 40.3076 5.564 40.3083C5.564 40.3089 5.564 40.3096 5.564 40.3102C5.564 40.3109 5.564 40.3115 5.564 40.3122C5.564 40.3128 5.564 40.3135 5.564 40.3141C5.564 40.3148 5.564 40.3154 5.564 40.316C5.564 40.3167 5.564 40.3173 5.564 40.318C5.564 40.3186 5.564 40.3193 5.564 40.3199C5.564 40.3206 5.564 40.3212 5.564 40.3219C5.564 40.3225 5.564 40.3231 5.564 40.3238C5.564 40.3244 5.564 40.3251 5.564 40.3257C5.564 40.3264 5.564 40.327 5.564 40.3277C5.564 40.3283 5.564 40.3289 5.564 40.3296C5.564 40.3302 5.564 40.3309 5.564 40.3315C5.564 40.3322 5.564 40.3328 5.564 40.3335C5.564 40.3341 5.564 40.3347 5.564 40.3354C5.564 40.336 5.564 40.3367 5.564 40.3373C5.564 40.338 5.564 40.3386 5.564 40.3392C5.564 40.3399 5.564 40.3405 5.564 40.3412C5.564 40.3418 5.564 40.3425 5.564 40.3431C5.564 40.3437 5.564 40.3444 5.564 40.345C5.564 40.3457 5.564 40.3463 5.564 40.347C5.564 40.3476 5.564 40.3482 5.564 40.3489C5.564 40.3495 5.564 40.3502 5.564 40.3508C5.564 40.3514 5.564 40.3521 5.564 40.3527C5.564 40.3534 5.564 40.354 5.564 40.3547C5.564 40.3553 5.564 40.3559 5.564 40.3566C5.564 40.3572 5.564 40.3579 5.564 40.3585C5.564 40.3591 5.564 40.3598 5.564 40.3604C5.564 40.3611 5.564 40.3617 5.564 40.3623C5.564 40.363 5.564 40.3636 5.564 40.3643C5.564 40.3649 5.564 40.3655 5.564 40.3662C5.564 40.3668 5.564 40.3675 5.564 40.3681C5.564 40.3687 5.564 40.3694 5.564 40.37C5.564 40.3707 5.564 40.3713 5.564 40.3719C5.564 40.3726 5.564 40.3732 5.564 40.3739C5.564 40.3745 5.564 40.3751 5.564 40.3758C5.564 40.3764 5.564 40.377 5.564 40.3777C5.564 40.3783 5.564 40.379 5.564 40.3796C5.564 40.3802 5.564 40.3809 5.564 40.3815C5.564 40.3821 5.564 40.3828 5.564 40.3834C5.564 40.3841 5.564 40.3847 5.564 40.3853C5.564 40.386 5.564 40.3866 5.564 40.3872C5.564 40.3879 5.564 40.3885 5.564 40.3892C5.564 40.3898 5.564 40.3904 5.564 40.3911C5.564 40.3917 5.564 40.3923 5.564 40.393C5.564 40.3936 5.564 40.3942 5.564 40.3949C5.564 40.3955 5.564 40.3962 5.564 40.3968C5.564 40.3974 5.564 40.3981 5.564 40.3987C5.564 40.3993 5.564 40.4 5.564 40.4006C5.564 40.4012 5.564 40.4019 5.564 40.4025C5.564 40.4031 5.564 40.4038 5.564 40.4044C5.564 40.405 5.564 40.4057 5.564 40.4063C5.564 40.407 5.564 40.4076 5.564 40.4082C5.564 40.4089 5.564 40.4095 5.564 40.4101C5.564 40.4108 5.564 40.4114 5.564 40.412C5.564 40.4127 5.564 40.4133 5.564 40.4139C5.564 40.4146 5.564 40.4152 5.564 40.4158C5.564 40.4165 5.564 40.4171 5.564 40.4177C5.564 40.4184 5.564 40.419 5.564 40.4196C5.564 40.4203 5.564 40.4209 5.564 40.4215C5.564 40.4222 5.564 40.4228 5.564 40.4234C5.564 40.4241 5.564 40.4247 5.564 40.4253C5.564 40.4259 5.564 40.4266 5.564 40.4272C5.564 40.4278 5.564 40.4285 5.564 40.4291C5.564 40.4297 5.564 40.4304 5.564 40.431C5.564 40.4316 5.564 40.4323 5.564 40.4329C5.564 40.4335 5.564 40.4342 5.564 40.4348C5.564 40.4354 5.564 40.4361 5.564 40.4367C5.564 40.4373 5.564 40.4379 5.564 40.4386C5.564 40.4392 5.564 40.4398 5.564 40.4405C5.564 40.4411 5.564 40.4417 5.564 40.4424C5.564 40.443 5.564 40.4436 5.564 40.4442C5.564 40.4449 5.564 40.4455 5.564 40.4461C5.564 40.4468 5.564 40.4474 5.564 40.448C5.564 40.4486 5.564 40.4493 5.564 40.4499C5.564 40.4505 5.564 40.4512 5.564 40.4518C5.564 40.4524 5.564 40.453 5.564 40.4537C5.564 40.4543 5.564 40.4549 5.564 40.4556C5.564 40.4562 5.564 40.4568 5.564 40.4574C5.564 40.4581 5.564 40.4587 5.564 40.4593C5.564 40.46 5.564 40.4606 5.564 40.4612C5.564 40.4618 5.564 40.4625 5.564 40.4631C5.564 40.4637 5.564 40.4643 5.564 40.465C5.564 40.4656 5.564 40.4662 5.564 40.4669C5.564 40.4675 5.564 40.4681 5.564 40.4687C5.564 40.4694 5.564 40.47 5.564 40.4706C5.564 40.4712 5.564 40.4719 5.564 40.4725C5.564 40.4731 5.564 40.4737 5.564 40.4744C5.564 40.475 5.564 40.4756 5.564 40.4762C5.564 40.4769 5.564 40.4775 5.564 40.4781C5.564 40.4787 5.564 40.4794 5.564 40.48H6.564ZM6.564 39.424C6.564 39.4232 6.564 39.4225 6.564 39.4217C6.564 39.421 6.564 39.4202 6.564 39.4195C6.564 39.4187 6.564 39.418 6.564 39.4172C6.564 39.4165 6.564 39.4157 6.564 39.415C6.564 39.4142 6.564 39.4135 6.564 39.4127C6.564 39.412 6.564 39.4112 6.564 39.4105C6.564 39.4097 6.564 39.4089 6.564 39.4082C6.564 39.4074 6.564 39.4067 6.564 39.4059C6.564 39.4052 6.564 39.4044 6.564 39.4037C6.564 39.4029 6.564 39.4021 6.564 39.4014C6.564 39.4006 6.564 39.3999 6.564 39.3991C6.564 39.3983 6.564 39.3976 6.564 39.3968C6.564 39.3961 6.564 39.3953 6.564 39.3946C6.564 39.3938 6.564 39.393 6.564 39.3923C6.564 39.3915 6.564 39.3907 6.564 39.39C6.564 39.3892 6.564 39.3885 6.564 39.3877C6.564 39.3869 6.564 39.3862 6.564 39.3854C6.564 39.3846 6.564 39.3839 6.564 39.3831C6.564 39.3824 6.564 39.3816 6.564 39.3808C6.564 39.3801 6.564 39.3793 6.564 39.3785C6.564 39.3778 6.564 39.377 6.564 39.3762C6.564 39.3755 6.564 39.3747 6.564 39.3739C6.564 39.3732 6.564 39.3724 6.564 39.3716C6.564 39.3709 6.564 39.3701 6.564 39.3693C6.564 39.3685 6.564 39.3678 6.564 39.367C6.564 39.3662 6.564 39.3655 6.564 39.3647C6.564 39.3639 6.564 39.3632 6.564 39.3624C6.564 39.3616 6.564 39.3608 6.564 39.3601C6.564 39.3593 6.564 39.3585 6.564 39.3577C6.564 39.357 6.564 39.3562 6.564 39.3554C6.564 39.3547 6.564 39.3539 6.564 39.3531C6.564 39.3523 6.564 39.3516 6.564 39.3508C6.564 39.35 6.564 39.3492 6.564 39.3485C6.564 39.3477 6.564 39.3469 6.564 39.3461C6.564 39.3453 6.564 39.3446 6.564 39.3438C6.564 39.343 6.564 39.3422 6.564 39.3415C6.564 39.3407 6.564 39.3399 6.564 39.3391C6.564 39.3383 6.564 39.3376 6.564 39.3368C6.564 39.336 6.564 39.3352 6.564 39.3344C6.564 39.3337 6.564 39.3329 6.564 39.3321C6.564 39.3313 6.564 39.3305 6.564 39.3298C6.564 39.329 6.564 39.3282 6.564 39.3274C6.564 39.3266 6.564 39.3258 6.564 39.3251C6.564 39.3243 6.564 39.3235 6.564 39.3227C6.564 39.3219 6.564 39.3211 6.564 39.3203C6.564 39.3196 6.564 39.3188 6.564 39.318C6.564 39.3172 6.564 39.3164 6.564 39.3156C6.564 39.3148 6.564 39.314 6.564 39.3133C6.564 39.3125 6.564 39.3117 6.564 39.3109C6.564 39.3101 6.564 39.3093 6.564 39.3085C6.564 39.3077 6.564 39.3069 6.564 39.3062C6.564 39.3054 6.564 39.3046 6.564 39.3038C6.564 39.303 6.564 39.3022 6.564 39.3014C6.564 39.3006 6.564 39.2998 6.564 39.299C6.564 39.2982 6.564 39.2974 6.564 39.2966C6.564 39.2959 6.564 39.2951 6.564 39.2943C6.564 39.2935 6.564 39.2927 6.564 39.2919C6.564 39.2911 6.564 39.2903 6.564 39.2895C6.564 39.2887 6.564 39.2879 6.564 39.2871C6.564 39.2863 6.564 39.2855 6.564 39.2847C6.564 39.2839 6.564 39.2831 6.564 39.2823C6.564 39.2815 6.564 39.2807 6.564 39.2799C6.564 39.2791 6.564 39.2783 6.564 39.2775C6.564 39.2767 6.564 39.2759 6.564 39.2751C6.564 39.2743 6.564 39.2735 6.564 39.2727C6.564 39.2719 6.564 39.2711 6.564 39.2703C6.564 39.2695 6.564 39.2687 6.564 39.2679C6.564 39.2671 6.564 39.2663 6.564 39.2655C6.564 39.2647 6.564 39.2639 6.564 39.2631C6.564 39.2623 6.564 39.2615 6.564 39.2607C6.564 39.2599 6.564 39.2591 6.564 39.2583C6.564 39.2574 6.564 39.2566 6.564 39.2558C6.564 39.255 6.564 39.2542 6.564 39.2534C6.564 39.2526 6.564 39.2518 6.564 39.251C6.564 39.2502 6.564 39.2494 6.564 39.2486C6.564 39.2477 6.564 39.2469 6.564 39.2461C6.564 39.2453 6.564 39.2445 6.564 39.2437C6.564 39.2429 6.564 39.2421 6.564 39.2413C6.564 39.2404 6.564 39.2396 6.564 39.2388C6.564 39.238 6.564 39.2372 6.564 39.2364C6.564 39.2356 6.564 39.2348 6.564 39.2339C6.564 39.2331 6.564 39.2323 6.564 39.2315C6.564 39.2307 6.564 39.2299 6.564 39.229C6.564 39.2282 6.564 39.2274 6.564 39.2266C6.564 39.2258 6.564 39.225 6.564 39.2242C6.564 39.2233 6.564 39.2225 6.564 39.2217C6.564 39.2209 6.564 39.2201 6.564 39.2192C6.564 39.2184 6.564 39.2176 6.564 39.2168C6.564 39.216 6.564 39.2151 6.564 39.2143C6.564 39.2135 6.564 39.2127 6.564 39.2119C6.564 39.211 6.564 39.2102 6.564 39.2094C6.564 39.2086 6.564 39.2077 6.564 39.2069C6.564 39.2061 6.564 39.2053 6.564 39.2045C6.564 39.2036 6.564 39.2028 6.564 39.202C6.564 39.2012 6.564 39.2003 6.564 39.1995C6.564 39.1987 6.564 39.1979 6.564 39.197C6.564 39.1962 6.564 39.1954 6.564 39.1945C6.564 39.1937 6.564 39.1929 6.564 39.1921C6.564 39.1912 6.564 39.1904 6.564 39.1896C6.564 39.1888 6.564 39.1879 6.564 39.1871C6.564 39.1863 6.564 39.1854 6.564 39.1846C6.564 39.1838 6.564 39.1829 6.564 39.1821C6.564 39.1813 6.564 39.1805 6.564 39.1796C6.564 39.1788 6.564 39.178 6.564 39.1771C6.564 39.1763 6.564 39.1755 6.564 39.1746C6.564 39.1738 6.564 39.173 6.564 39.1721C6.564 39.1713 6.564 39.1705 6.564 39.1696C6.564 39.1688 6.564 39.168 6.564 39.1671C6.564 39.1663 6.564 39.1654 6.564 39.1646C6.564 39.1638 6.564 39.1629 6.564 39.1621C6.564 39.1613 6.564 39.1604 6.564 39.1596C6.564 39.1587 6.564 39.1579 6.564 39.1571C6.564 39.1562 6.564 39.1554 6.564 39.1546C6.564 39.1537 6.564 39.1529 6.564 39.152C6.564 39.1512 6.564 39.1504 6.564 39.1495C6.564 39.1487 6.564 39.1478 6.564 39.147C6.564 39.1461 6.564 39.1453 6.564 39.1445C6.564 39.1436 6.564 39.1428 6.564 39.1419C6.564 39.1411 6.564 39.1402 6.564 39.1394C6.564 39.1385 6.564 39.1377 6.564 39.1369C6.564 39.136 6.564 39.1352 6.564 39.1343C6.564 39.1335 6.564 39.1326 6.564 39.1318C6.564 39.1309 6.564 39.1301 6.564 39.1292C6.564 39.1284 6.564 39.1275 6.564 39.1267C6.564 39.1259 6.564 39.125 6.564 39.1242C6.564 39.1233 6.564 39.1225 6.564 39.1216C6.564 39.1208 6.564 39.1199 6.564 39.1191C6.564 39.1182 6.564 39.1174 6.564 39.1165C6.564 39.1157 6.564 39.1148 6.564 39.1139C6.564 39.1131 6.564 39.1122 6.564 39.1114C6.564 39.1105 6.564 39.1097 6.564 39.1088C6.564 39.108 6.564 39.1071 6.564 39.1063C6.564 39.1054 6.564 39.1046 6.564 39.1037C6.564 39.1028 6.564 39.102 6.564 39.1011C6.564 39.1003 6.564 39.0994 6.564 39.0986C6.564 39.0977 6.564 39.0968 6.564 39.096C6.564 39.0951 6.564 39.0943 6.564 39.0934C6.564 39.0926 6.564 39.0917 6.564 39.0908C6.564 39.09 6.564 39.0891 6.564 39.0883C6.564 39.0874 6.564 39.0865 6.564 39.0857C6.564 39.0848 6.564 39.084 6.564 39.0831C6.564 39.0822 6.564 39.0814 6.564 39.0805C6.564 39.0796 6.564 39.0788 6.564 39.0779C6.564 39.077 6.564 39.0762 6.564 39.0753C6.564 39.0745 6.564 39.0736 6.564 39.0727C6.564 39.0719 6.564 39.071 6.564 39.0701C6.564 39.0693 6.564 39.0684 6.564 39.0675C6.564 39.0667 6.564 39.0658 6.564 39.0649C6.564 39.0641 6.564 39.0632 6.564 39.0623C6.564 39.0615 6.564 39.0606 6.564 39.0597C6.564 39.0589 6.564 39.058 6.564 39.0571C6.564 39.0562 6.564 39.0554 6.564 39.0545C6.564 39.0536 6.564 39.0528 6.564 39.0519C6.564 39.051 6.564 39.0501 6.564 39.0493C6.564 39.0484 6.564 39.0475 6.564 39.0467C6.564 39.0458 6.564 39.0449 6.564 39.044C6.564 39.0432 6.564 39.0423 6.564 39.0414C6.564 39.0405 6.564 39.0397 6.564 39.0388C6.564 39.0379 6.564 39.037 6.564 39.0362C6.564 39.0353 6.564 39.0344 6.564 39.0335C6.564 39.0327 6.564 39.0318 6.564 39.0309C6.564 39.03 6.564 39.0291 6.564 39.0283C6.564 39.0274 6.564 39.0265 6.564 39.0256C6.564 39.0247 6.564 39.0239 6.564 39.023C6.564 39.0221 6.564 39.0212 6.564 39.0203C6.564 39.0195 6.564 39.0186 6.564 39.0177C6.564 39.0168 6.564 39.0159 6.564 39.0151C6.564 39.0142 6.564 39.0133 6.564 39.0124C6.564 39.0115 6.564 39.0106 6.564 39.0098C6.564 39.0089 6.564 39.008 6.564 39.0071C6.564 39.0062 6.564 39.0053 6.564 39.0044C6.564 39.0036 6.564 39.0027 6.564 39.0018C6.564 39.0009 6.564 39 6.564 38.9991C6.564 38.9982 6.564 38.9974 6.564 38.9965C6.564 38.9956 6.564 38.9947 6.564 38.9938C6.564 38.9929 6.564 38.992 6.564 38.9911C6.564 38.9902 6.564 38.9894 6.564 38.9885C6.564 38.9876 6.564 38.9867 6.564 38.9858C6.564 38.9849 6.564 38.984 6.564 38.9831C6.564 38.9822 6.564 38.9813 6.564 38.9804C6.564 38.9795 6.564 38.9787 6.564 38.9778C6.564 38.9769 6.564 38.976 6.564 38.9751C6.564 38.9742 6.564 38.9733 6.564 38.9724C6.564 38.9715 6.564 38.9706 6.564 38.9697C6.564 38.9688 6.564 38.9679 6.564 38.967C6.564 38.9661 6.564 38.9652 6.564 38.9643C6.564 38.9634 6.564 38.9625 6.564 38.9616C6.564 38.9607 6.564 38.9598 6.564 38.9589C6.564 38.958 6.564 38.9571 6.564 38.9562C6.564 38.9553 6.564 38.9544 6.564 38.9535C6.564 38.9526 6.564 38.9517 6.564 38.9508C6.564 38.9499 6.564 38.949 6.564 38.9481C6.564 38.9472 6.564 38.9463 6.564 38.9454C6.564 38.9445 6.564 38.9436 6.564 38.9427C6.564 38.9418 6.564 38.9409 6.564 38.94C6.564 38.9391 6.564 38.9382 6.564 38.9373C6.564 38.9364 6.564 38.9355 6.564 38.9346C6.564 38.9337 6.564 38.9327 6.564 38.9318C6.564 38.9309 6.564 38.93 6.564 38.9291C6.564 38.9282 6.564 38.9273 6.564 38.9264C6.564 38.9255 6.564 38.9246 6.564 38.9237C6.564 38.9228 6.564 38.9218 6.564 38.9209C6.564 38.92 6.564 38.9191 6.564 38.9182C6.564 38.9173 6.564 38.9164 6.564 38.9155C6.564 38.9146 6.564 38.9136 6.564 38.9127C6.564 38.9118 6.564 38.9109 6.564 38.91C6.564 38.9091 6.564 38.9082 6.564 38.9073C6.564 38.9063 6.564 38.9054 6.564 38.9045C6.564 38.9036 6.564 38.9027 6.564 38.9018C6.564 38.9008 6.564 38.8999 6.564 38.899C6.564 38.8981 6.564 38.8972 6.564 38.8963C6.564 38.8953 6.564 38.8944 6.564 38.8935C6.564 38.8926 6.564 38.8917 6.564 38.8908C6.564 38.8898 6.564 38.8889 6.564 38.888C6.564 38.8871 6.564 38.8862 6.564 38.8852C6.564 38.8843 6.564 38.8834 6.564 38.8825C6.564 38.8815 6.564 38.8806 6.564 38.8797C6.564 38.8788 6.564 38.8779 6.564 38.8769C6.564 38.876 6.564 38.8751 6.564 38.8742C6.564 38.8732 6.564 38.8723 6.564 38.8714C6.564 38.8705 6.564 38.8695 6.564 38.8686C6.564 38.8677 6.564 38.8668 6.564 38.8658C6.564 38.8649 6.564 38.864 6.564 38.8631C6.564 38.8621 6.564 38.8612 6.564 38.8603C6.564 38.8594 6.564 38.8584 6.564 38.8575C6.564 38.8566 6.564 38.8556 6.564 38.8547C6.564 38.8538 6.564 38.8529 6.564 38.8519C6.564 38.851 6.564 38.8501 6.564 38.8491C6.564 38.8482 6.564 38.8473 6.564 38.8463C6.564 38.8454 6.564 38.8445 6.564 38.8435C6.564 38.8426 6.564 38.8417 6.564 38.8407C6.564 38.8398 6.564 38.8389 6.564 38.8379C6.564 38.837 6.564 38.8361 6.564 38.8351C6.564 38.8342 6.564 38.8333 6.564 38.8323C6.564 38.8314 6.564 38.8305 6.564 38.8295C6.564 38.8286 6.564 38.8276 6.564 38.8267C6.564 38.8258 6.564 38.8248 6.564 38.8239C6.564 38.823 6.564 38.822 6.564 38.8211C6.564 38.8201 6.564 38.8192 6.564 38.8183C6.564 38.8173 6.564 38.8164 6.564 38.8154C6.564 38.8145 6.564 38.8136 6.564 38.8126C6.564 38.8117 6.564 38.8107 6.564 38.8098C6.564 38.8089 6.564 38.8079 6.564 38.807C6.564 38.806 6.564 38.8051 6.564 38.8041C6.564 38.8032 6.564 38.8023 6.564 38.8013C6.564 38.8004 6.564 38.7994 6.564 38.7985C6.564 38.7975 6.564 38.7966 6.564 38.7956C6.564 38.7947 6.564 38.7937 6.564 38.7928C6.564 38.7919 6.564 38.7909 6.564 38.79C6.564 38.789 6.564 38.7881 6.564 38.7871C6.564 38.7862 6.564 38.7852 6.564 38.7843C6.564 38.7833 6.564 38.7824 6.564 38.7814C6.564 38.7805 6.564 38.7795 6.564 38.7786C6.564 38.7776 6.564 38.7767 6.564 38.7757C6.564 38.7748 6.564 38.7738 6.564 38.7729C6.564 38.7719 6.564 38.771 6.564 38.77C6.564 38.769 6.564 38.7681 6.564 38.7671C6.564 38.7662 6.564 38.7652 6.564 38.7643C6.564 38.7633 6.564 38.7624 6.564 38.7614C6.564 38.7605 6.564 38.7595 6.564 38.7585C6.564 38.7576 6.564 38.7566 6.564 38.7557C6.564 38.7547 6.564 38.7538 6.564 38.7528C6.564 38.7518 6.564 38.7509 6.564 38.7499C6.564 38.749 6.564 38.748 6.564 38.747C6.564 38.7461 6.564 38.7451 6.564 38.7442C6.564 38.7432 6.564 38.7422 6.564 38.7413C6.564 38.7403 6.564 38.7394 6.564 38.7384C6.564 38.7374 6.564 38.7365 6.564 38.7355C6.564 38.7346 6.564 38.7336 6.564 38.7326C6.564 38.7317 6.564 38.7307 6.564 38.7297C6.564 38.7288 6.564 38.7278 6.564 38.7268C6.564 38.7259 6.564 38.7249 6.564 38.7239C6.564 38.723 6.564 38.722 6.564 38.721C6.564 38.7201 6.564 38.7191 6.564 38.7181C6.564 38.7172 6.564 38.7162 6.564 38.7152C6.564 38.7143 6.564 38.7133 6.564 38.7123C6.564 38.7114 6.564 38.7104 6.564 38.7094C6.564 38.7085 6.564 38.7075 6.564 38.7065C6.564 38.7055 6.564 38.7046 6.564 38.7036C6.564 38.7026 6.564 38.7017 6.564 38.7007C6.564 38.6997 6.564 38.6987 6.564 38.6978C6.564 38.6968 6.564 38.6958 6.564 38.6949C6.564 38.6939 6.564 38.6929 6.564 38.6919C6.564 38.691 6.564 38.69 6.564 38.689C6.564 38.688 6.564 38.6871 6.564 38.6861C6.564 38.6851 6.564 38.6841 6.564 38.6831C6.564 38.6822 6.564 38.6812 6.564 38.6802C6.564 38.6792 6.564 38.6783 6.564 38.6773C6.564 38.6763 6.564 38.6753 6.564 38.6743C6.564 38.6734 6.564 38.6724 6.564 38.6714C6.564 38.6704 6.564 38.6694 6.564 38.6685C6.564 38.6675 6.564 38.6665 6.564 38.6655C6.564 38.6645 6.564 38.6636 6.564 38.6626C6.564 38.6616 6.564 38.6606 6.564 38.6596C6.564 38.6586 6.564 38.6577 6.564 38.6567C6.564 38.6557 6.564 38.6547 6.564 38.6537C6.564 38.6527 6.564 38.6517 6.564 38.6508C6.564 38.6498 6.564 38.6488 6.564 38.6478C6.564 38.6468 6.564 38.6458 6.564 38.6448C6.564 38.6439 6.564 38.6429 6.564 38.6419C6.564 38.6409 6.564 38.6399 6.564 38.6389C6.564 38.6379 6.564 38.6369 6.564 38.636C6.564 38.635 6.564 38.634 6.564 38.633C6.564 38.632 6.564 38.631 6.564 38.63C6.564 38.629 6.564 38.628 6.564 38.627C6.564 38.626 6.564 38.625 6.564 38.6241C6.564 38.6231 6.564 38.6221 6.564 38.6211C6.564 38.6201 6.564 38.6191 6.564 38.6181C6.564 38.6171 6.564 38.6161 6.564 38.6151C6.564 38.6141 6.564 38.6131 6.564 38.6121C6.564 38.6111 6.564 38.6101 6.564 38.6091C6.564 38.6081 6.564 38.6071 6.564 38.6061C6.564 38.6051 6.564 38.6041 6.564 38.6031C6.564 38.6021 6.564 38.6012 6.564 38.6002C6.564 38.5992 6.564 38.5982 6.564 38.5972C6.564 38.5962 6.564 38.5952 6.564 38.5942C6.564 38.5932 6.564 38.5922 6.564 38.5911C6.564 38.5901 6.564 38.5891 6.564 38.5881C6.564 38.5871 6.564 38.5861 6.564 38.5851C6.564 38.5841 6.564 38.5831 6.564 38.5821C6.564 38.5811 6.564 38.5801 6.564 38.5791C6.564 38.5781 6.564 38.5771 6.564 38.5761C6.564 38.5751 6.564 38.5741 6.564 38.5731C6.564 38.5721 6.564 38.5711 6.564 38.5701C6.564 38.5691 6.564 38.568 6.564 38.567C6.564 38.566 6.564 38.565 6.564 38.564C6.564 38.563 6.564 38.562 6.564 38.561C6.564 38.56 6.564 38.559 6.564 38.558C6.564 38.5569 6.564 38.5559 6.564 38.5549C6.564 38.5539 6.564 38.5529 6.564 38.5519C6.564 38.5509 6.564 38.5499 6.564 38.5489C6.564 38.5478 6.564 38.5468 6.564 38.5458C6.564 38.5448 6.564 38.5438 6.564 38.5428C6.564 38.5418 6.564 38.5407 6.564 38.5397C6.564 38.5387 6.564 38.5377 6.564 38.5367C6.564 38.5357 6.564 38.5346 6.564 38.5336C6.564 38.5326 6.564 38.5316 6.564 38.5306C6.564 38.5296 6.564 38.5285 6.564 38.5275C6.564 38.5265 6.564 38.5255 6.564 38.5245C6.564 38.5235 6.564 38.5224 6.564 38.5214C6.564 38.5204 6.564 38.5194 6.564 38.5184C6.564 38.5173 6.564 38.5163 6.564 38.5153C6.564 38.5143 6.564 38.5132 6.564 38.5122C6.564 38.5112 6.564 38.5102 6.564 38.5092C6.564 38.5081 6.564 38.5071 6.564 38.5061C6.564 38.5051 6.564 38.504 6.564 38.503C6.564 38.502 6.564 38.501 6.564 38.4999C6.564 38.4989 6.564 38.4979 6.564 38.4969C6.564 38.4958 6.564 38.4948 6.564 38.4938C6.564 38.4928 6.564 38.4917 6.564 38.4907C6.564 38.4897 6.564 38.4886 6.564 38.4876C6.564 38.4866 6.564 38.4856 6.564 38.4845C6.564 38.4835 6.564 38.4825 6.564 38.4814C6.564 38.4804 6.564 38.4794 6.564 38.4784C6.564 38.4773 6.564 38.4763 6.564 38.4753C6.564 38.4742 6.564 38.4732 6.564 38.4722C6.564 38.4711 6.564 38.4701 6.564 38.4691C6.564 38.468 6.564 38.467 6.564 38.466C6.564 38.4649 6.564 38.4639 6.564 38.4629C6.564 38.4618 6.564 38.4608 6.564 38.4598C6.564 38.4587 6.564 38.4577 6.564 38.4566C6.564 38.4556 6.564 38.4546 6.564 38.4535C6.564 38.4525 6.564 38.4515 6.564 38.4504C6.564 38.4494 6.564 38.4483 6.564 38.4473C6.564 38.4463 6.564 38.4452 6.564 38.4442C6.564 38.4431 6.564 38.4421 6.564 38.4411C6.564 38.44 6.564 38.439 6.564 38.4379C6.564 38.4369 6.564 38.4359 6.564 38.4348C6.564 38.4338 6.564 38.4327 6.564 38.4317C6.564 38.4306 6.564 38.4296 6.564 38.4286C6.564 38.4275 6.564 38.4265 6.564 38.4254C6.564 38.4244 6.564 38.4233 6.564 38.4223C6.564 38.4213 6.564 38.4202 6.564 38.4192C6.564 38.4181 6.564 38.4171 6.564 38.416C6.564 38.415 6.564 38.4139 6.564 38.4129C6.564 38.4118 6.564 38.4108 6.564 38.4097C6.564 38.4087 6.564 38.4076 6.564 38.4066C6.564 38.4055 6.564 38.4045 6.564 38.4034C6.564 38.4024 6.564 38.4013 6.564 38.4003C6.564 38.3992 6.564 38.3982 6.564 38.3971C6.564 38.3961 6.564 38.395 6.564 38.394C6.564 38.3929 6.564 38.3919 6.564 38.3908C6.564 38.3898 6.564 38.3887 6.564 38.3877C6.564 38.3866 6.564 38.3856 6.564 38.3845C6.564 38.3834 6.564 38.3824 6.564 38.3813C6.564 38.3803 6.564 38.3792 6.564 38.3782C6.564 38.3771 6.564 38.3761 6.564 38.375C6.564 38.3739 6.564 38.3729 6.564 38.3718C6.564 38.3708 6.564 38.3697 6.564 38.3686C6.564 38.3676 6.564 38.3665 6.564 38.3655C6.564 38.3644 6.564 38.3634 6.564 38.3623C6.564 38.3612 6.564 38.3602 6.564 38.3591C6.564 38.3581 6.564 38.357 6.564 38.3559C6.564 38.3549 6.564 38.3538 6.564 38.3527C6.564 38.3517 6.564 38.3506 6.564 38.3496C6.564 38.3485 6.564 38.3474 6.564 38.3464C6.564 38.3453 6.564 38.3442 6.564 38.3432C6.564 38.3421 6.564 38.341 6.564 38.34C6.564 38.3389 6.564 38.3378 6.564 38.3368C6.564 38.3357 6.564 38.3346 6.564 38.3336C6.564 38.3325 6.564 38.3314 6.564 38.3304C6.564 38.3293 6.564 38.3282 6.564 38.3272C6.564 38.3261 6.564 38.325 6.564 38.324C6.564 38.3229 6.564 38.3218 6.564 38.3207C6.564 38.3197 6.564 38.3186 6.564 38.3175C6.564 38.3165 6.564 38.3154 6.564 38.3143C6.564 38.3132 6.564 38.3122 6.564 38.3111C6.564 38.31 6.564 38.309 6.564 38.3079C6.564 38.3068 6.564 38.3057 6.564 38.3047C6.564 38.3036 6.564 38.3025 6.564 38.3014C6.564 38.3004 6.564 38.2993 6.564 38.2982C6.564 38.2971 6.564 38.2961 6.564 38.295C6.564 38.2939 6.564 38.2928 6.564 38.2917C6.564 38.2907 6.564 38.2896 6.564 38.2885C6.564 38.2874 6.564 38.2864 6.564 38.2853C6.564 38.2842 6.564 38.2831 6.564 38.282C6.564 38.281 6.564 38.2799 6.564 38.2788C6.564 38.2777 6.564 38.2766 6.564 38.2755C6.564 38.2745 6.564 38.2734 6.564 38.2723C6.564 38.2712 6.564 38.2701 6.564 38.2691C6.564 38.268 6.564 38.2669 6.564 38.2658C6.564 38.2647 6.564 38.2636 6.564 38.2625C6.564 38.2615 6.564 38.2604 6.564 38.2593C6.564 38.2582 6.564 38.2571 6.564 38.256C6.564 38.2549 6.564 38.2539 6.564 38.2528C6.564 38.2517 6.564 38.2506 6.564 38.2495C6.564 38.2484 6.564 38.2473 6.564 38.2462C6.564 38.2452 6.564 38.2441 6.564 38.243C6.564 38.2419 6.564 38.2408 6.564 38.2397C6.564 38.2386 6.564 38.2375 6.564 38.2364C6.564 38.2353 6.564 38.2343 6.564 38.2332C6.564 38.2321 6.564 38.231 6.564 38.2299C6.564 38.2288 6.564 38.2277 6.564 38.2266C6.564 38.2255 6.564 38.2244 6.564 38.2233C6.564 38.2222 6.564 38.2211 6.564 38.22C6.564 38.2189 6.564 38.2178 6.564 38.2168C6.564 38.2157 6.564 38.2146 6.564 38.2135C6.564 38.2124 6.564 38.2113 6.564 38.2102C6.564 38.2091 6.564 38.208 6.564 38.2069C6.564 38.2058 6.564 38.2047 6.564 38.2036C6.564 38.2025 6.564 38.2014 6.564 38.2003C6.564 38.1992 6.564 38.1981 6.564 38.197C6.564 38.1959 6.564 38.1948 6.564 38.1937C6.564 38.1926 6.564 38.1915 6.564 38.1904C6.564 38.1893 6.564 38.1882 6.564 38.1871C6.564 38.186 6.564 38.1849 6.564 38.1838C6.564 38.1826 6.564 38.1815 6.564 38.1804C6.564 38.1793 6.564 38.1782 6.564 38.1771C6.564 38.176 6.564 38.1749 6.564 38.1738C6.564 38.1727 6.564 38.1716 6.564 38.1705C6.564 38.1694 6.564 38.1683 6.564 38.1672C6.564 38.1661 6.564 38.1649 6.564 38.1638C6.564 38.1627 6.564 38.1616 6.564 38.1605C6.564 38.1594 6.564 38.1583 6.564 38.1572C6.564 38.1561 6.564 38.155 6.564 38.1539C6.564 38.1527 6.564 38.1516 6.564 38.1505C6.564 38.1494 6.564 38.1483 6.564 38.1472C6.564 38.1461 6.564 38.145 6.564 38.1438C6.564 38.1427 6.564 38.1416 6.564 38.1405C6.564 38.1394 6.564 38.1383 6.564 38.1372C6.564 38.136 6.564 38.1349 6.564 38.1338C6.564 38.1327 6.564 38.1316 6.564 38.1305C6.564 38.1293 6.564 38.1282 6.564 38.1271C6.564 38.126 6.564 38.1249 6.564 38.1238C6.564 38.1226 6.564 38.1215 6.564 38.1204C6.564 38.1193 6.564 38.1182 6.564 38.117C6.564 38.1159 6.564 38.1148 6.564 38.1137C6.564 38.1126 6.564 38.1114 6.564 38.1103C6.564 38.1092 6.564 38.1081 6.564 38.107C6.564 38.1058 6.564 38.1047 6.564 38.1036C6.564 38.1025 6.564 38.1013 6.564 38.1002C6.564 38.0991 6.564 38.098 6.564 38.0968C6.564 38.0957 6.564 38.0946 6.564 38.0935C6.564 38.0923 6.564 38.0912 6.564 38.0901C6.564 38.089 6.564 38.0878 6.564 38.0867C6.564 38.0856 6.564 38.0845 6.564 38.0833C6.564 38.0822 6.564 38.0811 6.564 38.0799C6.564 38.0788 6.564 38.0777 6.564 38.0766C6.564 38.0754 6.564 38.0743 6.564 38.0732C6.564 38.072 6.564 38.0709 6.564 38.0698C6.564 38.0686 6.564 38.0675 6.564 38.0664C6.564 38.0653 6.564 38.0641 6.564 38.063C6.564 38.0619 6.564 38.0607 6.564 38.0596C6.564 38.0585 6.564 38.0573 6.564 38.0562C6.564 38.0551 6.564 38.0539 6.564 38.0528C6.564 38.0517 6.564 38.0505 6.564 38.0494C6.564 38.0482 6.564 38.0471 6.564 38.046C6.564 38.0448 6.564 38.0437 6.564 38.0426C6.564 38.0414 6.564 38.0403 6.564 38.0392C6.564 38.038 6.564 38.0369 6.564 38.0357C6.564 38.0346 6.564 38.0335 6.564 38.0323C6.564 38.0312 6.564 38.03 6.564 38.0289C6.564 38.0278 6.564 38.0266 6.564 38.0255C6.564 38.0243 6.564 38.0232 6.564 38.0221C6.564 38.0209 6.564 38.0198 6.564 38.0186C6.564 38.0175 6.564 38.0163 6.564 38.0152C6.564 38.0141 6.564 38.0129 6.564 38.0118C6.564 38.0106 6.564 38.0095 6.564 38.0083C6.564 38.0072 6.564 38.006 6.564 38.0049C6.564 38.0037 6.564 38.0026 6.564 38.0015C6.564 38.0003 6.564 37.9992 6.564 37.998C6.564 37.9969 6.564 37.9957 6.564 37.9946C6.564 37.9934 6.564 37.9923 6.564 37.9911C6.564 37.99 6.564 37.9888 6.564 37.9877C6.564 37.9865 6.564 37.9854 6.564 37.9842C6.564 37.9831 6.564 37.9819 6.564 37.9808C6.564 37.9796 6.564 37.9785 6.564 37.9773C6.564 37.9762 6.564 37.975 6.564 37.9739C6.564 37.9727 6.564 37.9715 6.564 37.9704C6.564 37.9692 6.564 37.9681 6.564 37.9669C6.564 37.9658 6.564 37.9646 6.564 37.9635C6.564 37.9623 6.564 37.9612 6.564 37.96H5.564C5.564 37.9612 5.564 37.9623 5.564 37.9635C5.564 37.9646 5.564 37.9658 5.564 37.9669C5.564 37.9681 5.564 37.9692 5.564 37.9704C5.564 37.9715 5.564 37.9727 5.564 37.9739C5.564 37.975 5.564 37.9762 5.564 37.9773C5.564 37.9785 5.564 37.9796 5.564 37.9808C5.564 37.9819 5.564 37.9831 5.564 37.9842C5.564 37.9854 5.564 37.9865 5.564 37.9877C5.564 37.9888 5.564 37.99 5.564 37.9911C5.564 37.9923 5.564 37.9934 5.564 37.9946C5.564 37.9957 5.564 37.9969 5.564 37.998C5.564 37.9992 5.564 38.0003 5.564 38.0015C5.564 38.0026 5.564 38.0037 5.564 38.0049C5.564 38.006 5.564 38.0072 5.564 38.0083C5.564 38.0095 5.564 38.0106 5.564 38.0118C5.564 38.0129 5.564 38.0141 5.564 38.0152C5.564 38.0163 5.564 38.0175 5.564 38.0186C5.564 38.0198 5.564 38.0209 5.564 38.0221C5.564 38.0232 5.564 38.0243 5.564 38.0255C5.564 38.0266 5.564 38.0278 5.564 38.0289C5.564 38.03 5.564 38.0312 5.564 38.0323C5.564 38.0335 5.564 38.0346 5.564 38.0357C5.564 38.0369 5.564 38.038 5.564 38.0392C5.564 38.0403 5.564 38.0414 5.564 38.0426C5.564 38.0437 5.564 38.0448 5.564 38.046C5.564 38.0471 5.564 38.0482 5.564 38.0494C5.564 38.0505 5.564 38.0517 5.564 38.0528C5.564 38.0539 5.564 38.0551 5.564 38.0562C5.564 38.0573 5.564 38.0585 5.564 38.0596C5.564 38.0607 5.564 38.0619 5.564 38.063C5.564 38.0641 5.564 38.0653 5.564 38.0664C5.564 38.0675 5.564 38.0686 5.564 38.0698C5.564 38.0709 5.564 38.072 5.564 38.0732C5.564 38.0743 5.564 38.0754 5.564 38.0766C5.564 38.0777 5.564 38.0788 5.564 38.0799C5.564 38.0811 5.564 38.0822 5.564 38.0833C5.564 38.0845 5.564 38.0856 5.564 38.0867C5.564 38.0878 5.564 38.089 5.564 38.0901C5.564 38.0912 5.564 38.0923 5.564 38.0935C5.564 38.0946 5.564 38.0957 5.564 38.0968C5.564 38.098 5.564 38.0991 5.564 38.1002C5.564 38.1013 5.564 38.1025 5.564 38.1036C5.564 38.1047 5.564 38.1058 5.564 38.107C5.564 38.1081 5.564 38.1092 5.564 38.1103C5.564 38.1114 5.564 38.1126 5.564 38.1137C5.564 38.1148 5.564 38.1159 5.564 38.117C5.564 38.1182 5.564 38.1193 5.564 38.1204C5.564 38.1215 5.564 38.1226 5.564 38.1238C5.564 38.1249 5.564 38.126 5.564 38.1271C5.564 38.1282 5.564 38.1293 5.564 38.1305C5.564 38.1316 5.564 38.1327 5.564 38.1338C5.564 38.1349 5.564 38.136 5.564 38.1372C5.564 38.1383 5.564 38.1394 5.564 38.1405C5.564 38.1416 5.564 38.1427 5.564 38.1438C5.564 38.145 5.564 38.1461 5.564 38.1472C5.564 38.1483 5.564 38.1494 5.564 38.1505C5.564 38.1516 5.564 38.1527 5.564 38.1539C5.564 38.155 5.564 38.1561 5.564 38.1572C5.564 38.1583 5.564 38.1594 5.564 38.1605C5.564 38.1616 5.564 38.1627 5.564 38.1638C5.564 38.1649 5.564 38.1661 5.564 38.1672C5.564 38.1683 5.564 38.1694 5.564 38.1705C5.564 38.1716 5.564 38.1727 5.564 38.1738C5.564 38.1749 5.564 38.176 5.564 38.1771C5.564 38.1782 5.564 38.1793 5.564 38.1804C5.564 38.1815 5.564 38.1826 5.564 38.1838C5.564 38.1849 5.564 38.186 5.564 38.1871C5.564 38.1882 5.564 38.1893 5.564 38.1904C5.564 38.1915 5.564 38.1926 5.564 38.1937C5.564 38.1948 5.564 38.1959 5.564 38.197C5.564 38.1981 5.564 38.1992 5.564 38.2003C5.564 38.2014 5.564 38.2025 5.564 38.2036C5.564 38.2047 5.564 38.2058 5.564 38.2069C5.564 38.208 5.564 38.2091 5.564 38.2102C5.564 38.2113 5.564 38.2124 5.564 38.2135C5.564 38.2146 5.564 38.2157 5.564 38.2168C5.564 38.2178 5.564 38.2189 5.564 38.22C5.564 38.2211 5.564 38.2222 5.564 38.2233C5.564 38.2244 5.564 38.2255 5.564 38.2266C5.564 38.2277 5.564 38.2288 5.564 38.2299C5.564 38.231 5.564 38.2321 5.564 38.2332C5.564 38.2343 5.564 38.2353 5.564 38.2364C5.564 38.2375 5.564 38.2386 5.564 38.2397C5.564 38.2408 5.564 38.2419 5.564 38.243C5.564 38.2441 5.564 38.2452 5.564 38.2462C5.564 38.2473 5.564 38.2484 5.564 38.2495C5.564 38.2506 5.564 38.2517 5.564 38.2528C5.564 38.2539 5.564 38.2549 5.564 38.256C5.564 38.2571 5.564 38.2582 5.564 38.2593C5.564 38.2604 5.564 38.2615 5.564 38.2625C5.564 38.2636 5.564 38.2647 5.564 38.2658C5.564 38.2669 5.564 38.268 5.564 38.2691C5.564 38.2701 5.564 38.2712 5.564 38.2723C5.564 38.2734 5.564 38.2745 5.564 38.2755C5.564 38.2766 5.564 38.2777 5.564 38.2788C5.564 38.2799 5.564 38.281 5.564 38.282C5.564 38.2831 5.564 38.2842 5.564 38.2853C5.564 38.2864 5.564 38.2874 5.564 38.2885C5.564 38.2896 5.564 38.2907 5.564 38.2917C5.564 38.2928 5.564 38.2939 5.564 38.295C5.564 38.2961 5.564 38.2971 5.564 38.2982C5.564 38.2993 5.564 38.3004 5.564 38.3014C5.564 38.3025 5.564 38.3036 5.564 38.3047C5.564 38.3057 5.564 38.3068 5.564 38.3079C5.564 38.309 5.564 38.31 5.564 38.3111C5.564 38.3122 5.564 38.3132 5.564 38.3143C5.564 38.3154 5.564 38.3165 5.564 38.3175C5.564 38.3186 5.564 38.3197 5.564 38.3207C5.564 38.3218 5.564 38.3229 5.564 38.324C5.564 38.325 5.564 38.3261 5.564 38.3272C5.564 38.3282 5.564 38.3293 5.564 38.3304C5.564 38.3314 5.564 38.3325 5.564 38.3336C5.564 38.3346 5.564 38.3357 5.564 38.3368C5.564 38.3378 5.564 38.3389 5.564 38.34C5.564 38.341 5.564 38.3421 5.564 38.3432C5.564 38.3442 5.564 38.3453 5.564 38.3464C5.564 38.3474 5.564 38.3485 5.564 38.3496C5.564 38.3506 5.564 38.3517 5.564 38.3527C5.564 38.3538 5.564 38.3549 5.564 38.3559C5.564 38.357 5.564 38.3581 5.564 38.3591C5.564 38.3602 5.564 38.3612 5.564 38.3623C5.564 38.3634 5.564 38.3644 5.564 38.3655C5.564 38.3665 5.564 38.3676 5.564 38.3686C5.564 38.3697 5.564 38.3708 5.564 38.3718C5.564 38.3729 5.564 38.3739 5.564 38.375C5.564 38.3761 5.564 38.3771 5.564 38.3782C5.564 38.3792 5.564 38.3803 5.564 38.3813C5.564 38.3824 5.564 38.3834 5.564 38.3845C5.564 38.3856 5.564 38.3866 5.564 38.3877C5.564 38.3887 5.564 38.3898 5.564 38.3908C5.564 38.3919 5.564 38.3929 5.564 38.394C5.564 38.395 5.564 38.3961 5.564 38.3971C5.564 38.3982 5.564 38.3992 5.564 38.4003C5.564 38.4013 5.564 38.4024 5.564 38.4034C5.564 38.4045 5.564 38.4055 5.564 38.4066C5.564 38.4076 5.564 38.4087 5.564 38.4097C5.564 38.4108 5.564 38.4118 5.564 38.4129C5.564 38.4139 5.564 38.415 5.564 38.416C5.564 38.4171 5.564 38.4181 5.564 38.4192C5.564 38.4202 5.564 38.4213 5.564 38.4223C5.564 38.4233 5.564 38.4244 5.564 38.4254C5.564 38.4265 5.564 38.4275 5.564 38.4286C5.564 38.4296 5.564 38.4306 5.564 38.4317C5.564 38.4327 5.564 38.4338 5.564 38.4348C5.564 38.4359 5.564 38.4369 5.564 38.4379C5.564 38.439 5.564 38.44 5.564 38.4411C5.564 38.4421 5.564 38.4431 5.564 38.4442C5.564 38.4452 5.564 38.4463 5.564 38.4473C5.564 38.4483 5.564 38.4494 5.564 38.4504C5.564 38.4515 5.564 38.4525 5.564 38.4535C5.564 38.4546 5.564 38.4556 5.564 38.4566C5.564 38.4577 5.564 38.4587 5.564 38.4598C5.564 38.4608 5.564 38.4618 5.564 38.4629C5.564 38.4639 5.564 38.4649 5.564 38.466C5.564 38.467 5.564 38.468 5.564 38.4691C5.564 38.4701 5.564 38.4711 5.564 38.4722C5.564 38.4732 5.564 38.4742 5.564 38.4753C5.564 38.4763 5.564 38.4773 5.564 38.4784C5.564 38.4794 5.564 38.4804 5.564 38.4814C5.564 38.4825 5.564 38.4835 5.564 38.4845C5.564 38.4856 5.564 38.4866 5.564 38.4876C5.564 38.4886 5.564 38.4897 5.564 38.4907C5.564 38.4917 5.564 38.4928 5.564 38.4938C5.564 38.4948 5.564 38.4958 5.564 38.4969C5.564 38.4979 5.564 38.4989 5.564 38.4999C5.564 38.501 5.564 38.502 5.564 38.503C5.564 38.504 5.564 38.5051 5.564 38.5061C5.564 38.5071 5.564 38.5081 5.564 38.5092C5.564 38.5102 5.564 38.5112 5.564 38.5122C5.564 38.5132 5.564 38.5143 5.564 38.5153C5.564 38.5163 5.564 38.5173 5.564 38.5184C5.564 38.5194 5.564 38.5204 5.564 38.5214C5.564 38.5224 5.564 38.5235 5.564 38.5245C5.564 38.5255 5.564 38.5265 5.564 38.5275C5.564 38.5285 5.564 38.5296 5.564 38.5306C5.564 38.5316 5.564 38.5326 5.564 38.5336C5.564 38.5346 5.564 38.5357 5.564 38.5367C5.564 38.5377 5.564 38.5387 5.564 38.5397C5.564 38.5407 5.564 38.5418 5.564 38.5428C5.564 38.5438 5.564 38.5448 5.564 38.5458C5.564 38.5468 5.564 38.5478 5.564 38.5489C5.564 38.5499 5.564 38.5509 5.564 38.5519C5.564 38.5529 5.564 38.5539 5.564 38.5549C5.564 38.5559 5.564 38.5569 5.564 38.558C5.564 38.559 5.564 38.56 5.564 38.561C5.564 38.562 5.564 38.563 5.564 38.564C5.564 38.565 5.564 38.566 5.564 38.567C5.564 38.568 5.564 38.5691 5.564 38.5701C5.564 38.5711 5.564 38.5721 5.564 38.5731C5.564 38.5741 5.564 38.5751 5.564 38.5761C5.564 38.5771 5.564 38.5781 5.564 38.5791C5.564 38.5801 5.564 38.5811 5.564 38.5821C5.564 38.5831 5.564 38.5841 5.564 38.5851C5.564 38.5861 5.564 38.5871 5.564 38.5881C5.564 38.5891 5.564 38.5901 5.564 38.5911C5.564 38.5922 5.564 38.5932 5.564 38.5942C5.564 38.5952 5.564 38.5962 5.564 38.5972C5.564 38.5982 5.564 38.5992 5.564 38.6002C5.564 38.6012 5.564 38.6021 5.564 38.6031C5.564 38.6041 5.564 38.6051 5.564 38.6061C5.564 38.6071 5.564 38.6081 5.564 38.6091C5.564 38.6101 5.564 38.6111 5.564 38.6121C5.564 38.6131 5.564 38.6141 5.564 38.6151C5.564 38.6161 5.564 38.6171 5.564 38.6181C5.564 38.6191 5.564 38.6201 5.564 38.6211C5.564 38.6221 5.564 38.6231 5.564 38.6241C5.564 38.625 5.564 38.626 5.564 38.627C5.564 38.628 5.564 38.629 5.564 38.63C5.564 38.631 5.564 38.632 5.564 38.633C5.564 38.634 5.564 38.635 5.564 38.636C5.564 38.6369 5.564 38.6379 5.564 38.6389C5.564 38.6399 5.564 38.6409 5.564 38.6419C5.564 38.6429 5.564 38.6439 5.564 38.6448C5.564 38.6458 5.564 38.6468 5.564 38.6478C5.564 38.6488 5.564 38.6498 5.564 38.6508C5.564 38.6517 5.564 38.6527 5.564 38.6537C5.564 38.6547 5.564 38.6557 5.564 38.6567C5.564 38.6577 5.564 38.6586 5.564 38.6596C5.564 38.6606 5.564 38.6616 5.564 38.6626C5.564 38.6636 5.564 38.6645 5.564 38.6655C5.564 38.6665 5.564 38.6675 5.564 38.6685C5.564 38.6694 5.564 38.6704 5.564 38.6714C5.564 38.6724 5.564 38.6734 5.564 38.6743C5.564 38.6753 5.564 38.6763 5.564 38.6773C5.564 38.6783 5.564 38.6792 5.564 38.6802C5.564 38.6812 5.564 38.6822 5.564 38.6831C5.564 38.6841 5.564 38.6851 5.564 38.6861C5.564 38.6871 5.564 38.688 5.564 38.689C5.564 38.69 5.564 38.691 5.564 38.6919C5.564 38.6929 5.564 38.6939 5.564 38.6949C5.564 38.6958 5.564 38.6968 5.564 38.6978C5.564 38.6987 5.564 38.6997 5.564 38.7007C5.564 38.7017 5.564 38.7026 5.564 38.7036C5.564 38.7046 5.564 38.7055 5.564 38.7065C5.564 38.7075 5.564 38.7085 5.564 38.7094C5.564 38.7104 5.564 38.7114 5.564 38.7123C5.564 38.7133 5.564 38.7143 5.564 38.7152C5.564 38.7162 5.564 38.7172 5.564 38.7181C5.564 38.7191 5.564 38.7201 5.564 38.721C5.564 38.722 5.564 38.723 5.564 38.7239C5.564 38.7249 5.564 38.7259 5.564 38.7268C5.564 38.7278 5.564 38.7288 5.564 38.7297C5.564 38.7307 5.564 38.7317 5.564 38.7326C5.564 38.7336 5.564 38.7346 5.564 38.7355C5.564 38.7365 5.564 38.7374 5.564 38.7384C5.564 38.7394 5.564 38.7403 5.564 38.7413C5.564 38.7422 5.564 38.7432 5.564 38.7442C5.564 38.7451 5.564 38.7461 5.564 38.747C5.564 38.748 5.564 38.749 5.564 38.7499C5.564 38.7509 5.564 38.7518 5.564 38.7528C5.564 38.7538 5.564 38.7547 5.564 38.7557C5.564 38.7566 5.564 38.7576 5.564 38.7585C5.564 38.7595 5.564 38.7605 5.564 38.7614C5.564 38.7624 5.564 38.7633 5.564 38.7643C5.564 38.7652 5.564 38.7662 5.564 38.7671C5.564 38.7681 5.564 38.769 5.564 38.77C5.564 38.771 5.564 38.7719 5.564 38.7729C5.564 38.7738 5.564 38.7748 5.564 38.7757C5.564 38.7767 5.564 38.7776 5.564 38.7786C5.564 38.7795 5.564 38.7805 5.564 38.7814C5.564 38.7824 5.564 38.7833 5.564 38.7843C5.564 38.7852 5.564 38.7862 5.564 38.7871C5.564 38.7881 5.564 38.789 5.564 38.79C5.564 38.7909 5.564 38.7919 5.564 38.7928C5.564 38.7937 5.564 38.7947 5.564 38.7956C5.564 38.7966 5.564 38.7975 5.564 38.7985C5.564 38.7994 5.564 38.8004 5.564 38.8013C5.564 38.8023 5.564 38.8032 5.564 38.8041C5.564 38.8051 5.564 38.806 5.564 38.807C5.564 38.8079 5.564 38.8089 5.564 38.8098C5.564 38.8107 5.564 38.8117 5.564 38.8126C5.564 38.8136 5.564 38.8145 5.564 38.8154C5.564 38.8164 5.564 38.8173 5.564 38.8183C5.564 38.8192 5.564 38.8201 5.564 38.8211C5.564 38.822 5.564 38.823 5.564 38.8239C5.564 38.8248 5.564 38.8258 5.564 38.8267C5.564 38.8276 5.564 38.8286 5.564 38.8295C5.564 38.8305 5.564 38.8314 5.564 38.8323C5.564 38.8333 5.564 38.8342 5.564 38.8351C5.564 38.8361 5.564 38.837 5.564 38.8379C5.564 38.8389 5.564 38.8398 5.564 38.8407C5.564 38.8417 5.564 38.8426 5.564 38.8435C5.564 38.8445 5.564 38.8454 5.564 38.8463C5.564 38.8473 5.564 38.8482 5.564 38.8491C5.564 38.8501 5.564 38.851 5.564 38.8519C5.564 38.8529 5.564 38.8538 5.564 38.8547C5.564 38.8556 5.564 38.8566 5.564 38.8575C5.564 38.8584 5.564 38.8594 5.564 38.8603C5.564 38.8612 5.564 38.8621 5.564 38.8631C5.564 38.864 5.564 38.8649 5.564 38.8658C5.564 38.8668 5.564 38.8677 5.564 38.8686C5.564 38.8695 5.564 38.8705 5.564 38.8714C5.564 38.8723 5.564 38.8732 5.564 38.8742C5.564 38.8751 5.564 38.876 5.564 38.8769C5.564 38.8779 5.564 38.8788 5.564 38.8797C5.564 38.8806 5.564 38.8815 5.564 38.8825C5.564 38.8834 5.564 38.8843 5.564 38.8852C5.564 38.8862 5.564 38.8871 5.564 38.888C5.564 38.8889 5.564 38.8898 5.564 38.8908C5.564 38.8917 5.564 38.8926 5.564 38.8935C5.564 38.8944 5.564 38.8953 5.564 38.8963C5.564 38.8972 5.564 38.8981 5.564 38.899C5.564 38.8999 5.564 38.9008 5.564 38.9018C5.564 38.9027 5.564 38.9036 5.564 38.9045C5.564 38.9054 5.564 38.9063 5.564 38.9073C5.564 38.9082 5.564 38.9091 5.564 38.91C5.564 38.9109 5.564 38.9118 5.564 38.9127C5.564 38.9136 5.564 38.9146 5.564 38.9155C5.564 38.9164 5.564 38.9173 5.564 38.9182C5.564 38.9191 5.564 38.92 5.564 38.9209C5.564 38.9218 5.564 38.9228 5.564 38.9237C5.564 38.9246 5.564 38.9255 5.564 38.9264C5.564 38.9273 5.564 38.9282 5.564 38.9291C5.564 38.93 5.564 38.9309 5.564 38.9318C5.564 38.9327 5.564 38.9337 5.564 38.9346C5.564 38.9355 5.564 38.9364 5.564 38.9373C5.564 38.9382 5.564 38.9391 5.564 38.94C5.564 38.9409 5.564 38.9418 5.564 38.9427C5.564 38.9436 5.564 38.9445 5.564 38.9454C5.564 38.9463 5.564 38.9472 5.564 38.9481C5.564 38.949 5.564 38.9499 5.564 38.9508C5.564 38.9517 5.564 38.9526 5.564 38.9535C5.564 38.9544 5.564 38.9553 5.564 38.9562C5.564 38.9571 5.564 38.958 5.564 38.9589C5.564 38.9598 5.564 38.9607 5.564 38.9616C5.564 38.9625 5.564 38.9634 5.564 38.9643C5.564 38.9652 5.564 38.9661 5.564 38.967C5.564 38.9679 5.564 38.9688 5.564 38.9697C5.564 38.9706 5.564 38.9715 5.564 38.9724C5.564 38.9733 5.564 38.9742 5.564 38.9751C5.564 38.976 5.564 38.9769 5.564 38.9778C5.564 38.9787 5.564 38.9795 5.564 38.9804C5.564 38.9813 5.564 38.9822 5.564 38.9831C5.564 38.984 5.564 38.9849 5.564 38.9858C5.564 38.9867 5.564 38.9876 5.564 38.9885C5.564 38.9894 5.564 38.9902 5.564 38.9911C5.564 38.992 5.564 38.9929 5.564 38.9938C5.564 38.9947 5.564 38.9956 5.564 38.9965C5.564 38.9974 5.564 38.9982 5.564 38.9991C5.564 39 5.564 39.0009 5.564 39.0018C5.564 39.0027 5.564 39.0036 5.564 39.0044C5.564 39.0053 5.564 39.0062 5.564 39.0071C5.564 39.008 5.564 39.0089 5.564 39.0098C5.564 39.0106 5.564 39.0115 5.564 39.0124C5.564 39.0133 5.564 39.0142 5.564 39.0151C5.564 39.0159 5.564 39.0168 5.564 39.0177C5.564 39.0186 5.564 39.0195 5.564 39.0203C5.564 39.0212 5.564 39.0221 5.564 39.023C5.564 39.0239 5.564 39.0247 5.564 39.0256C5.564 39.0265 5.564 39.0274 5.564 39.0283C5.564 39.0291 5.564 39.03 5.564 39.0309C5.564 39.0318 5.564 39.0327 5.564 39.0335C5.564 39.0344 5.564 39.0353 5.564 39.0362C5.564 39.037 5.564 39.0379 5.564 39.0388C5.564 39.0397 5.564 39.0405 5.564 39.0414C5.564 39.0423 5.564 39.0432 5.564 39.044C5.564 39.0449 5.564 39.0458 5.564 39.0467C5.564 39.0475 5.564 39.0484 5.564 39.0493C5.564 39.0501 5.564 39.051 5.564 39.0519C5.564 39.0528 5.564 39.0536 5.564 39.0545C5.564 39.0554 5.564 39.0562 5.564 39.0571C5.564 39.058 5.564 39.0589 5.564 39.0597C5.564 39.0606 5.564 39.0615 5.564 39.0623C5.564 39.0632 5.564 39.0641 5.564 39.0649C5.564 39.0658 5.564 39.0667 5.564 39.0675C5.564 39.0684 5.564 39.0693 5.564 39.0701C5.564 39.071 5.564 39.0719 5.564 39.0727C5.564 39.0736 5.564 39.0745 5.564 39.0753C5.564 39.0762 5.564 39.077 5.564 39.0779C5.564 39.0788 5.564 39.0796 5.564 39.0805C5.564 39.0814 5.564 39.0822 5.564 39.0831C5.564 39.084 5.564 39.0848 5.564 39.0857C5.564 39.0865 5.564 39.0874 5.564 39.0883C5.564 39.0891 5.564 39.09 5.564 39.0908C5.564 39.0917 5.564 39.0926 5.564 39.0934C5.564 39.0943 5.564 39.0951 5.564 39.096C5.564 39.0968 5.564 39.0977 5.564 39.0986C5.564 39.0994 5.564 39.1003 5.564 39.1011C5.564 39.102 5.564 39.1028 5.564 39.1037C5.564 39.1046 5.564 39.1054 5.564 39.1063C5.564 39.1071 5.564 39.108 5.564 39.1088C5.564 39.1097 5.564 39.1105 5.564 39.1114C5.564 39.1122 5.564 39.1131 5.564 39.1139C5.564 39.1148 5.564 39.1157 5.564 39.1165C5.564 39.1174 5.564 39.1182 5.564 39.1191C5.564 39.1199 5.564 39.1208 5.564 39.1216C5.564 39.1225 5.564 39.1233 5.564 39.1242C5.564 39.125 5.564 39.1259 5.564 39.1267C5.564 39.1275 5.564 39.1284 5.564 39.1292C5.564 39.1301 5.564 39.1309 5.564 39.1318C5.564 39.1326 5.564 39.1335 5.564 39.1343C5.564 39.1352 5.564 39.136 5.564 39.1369C5.564 39.1377 5.564 39.1385 5.564 39.1394C5.564 39.1402 5.564 39.1411 5.564 39.1419C5.564 39.1428 5.564 39.1436 5.564 39.1445C5.564 39.1453 5.564 39.1461 5.564 39.147C5.564 39.1478 5.564 39.1487 5.564 39.1495C5.564 39.1504 5.564 39.1512 5.564 39.152C5.564 39.1529 5.564 39.1537 5.564 39.1546C5.564 39.1554 5.564 39.1562 5.564 39.1571C5.564 39.1579 5.564 39.1587 5.564 39.1596C5.564 39.1604 5.564 39.1613 5.564 39.1621C5.564 39.1629 5.564 39.1638 5.564 39.1646C5.564 39.1654 5.564 39.1663 5.564 39.1671C5.564 39.168 5.564 39.1688 5.564 39.1696C5.564 39.1705 5.564 39.1713 5.564 39.1721C5.564 39.173 5.564 39.1738 5.564 39.1746C5.564 39.1755 5.564 39.1763 5.564 39.1771C5.564 39.178 5.564 39.1788 5.564 39.1796C5.564 39.1805 5.564 39.1813 5.564 39.1821C5.564 39.1829 5.564 39.1838 5.564 39.1846C5.564 39.1854 5.564 39.1863 5.564 39.1871C5.564 39.1879 5.564 39.1888 5.564 39.1896C5.564 39.1904 5.564 39.1912 5.564 39.1921C5.564 39.1929 5.564 39.1937 5.564 39.1945C5.564 39.1954 5.564 39.1962 5.564 39.197C5.564 39.1979 5.564 39.1987 5.564 39.1995C5.564 39.2003 5.564 39.2012 5.564 39.202C5.564 39.2028 5.564 39.2036 5.564 39.2045C5.564 39.2053 5.564 39.2061 5.564 39.2069C5.564 39.2077 5.564 39.2086 5.564 39.2094C5.564 39.2102 5.564 39.211 5.564 39.2119C5.564 39.2127 5.564 39.2135 5.564 39.2143C5.564 39.2151 5.564 39.216 5.564 39.2168C5.564 39.2176 5.564 39.2184 5.564 39.2192C5.564 39.2201 5.564 39.2209 5.564 39.2217C5.564 39.2225 5.564 39.2233 5.564 39.2242C5.564 39.225 5.564 39.2258 5.564 39.2266C5.564 39.2274 5.564 39.2282 5.564 39.229C5.564 39.2299 5.564 39.2307 5.564 39.2315C5.564 39.2323 5.564 39.2331 5.564 39.2339C5.564 39.2348 5.564 39.2356 5.564 39.2364C5.564 39.2372 5.564 39.238 5.564 39.2388C5.564 39.2396 5.564 39.2404 5.564 39.2413C5.564 39.2421 5.564 39.2429 5.564 39.2437C5.564 39.2445 5.564 39.2453 5.564 39.2461C5.564 39.2469 5.564 39.2477 5.564 39.2486C5.564 39.2494 5.564 39.2502 5.564 39.251C5.564 39.2518 5.564 39.2526 5.564 39.2534C5.564 39.2542 5.564 39.255 5.564 39.2558C5.564 39.2566 5.564 39.2574 5.564 39.2583C5.564 39.2591 5.564 39.2599 5.564 39.2607C5.564 39.2615 5.564 39.2623 5.564 39.2631C5.564 39.2639 5.564 39.2647 5.564 39.2655C5.564 39.2663 5.564 39.2671 5.564 39.2679C5.564 39.2687 5.564 39.2695 5.564 39.2703C5.564 39.2711 5.564 39.2719 5.564 39.2727C5.564 39.2735 5.564 39.2743 5.564 39.2751C5.564 39.2759 5.564 39.2767 5.564 39.2775C5.564 39.2783 5.564 39.2791 5.564 39.2799C5.564 39.2807 5.564 39.2815 5.564 39.2823C5.564 39.2831 5.564 39.2839 5.564 39.2847C5.564 39.2855 5.564 39.2863 5.564 39.2871C5.564 39.2879 5.564 39.2887 5.564 39.2895C5.564 39.2903 5.564 39.2911 5.564 39.2919C5.564 39.2927 5.564 39.2935 5.564 39.2943C5.564 39.2951 5.564 39.2959 5.564 39.2966C5.564 39.2974 5.564 39.2982 5.564 39.299C5.564 39.2998 5.564 39.3006 5.564 39.3014C5.564 39.3022 5.564 39.303 5.564 39.3038C5.564 39.3046 5.564 39.3054 5.564 39.3062C5.564 39.3069 5.564 39.3077 5.564 39.3085C5.564 39.3093 5.564 39.3101 5.564 39.3109C5.564 39.3117 5.564 39.3125 5.564 39.3133C5.564 39.314 5.564 39.3148 5.564 39.3156C5.564 39.3164 5.564 39.3172 5.564 39.318C5.564 39.3188 5.564 39.3196 5.564 39.3203C5.564 39.3211 5.564 39.3219 5.564 39.3227C5.564 39.3235 5.564 39.3243 5.564 39.3251C5.564 39.3258 5.564 39.3266 5.564 39.3274C5.564 39.3282 5.564 39.329 5.564 39.3298C5.564 39.3305 5.564 39.3313 5.564 39.3321C5.564 39.3329 5.564 39.3337 5.564 39.3344C5.564 39.3352 5.564 39.336 5.564 39.3368C5.564 39.3376 5.564 39.3383 5.564 39.3391C5.564 39.3399 5.564 39.3407 5.564 39.3415C5.564 39.3422 5.564 39.343 5.564 39.3438C5.564 39.3446 5.564 39.3453 5.564 39.3461C5.564 39.3469 5.564 39.3477 5.564 39.3485C5.564 39.3492 5.564 39.35 5.564 39.3508C5.564 39.3516 5.564 39.3523 5.564 39.3531C5.564 39.3539 5.564 39.3547 5.564 39.3554C5.564 39.3562 5.564 39.357 5.564 39.3577C5.564 39.3585 5.564 39.3593 5.564 39.3601C5.564 39.3608 5.564 39.3616 5.564 39.3624C5.564 39.3632 5.564 39.3639 5.564 39.3647C5.564 39.3655 5.564 39.3662 5.564 39.367C5.564 39.3678 5.564 39.3685 5.564 39.3693C5.564 39.3701 5.564 39.3709 5.564 39.3716C5.564 39.3724 5.564 39.3732 5.564 39.3739C5.564 39.3747 5.564 39.3755 5.564 39.3762C5.564 39.377 5.564 39.3778 5.564 39.3785C5.564 39.3793 5.564 39.3801 5.564 39.3808C5.564 39.3816 5.564 39.3824 5.564 39.3831C5.564 39.3839 5.564 39.3846 5.564 39.3854C5.564 39.3862 5.564 39.3869 5.564 39.3877C5.564 39.3885 5.564 39.3892 5.564 39.39C5.564 39.3907 5.564 39.3915 5.564 39.3923C5.564 39.393 5.564 39.3938 5.564 39.3946C5.564 39.3953 5.564 39.3961 5.564 39.3968C5.564 39.3976 5.564 39.3983 5.564 39.3991C5.564 39.3999 5.564 39.4006 5.564 39.4014C5.564 39.4021 5.564 39.4029 5.564 39.4037C5.564 39.4044 5.564 39.4052 5.564 39.4059C5.564 39.4067 5.564 39.4074 5.564 39.4082C5.564 39.4089 5.564 39.4097 5.564 39.4105C5.564 39.4112 5.564 39.412 5.564 39.4127C5.564 39.4135 5.564 39.4142 5.564 39.415C5.564 39.4157 5.564 39.4165 5.564 39.4172C5.564 39.418 5.564 39.4187 5.564 39.4195C5.564 39.4202 5.564 39.421 5.564 39.4217C5.564 39.4225 5.564 39.4232 5.564 39.424H6.564ZM6.564 37.96C6.564 37.3559 6.57195 36.5669 6.58793 35.5922L5.58807 35.5758C5.57205 36.5531 5.564 37.3481 5.564 37.96H6.564ZM6.58786 35.596C6.63499 33.632 6.90182 31.9743 7.37618 30.6125L6.43182 30.2835C5.91418 31.7697 5.63701 33.5359 5.58814 35.572L6.58786 35.596ZM7.37511 30.6155C7.86717 29.2316 8.55443 28.0677 9.43185 27.1147L8.69615 26.4373C7.71757 27.5003 6.96483 28.7844 6.43289 30.2805L7.37511 30.6155ZM9.43185 27.1147C10.3218 26.148 11.3836 25.3159 12.6211 24.6198L12.1309 23.7482C10.8084 24.4921 9.66217 25.388 8.69615 26.4373L9.43185 27.1147ZM12.6268 24.6165L15.4828 22.9605L14.9812 22.0955L12.1252 23.7515L12.6268 24.6165ZM15.4858 22.9588C16.7135 22.2356 17.5529 21.3601 17.892 20.305L16.94 19.999C16.7031 20.7359 16.0865 21.4444 14.9782 22.0972L15.4858 22.9588ZM17.8903 20.3101C18.2075 19.3587 18.3927 18.4105 18.4433 17.4667L17.4447 17.4133C17.3993 18.2615 17.2325 19.1213 16.9417 19.9939L17.8903 20.3101ZM18.443 17.4712C18.5077 16.4359 18.54 15.3535 18.54 14.224H17.54C17.54 15.3345 17.5083 16.3961 17.445 17.4088L18.443 17.4712ZM18.54 14.231C18.5561 13.0836 18.5319 11.9829 18.4671 10.9293L17.4689 10.9907C17.5321 12.0171 17.5559 13.0924 17.5401 14.217L18.54 14.231ZM18.4671 10.9294C18.4143 10.068 18.1641 9.33348 17.669 8.77899L16.923 9.44501C17.2279 9.78651 17.4257 10.284 17.4689 10.9906L18.4671 10.9294ZM17.6756 8.7866C17.2005 8.23227 16.528 7.89296 15.712 7.7333L15.52 8.71469C16.176 8.84303 16.6235 9.09572 16.9164 9.43739L17.6756 8.7866ZM16.116 8.224V4.264H15.116V8.224H16.116ZM15.5834 4.76293C17.9711 4.91899 19.5799 5.5615 20.5276 6.59409L21.2644 5.91791C20.0681 4.6145 18.1569 3.929 15.6486 3.76506L15.5834 4.76293ZM20.5301 6.5968C21.5024 7.64053 22.087 9.33339 22.1965 11.7744L23.1955 11.7296C23.081 9.17861 22.4656 7.20747 21.2619 5.9152L20.5301 6.5968ZM22.1964 11.7728C22.2121 12.1479 22.22 12.5966 22.22 13.12H23.22C23.22 12.5874 23.2119 12.1241 23.1956 11.7312L22.1964 11.7728ZM22.2202 13.1356C22.2361 13.642 22.244 14.1727 22.244 14.728H23.244C23.244 14.1633 23.2359 13.622 23.2198 13.1044L22.2202 13.1356ZM22.244 14.728C22.244 15.2671 22.2361 15.7817 22.2203 16.2719L23.2197 16.3041C23.2359 15.8023 23.244 15.2769 23.244 14.728H22.244ZM22.22 16.288C22.22 16.7794 22.2121 17.1869 22.1966 17.5122L23.1954 17.5598C23.2119 17.2131 23.22 16.7886 23.22 16.288H22.22ZM22.1964 17.5156C22.1342 19.0393 21.8707 20.3294 21.4194 21.3974L22.3406 21.7866C22.8493 20.5826 23.1298 19.1687 23.1956 17.5564L22.1964 17.5156ZM21.4194 21.3974C20.9641 22.4749 20.3369 23.4031 19.5378 24.1871L20.2382 24.9009C21.1351 24.0209 21.8359 22.9811 22.3406 21.7866L21.4194 21.3974ZM19.5379 24.187C18.7393 24.9703 17.7814 25.69 16.6601 26.3441L17.1639 27.2079C18.3466 26.518 19.3727 25.7497 20.2381 24.901L19.5379 24.187ZM16.6621 26.3429L13.5421 28.1429L14.0419 29.0091L17.1619 27.2091L16.6621 26.3429ZM13.545 28.1413C12.7551 28.5901 12.1247 29.2429 11.6522 30.0829L12.5238 30.5731C12.9153 29.8771 13.4209 29.3619 14.039 29.0107L13.545 28.1413ZM11.6544 30.0789C11.1945 30.8797 10.8647 31.7615 10.6627 32.721L11.6413 32.927C11.8233 32.0625 12.1175 31.2803 12.5216 30.5771L11.6544 30.0789ZM10.6611 32.7293C10.479 33.6725 10.388 34.6242 10.388 35.584H11.388C11.388 34.6878 11.473 33.7995 11.6429 32.9187L10.6611 32.7293ZM10.388 35.584V43H11.388V35.584H10.388ZM10.888 42.5H6.136V43.5H10.888V42.5ZM6.63568 18.2862C6.60375 17.392 6.57982 16.5784 6.56388 15.8451L5.56412 15.8669C5.58018 16.6056 5.60425 17.424 5.63632 18.3218L6.63568 18.2862ZM6.56388 15.8451C6.54787 15.1087 6.53186 14.4123 6.51585 13.7558L5.51615 13.7802C5.53214 14.4357 5.54813 15.1313 5.56412 15.8669L6.56388 15.8451ZM6.516 13.768C6.516 13.116 6.52395 12.4398 6.53987 11.7394L5.54013 11.7166C5.52405 12.4242 5.516 13.1079 5.516 13.768H6.516ZM6.53962 11.7476C6.63333 9.35791 7.20931 7.68886 8.18186 6.6448L7.45014 5.9632C6.24669 7.25514 5.63867 9.20209 5.54038 11.7084L6.53962 11.7476ZM8.18416 6.64231C9.15527 5.58552 10.7095 4.93309 12.9421 4.76255L12.8659 3.76545C10.4905 3.94691 8.65273 4.65448 7.44784 5.96569L8.18416 6.64231ZM12.404 4.264V8.248H13.404V4.264H12.404ZM12.8059 7.75771C11.9985 7.91919 11.3412 8.27318 10.8977 8.8578L11.6943 9.46219C11.9548 9.11881 12.3695 8.86481 13.0021 8.73829L12.8059 7.75771ZM10.896 8.86C10.4858 9.40687 10.2861 10.0733 10.2681 10.8281L11.2679 10.8519C11.2819 10.2627 11.4342 9.80913 11.696 9.46L10.896 8.86ZM10.2682 10.8263C10.2361 11.9992 10.22 13.2117 10.22 14.464H11.22C11.22 13.2203 11.2359 12.0168 11.2678 10.8537L10.2682 10.8263ZM10.22 14.464C10.22 15.7184 10.2441 17.0045 10.2923 18.3223L11.2917 18.2857C11.2439 16.9795 11.22 15.7056 11.22 14.464H10.22ZM10.792 17.804H6.136V18.804H10.792V17.804ZM14.1 43V38.848H13.1V43H14.1ZM13.6 39.348H22.504V38.348H13.6V39.348ZM22.004 38.848V43H23.004V38.848H22.004ZM22.504 42.5H13.6V43.5H22.504V42.5ZM25.2535 43L24.771 42.8689L24.5996 43.5H25.2535V43ZM29.4775 27.448V26.948H29.0952L28.995 27.3169L29.4775 27.448ZM33.0535 27.448L33.5477 27.5242L33.6365 26.948H33.0535V27.448ZM32.1175 33.52L32.6034 33.6381L32.6084 33.6173L32.6117 33.5962L32.1175 33.52ZM29.8135 43V43.5H30.2065L30.2994 43.1181L29.8135 43ZM25.4455 4.6V4.1H24.8012L24.9612 4.72413L25.4455 4.6ZM30.0055 4.6L30.493 4.4888L30.4043 4.1H30.0055V4.6ZM32.0695 13.648L32.5643 13.5762L32.5614 13.5564L32.557 13.5368L32.0695 13.648ZM33.1975 21.424L32.7027 21.4958L32.7648 21.924H33.1975V21.424ZM37.4215 21.424L37.907 21.3046L37.8135 20.924H37.4215V21.424ZM42.7255 43V43.5H43.3633L43.211 42.8806L42.7255 43ZM38.1655 43L37.6783 43.1123L37.7676 43.5H38.1655V43ZM35.9815 33.52L35.4867 33.5918L35.4896 33.6122L35.4943 33.6322L35.9815 33.52ZM34.8295 25.576L35.3243 25.5042L35.2622 25.076H34.8295V25.576ZM30.8215 25.576L30.3372 25.7001L30.4335 26.076H30.8215V25.576ZM34.9975 19.576L34.503 19.5019L34.417 20.076H34.9975V19.576ZM35.8855 13.648L35.3983 13.5356L35.3939 13.5546L35.391 13.5739L35.8855 13.648ZM37.9735 4.6V4.1H37.5757L37.4863 4.48757L37.9735 4.6ZM42.5335 4.6L43.0184 4.722L43.1749 4.1H42.5335V4.6ZM38.7655 19.576V20.076H39.1553L39.2504 19.698L38.7655 19.576ZM25.736 43.1311L29.96 27.5791L28.995 27.3169L24.771 42.8689L25.736 43.1311ZM29.4775 27.948H33.0535V26.948H29.4775V27.948ZM32.5593 27.3718L31.6233 33.4438L32.6117 33.5962L33.5477 27.5242L32.5593 27.3718ZM31.6316 33.4019L29.3276 42.8819L30.2994 43.1181L32.6034 33.6381L31.6316 33.4019ZM29.8135 42.5H25.2535V43.5H29.8135V42.5ZM25.4455 5.1H30.0055V4.1H25.4455V5.1ZM29.518 4.7112L31.582 13.7592L32.557 13.5368L30.493 4.4888L29.518 4.7112ZM31.5747 13.7198L32.7027 21.4958L33.6923 21.3522L32.5643 13.5762L31.5747 13.7198ZM33.1975 21.924H37.4215V20.924H33.1975V21.924ZM36.936 21.5434L42.24 43.1194L43.211 42.8806L37.907 21.3046L36.936 21.5434ZM42.7255 42.5H38.1655V43.5H42.7255V42.5ZM38.6527 42.8877L36.4687 33.4077L35.4943 33.6322L37.6783 43.1123L38.6527 42.8877ZM36.4763 33.4482L35.3243 25.5042L34.3347 25.6478L35.4867 33.5918L36.4763 33.4482ZM34.8295 25.076H30.8215V26.076H34.8295V25.076ZM31.3058 25.4519L25.9298 4.47586L24.9612 4.72413L30.3372 25.7001L31.3058 25.4519ZM35.492 19.6501L36.38 13.7221L35.391 13.5739L34.503 19.5019L35.492 19.6501ZM36.3727 13.7604L38.4607 4.71243L37.4863 4.48757L35.3983 13.5356L36.3727 13.7604ZM37.9735 5.1H42.5335V4.1H37.9735V5.1ZM42.0486 4.478L38.2806 19.454L39.2504 19.698L43.0184 4.722L42.0486 4.478ZM38.7655 19.076H34.9975V20.076H38.7655V19.076Z" fill="#FEF7FF" mask="url(#path-1-outside-1_207_1309)"/>
<defs>
<linearGradient id="paint0_linear_207_1309" x1="4" y1="2.57143" x2="45.3589" y2="5.5301" gradientUnits="userSpaceOnUse">
<stop stop-color="#5A189A"/>
<stop offset="1" stop-color="#C77DFF"/>
</linearGradient>
</defs>
</svg>
