<svg width="130" height="130" viewBox="0 0 130 130" fill="none" xmlns="http://www.w3.org/2000/svg">
<g opacity="0.2">
<path fill-rule="evenodd" clip-rule="evenodd" d="M49.4517 31.4008L49.4594 31.4085L51.5907 37.9935L51.9227 39.0179L52.1081 39.6032H52.1158L54.5868 47.2434L55.4826 49.9929L60.1312 64.3337L54.9189 65.0808L52.0926 65.489L49.7683 61.5996L47.8996 58.4649L33.861 34.9744L33.8764 34.9436V34.9359L42.9652 19.7249L46.5328 28.243L49.4517 31.4008Z" fill="url(#paint0_linear_971_12241)"/>
<path fill-rule="evenodd" clip-rule="evenodd" d="M69.8533 37.3003L69.0348 45.2717L68.6719 48.7683L68.1931 53.4818L68.085 54.4907L67.3437 61.7843V61.792L64.8031 61.7689L61.7143 61.7381L60.5792 55.4457V55.438L60.4248 54.5523L58.8263 45.7338L57.9923 41.1204L57.4132 37.901L65.0194 37.5313L68.4479 37.3619L69.8533 37.3003Z" fill="url(#paint1_linear_971_12241)"/>
<path fill-rule="evenodd" clip-rule="evenodd" d="M49.4594 31.4086L44.3088 38.4789L42.7026 40.6816L39.7219 38.7561L33.8609 34.9745L32.4555 31.4779L34.7258 19.1935L34.7489 18.6852L34.7644 18.6621L36.2624 15.928L42.9651 19.725L49.4516 31.4009L49.4594 31.4086Z" fill="url(#paint2_linear_971_12241)"/>
<path style="mix-blend-mode:screen" opacity="0.5" fill-rule="evenodd" clip-rule="evenodd" d="M49.4672 31.3778L49.4518 31.4009L44.3012 38.4789L42.7105 40.6508L39.7761 38.7562L33.8765 34.9438V34.9361L32.4634 31.4472L34.7336 19.1936L34.7414 19.1628L34.7645 18.6622V18.6545L36.2781 15.8972L42.973 19.6942L49.4672 31.3778Z" fill="url(#paint3_radial_971_12241)"/>
<path fill-rule="evenodd" clip-rule="evenodd" d="M68.1313 26.3635L69.8533 37.3001L67.4672 40.3808L61.6603 41.9366L59.5136 42.5065L58.4711 40.2191L57.4132 37.9008L58.7105 35.5364L65.6217 24.6152L68.1313 26.3635Z" fill="url(#paint4_linear_971_12241)"/>
<path style="mix-blend-mode:multiply" opacity="0.5" fill-rule="evenodd" clip-rule="evenodd" d="M49.4596 31.4084L51.5908 37.9935V38.0012L51.9229 39.0178L52.1082 39.6032H52.1159L54.587 47.2434L55.4827 49.9929L60.1314 64.3337L54.919 65.0807L50.4017 56.0465H50.3939L49.3592 53.9747L42.7414 40.7584L42.7028 40.6814L44.309 38.4787L49.4596 31.4084Z" fill="url(#paint5_linear_971_12241)"/>
<path style="mix-blend-mode:multiply" opacity="0.5" fill-rule="evenodd" clip-rule="evenodd" d="M69.8532 37.3003L69.0964 45.2486L68.7566 48.7529L68.3088 53.4741L68.2161 54.4753L67.5211 61.792H67.3435L64.803 61.7689L64.8184 61.6688L65.6678 54.8219L65.7605 54.0671L66.3706 49.1996L66.6717 46.7504L67.4671 40.381L69.8532 37.3003Z" fill="url(#paint6_linear_971_12241)"/>
<path fill-rule="evenodd" clip-rule="evenodd" d="M58.3552 40.1577L61.6679 41.9368L59.5135 42.5068L58.3552 40.1577Z" fill="#C8EAFE"/>
<path style="mix-blend-mode:multiply" opacity="0.5" fill-rule="evenodd" clip-rule="evenodd" d="M69.8533 37.3003L69.0965 45.2486L68.7568 48.7529L68.3089 53.4741L68.2162 54.4753L67.5212 61.792L67.3436 61.7843L64.8185 61.6688L62.2085 61.5533L61.1738 54.2289L61.0656 53.4741L59.9228 45.3487L59.6216 43.2692V43.2615L59.5135 42.5067L61.6602 41.9368L67.4672 40.381L69.8533 37.3003Z" fill="url(#paint7_linear_971_12241)"/>
<path style="mix-blend-mode:screen" opacity="0.5" fill-rule="evenodd" clip-rule="evenodd" d="M42.9653 19.725L34.7336 19.1935H34.7259L34.7491 18.6852L34.7645 18.6621L36.2626 15.928L42.9653 19.725Z" fill="url(#paint8_linear_971_12241)"/>
<path style="mix-blend-mode:screen" opacity="0.5" fill-rule="evenodd" clip-rule="evenodd" d="M60.7644 32.5711L67.4671 40.3807L69.0038 37.7698L61.0115 31.978L60.7644 32.5711Z" fill="url(#paint9_linear_971_12241)"/>
<path fill-rule="evenodd" clip-rule="evenodd" d="M39.4903 38.7714L44.3243 38.4788L42.9266 40.874L39.4903 38.7714Z" fill="#C8EAFE"/>
<path style="mix-blend-mode:screen" opacity="0.6" fill-rule="evenodd" clip-rule="evenodd" d="M51.5907 37.9936L51.9227 38.9948L52.1157 39.5802C51.5212 44.5016 50.9497 50.5244 51.6988 50.3627C52.2316 50.2703 53.413 48.8223 54.5868 47.1972L55.4825 49.9468C53.22 51.7721 51.0192 53.9132 50.4864 55.6923C50.4864 55.7925 50.4246 55.8926 50.4015 56.0004C49.9844 57.8222 49.7721 59.6847 49.7683 61.5534L47.8995 58.4188L49.1968 54.4292C49.1968 54.4292 49.2586 54.2521 49.359 53.9286C50.0231 51.8722 52.4015 43.8624 51.5907 37.9551V37.9936Z" fill="url(#paint10_linear_971_12241)"/>
<path style="mix-blend-mode:screen" opacity="0.6" fill-rule="evenodd" clip-rule="evenodd" d="M69.0965 45.2484L68.7568 48.7528H68.6718C67.8878 48.8285 67.1124 48.9754 66.3552 49.1918C65.5199 49.4316 64.735 49.8204 64.0386 50.3393C62.8334 51.4156 61.8611 52.726 61.1815 54.1902C60.973 54.5907 60.7722 54.9989 60.5869 55.3917L60.4324 54.5137C60.6255 54.1594 60.8417 53.7975 61.0734 53.4278C62.5538 50.8909 64.4486 48.6184 66.6795 46.7041C67.4021 46.1146 68.1959 45.6178 69.0425 45.2253L69.0965 45.2484Z" fill="url(#paint11_linear_971_12241)"/>
<path style="mix-blend-mode:screen" opacity="0.6" fill-rule="evenodd" clip-rule="evenodd" d="M68.3165 53.4666L68.2161 54.4755H68.0849L65.6679 54.8067L63.1814 55.1378C64.0088 54.7039 64.8716 54.3406 65.7605 54.0519C66.5536 53.7894 67.3672 53.5936 68.193 53.4666H68.3165Z" fill="url(#paint12_linear_971_12241)"/>
<path style="mix-blend-mode:screen" opacity="0.5" fill-rule="evenodd" clip-rule="evenodd" d="M42.9729 19.6942L49.4671 31.3778L49.4516 31.4009L49.4594 31.4086L51.5906 37.9937L51.9227 39.018L52.108 39.6034H52.1157L54.5868 47.2436L55.4825 49.9931L60.1312 64.3339L54.9188 65.0809L52.0926 65.4891L49.7682 61.5997L47.8995 58.4651L33.8609 34.9746L32.4555 31.478L34.7258 19.1936L34.7489 18.6853L34.7644 18.6622V18.6545L36.2779 15.8972L42.9729 19.6942Z" fill="url(#paint13_linear_971_12241)"/>
<path style="mix-blend-mode:screen" opacity="0.5" fill-rule="evenodd" clip-rule="evenodd" d="M68.1313 26.3635L69.8533 37.3001L69.0966 45.2484L68.7568 48.7527L68.3089 53.4739L68.2163 54.4751L67.5213 61.7918H67.3437L64.8031 61.7687L61.7143 61.7379L60.5792 55.4456V55.4378L60.4248 54.5521L58.8263 45.7336L57.9923 41.1202L57.4132 37.9008L58.7105 35.5364L65.6217 24.6152L68.1313 26.3635Z" fill="url(#paint14_linear_971_12241)"/>
<path fill-rule="evenodd" clip-rule="evenodd" d="M109.351 73.7607L109.297 76.2715L108.926 95.2872L100.316 96.1421L96.2933 96.5426L98.0848 98.8224L94.6485 108.003L89.0886 111.284L78.3782 108.396L79.7373 114.01L65.969 112.039L65.4748 109.767L65.4439 109.643L65.4053 109.651L55.2277 110.683L35.7219 101.741L36.247 99.3461L23.9381 96.2269L35.7219 72.7209H74.6253L79.0423 72.8519H79.1273L92.2083 73.2447L92.2315 73.2524L95.413 73.3448L96.494 73.3756L99.0886 73.4526L101.089 73.5142L109.351 73.7607Z" fill="url(#paint15_linear_971_12241)"/>
<path style="mix-blend-mode:multiply" opacity="0.5" fill-rule="evenodd" clip-rule="evenodd" d="M100.587 73.5222L100.571 75.1627L100.564 75.2706L100.316 96.1424L96.2933 96.5429L95.1659 96.6739L89.9072 91.0439L88.7026 89.7499L74.0771 81.871L75.4748 96.4505L75.5597 97.3978L75.7991 99.8162L72.9033 100.748L63.6755 99.4311L60.9419 99.0306H60.9342V99.0383L58.9806 103.405L57.9072 103.328L60.3319 92.6381L60.2315 90.9206L58.664 79.2216L53.5057 85.7758L53.0346 89.3572L54.0539 94.5097L50.7643 96.3042L43.4439 96.5352H41.1505L36.247 99.3464L23.9381 96.2272L45.8763 72.7213L45.9999 72.5903L50.2624 72.6673L52.4555 72.6982L53.6678 72.7213L60.2315 72.8368L66.9883 72.9523H66.996L92.2161 73.3836H92.2315L95.413 73.4375L96.4941 73.4529L99.0809 73.4991L100.587 73.5222Z" fill="url(#paint16_linear_971_12241)"/>
<path fill-rule="evenodd" clip-rule="evenodd" d="M51.0579 93.7315L43.444 96.535L34.7336 96.3963L34.1081 96.3886L23.9382 96.2269L8.61008 72.1973L24.8108 72.3513L28.8494 72.3898L32.1004 72.4206L40.7182 72.4976L50.2626 72.5901V72.6671V72.721L51.0579 93.7315Z" fill="url(#paint17_linear_971_12241)"/>
<path fill-rule="evenodd" clip-rule="evenodd" d="M60.2316 72.6748V90.9204L53.0347 89.3569L52.4556 72.721V72.6979V72.6055L60.2316 72.6748Z" fill="url(#paint18_linear_971_12241)"/>
<path fill-rule="evenodd" clip-rule="evenodd" d="M55.4826 100.748L57.9073 103.328L60.332 92.6378L53.1429 89.6726L55.4826 100.748Z" fill="url(#paint19_linear_971_12241)"/>
<path fill-rule="evenodd" clip-rule="evenodd" d="M60.9343 99.038L69.3822 96.5349L71.1814 75.5552L61.2509 73.0598L60.9343 99.038Z" fill="url(#paint20_linear_971_12241)"/>
<path fill-rule="evenodd" clip-rule="evenodd" d="M79.7374 114.01L65.9691 112.038L69.1428 111.507L69.3513 111.476L69.4517 111.453L69.6525 111.422L70.9729 111.199L79.7374 114.01Z" fill="url(#paint21_linear_971_12241)"/>
<path fill-rule="evenodd" clip-rule="evenodd" d="M95.4209 73.0057L95.4132 73.3445V73.437L95.1661 96.6733L87.614 97.559L76.7954 98.8375L75.5599 97.3973L74.7028 96.3806L72.7491 74.3843L66.9962 72.9517H66.9885L66.1236 72.7361L79.0425 72.8516H79.1275L92.2008 72.9748H92.2317L95.4209 73.0057Z" fill="url(#paint22_linear_971_12241)"/>
<path fill-rule="evenodd" clip-rule="evenodd" d="M116.34 72.8209L108.927 95.2871L100.317 96.142L96.2935 96.5425L99.0811 73.4987L99.0888 73.4525L99.166 72.8132L114.185 72.8209H116.34Z" fill="url(#paint23_linear_971_12241)"/>
<path fill-rule="evenodd" clip-rule="evenodd" d="M74.7028 96.3811L87.6063 97.5518L76.7955 98.838L74.7028 96.3811Z" fill="url(#paint24_linear_971_12241)"/>
<path style="mix-blend-mode:multiply" opacity="0.5" fill-rule="evenodd" clip-rule="evenodd" d="M116.345 72.9135L108.932 95.3796L100.322 96.2345L96.2985 96.635L98.09 98.9147L94.6537 108.095L89.0938 111.376L78.3834 108.488L79.7425 114.103L65.9742 112.131L65.4799 109.859L55.2328 110.776L62.1131 104.329L63.6807 99.5232V99.5155L60.9471 99.1227L69.3873 96.6273L75.8043 99.9083L75.5649 97.4899L76.8004 98.9301L87.6189 97.6517L88.3139 95.6954L89.9124 91.1359L92.5378 83.6036L92.2212 73.4757L92.2135 73.3371L92.2058 73.0675H92.2367L95.4259 73.0983L95.4181 73.4372L96.4992 73.468L99.0938 73.545L99.171 72.9058L114.19 72.9135H116.345Z" fill="url(#paint25_linear_971_12241)"/>
<path style="mix-blend-mode:multiply" opacity="0.3" fill-rule="evenodd" clip-rule="evenodd" d="M79.7374 114.01L70.9729 111.199L72.9034 100.748L75.7992 99.8156L75.5598 97.3972L76.7953 98.8375L78.3783 108.395L79.7374 114.01Z" fill="url(#paint26_linear_971_12241)"/>
<path style="mix-blend-mode:multiply" opacity="0.3" fill-rule="evenodd" clip-rule="evenodd" d="M96.4942 73.3756V73.4526L95.166 96.6735L95.1892 83.5112H92.5328L92.2316 73.3833V73.2524L92.2162 72.9828L92.2316 72.9751L95.4208 73.0059L95.4131 73.3448L96.4942 73.3756Z" fill="url(#paint27_linear_971_12241)"/>
<path style="mix-blend-mode:multiply" opacity="0.5" fill-rule="evenodd" clip-rule="evenodd" d="M54.0541 94.5097L51.058 93.7318L50.2626 72.7213V72.6673V72.5903L52.4557 72.6057V72.6982V72.7213L53.0348 89.3572L54.0541 94.5097Z" fill="url(#paint28_linear_971_12241)"/>
<path fill-rule="evenodd" clip-rule="evenodd" d="M55.4827 100.748L58.3012 101.425L57.9074 103.328L55.4827 100.748Z" fill="url(#paint29_linear_971_12241)"/>
<path style="mix-blend-mode:multiply" opacity="0.5" fill-rule="evenodd" clip-rule="evenodd" d="M65.475 109.767L55.2279 110.683L62.1082 104.237L65.4055 109.651L65.475 109.767Z" fill="url(#paint30_linear_971_12241)"/>
<path fill-rule="evenodd" clip-rule="evenodd" d="M65.9383 111.753L65.4749 109.766L71.8842 100.748H72.9035L70.973 111.199L65.9383 111.753Z" fill="url(#paint31_linear_971_12241)"/>
<path style="mix-blend-mode:multiply" opacity="0.3" fill-rule="evenodd" clip-rule="evenodd" d="M94.6486 108.003L89.0888 111.284L78.3784 108.396L87.1351 106.316L89.7451 107.664L94.6486 108.003Z" fill="url(#paint32_linear_971_12241)"/>
<path style="mix-blend-mode:multiply" opacity="0.3" fill-rule="evenodd" clip-rule="evenodd" d="M98.085 98.8222L89.2742 98.6682L87.6139 97.5591L95.166 96.6734L96.2935 96.5425L98.085 98.8222Z" fill="url(#paint33_linear_971_12241)"/>
<path style="mix-blend-mode:multiply" opacity="0.5" fill-rule="evenodd" clip-rule="evenodd" d="M98.0849 98.822L94.6254 108.003L89.0656 111.284L78.4092 108.395L87.166 106.316C87.2123 105.985 88.9343 99.9773 89.2509 98.8528L89.305 98.668L98.0849 98.822Z" fill="url(#paint34_linear_971_12241)"/>
<path style="mix-blend-mode:multiply" opacity="0.3" fill-rule="evenodd" clip-rule="evenodd" d="M89.7452 107.671L89.2742 98.668L87.1352 106.316L89.7452 107.671Z" fill="url(#paint35_linear_971_12241)"/>
<path style="mix-blend-mode:multiply" opacity="0.5" fill-rule="evenodd" clip-rule="evenodd" d="M79.7374 114.01L65.9691 112.038L69.1428 111.507L69.3513 111.476L69.4517 111.453L69.6525 111.422L70.9729 111.199L79.7374 114.01Z" fill="url(#paint36_linear_971_12241)"/>
<path style="mix-blend-mode:multiply" opacity="0.3" fill-rule="evenodd" clip-rule="evenodd" d="M34.7336 96.3962L34.7877 96.8506L34.1622 96.6426L34.1081 96.3885L34.1004 96.3577L34.7336 96.3731V96.3962Z" fill="url(#paint37_linear_971_12241)"/>
<path style="mix-blend-mode:multiply" opacity="0.3" fill-rule="evenodd" clip-rule="evenodd" d="M116.34 55.9641L108.927 78.4303L104.811 76.2507L106.927 60.331L100.564 58.4133L99.9615 58.2284L100.572 58.3055L109.297 59.4145L111.614 59.7072L114.185 55.9641H116.34Z" fill="url(#paint38_linear_971_12241)"/>
<path style="mix-blend-mode:screen" opacity="0.6" fill-rule="evenodd" clip-rule="evenodd" d="M116.235 72.8975L108.822 95.3637L100.212 96.2186L96.1892 96.6191L97.9807 98.8988L94.5444 108.079L88.9845 111.36L78.2741 108.472L79.6332 114.087L65.8648 112.115L65.3706 109.843L55.1235 110.76L35.6178 101.818L36.1429 99.4225L23.834 96.3033L8.5058 72.2737L24.7066 72.4277L28.7452 72.4662L31.9961 72.497L40.6139 72.5741L50.1583 72.6665L52.3513 72.6819L60.1274 72.7512V72.7974H74.5212L78.9382 72.9283H79.0231L92.0965 73.0516H92.1274L95.3166 73.0824L95.3088 73.4212L96.3899 73.4521L98.9845 73.5291L99.0617 72.8898L114.081 72.8975H116.235Z" fill="url(#paint39_linear_971_12241)"/>
<path style="mix-blend-mode:multiply" opacity="0.5" fill-rule="evenodd" clip-rule="evenodd" d="M16.1324 78.3852L24.6806 87.4656L41.2212 82.6443L50.8891 84.5004L51.3524 93.4884L54.0474 94.5051L53.2134 89.1369L53.1208 85.055L60.1787 87.3732L60.5494 92.3794L61.198 86.2565L70.4026 85.055L73.7463 85.9792L90.3795 89.599L87.7771 97.1006L95.2134 96.5461L97.4451 81.6277L98.1864 81.9049L96.3254 96.5461L109.152 94.7901L117.329 71.0608L16.1324 78.3852Z" fill="url(#paint40_linear_971_12241)"/>
<path fill-rule="evenodd" clip-rule="evenodd" d="M130 51.872L127.907 55.0683L126.896 55.2993L120.579 73.7837L114.517 74.9389L112.68 74.5923L97.7606 71.7812L87.8224 71.6503L66.2857 71.3653L12.695 65.6043L10.3784 60.3055L61.1274 62.8702L58.9035 56.1234L73.9537 56.4931L70.8649 48.0211L128.842 37.9395C128.847 37.9727 128.847 38.0064 128.842 38.0396C128.672 38.8098 127.645 43.3615 126.927 46.2497C126.751 47.0674 126.521 47.8726 126.239 48.6604C125.853 49.1302 130 51.872 130 51.872Z" fill="url(#paint41_linear_971_12241)"/>
<path style="mix-blend-mode:multiply" opacity="0.5" fill-rule="evenodd" clip-rule="evenodd" d="M24.2471 62.5469L24.1081 68.1076L53.3822 71.8584L53.583 71.042L55.4671 63.3787L57.1428 63.656L52.7721 70.965L69.3822 70.2256L72.8571 61.7844L24.2471 62.5469Z" fill="url(#paint42_linear_971_12241)"/>
<path style="mix-blend-mode:multiply" opacity="0.3" fill-rule="evenodd" clip-rule="evenodd" d="M77.9305 48.7913L78.9653 57.0785L89.1661 59.2119L86 70.5489L78.502 70.1253L80.695 67.7147L61.6757 67.2372L60.0618 69.9097L95.2201 72.1509L114.131 74.8311L120.579 73.8145L126.811 55.2609L127.907 55.0683L130 51.8644L122.656 51.0865L126.201 48.645L128.842 37.9087L80.1159 46.5963L77.9305 48.7913Z" fill="url(#paint43_linear_971_12241)"/>
<path style="mix-blend-mode:multiply" opacity="0.3" fill-rule="evenodd" clip-rule="evenodd" d="M72.8571 61.7844L70.3165 66.2053L77.8532 66.6289L72.8571 61.7844Z" fill="url(#paint44_linear_971_12241)"/>
<path style="mix-blend-mode:multiply" opacity="0.3" fill-rule="evenodd" clip-rule="evenodd" d="M107.328 57.1326L100.541 72.5824L101.622 73.006L108.71 73.6529V61.461L107.328 57.1326Z" fill="url(#paint45_linear_971_12241)"/>
<path style="mix-blend-mode:multiply" opacity="0.3" fill-rule="evenodd" clip-rule="evenodd" d="M86.4016 46.2268L84.502 56.2237L78.9653 57.0787L77.9306 48.7915L86.4016 46.2268Z" fill="url(#paint46_linear_971_12241)"/>
<path fill-rule="evenodd" clip-rule="evenodd" d="M10.3707 60.4979L19.8224 57.4788L72.8572 61.761C72.8572 61.761 62.7104 65.8198 44.4942 65.8198C32.9219 65.6968 21.4283 63.9043 10.3707 60.4979Z" fill="url(#paint47_linear_971_12241)"/>
<path fill-rule="evenodd" clip-rule="evenodd" d="M114.587 74.8237L114.093 74.8776C110.71 75.1857 90.8339 77.011 71.3821 78.7285L60.6486 79.6527H60.5713L46.9111 80.808L34.8493 79.2291L32.6872 78.9442C31.5962 78.8658 30.5108 78.7243 29.4362 78.5206L28.8262 78.4359L26.2239 79.0443L23.6524 77.6657C21.2509 76.3795 18.4941 74.9238 15.7374 73.4682C8.01538 69.3862 0.192989 65.3274 -6.10352e-05 65.2273C14.0694 62.0156 54.6486 68.6469 54.6486 68.6469L93.3821 69.0782L114.587 74.8237Z" fill="url(#paint48_linear_971_12241)"/>
<path fill-rule="evenodd" clip-rule="evenodd" d="M61.6757 67.2369L68.9344 64.5105L79.3128 66.1125L80.695 67.7145L65.9923 68.6772L61.6757 67.2369Z" fill="url(#paint49_linear_971_12241)"/>
<path fill-rule="evenodd" clip-rule="evenodd" d="M58.9034 56.1699L89.166 59.2121L107.328 57.1326L83.637 55.8464L58.9034 56.1699Z" fill="url(#paint50_linear_971_12241)"/>
<path fill-rule="evenodd" clip-rule="evenodd" d="M86.4015 46.2266L97.1196 47.5051L128.834 37.924L116.317 37.8855L70.834 47.9903L77.9305 48.7913L86.4015 46.2266Z" fill="url(#paint51_linear_971_12241)"/>
<path fill-rule="evenodd" clip-rule="evenodd" d="M114.131 74.8233V74.8695L109.784 79.9527L65.1814 82.3557L62.0154 82.5251H59.83L59.0038 82.4173L46.9188 80.8769L34.8494 79.2288L32.6872 78.9438C31.5962 78.8654 30.5108 78.7239 29.4362 78.5202L28.8262 78.4355L26.2239 79.0439L13.8687 81.8551L5.98449 75.2546L-6.10352e-05 65.1807L13.2046 68.6542L13.9768 68.7851L19.5521 69.8017L21.5212 70.1483L21.8146 70.2022L25.6138 70.88L35.7297 72.6822L61.7914 77.3033H62.0231L74.7953 76.7334H75.1968L84.4632 76.2867L93.6138 75.8477L114.131 74.8233Z" fill="url(#paint52_linear_971_12241)"/>
<path style="mix-blend-mode:multiply" opacity="0.3" fill-rule="evenodd" clip-rule="evenodd" d="M114.131 74.8312V74.8774L109.784 79.9606L65.1816 82.3559L62.0156 82.5253H59.8225L58.9963 82.4175L46.9113 80.8771L34.8496 79.229L32.6874 78.944C31.5964 78.8656 30.511 78.7241 29.4364 78.5204L28.8264 78.4357L26.2241 79.0441L13.8689 81.8553L16.9577 76.7182L15.699 73.468L13.8998 68.8469L19.5523 69.8019L21.5214 70.1485L21.8148 70.2024L25.614 70.8802L35.7299 72.6824L61.7916 77.3035H62.0233L74.7955 76.7336H75.197L83.6912 76.3254H84.4634L86.78 76.2176L93.6294 75.8864L114.131 74.9082V74.8312Z" fill="url(#paint53_linear_971_12241)"/>
<path style="mix-blend-mode:multiply" opacity="0.5" fill-rule="evenodd" clip-rule="evenodd" d="M34.8496 79.2286L32.6874 78.9436C31.5964 78.8652 30.511 78.7237 29.4364 78.52L28.8264 78.4353L26.2241 79.0437L13.8689 81.8549L16.9577 76.7178L23.614 77.6651L25.2048 77.8884L26.7492 78.1041H26.8109L32.6951 78.9436L34.8496 79.2286Z" fill="url(#paint54_linear_971_12241)"/>
<path style="mix-blend-mode:multiply" opacity="0.5" fill-rule="evenodd" clip-rule="evenodd" d="M114.131 74.8232V74.8309H114.123L114.093 74.8772L109.745 79.9604L65.1814 82.3556L62.0154 82.525L59.8223 82.4942L58.9961 82.3864L60.6332 79.6523L62.0231 77.3263L74.7953 76.7179L75.1969 76.6948L84.471 76.2481L93.6293 75.8091L114.131 74.8232Z" fill="url(#paint55_linear_971_12241)"/>
<path fill-rule="evenodd" clip-rule="evenodd" d="M98.919 44.2396L106.911 44.5169L105.413 51.1019L105.112 56.9399L106.116 51.3792L110.162 43.5696L98.919 44.2396Z" fill="url(#paint56_linear_971_12241)"/>
<path style="mix-blend-mode:multiply" opacity="0.5" fill-rule="evenodd" clip-rule="evenodd" d="M122.834 53.2278L127.907 55.0685L126.811 55.2611L120.579 73.8147L114.131 74.8313L111.266 74.0612L110.803 73.9302L110.456 73.8301L109.436 73.5451L101.135 71.2346L107.313 57.2173L98.0463 56.6551L97.1196 47.5901L106.703 44.5093L106.842 44.648L108.641 46.5503L110.069 43.6621L110.324 43.5851L113.274 42.6994L121.189 40.3196L123.212 39.7034L128.795 38.0244C128.625 38.7946 127.598 43.3464 126.88 46.2345L126.193 48.6452L122.641 51.0867L122.834 53.2278Z" fill="url(#paint57_linear_971_12241)"/>
<path style="mix-blend-mode:multiply" opacity="0.3" fill-rule="evenodd" clip-rule="evenodd" d="M126.896 55.2995L122.934 53.2585L127.907 55.0685L126.896 55.2995Z" fill="url(#paint58_linear_971_12241)"/>
<path style="mix-blend-mode:screen" opacity="0.3" fill-rule="evenodd" clip-rule="evenodd" d="M113.289 42.699L110.44 73.7834L109.421 73.4985L111.413 52.1183L110.811 51.841L110.34 43.5847L113.289 42.699Z" fill="url(#paint59_linear_971_12241)"/>
<path style="mix-blend-mode:screen" opacity="0.3" fill-rule="evenodd" clip-rule="evenodd" d="M123.197 39.7034C119.799 48.4603 113.012 74.2691 113.012 74.2691L111.251 74.0149L110.764 73.9456V73.884C111.375 72.49 122.456 47.2434 121.181 40.3195L123.197 39.7034Z" fill="url(#paint60_linear_971_12241)"/>
<path style="mix-blend-mode:multiply" opacity="0.15" fill-rule="evenodd" clip-rule="evenodd" d="M74.7953 76.7178L71.3899 78.7202L65.1814 82.3555L62.0154 82.5249L59.8224 82.4941L58.9961 82.3863L58.9343 82.4787L58.9961 82.3863L60.5559 79.6599L61.8841 77.3339L62.0231 77.3262L74.7953 76.7178Z" fill="url(#paint61_linear_971_12241)"/>
<path style="mix-blend-mode:multiply" opacity="0.15" fill-rule="evenodd" clip-rule="evenodd" d="M84.4711 76.2483C84.4053 78.0405 83.9467 79.7966 83.1274 81.3931H82.5946C83.4328 79.8184 83.8177 78.0431 83.7066 76.2637L84.4711 76.2483Z" fill="url(#paint62_linear_971_12241)"/>
<path style="mix-blend-mode:screen" opacity="0.3" fill-rule="evenodd" clip-rule="evenodd" d="M93.6217 75.8093C93.0734 77.2111 92.3475 79.1827 91.7143 80.931L85.9846 81.2391L86.7568 76.1405L93.6217 75.8093Z" fill="url(#paint63_linear_971_12241)"/>
<path style="mix-blend-mode:multiply" opacity="0.15" fill-rule="evenodd" clip-rule="evenodd" d="M21.8148 70.2178C20.9036 72.4898 19.2125 76.7335 19.1121 76.9568C19.0117 77.1802 18.78 76.9568 18.78 76.9568L19.5522 69.8096L21.8148 70.2178Z" fill="url(#paint64_linear_971_12241)"/>
<path style="mix-blend-mode:multiply" opacity="0.15" fill-rule="evenodd" clip-rule="evenodd" d="M35.7298 72.6978C34.5793 75.1239 32.7646 78.6975 32.7028 78.9286C31.6118 78.8502 30.5264 78.7087 29.4518 78.505L26.8572 78.0737H26.7955L25.2511 77.8195V77.6116L25.4673 73.6528L25.614 70.9187L35.7298 72.6978Z" fill="url(#paint65_linear_971_12241)"/>
<path style="mix-blend-mode:multiply" opacity="0.5" fill-rule="evenodd" clip-rule="evenodd" d="M104.664 56.5241C103.894 56.6013 103.118 56.6013 102.347 56.5241C102.347 56.37 105.436 51.1328 105.436 51.1328L104.664 56.5241Z" fill="url(#paint66_linear_971_12241)"/>
<path style="mix-blend-mode:multiply" opacity="0.5" fill-rule="evenodd" clip-rule="evenodd" d="M84.5329 55.8231L86.1777 47.7131L83.8302 54.9451L81.0348 55.4072L80.5329 55.9156L84.5329 55.8231Z" fill="url(#paint67_linear_971_12241)"/>
<path style="mix-blend-mode:multiply" opacity="0.5" fill-rule="evenodd" clip-rule="evenodd" d="M25.2432 78.0044L25.3745 73.314L26.7722 78.1276L25.2432 78.0044Z" fill="url(#paint68_linear_971_12241)"/>
<path style="mix-blend-mode:multiply" opacity="0.5" fill-rule="evenodd" clip-rule="evenodd" d="M86.7722 76.1407L75.0348 72.3206L89.1275 76.0328L85.9846 81.2392L86.7722 76.1407Z" fill="url(#paint69_linear_971_12241)"/>
<path fill-rule="evenodd" clip-rule="evenodd" d="M58.9926 82.3867L58.9343 82.4742L58.9926 82.3867Z" fill="url(#paint70_linear_971_12241)"/>
<path fill-rule="evenodd" clip-rule="evenodd" d="M79.7298 114.01L66.0387 112.639L65.4749 109.767L71.6912 101.017L71.8842 100.748H72.9035L75.7066 99.4769L75.7993 98.0906L76.7954 98.8376L78.3784 108.396L79.7298 114.01Z" fill="url(#paint71_linear_971_12241)"/>
<path style="mix-blend-mode:multiply" opacity="0.5" fill-rule="evenodd" clip-rule="evenodd" d="M66.0386 112.639L71.5213 110.414L79.4209 113.841L66.0386 112.639Z" fill="url(#paint72_linear_971_12241)"/>
<path style="mix-blend-mode:multiply" opacity="0.5" fill-rule="evenodd" clip-rule="evenodd" d="M79.7297 114.01L66.0386 112.639L71.5213 110.413L71.6911 101.017L71.8842 100.748H72.9035L75.7066 99.4769L75.7992 98.0906L76.7954 98.8376L78.3784 108.396L79.7297 114.01Z" fill="url(#paint73_linear_971_12241)"/>
<path fill-rule="evenodd" clip-rule="evenodd" d="M47.8841 91.1974L45.4671 93.1768L42.3088 92.2525L41.9381 87.5544L44.6022 86.3145L47.8841 91.1974Z" fill="url(#paint74_linear_971_12241)"/>
<path style="mix-blend-mode:multiply" opacity="0.3" fill-rule="evenodd" clip-rule="evenodd" d="M47.8842 91.1974L45.4672 93.1768L42.3089 92.2525L44.6641 91.5671L44.6023 86.3145L47.8842 91.1974Z" fill="url(#paint75_linear_971_12241)"/>
<path style="mix-blend-mode:multiply" opacity="0.5" fill-rule="evenodd" clip-rule="evenodd" d="M45.4673 93.1768L44.6642 91.5671L44.6024 86.3145L46.9577 89.8419L50.7337 91.2282L49.56 93.0535L45.4673 93.1768Z" fill="url(#paint76_linear_971_12241)"/>
<path fill-rule="evenodd" clip-rule="evenodd" d="M65.6062 110.906L67.6525 112.023L66.0386 112.639L65.6062 110.906Z" fill="#B7E3FD"/>
<path fill-rule="evenodd" clip-rule="evenodd" d="M42.2935 91.5977L44.6641 91.5669L42.3089 92.2524L42.2935 91.5977Z" fill="#B7E3FD"/>
<path style="mix-blend-mode:screen" opacity="0.5" d="M44.2472 97.2972C48.3285 97.2972 51.6371 93.9972 51.6371 89.9265C51.6371 85.8559 48.3285 82.5559 44.2472 82.5559C40.1658 82.5559 36.8572 85.8559 36.8572 89.9265C36.8572 93.9972 40.1658 97.2972 44.2472 97.2972Z" fill="url(#paint77_radial_971_12241)"/>
<path style="mix-blend-mode:multiply" opacity="0.15" fill-rule="evenodd" clip-rule="evenodd" d="M21.3745 57.5867C24.4633 58.3569 38.7181 65.558 38.7181 65.558C38.7181 65.558 46.7413 66.5747 46.4401 66.3282C46.139 66.0818 22.1158 57.6791 22.1158 57.6791L21.3745 57.5867Z" fill="url(#paint78_linear_971_12241)"/>
</g>
<defs>
<linearGradient id="paint0_linear_971_12241" x1="42.2958" y1="57.6886" x2="54.9314" y2="36.0439" gradientUnits="userSpaceOnUse">
<stop stop-color="#71C8FC"/>
<stop offset="1" stop-color="#58299A"/>
</linearGradient>
<linearGradient id="paint1_linear_971_12241" x1="59.4102" y1="65.4803" x2="65.0408" y2="35.5866" gradientUnits="userSpaceOnUse">
<stop stop-color="#71C8FC"/>
<stop offset="1" stop-color="#58299A"/>
</linearGradient>
<linearGradient id="paint2_linear_971_12241" x1="32.915" y1="24.5726" x2="56.8223" y2="38.2565" gradientUnits="userSpaceOnUse">
<stop stop-color="#71C8FC"/>
<stop offset="1" stop-color="#58299A"/>
</linearGradient>
<radialGradient id="paint3_radial_971_12241" cx="0" cy="0" r="1" gradientUnits="userSpaceOnUse" gradientTransform="translate(38.8958 30.692) rotate(-22.8063) scale(12.7131 12.6899)">
<stop/>
<stop offset="1" stop-color="white"/>
</radialGradient>
<linearGradient id="paint4_linear_971_12241" x1="58.7638" y1="31.7515" x2="93.4383" y2="48.4383" gradientUnits="userSpaceOnUse">
<stop stop-color="#71C8FC"/>
<stop offset="1" stop-color="#58299A"/>
</linearGradient>
<linearGradient id="paint5_linear_971_12241" x1="42.0478" y1="41.7367" x2="65.1185" y2="56.6658" gradientUnits="userSpaceOnUse">
<stop stop-color="#D4B6FC"/>
<stop offset="1" stop-color="#C092FB"/>
</linearGradient>
<linearGradient id="paint6_linear_971_12241" x1="62.3907" y1="44.3453" x2="73.5173" y2="56.1341" gradientUnits="userSpaceOnUse">
<stop stop-color="#D4B6FC"/>
<stop offset="1" stop-color="#C092FB"/>
</linearGradient>
<linearGradient id="paint7_linear_971_12241" x1="71.9036" y1="55.3158" x2="118.876" y2="102.495" gradientUnits="userSpaceOnUse">
<stop stop-color="#D4B6FC"/>
<stop offset="1" stop-color="#C092FB"/>
</linearGradient>
<linearGradient id="paint8_linear_971_12241" x1="44.3194" y1="20.4459" x2="32.9682" y2="16.7369" gradientUnits="userSpaceOnUse">
<stop/>
<stop offset="1" stop-color="white"/>
</linearGradient>
<linearGradient id="paint9_linear_971_12241" x1="69.8857" y1="40.6099" x2="58.6742" y2="30.1217" gradientUnits="userSpaceOnUse">
<stop/>
<stop offset="1" stop-color="white"/>
</linearGradient>
<linearGradient id="paint10_linear_971_12241" x1="42.0372" y1="62.3109" x2="71.1485" y2="20.0741" gradientUnits="userSpaceOnUse">
<stop stop-color="#4F1E95"/>
<stop offset="1"/>
</linearGradient>
<linearGradient id="paint11_linear_971_12241" x1="46.9078" y1="66.1836" x2="85.2284" y2="32.0402" gradientUnits="userSpaceOnUse">
<stop stop-color="#4F1E95"/>
<stop offset="1"/>
</linearGradient>
<linearGradient id="paint12_linear_971_12241" x1="49.5355" y1="69.14" x2="87.856" y2="34.9966" gradientUnits="userSpaceOnUse">
<stop stop-color="#4F1E95"/>
<stop offset="1"/>
</linearGradient>
<linearGradient id="paint13_linear_971_12241" x1="29.6324" y1="48.2696" x2="64.5688" y2="32.9059" gradientUnits="userSpaceOnUse">
<stop stop-color="#D0A7FB"/>
<stop offset="1"/>
</linearGradient>
<linearGradient id="paint14_linear_971_12241" x1="51.956" y1="55.053" x2="66.3895" y2="43.295" gradientUnits="userSpaceOnUse">
<stop stop-color="#D0A7FB"/>
<stop offset="1"/>
</linearGradient>
<linearGradient id="paint15_linear_971_12241" x1="55.0578" y1="146.928" x2="78.4311" y2="41.2563" gradientUnits="userSpaceOnUse">
<stop stop-color="#00CAFF"/>
<stop offset="1" stop-color="#14002E"/>
</linearGradient>
<linearGradient id="paint16_linear_971_12241" x1="62.2084" y1="94.1785" x2="63.3145" y2="67.1526" gradientUnits="userSpaceOnUse">
<stop stop-color="#B37CFA"/>
<stop offset="1" stop-color="#4F1E95"/>
</linearGradient>
<linearGradient id="paint17_linear_971_12241" x1="46.834" y1="132.957" x2="30.6193" y2="76.2105" gradientUnits="userSpaceOnUse">
<stop stop-color="#160330"/>
<stop offset="1" stop-color="#6B30B9"/>
</linearGradient>
<linearGradient id="paint18_linear_971_12241" x1="25.9073" y1="102.897" x2="99.9194" y2="51.236" gradientUnits="userSpaceOnUse">
<stop stop-color="#00CAFF"/>
<stop offset="1" stop-color="#14002E"/>
</linearGradient>
<linearGradient id="paint19_linear_971_12241" x1="28" y1="115.612" x2="113.837" y2="55.6893" gradientUnits="userSpaceOnUse">
<stop stop-color="#5A189A"/>
<stop offset="1" stop-color="#190532"/>
</linearGradient>
<linearGradient id="paint20_linear_971_12241" x1="76.7181" y1="124.415" x2="60.5033" y2="67.6692" gradientUnits="userSpaceOnUse">
<stop stop-color="#160330"/>
<stop offset="1" stop-color="#6B30B9"/>
</linearGradient>
<linearGradient id="paint21_linear_971_12241" x1="71.1351" y1="135.729" x2="73.939" y2="98.3898" gradientUnits="userSpaceOnUse">
<stop stop-color="#271926"/>
<stop offset="1" stop-color="#14002E"/>
</linearGradient>
<linearGradient id="paint22_linear_971_12241" x1="94.1468" y1="119.432" x2="77.9321" y2="62.6935" gradientUnits="userSpaceOnUse">
<stop stop-color="#160330"/>
<stop offset="1" stop-color="#6B30B9"/>
</linearGradient>
<linearGradient id="paint23_linear_971_12241" x1="74.085" y1="129.999" x2="134.764" y2="36.4541" gradientUnits="userSpaceOnUse">
<stop stop-color="#9D4EDD"/>
<stop offset="1" stop-color="#14002E"/>
</linearGradient>
<linearGradient id="paint24_linear_971_12241" x1="76.78" y1="105.954" x2="94.227" y2="69.928" gradientUnits="userSpaceOnUse">
<stop stop-color="#5A189A"/>
<stop offset="1" stop-color="#14002E"/>
</linearGradient>
<linearGradient id="paint25_linear_971_12241" x1="85.3795" y1="101.687" x2="86.8698" y2="65.1574" gradientUnits="userSpaceOnUse">
<stop stop-color="#B37CFA"/>
<stop offset="1" stop-color="#4F1E95"/>
</linearGradient>
<linearGradient id="paint26_linear_971_12241" x1="75.5057" y1="108.965" x2="76.0742" y2="94.8863" gradientUnits="userSpaceOnUse">
<stop stop-color="#D4B6FC"/>
<stop offset="1" stop-color="#C092FB"/>
</linearGradient>
<linearGradient id="paint27_linear_971_12241" x1="93.6834" y1="89.5956" x2="94.513" y2="69.332" gradientUnits="userSpaceOnUse">
<stop stop-color="#D4B6FC"/>
<stop offset="1" stop-color="#C092FB"/>
</linearGradient>
<linearGradient id="paint28_linear_971_12241" x1="51.9769" y1="87.9554" x2="52.7374" y2="69.2553" gradientUnits="userSpaceOnUse">
<stop stop-color="#D4B6FC"/>
<stop offset="1" stop-color="#C092FB"/>
</linearGradient>
<linearGradient id="paint29_linear_971_12241" x1="55.4441" y1="103.62" x2="67.1898" y2="88.672" gradientUnits="userSpaceOnUse">
<stop stop-color="#271926"/>
<stop offset="1" stop-color="#14002E"/>
</linearGradient>
<linearGradient id="paint30_linear_971_12241" x1="58.7568" y1="117.376" x2="62.5679" y2="100.158" gradientUnits="userSpaceOnUse">
<stop stop-color="#B37CFA"/>
<stop offset="1" stop-color="#4F1E95"/>
</linearGradient>
<linearGradient id="paint31_linear_971_12241" x1="55.4518" y1="124.384" x2="87.5792" y2="87.1707" gradientUnits="userSpaceOnUse">
<stop stop-color="#271926"/>
<stop offset="1" stop-color="#14002E"/>
</linearGradient>
<linearGradient id="paint32_linear_971_12241" x1="86.4479" y1="109.728" x2="86.6169" y2="105.546" gradientUnits="userSpaceOnUse">
<stop stop-color="#D4B6FC"/>
<stop offset="1" stop-color="#C092FB"/>
</linearGradient>
<linearGradient id="paint33_linear_971_12241" x1="92.8572" y1="98.0982" x2="92.9417" y2="96.0341" gradientUnits="userSpaceOnUse">
<stop stop-color="#D4B6FC"/>
<stop offset="1" stop-color="#C092FB"/>
</linearGradient>
<linearGradient id="paint34_linear_971_12241" x1="88.0772" y1="107.44" x2="88.5227" y2="96.4652" gradientUnits="userSpaceOnUse">
<stop stop-color="#B37CFA"/>
<stop offset="1" stop-color="#4F1E95"/>
</linearGradient>
<linearGradient id="paint35_linear_971_12241" x1="90.5174" y1="103.451" x2="109.074" y2="108.729" gradientUnits="userSpaceOnUse">
<stop stop-color="#D4B6FC"/>
<stop offset="1" stop-color="#C092FB"/>
</linearGradient>
<linearGradient id="paint36_linear_971_12241" x1="72.8494" y1="113.001" x2="72.9339" y2="110.906" gradientUnits="userSpaceOnUse">
<stop stop-color="#B37CFA"/>
<stop offset="1" stop-color="#4F1E95"/>
</linearGradient>
<linearGradient id="paint37_linear_971_12241" x1="34.4865" y1="96.8275" x2="34.3943" y2="96.2267" gradientUnits="userSpaceOnUse">
<stop stop-color="#D4B6FC"/>
<stop offset="1" stop-color="#C092FB"/>
</linearGradient>
<linearGradient id="paint38_linear_971_12241" x1="85.9692" y1="66.1844" x2="114.911" y2="67.2915" gradientUnits="userSpaceOnUse">
<stop stop-color="#D4B6FC"/>
<stop offset="1" stop-color="#C092FB"/>
</linearGradient>
<linearGradient id="paint39_linear_971_12241" x1="19.0618" y1="120.772" x2="49.2965" y2="92.4196" gradientUnits="userSpaceOnUse">
<stop stop-color="#4F1E95"/>
<stop offset="1"/>
</linearGradient>
<linearGradient id="paint40_linear_971_12241" x1="27.9625" y1="118.935" x2="56.5411" y2="92.1353" gradientUnits="userSpaceOnUse">
<stop stop-color="#B37CFA"/>
<stop offset="1" stop-color="#4F1E95"/>
</linearGradient>
<linearGradient id="paint41_linear_971_12241" x1="59.4981" y1="28.6973" x2="79.4905" y2="69.82" gradientUnits="userSpaceOnUse">
<stop stop-color="#71C8FC"/>
<stop offset="1" stop-color="#58299A"/>
</linearGradient>
<linearGradient id="paint42_linear_971_12241" x1="28.8417" y1="62.054" x2="85.2446" y2="70.3992" gradientUnits="userSpaceOnUse">
<stop stop-color="#D4B6FC"/>
<stop offset="1" stop-color="#C092FB"/>
</linearGradient>
<linearGradient id="paint43_linear_971_12241" x1="89.4209" y1="35.7984" x2="95.4609" y2="57.6643" gradientUnits="userSpaceOnUse">
<stop stop-color="#D4B6FC"/>
<stop offset="1" stop-color="#C092FB"/>
</linearGradient>
<linearGradient id="paint44_linear_971_12241" x1="72.4555" y1="60.5598" x2="73.4391" y2="64.104" gradientUnits="userSpaceOnUse">
<stop stop-color="#D4B6FC"/>
<stop offset="1" stop-color="#C092FB"/>
</linearGradient>
<linearGradient id="paint45_linear_971_12241" x1="101.328" y1="55.1609" x2="103.987" y2="64.7917" gradientUnits="userSpaceOnUse">
<stop stop-color="#D4B6FC"/>
<stop offset="1" stop-color="#C092FB"/>
</linearGradient>
<linearGradient id="paint46_linear_971_12241" x1="81.0271" y1="45.68" x2="82.5179" y2="51.0733" gradientUnits="userSpaceOnUse">
<stop stop-color="#D4B6FC"/>
<stop offset="1" stop-color="#C092FB"/>
</linearGradient>
<linearGradient id="paint47_linear_971_12241" x1="41.7066" y1="61.6762" x2="48.1833" y2="98.4736" gradientUnits="userSpaceOnUse">
<stop stop-color="#AEE0FD"/>
<stop offset="1" stop-color="#6B42A6"/>
</linearGradient>
<linearGradient id="paint48_linear_971_12241" x1="55.3281" y1="58.9195" x2="61.8739" y2="96.1174" gradientUnits="userSpaceOnUse">
<stop stop-color="#AEE0FD"/>
<stop offset="1" stop-color="#6B42A6"/>
</linearGradient>
<linearGradient id="paint49_linear_971_12241" x1="74.7027" y1="71.4113" x2="61.6369" y2="56.6361" gradientUnits="userSpaceOnUse">
<stop stop-color="#AEE0FD"/>
<stop offset="1" stop-color="#6B42A6"/>
</linearGradient>
<linearGradient id="paint50_linear_971_12241" x1="77.359" y1="35.9219" x2="98.0842" y2="110.95" gradientUnits="userSpaceOnUse">
<stop stop-color="#AEE0FD"/>
<stop offset="1" stop-color="#6B42A6"/>
</linearGradient>
<linearGradient id="paint51_linear_971_12241" x1="96.5482" y1="31.1156" x2="117.481" y2="106.922" gradientUnits="userSpaceOnUse">
<stop stop-color="#AEE0FD"/>
<stop offset="1" stop-color="#6B42A6"/>
</linearGradient>
<linearGradient id="paint52_linear_971_12241" x1="29.9227" y1="115.497" x2="68.3759" y2="50.7206" gradientUnits="userSpaceOnUse">
<stop stop-color="#71C8FC"/>
<stop offset="1" stop-color="#58299A"/>
</linearGradient>
<linearGradient id="paint53_linear_971_12241" x1="4.16231" y1="60.6214" x2="107.47" y2="91.3528" gradientUnits="userSpaceOnUse">
<stop stop-color="#D4B6FC"/>
<stop offset="1" stop-color="#C092FB"/>
</linearGradient>
<linearGradient id="paint54_linear_971_12241" x1="12.865" y1="77.126" x2="33.3196" y2="83.2088" gradientUnits="userSpaceOnUse">
<stop stop-color="#D4B6FC"/>
<stop offset="1" stop-color="#C092FB"/>
</linearGradient>
<linearGradient id="paint55_linear_971_12241" x1="56.4401" y1="69.6938" x2="110.008" y2="85.6284" gradientUnits="userSpaceOnUse">
<stop stop-color="#D4B6FC"/>
<stop offset="1" stop-color="#C092FB"/>
</linearGradient>
<linearGradient id="paint56_linear_971_12241" x1="101.714" y1="37.5699" x2="106.212" y2="47.7142" gradientUnits="userSpaceOnUse">
<stop stop-color="#71C8FC"/>
<stop offset="1" stop-color="#58299A"/>
</linearGradient>
<linearGradient id="paint57_linear_971_12241" x1="109.83" y1="36.0836" x2="115.102" y2="55.1757" gradientUnits="userSpaceOnUse">
<stop stop-color="#D4B6FC"/>
<stop offset="1" stop-color="#C092FB"/>
</linearGradient>
<linearGradient id="paint58_linear_971_12241" x1="124.834" y1="52.0571" x2="125.333" y2="53.8677" gradientUnits="userSpaceOnUse">
<stop stop-color="#D4B6FC"/>
<stop offset="1" stop-color="#C092FB"/>
</linearGradient>
<linearGradient id="paint59_linear_971_12241" x1="110.826" y1="41.3897" x2="111.226" y2="53.9745" gradientUnits="userSpaceOnUse">
<stop stop-color="#71C8FC"/>
<stop offset="1" stop-color="#58299A"/>
</linearGradient>
<linearGradient id="paint60_linear_971_12241" x1="116.51" y1="41.2129" x2="116.901" y2="53.7977" gradientUnits="userSpaceOnUse">
<stop stop-color="#71C8FC"/>
<stop offset="1" stop-color="#58299A"/>
</linearGradient>
<linearGradient id="paint61_linear_971_12241" x1="65.5984" y1="75.0388" x2="66.5359" y2="78.4134" gradientUnits="userSpaceOnUse">
<stop stop-color="#D4B6FC"/>
<stop offset="1" stop-color="#C092FB"/>
</linearGradient>
<linearGradient id="paint62_linear_971_12241" x1="82.6178" y1="75.532" x2="83.3939" y2="78.3442" gradientUnits="userSpaceOnUse">
<stop stop-color="#D4B6FC"/>
<stop offset="1" stop-color="#C092FB"/>
</linearGradient>
<linearGradient id="paint63_linear_971_12241" x1="88.6333" y1="74.3075" x2="89.6015" y2="77.8131" gradientUnits="userSpaceOnUse">
<stop stop-color="#71C8FC"/>
<stop offset="1" stop-color="#58299A"/>
</linearGradient>
<linearGradient id="paint64_linear_971_12241" x1="18.8804" y1="68.4695" x2="19.9947" y2="72.5298" gradientUnits="userSpaceOnUse">
<stop stop-color="#D4B6FC"/>
<stop offset="1" stop-color="#C092FB"/>
</linearGradient>
<linearGradient id="paint65_linear_971_12241" x1="28.4557" y1="67.9612" x2="30.031" y2="73.6627" gradientUnits="userSpaceOnUse">
<stop stop-color="#D4B6FC"/>
<stop offset="1" stop-color="#C092FB"/>
</linearGradient>
<linearGradient id="paint66_linear_971_12241" x1="103.019" y1="50.6861" x2="103.834" y2="53.637" gradientUnits="userSpaceOnUse">
<stop stop-color="#D4B6FC"/>
<stop offset="1" stop-color="#C092FB"/>
</linearGradient>
<linearGradient id="paint67_linear_971_12241" x1="82.0773" y1="47.2048" x2="83.2837" y2="51.5657" gradientUnits="userSpaceOnUse">
<stop stop-color="#D4B6FC"/>
<stop offset="1" stop-color="#C092FB"/>
</linearGradient>
<linearGradient id="paint68_linear_971_12241" x1="24.4478" y1="72.4514" x2="25.2701" y2="75.4177" gradientUnits="userSpaceOnUse">
<stop stop-color="#D4B6FC"/>
<stop offset="1" stop-color="#C092FB"/>
</linearGradient>
<linearGradient id="paint69_linear_971_12241" x1="80.4402" y1="68.2694" x2="82.3229" y2="75.0726" gradientUnits="userSpaceOnUse">
<stop stop-color="#D4B6FC"/>
<stop offset="1" stop-color="#C092FB"/>
</linearGradient>
<linearGradient id="paint70_linear_971_12241" x1="58.9125" y1="82.4815" x2="58.9489" y2="82.4451" gradientUnits="userSpaceOnUse">
<stop stop-color="#4F1E95"/>
<stop offset="1"/>
</linearGradient>
<linearGradient id="paint71_linear_971_12241" x1="50.8495" y1="116.144" x2="86.9572" y2="102.534" gradientUnits="userSpaceOnUse">
<stop stop-color="#71C8FC"/>
<stop offset="1" stop-color="#58299A"/>
</linearGradient>
<linearGradient id="paint72_linear_971_12241" x1="55.3205" y1="119.687" x2="84.5678" y2="108.661" gradientUnits="userSpaceOnUse">
<stop stop-color="#D4B6FC"/>
<stop offset="1" stop-color="#C092FB"/>
</linearGradient>
<linearGradient id="paint73_linear_971_12241" x1="50.8495" y1="116.144" x2="86.9572" y2="102.534" gradientUnits="userSpaceOnUse">
<stop stop-color="#B37CFA"/>
<stop offset="1" stop-color="#4F1E95"/>
</linearGradient>
<linearGradient id="paint74_linear_971_12241" x1="36.4092" y1="92.9842" x2="49.9216" y2="87.8931" gradientUnits="userSpaceOnUse">
<stop stop-color="#71C8FC"/>
<stop offset="1" stop-color="#58299A"/>
</linearGradient>
<linearGradient id="paint75_linear_971_12241" x1="36.4093" y1="92.9842" x2="49.9217" y2="87.8931" gradientUnits="userSpaceOnUse">
<stop stop-color="#D4B6FC"/>
<stop offset="1" stop-color="#C092FB"/>
</linearGradient>
<linearGradient id="paint76_linear_971_12241" x1="38.726" y1="92.8225" x2="52.7477" y2="87.5302" gradientUnits="userSpaceOnUse">
<stop stop-color="#B37CFA"/>
<stop offset="1" stop-color="#4F1E95"/>
</linearGradient>
<radialGradient id="paint77_radial_971_12241" cx="0" cy="0" r="1" gradientUnits="userSpaceOnUse" gradientTransform="translate(44.2472 89.9265) scale(7.38996 7.37063)">
<stop stop-color="#36116A"/>
<stop offset="1"/>
</radialGradient>
<linearGradient id="paint78_linear_971_12241" x1="30.7876" y1="57.9333" x2="35.6751" y2="64.2303" gradientUnits="userSpaceOnUse">
<stop stop-color="#D4B6FC"/>
<stop offset="1" stop-color="#C092FB"/>
</linearGradient>
</defs>
</svg>
