<svg width="742" height="389" viewBox="0 0 742 389" fill="none" xmlns="http://www.w3.org/2000/svg">
<path d="M247.15 1.862L379.871 77.6563C382.63 79.2487 385.76 80.0871 388.946 80.0871C392.132 80.0871 395.262 79.2487 398.021 77.6563L450.202 47.5835C452.961 45.9911 456.091 45.1528 459.277 45.1528C462.463 45.1528 465.593 45.9911 468.352 47.5835L705.98 184.748" stroke="#5A189A" stroke-opacity="0.5" stroke-miterlimit="10"/>
<path d="M565 103.329L741.191 0.54671" stroke="#5A189A" stroke-opacity="0.5" stroke-miterlimit="10"/>
<path d="M353.418 62.5519L197.51 152.589C195.436 153.782 193.714 155.5 192.516 157.571C191.319 159.641 190.688 161.99 190.688 164.382C190.688 166.774 191.319 169.123 192.516 171.193C193.714 173.264 195.436 174.982 197.51 176.175L262.441 213.641C264.514 214.835 266.237 216.553 267.434 218.623C268.632 220.694 269.262 223.043 269.262 225.435C269.262 227.826 268.632 230.176 267.434 232.246C266.237 234.316 264.514 236.035 262.441 237.228L0.809492 388" stroke="#5A189A" stroke-opacity="0.5" stroke-miterlimit="10"/>
<g style="mix-blend-mode:screen">
<path style="mix-blend-mode:screen" d="M446.708 127.931C452.289 118.497 414.946 86.2466 363.491 55.8563C312.036 25.466 265.662 8.54723 260.081 17.9818C254.5 27.4164 291.844 59.6664 343.299 90.0567C394.754 120.447 441.172 137.366 446.708 127.931Z" fill="url(#paint0_radial_482_33954)"/>
</g>
<g style="mix-blend-mode:screen">
<path style="mix-blend-mode:screen" d="M476.268 48.5965C470.694 58.0486 507.948 90.3284 559.479 120.695C611.009 151.062 657.301 168.017 662.875 158.565C668.449 149.113 631.195 116.833 579.664 86.4663C528.134 56.0993 481.842 39.1444 476.268 48.5965Z" fill="url(#paint1_radial_482_33954)"/>
</g>
<defs>
<radialGradient id="paint0_radial_482_33954" cx="0" cy="0" r="1" gradientUnits="userSpaceOnUse" gradientTransform="translate(335.366 52.8477) rotate(30.6731) scale(108.176 19.9953)">
<stop stop-color="white"/>
<stop offset="0.01" stop-color="#7FF2FF"/>
<stop offset="0.02" stop-color="#1FE8FF"/>
<stop offset="0.03" stop-color="#03E5FF"/>
<stop offset="0.04" stop-color="#00E5FF"/>
<stop offset="0.07" stop-color="#00C7DD" stop-opacity="0.87"/>
<stop offset="0.12" stop-color="#009DAF" stop-opacity="0.69"/>
<stop offset="0.17" stop-color="#007885" stop-opacity="0.52"/>
<stop offset="0.23" stop-color="#005761" stop-opacity="0.38"/>
<stop offset="0.29" stop-color="#003C43" stop-opacity="0.26"/>
<stop offset="0.36" stop-color="#00262A" stop-opacity="0.17"/>
<stop offset="0.44" stop-color="#001517" stop-opacity="0.09"/>
<stop offset="0.53" stop-color="#00090A" stop-opacity="0.04"/>
<stop offset="0.64" stop-color="#000202" stop-opacity="0.01"/>
<stop offset="0.87" stop-opacity="0"/>
</radialGradient>
<radialGradient id="paint1_radial_482_33954" cx="0" cy="0" r="1" gradientUnits="userSpaceOnUse" gradientTransform="translate(571.489 105.778) rotate(30.511) scale(108.538 19.8435)">
<stop stop-color="white"/>
<stop offset="0.01" stop-color="#7FF2FF"/>
<stop offset="0.02" stop-color="#1FE8FF"/>
<stop offset="0.03" stop-color="#03E5FF"/>
<stop offset="0.04" stop-color="#00E5FF"/>
<stop offset="0.07" stop-color="#00C7DD" stop-opacity="0.87"/>
<stop offset="0.12" stop-color="#009DAF" stop-opacity="0.69"/>
<stop offset="0.17" stop-color="#007885" stop-opacity="0.52"/>
<stop offset="0.23" stop-color="#005761" stop-opacity="0.38"/>
<stop offset="0.29" stop-color="#003C43" stop-opacity="0.26"/>
<stop offset="0.36" stop-color="#00262A" stop-opacity="0.17"/>
<stop offset="0.44" stop-color="#001517" stop-opacity="0.09"/>
<stop offset="0.53" stop-color="#00090A" stop-opacity="0.04"/>
<stop offset="0.64" stop-color="#000202" stop-opacity="0.01"/>
<stop offset="0.87" stop-opacity="0"/>
</radialGradient>
</defs>
</svg>
