<svg width="48" height="48" viewBox="0 0 48 48" fill="none" xmlns="http://www.w3.org/2000/svg">
<path d="M17.1446 10.462L18.2179 11.6231L19.0013 14.0437L19.0013 14.0437L19.1238 14.4216L19.1239 14.4219L19.1922 14.6377L19.2033 14.6726H19.2064L20.1076 17.459L20.1076 17.4591L20.4383 18.4742L20.4383 18.4743L22.1364 23.7128L20.2707 23.9802L20.2706 23.9802L19.26 24.1262L18.4189 22.7187L18.4189 22.7187L17.7289 21.5613L17.7289 21.5613L12.5594 12.9112L15.8562 7.39354L17.1352 10.4474L17.1386 10.4555L17.1446 10.462Z" fill="url(#paint0_linear_207_1017)" stroke="#FEF7FF" stroke-width="0.1"/>
<path d="M25.0893 20.1145L24.8199 22.765L23.9278 22.7569L23.9278 22.7569L22.8287 22.746L22.418 20.4694H22.4185L22.417 20.4608L22.3599 20.1337L22.3599 20.1334L21.7697 16.8773L21.7697 16.8773L21.4618 15.174L21.4618 15.1739L21.258 14.0413L24.0096 13.9076L24.0096 13.9076L25.2753 13.845L25.2755 13.845L25.7363 13.8248L25.44 16.7105L25.44 16.7105L25.306 18.0015L25.306 18.0016L25.1293 19.7417L25.1292 19.742L25.0894 20.1142L25.0893 20.1145Z" fill="url(#paint1_linear_207_1017)" stroke="#FEF7FF" stroke-width="0.1"/>
<path d="M14.6937 14.2679L14.6937 14.2679L12.543 12.8802L12.0354 11.6174L12.871 7.09588L12.8715 7.09596L12.8718 7.08907L12.8797 6.91501L12.8799 6.9146L13.4087 5.94954L15.8272 7.31958L18.202 11.5943L16.3198 14.1781L16.3198 14.1781L15.7546 14.9532L14.6937 14.2679Z" fill="url(#paint2_linear_207_1017)" stroke="#FEF7FF" stroke-width="0.1"/>
<g style="mix-blend-mode:screen" opacity="0.5">
<path d="M14.7137 14.2679L12.5502 12.8698L12.0383 11.6059L12.8736 7.0974L12.8761 7.08754L12.8771 7.08778L12.8775 7.07769L12.8857 6.90132L13.4144 5.93813L15.8301 7.30816L18.2058 11.5823L16.317 14.1779L16.3169 14.1781L15.7575 14.9418L14.7137 14.2679L14.7137 14.2679Z" fill="url(#paint3_radial_207_1017)" style="mix-blend-mode:screen"/>
<path d="M14.7137 14.2679L12.5502 12.8698L12.0383 11.6059L12.8736 7.0974L12.8761 7.08754L12.8771 7.08778L12.8775 7.07769L12.8857 6.90132L13.4144 5.93813L15.8301 7.30816L18.2058 11.5823L16.317 14.1779L16.3169 14.1781L15.7575 14.9418L14.7137 14.2679L14.7137 14.2679Z" stroke="#FEF7FF" stroke-width="0.1"/>
</g>
<path d="M21.6348 14.8294L21.6348 14.8293L21.2546 13.9962L21.7208 13.1465L24.2438 9.15958L25.1101 9.76305L25.7393 13.7588L24.8818 14.8659L22.754 15.4359L22.7539 15.436L22.0022 15.6355L21.6348 14.8294Z" fill="url(#paint4_linear_207_1017)" stroke="#FEF7FF" stroke-width="0.1"/>
<g style="mix-blend-mode:multiply" opacity="0.5">
<path d="M18.2446 11.7056L18.9989 14.0362V14.0391L19.0014 14.0466L19.1239 14.4216L19.124 14.422L19.1923 14.6377L19.2033 14.6726H19.2064L20.1076 17.459L20.1077 17.4591L20.4384 18.4742L20.4384 18.4743L22.1365 23.7128L20.3064 23.9751L18.6546 20.6716L18.6407 20.644H18.6379L18.2697 19.9067L18.2696 19.9066L15.8262 15.0268L15.8262 15.0268L15.8256 15.0256L16.4006 14.2369L16.4007 14.2369L18.2446 11.7056Z" fill="url(#paint5_linear_207_1017)" style="mix-blend-mode:multiply"/>
<path d="M18.2446 11.7056L18.9989 14.0362V14.0391L19.0014 14.0466L19.1239 14.4216L19.124 14.422L19.1923 14.6377L19.2033 14.6726H19.2064L20.1076 17.459L20.1077 17.4591L20.4384 18.4742L20.4384 18.4743L22.1365 23.7128L20.3064 23.9751L18.6546 20.6716L18.6407 20.644H18.6379L18.2697 19.9067L18.2696 19.9066L15.8262 15.0268L15.8262 15.0268L15.8256 15.0256L16.4006 14.2369L16.4007 14.2369L18.2446 11.7056Z" stroke="#FEF7FF" stroke-width="0.1"/>
</g>
<g style="mix-blend-mode:multiply" opacity="0.5">
<path d="M23.9849 22.7574L24.2962 20.248L24.2962 20.2479L24.3304 19.9694L24.3304 19.9693L24.5557 18.1721L24.5557 18.172L24.6669 17.2678L24.6669 17.2677L24.9588 14.9296L25.7258 13.9394L25.4627 16.7023L25.4627 16.7023L25.3373 17.9962L25.3373 17.9963L25.1719 19.7395L25.1719 19.7396L25.1377 20.1092L25.1377 20.1093L24.8854 22.7654H24.8655H24.8653L23.9849 22.7574Z" fill="url(#paint6_linear_207_1017)" style="mix-blend-mode:multiply"/>
<path d="M23.9849 22.7574L24.2962 20.248L24.2962 20.2479L24.3304 19.9694L24.3304 19.9693L24.5557 18.1721L24.5557 18.172L24.6669 17.2678L24.6669 17.2677L24.9588 14.9296L25.7258 13.9394L25.4627 16.7023L25.4627 16.7023L25.3373 17.9962L25.3373 17.9963L25.1719 19.7395L25.1719 19.7396L25.1377 20.1092L25.1377 20.1093L24.8854 22.7654H24.8655H24.8653L23.9849 22.7574Z" stroke="#FEF7FF" stroke-width="0.1"/>
</g>
<path d="M22.001 15.636L21.6604 14.9454L22.6344 15.4684L22.001 15.636Z" fill="#C8EAFE" stroke="#FEF7FF" stroke-width="0.1"/>
<g style="mix-blend-mode:multiply" opacity="0.5">
<path d="M25.3373 17.9962L25.3373 17.9963L25.172 19.7395L25.172 19.7396L25.1378 20.1092L25.1377 20.1093L24.8856 22.7634L24.8676 22.7627L24.8675 22.7626L23.9353 22.72L23.9352 22.72L23.013 22.6792L22.6367 20.0159L22.6367 20.0158L22.5968 19.7372L22.5968 19.7371L22.1749 16.7371L22.1748 16.7369L22.0643 15.9734H22.0647L22.0636 15.9663L22.03 15.7316L22.7797 15.5326L22.7798 15.5326L24.9239 14.9581L24.9402 14.9538L24.9505 14.9405L25.7259 13.9394L25.4628 16.7023L25.4628 16.7023L25.3373 17.9962Z" fill="url(#paint7_linear_207_1017)" style="mix-blend-mode:multiply"/>
<path d="M25.3373 17.9962L25.3373 17.9963L25.172 19.7395L25.172 19.7396L25.1378 20.1092L25.1377 20.1093L24.8856 22.7634L24.8676 22.7627L24.8675 22.7626L23.9353 22.72L23.9352 22.72L23.013 22.6792L22.6367 20.0159L22.6367 20.0158L22.5968 19.7372L22.5968 19.7371L22.1749 16.7371L22.1748 16.7369L22.0643 15.9734H22.0647L22.0636 15.9663L22.03 15.7316L22.7797 15.5326L22.7798 15.5326L24.9239 14.9581L24.9402 14.9538L24.9505 14.9405L25.7259 13.9394L25.4628 16.7023L25.4628 16.7023L25.3373 17.9962Z" stroke="#FEF7FF" stroke-width="0.1"/>
</g>
<g style="mix-blend-mode:screen" opacity="0.5">
<path d="M12.88 6.9146L13.4087 5.94954L15.6498 7.21907L12.8741 7.03987L12.8797 6.91501L12.88 6.9146Z" fill="url(#paint8_linear_207_1017)" style="mix-blend-mode:screen"/>
<path d="M12.88 6.9146L13.4087 5.94954L15.6498 7.21907L12.8741 7.03987L12.8797 6.91501L12.88 6.9146Z" stroke="#FEF7FF" stroke-width="0.1"/>
</g>
<g style="mix-blend-mode:screen" opacity="0.5">
<path d="M25.4122 13.9596L24.9033 14.8241L22.4941 12.017L22.5492 11.8848L25.4122 13.9596Z" fill="url(#paint9_linear_207_1017)" style="mix-blend-mode:screen"/>
<path d="M25.4122 13.9596L24.9033 14.8241L22.4941 12.017L22.5492 11.8848L25.4122 13.9596Z" stroke="#FEF7FF" stroke-width="0.1"/>
</g>
<path d="M15.8324 15.0226L14.7427 14.3558L16.2756 14.263L15.8324 15.0226Z" fill="#C8EAFE" stroke="#FEF7FF" stroke-width="0.1"/>
<g style="mix-blend-mode:screen" opacity="0.6">
<path d="M18.9309 17.2867C18.9177 17.3604 18.9041 17.4334 18.8902 17.5057C18.6769 18.615 18.3956 19.5461 18.2725 19.9271M18.9309 17.2867L18.2249 19.912M18.9309 17.2867C18.9305 17.293 18.9302 17.2993 18.9298 17.3056C18.907 17.6939 18.8995 18.0257 18.9154 18.2575C18.9233 18.3726 18.9372 18.4672 18.9597 18.5323C18.9709 18.5645 18.9858 18.5947 19.0073 18.616C19.031 18.6394 19.0627 18.6518 19.0983 18.6445M18.2725 19.9271C18.2725 19.9272 18.2725 19.9273 18.2724 19.9274L18.2249 19.912M18.2725 19.9271C18.2725 19.927 18.2726 19.9269 18.2726 19.9268L18.2249 19.912M18.2725 19.9271C18.2539 19.987 18.2389 20.0334 18.2285 20.0649L18.2165 20.1009L18.2133 20.1101L18.2125 20.1125L18.2125 20.1123L18.165 20.0969C18.165 20.0969 18.1878 20.0315 18.2249 19.912M17.7405 21.5638L18.2123 20.1131L18.3265 22.6444C18.3268 22.6127 18.3274 22.581 18.328 22.5493M17.7405 21.5638L17.7289 21.5443L17.686 21.5699L17.7335 21.5854L17.7405 21.5638ZM17.7405 21.5638L18.328 22.5493M18.328 22.5493C18.3414 21.9154 18.4195 21.2843 18.561 20.6658L18.6098 20.677C18.463 21.3183 18.3848 21.9733 18.3767 22.6309L18.328 22.5493ZM20.4277 18.4246L20.4383 18.4573L20.4859 18.4418M20.4277 18.4246L18.6411 20.5632C18.8379 19.9063 19.6505 19.1158 20.4859 18.4418M20.4277 18.4246C20.4366 18.4173 20.4455 18.4101 20.4545 18.4029L20.4859 18.4418M20.4277 18.4246L20.138 17.5353C20.1501 17.5187 20.1622 17.5021 20.1743 17.4854L20.4859 18.4418" fill="url(#paint10_linear_207_1017)" style="mix-blend-mode:screen"/>
<path d="M18.9309 17.2867C18.9177 17.3604 18.9041 17.4334 18.8902 17.5057C18.6769 18.615 18.3956 19.5461 18.2725 19.9271M18.9309 17.2867L18.2249 19.912M18.9309 17.2867C18.9305 17.293 18.9302 17.2993 18.9298 17.3056C18.907 17.6939 18.8995 18.0257 18.9154 18.2575C18.9233 18.3726 18.9372 18.4672 18.9597 18.5323C18.9709 18.5645 18.9858 18.5947 19.0073 18.616C19.031 18.6394 19.0627 18.6518 19.0983 18.6445M18.2725 19.9271C18.2725 19.9272 18.2725 19.9273 18.2724 19.9274L18.2249 19.912M18.2725 19.9271C18.2725 19.927 18.2726 19.9269 18.2726 19.9268L18.2249 19.912M18.2725 19.9271C18.2539 19.987 18.2389 20.0334 18.2285 20.0649L18.2165 20.1009L18.2133 20.1101L18.2125 20.1125L18.2125 20.1123L18.165 20.0969C18.165 20.0969 18.1878 20.0315 18.2249 19.912M17.7405 21.5638L18.2123 20.1131L18.3265 22.6444C18.3268 22.6127 18.3274 22.581 18.328 22.5493M17.7405 21.5638L17.7289 21.5443L17.686 21.5699L17.7335 21.5854L17.7405 21.5638ZM17.7405 21.5638L18.328 22.5493M18.328 22.5493C18.3414 21.9154 18.4195 21.2843 18.561 20.6658L18.6098 20.677C18.463 21.3183 18.3848 21.9733 18.3767 22.6309L18.328 22.5493ZM20.4277 18.4246L20.4383 18.4573L20.4859 18.4418M20.4277 18.4246L18.6411 20.5632C18.8379 19.9063 19.6505 19.1158 20.4859 18.4418M20.4277 18.4246C20.4366 18.4173 20.4455 18.4101 20.4545 18.4029L20.4859 18.4418M20.4277 18.4246L20.138 17.5353C20.1501 17.5187 20.1622 17.5021 20.1743 17.4854L20.4859 18.4418" stroke="#FEF7FF" stroke-width="0.1"/>
</g>
<g style="mix-blend-mode:screen" opacity="0.6">
<path d="M25.4561 16.7711L25.3416 17.9521C25.0523 17.9806 24.7661 18.0351 24.4866 18.115L24.4866 18.115C24.1724 18.2052 23.8771 18.3515 23.6151 18.5467L23.615 18.5465L23.6117 18.5495C23.1619 18.9512 22.799 19.4402 22.5452 19.9866C22.4927 20.0874 22.4416 20.1894 22.3928 20.29L22.3658 20.1367C22.4343 20.0119 22.5107 19.8843 22.5925 19.7537L22.5925 19.7537L22.5933 19.7523C23.137 18.8206 23.8329 17.986 24.6522 17.2829C24.8992 17.0814 25.169 16.9097 25.4561 16.7711Z" fill="url(#paint11_linear_207_1017)" style="mix-blend-mode:screen"/>
<path d="M25.4561 16.7711L25.3416 17.9521C25.0523 17.9806 24.7661 18.0351 24.4866 18.115L24.4866 18.115C24.1724 18.2052 23.8771 18.3515 23.6151 18.5467L23.615 18.5465L23.6117 18.5495C23.1619 18.9512 22.799 19.4402 22.5452 19.9866C22.4927 20.0874 22.4416 20.1894 22.3928 20.29L22.3658 20.1367C22.4343 20.0119 22.5107 19.8843 22.5925 19.7537L22.5925 19.7537L22.5933 19.7523C23.137 18.8206 23.8329 17.986 24.6522 17.2829C24.8992 17.0814 25.169 16.9097 25.4561 16.7711Z" stroke="#FEF7FF" stroke-width="0.1"/>
</g>
<g style="mix-blend-mode:screen" opacity="0.6">
<path d="M24.2398 20.1867L23.6236 20.2688C23.8422 20.1677 24.0669 20.0796 24.2963 20.0051L24.2963 20.0051L24.2965 20.005C24.5811 19.9108 24.8729 19.8401 25.1691 19.7936L25.1422 20.064H25.139V20.0635L25.1322 20.0644L24.24 20.1867L24.2398 20.1867Z" fill="url(#paint12_linear_207_1017)" style="mix-blend-mode:screen"/>
<path d="M24.2398 20.1867L23.6236 20.2688C23.8422 20.1677 24.0669 20.0796 24.2963 20.0051L24.2963 20.0051L24.2965 20.005C24.5811 19.9108 24.8729 19.8401 25.1691 19.7936L25.1422 20.064H25.139V20.0635L25.1322 20.0644L24.24 20.1867L24.2398 20.1867Z" stroke="#FEF7FF" stroke-width="0.1"/>
</g>
<g style="mix-blend-mode:screen" opacity="0.5">
<path d="M20.4383 18.4744L22.1364 23.7129L20.2706 23.9803L20.2706 23.9803L19.26 24.1262L18.4189 22.7188L18.4189 22.7187L17.7289 21.5614L17.7289 21.5613L12.5474 12.8913L12.0354 11.6173L12.871 7.09584L12.8715 7.09592L12.8718 7.08903L12.8797 6.91526L12.8861 6.9057V6.90051L13.4144 5.93813L15.83 7.30816L18.2062 11.5832L18.1947 11.6005L18.2181 11.6238L19.0013 14.0437L19.0013 14.0437L19.1238 14.4216L19.1239 14.422L19.1922 14.6378L19.2033 14.6727H19.2064L20.1076 17.459L20.1076 17.4591L20.4383 18.4743L20.4383 18.4744Z" fill="url(#paint13_linear_207_1017)" style="mix-blend-mode:screen"/>
<path d="M20.4383 18.4744L22.1364 23.7129L20.2706 23.9803L20.2706 23.9803L19.26 24.1262L18.4189 22.7188L18.4189 22.7187L17.7289 21.5614L17.7289 21.5613L12.5474 12.8913L12.0354 11.6173L12.871 7.09584L12.8715 7.09592L12.8718 7.08903L12.8797 6.91526L12.8861 6.9057V6.90051L13.4144 5.93813L15.83 7.30816L18.2062 11.5832L18.1947 11.6005L18.2181 11.6238L19.0013 14.0437L19.0013 14.0437L19.1238 14.4216L19.1239 14.422L19.1922 14.6378L19.2033 14.6727H19.2064L20.1076 17.459L20.1076 17.4591L20.4383 18.4743L20.4383 18.4744Z" stroke="#FEF7FF" stroke-width="0.1"/>
</g>
<g style="mix-blend-mode:screen" opacity="0.5">
<path d="M25.3374 17.9961L25.3374 17.9963L25.172 19.7395L25.172 19.7396L25.1378 20.1091L25.1378 20.1093L24.8855 22.7654H24.8656H24.8654L23.9278 22.7569L23.9278 22.7569L22.8287 22.7459L22.418 20.4693H22.4185L22.417 20.4608L22.3599 20.1337L22.3599 20.1334L21.7697 16.8773L21.7697 16.8773L21.4618 15.174L21.4618 15.1739L21.2511 14.0027L21.7208 13.1465L24.2438 9.15958L25.1101 9.76305L25.7416 13.7739L25.4628 16.7022L25.4628 16.7023L25.3374 17.9961Z" fill="url(#paint14_linear_207_1017)" style="mix-blend-mode:screen"/>
<path d="M25.3374 17.9961L25.3374 17.9963L25.172 19.7395L25.172 19.7396L25.1378 20.1091L25.1378 20.1093L24.8855 22.7654H24.8656H24.8654L23.9278 22.7569L23.9278 22.7569L22.8287 22.7459L22.418 20.4693H22.4185L22.417 20.4608L22.3599 20.1337L22.3599 20.1334L21.7697 16.8773L21.7697 16.8773L21.4618 15.174L21.4618 15.1739L21.2511 14.0027L21.7208 13.1465L24.2438 9.15958L25.1101 9.76305L25.7416 13.7739L25.4628 16.7022L25.4628 16.7023L25.3374 17.9961Z" stroke="#FEF7FF" stroke-width="0.1"/>
</g>
<path d="M35.5151 35.6774L36.1593 36.497L34.9065 39.8439L32.887 41.0356L28.9527 39.9747L28.8712 39.9527L28.8911 40.0348L29.3755 42.0361L24.3993 41.3235L24.2242 40.5185L24.2242 40.5185L24.2238 40.517L24.2124 40.4715L24.2008 40.4253L24.1541 40.4346L24.1422 40.437L20.4002 40.8165L13.2471 37.5373L13.4324 36.6923L13.4427 36.645L13.3958 36.6331L8.91127 35.4967L13.2205 26.9008H27.5532H27.554L29.1834 26.9491V26.9491H29.1849H29.2155H29.2162L34.0373 27.0939L34.0389 27.0944L34.0459 27.0968L34.0533 27.097L35.228 27.1311L35.228 27.1311L35.6271 27.1425L35.6272 27.1425L36.585 27.1709L36.5851 27.1709L37.3235 27.1937L37.3236 27.1937L40.3248 27.2832L40.3059 28.1607L40.3059 28.1608L40.1699 35.1376L37.035 35.4488L35.5495 35.5967L35.4589 35.6057L35.5151 35.6774Z" fill="url(#paint15_linear_207_1017)" stroke="#FEF7FF" stroke-width="0.1"/>
<g style="mix-blend-mode:multiply" opacity="0.5">
<path d="M22.4488 36.5151V36.5572L21.7461 38.1279L21.4428 38.1062L22.3252 34.2158L22.3272 34.2163L22.3263 34.2018L22.2893 33.5677L22.2894 33.5677L22.2889 33.564L21.7101 29.2443L21.6944 29.1271L21.6213 29.22L19.7167 31.6401L19.7082 31.6508L19.7064 31.6645L19.5325 32.9868L19.5314 32.995L19.533 33.003L19.9022 34.8695L18.7303 35.5088L16.04 35.5937H15.194H15.1807L15.1692 35.6003L13.3762 36.6282L8.93294 35.5022L16.9753 26.8851L16.9755 26.8849L17.0058 26.8529L18.5575 26.8809L18.5577 26.8809L19.3672 26.8923L19.3675 26.8923L19.8149 26.9008L19.8149 26.9008L22.2385 26.9435L22.2385 26.9435L24.7333 26.9861V26.9861H24.7341H24.7366H24.737L34.0482 27.1454H34.049H34.0543H34.0547L35.2286 27.1653L35.2287 27.1653L35.6277 27.171L35.6279 27.171L36.5828 27.188L36.583 27.188L37.0893 27.1958L37.084 27.7503L37.0813 27.7885L37.0812 27.7885L37.0812 27.7915L36.9905 35.4533L35.5495 35.5968L35.5487 35.5969L35.1575 35.6423L33.2331 33.582L33.2331 33.582L32.7883 33.1043L32.7827 33.0982L32.7754 33.0943L27.3753 30.1852L27.2928 30.1408L27.3018 30.234L27.8178 35.6169L27.8178 35.6172L27.8492 35.9667L27.8492 35.9671L27.9336 36.8199L26.9138 37.1481L23.5182 36.6635L23.518 36.6634L22.5089 36.5156L22.509 36.5151H22.5017H22.4988H22.4488Z" fill="url(#paint16_linear_207_1017)" style="mix-blend-mode:multiply"/>
<path d="M22.4488 36.5151V36.5572L21.7461 38.1279L21.4428 38.1062L22.3252 34.2158L22.3272 34.2163L22.3263 34.2018L22.2893 33.5677L22.2894 33.5677L22.2889 33.564L21.7101 29.2443L21.6944 29.1271L21.6213 29.22L19.7167 31.6401L19.7082 31.6508L19.7064 31.6645L19.5325 32.9868L19.5314 32.995L19.533 33.003L19.9022 34.8695L18.7303 35.5088L16.04 35.5937H15.194H15.1807L15.1692 35.6003L13.3762 36.6282L8.93294 35.5022L16.9753 26.8851L16.9755 26.8849L17.0058 26.8529L18.5575 26.8809L18.5577 26.8809L19.3672 26.8923L19.3675 26.8923L19.8149 26.9008L19.8149 26.9008L22.2385 26.9435L22.2385 26.9435L24.7333 26.9861V26.9861H24.7341H24.7366H24.737L34.0482 27.1454H34.049H34.0543H34.0547L35.2286 27.1653L35.2287 27.1653L35.6277 27.171L35.6279 27.171L36.5828 27.188L36.583 27.188L37.0893 27.1958L37.084 27.7503L37.0813 27.7885L37.0812 27.7885L37.0812 27.7915L36.9905 35.4533L35.5495 35.5968L35.5487 35.5969L35.1575 35.6423L33.2331 33.582L33.2331 33.582L32.7883 33.1043L32.7827 33.0982L32.7754 33.0943L27.3753 30.1852L27.2928 30.1408L27.3018 30.234L27.8178 35.6169L27.8178 35.6172L27.8492 35.9667L27.8492 35.9671L27.9336 36.8199L26.9138 37.1481L23.5182 36.6635L23.518 36.6634L22.5089 36.5156L22.509 36.5151H22.5017H22.4988H22.4488Z" stroke="#FEF7FF" stroke-width="0.1"/>
</g>
<path d="M12.8255 35.5425L12.8253 35.5425L12.5946 35.5396L12.5944 35.5396L8.86643 35.4803L3.27087 26.7083L9.16045 26.7643L10.6516 26.7785L10.6521 26.7285L10.6516 26.7785L11.852 26.7899L11.852 26.7899L15.0339 26.8183L15.034 26.8183L18.5085 26.852L18.5085 26.8527L18.8008 34.5741L16.0323 35.5935L12.8255 35.5425Z" fill="url(#paint17_linear_207_1017)" stroke="#FEF7FF" stroke-width="0.1"/>
<path d="M19.4185 26.8586L22.1894 26.8833V33.5085L19.6307 32.9526L19.4185 26.8586Z" fill="url(#paint18_linear_207_1017)" stroke="#FEF7FF" stroke-width="0.1"/>
<path d="M19.6905 33.1922L22.2183 34.2348L21.3532 38.0491L20.5319 37.1751L19.6905 33.1922Z" fill="url(#paint19_linear_207_1017)" stroke="#FEF7FF" stroke-width="0.1"/>
<path d="M25.5711 35.6054L22.5496 36.5006L22.6649 27.0398L26.2289 27.9354L25.5711 35.6054Z" fill="url(#paint20_linear_207_1017)" stroke="#FEF7FF" stroke-width="0.1"/>
<path d="M25.614 41.2099L25.614 41.21L25.6179 41.2091L25.6531 41.201L25.7254 41.1899L25.7254 41.1899L25.7262 41.1898L26.2017 41.1094L28.8613 41.9624L24.6836 41.3642L25.5374 41.2212L25.614 41.2099Z" fill="url(#paint21_linear_207_1017)" stroke="#FEF7FF" stroke-width="0.1"/>
<path d="M35.1812 27.0054L35.1795 27.0799L35.1795 27.0799V27.081V27.1149V27.1152L35.0887 35.6502L32.3439 35.9721L32.3439 35.9721L28.3758 36.441L27.9373 35.9298L27.937 35.9295L27.631 35.5665L26.911 27.4605L26.9079 27.425L26.8733 27.4164L24.8403 26.9102L29.1845 26.949V26.949H29.1849H29.2161H29.2163L34.0429 26.9945H34.0434H34.0545H34.0548L35.1812 27.0054Z" fill="url(#paint22_linear_207_1017)" stroke="#FEF7FF" stroke-width="0.1"/>
<path d="M36.636 27.1292L36.636 27.1292L36.6363 27.1269L36.6595 26.9349L42.1607 26.9377H42.1607H42.8871L40.1818 35.1364L37.035 35.4488L35.6116 35.5905L36.6333 27.1451L36.636 27.1292Z" fill="url(#paint23_linear_207_1017)" stroke="#FEF7FF" stroke-width="0.1"/>
<path d="M28.3759 36.4411L27.7001 35.6477L31.8674 36.0257L28.3759 36.4411Z" fill="url(#paint24_linear_207_1017)" stroke="#FEF7FF" stroke-width="0.1"/>
<g style="mix-blend-mode:multiply" opacity="0.5">
<path d="M35.517 35.7115L36.1612 36.5311L34.9084 39.878L32.8889 41.0697L28.9546 40.0088L28.8731 39.9869L28.893 40.0689L29.3774 42.0702L24.4012 41.3576L24.2261 40.5527L24.2167 40.5096L24.1728 40.5135L20.5338 40.839L22.9683 38.558L22.9776 38.5492L22.9816 38.537L23.5604 36.7625L23.5629 36.7549V36.747V36.7441V36.7008L23.52 36.6946L22.7372 36.5822L25.6149 35.7313L27.9665 36.9337L28.0481 36.9754L28.039 36.8842L27.9663 36.1493L28.3191 36.5606L28.3365 36.5808L28.3629 36.5777L32.3575 36.1056L32.3883 36.102L32.3987 36.0727L32.6553 35.3504L32.6554 35.3502L33.2456 33.6667L33.2456 33.6666L34.215 30.8854L34.2181 30.8767L34.2178 30.8674L34.1009 27.1279L34.1009 27.1279L34.1009 27.1267L34.098 27.0761L34.0967 27.0291L35.183 27.0396L35.1813 27.1141L35.1802 27.1638L35.2299 27.1652L35.629 27.1766L35.6291 27.1766L36.587 27.205L36.6327 27.2064L36.6381 27.161L36.6613 26.969L42.1626 26.9718H42.8889L40.1836 35.1705L37.0369 35.4829L35.5514 35.6308L35.4608 35.6398L35.517 35.7115Z" fill="url(#paint25_linear_207_1017)" style="mix-blend-mode:multiply"/>
<path d="M35.517 35.7115L36.1612 36.5311L34.9084 39.878L32.8889 41.0697L28.9546 40.0088L28.8731 39.9869L28.893 40.0689L29.3774 42.0702L24.4012 41.3576L24.2261 40.5527L24.2167 40.5096L24.1728 40.5135L20.5338 40.839L22.9683 38.558L22.9776 38.5492L22.9816 38.537L23.5604 36.7625L23.5629 36.7549V36.747V36.7441V36.7008L23.52 36.6946L22.7372 36.5822L25.6149 35.7313L27.9665 36.9337L28.0481 36.9754L28.039 36.8842L27.9663 36.1493L28.3191 36.5606L28.3365 36.5808L28.3629 36.5777L32.3575 36.1056L32.3883 36.102L32.3987 36.0727L32.6553 35.3504L32.6554 35.3502L33.2456 33.6667L33.2456 33.6666L34.215 30.8854L34.2181 30.8767L34.2178 30.8674L34.1009 27.1279L34.1009 27.1279L34.1009 27.1267L34.098 27.0761L34.0967 27.0291L35.183 27.0396L35.1813 27.1141L35.1802 27.1638L35.2299 27.1652L35.629 27.1766L35.6291 27.1766L36.587 27.205L36.6327 27.2064L36.6381 27.161L36.6613 26.969L42.1626 26.9718H42.8889L40.1836 35.1705L37.0369 35.4829L35.5514 35.6308L35.4608 35.6398L35.517 35.7115Z" stroke="#FEF7FF" stroke-width="0.1"/>
</g>
<g style="mix-blend-mode:multiply" opacity="0.3">
<path d="M28.0027 36.9026L28.0411 36.8902L28.0371 36.85L27.9644 36.1151L28.3081 36.5158L28.8904 40.0311L28.8902 40.0311L28.8911 40.0347L29.3719 42.0212L26.2625 41.0238L26.9619 37.2375L28.0027 36.9026Z" fill="url(#paint26_linear_207_1017)" style="mix-blend-mode:multiply"/>
<path d="M28.0027 36.9026L28.0411 36.8902L28.0371 36.85L27.9644 36.1151L28.3081 36.5158L28.8904 40.0311L28.8902 40.0311L28.8911 40.0347L29.3719 42.0212L26.2625 41.0238L26.9619 37.2375L28.0027 36.9026Z" stroke="#FEF7FF" stroke-width="0.1"/>
</g>
<g style="mix-blend-mode:multiply" opacity="0.3">
<path d="M34.1047 27.0442L34.1019 26.9951L35.1811 27.0055L35.1795 27.08L35.1783 27.1297L35.228 27.1311L35.5774 27.1411L35.1914 33.8895L35.1968 30.835L35.1968 30.7849H35.1468H34.2145L34.1047 27.0946V27.047H34.1048L34.1047 27.0442Z" fill="url(#paint27_linear_207_1017)" style="mix-blend-mode:multiply"/>
<path d="M34.1047 27.0442L34.1019 26.9951L35.1811 27.0055L35.1795 27.08L35.1783 27.1297L35.228 27.1311L35.5774 27.1411L35.1914 33.8895L35.1968 30.835L35.1968 30.7849H35.1468H34.2145L34.1047 27.0946V27.047H34.1048L34.1047 27.0442Z" stroke="#FEF7FF" stroke-width="0.1"/>
</g>
<g style="mix-blend-mode:multiply" opacity="0.5">
<path d="M18.9007 34.5695L18.6086 26.8528L19.3185 26.8578L19.5321 32.9951L19.5315 32.9951L19.533 33.003L19.894 34.8274L18.9007 34.5695Z" fill="url(#paint28_linear_207_1017)" style="mix-blend-mode:multiply"/>
<path d="M18.9007 34.5695L18.6086 26.8528L19.3185 26.8578L19.5321 32.9951L19.5315 32.9951L19.533 33.003L19.894 34.8274L18.9007 34.5695Z" stroke="#FEF7FF" stroke-width="0.1"/>
</g>
<path d="M21.4678 37.4866L21.3517 38.0473L20.637 37.2868L21.4678 37.4866Z" fill="url(#paint29_linear_207_1017)" stroke="#FEF7FF" stroke-width="0.1"/>
<g style="mix-blend-mode:multiply" opacity="0.5">
<path d="M24.0912 40.4865L20.5319 40.8049L22.9215 38.5659L24.0912 40.4865Z" fill="url(#paint30_linear_207_1017)" style="mix-blend-mode:multiply"/>
<path d="M24.0912 40.4865L20.5319 40.8049L22.9215 38.5659L24.0912 40.4865Z" stroke="#FEF7FF" stroke-width="0.1"/>
</g>
<path d="M26.163 41.0124L24.385 41.2082L24.2292 40.5397L26.5677 37.249H26.8581L26.163 41.0124Z" fill="url(#paint31_linear_207_1017)" stroke="#FEF7FF" stroke-width="0.1"/>
<g style="mix-blend-mode:multiply" opacity="0.3">
<path d="M33.1137 39.7973L33.1229 39.802L33.1332 39.8027L34.7831 39.9167L32.887 41.0356L29.1431 40.0261L32.1665 39.3081L33.1137 39.7973Z" fill="url(#paint32_linear_207_1017)" style="mix-blend-mode:multiply"/>
<path d="M33.1137 39.7973L33.1229 39.802L33.1332 39.8027L34.7831 39.9167L32.887 41.0356L29.1431 40.0261L32.1665 39.3081L33.1137 39.7973Z" stroke="#FEF7FF" stroke-width="0.1"/>
</g>
<g style="mix-blend-mode:multiply" opacity="0.3">
<path d="M35.5325 35.6993L36.1117 36.4363L32.9783 36.3816L32.4904 36.0556L35.144 35.7444L35.1441 35.7444L35.5325 35.6993Z" fill="url(#paint33_linear_207_1017)" style="mix-blend-mode:multiply"/>
<path d="M35.5325 35.6993L36.1117 36.4363L32.9783 36.3816L32.4904 36.0556L35.144 35.7444L35.1441 35.7444L35.5325 35.6993Z" stroke="#FEF7FF" stroke-width="0.1"/>
</g>
<g style="mix-blend-mode:multiply" opacity="0.5">
<path d="M32.8785 41.0355L29.154 40.0261L32.1959 39.3037L32.2292 39.2958L32.2339 39.262C32.2355 39.2504 32.2462 39.2061 32.2659 39.1313C32.2851 39.0584 32.3117 38.9603 32.3436 38.8446C32.4074 38.6131 32.4921 38.3115 32.58 38.0007C32.6821 37.6394 32.7885 37.2653 32.8712 36.9747C32.9306 36.7658 32.9778 36.6001 33.0022 36.5133C33.0023 36.5132 33.0023 36.5131 33.0023 36.513L33.0114 36.4819L36.1442 36.5368L34.8981 39.8437L32.8785 41.0355Z" fill="url(#paint34_linear_207_1017)" style="mix-blend-mode:multiply"/>
<path d="M32.8785 41.0355L29.154 40.0261L32.1959 39.3037L32.2292 39.2958L32.2339 39.262C32.2355 39.2504 32.2462 39.2061 32.2659 39.1313C32.2851 39.0584 32.3117 38.9603 32.3436 38.8446C32.4074 38.6131 32.4921 38.3115 32.58 38.0007C32.6821 37.6394 32.7885 37.2653 32.8712 36.9747C32.9306 36.7658 32.9778 36.6001 33.0022 36.5133C33.0023 36.5132 33.0023 36.5131 33.0023 36.513L33.0114 36.4819L36.1442 36.5368L34.8981 39.8437L32.8785 41.0355Z" stroke="#FEF7FF" stroke-width="0.1"/>
</g>
<g style="mix-blend-mode:multiply" opacity="0.3">
<path d="M32.2321 39.2294L32.9288 36.7384L33.0822 39.6709L32.2321 39.2294Z" fill="url(#paint35_linear_207_1017)" style="mix-blend-mode:multiply"/>
<path d="M32.2321 39.2294L32.9288 36.7384L33.0822 39.6709L32.2321 39.2294Z" stroke="#FEF7FF" stroke-width="0.1"/>
</g>
<g style="mix-blend-mode:multiply" opacity="0.5">
<path d="M25.614 41.2099L25.614 41.21L25.6179 41.2091L25.6531 41.201L25.7254 41.1899L25.7254 41.1899L25.7262 41.1898L26.2017 41.1094L28.8613 41.9624L24.6836 41.3642L25.5374 41.2212L25.614 41.2099Z" fill="url(#paint36_linear_207_1017)" style="mix-blend-mode:multiply"/>
<path d="M25.614 41.2099L25.614 41.21L25.6179 41.2091L25.6531 41.201L25.7254 41.1899L25.7254 41.1899L25.7262 41.1898L26.2017 41.1094L28.8613 41.9624L24.6836 41.3642L25.5374 41.2212L25.614 41.2099Z" stroke="#FEF7FF" stroke-width="0.1"/>
</g>
<g style="mix-blend-mode:multiply" opacity="0.3">
<path d="M12.6567 35.645L12.6534 35.6297L12.7792 35.6328L12.7857 35.6879L12.6567 35.645Z" fill="url(#paint37_linear_207_1017)" style="mix-blend-mode:multiply"/>
<path d="M12.6567 35.645L12.6534 35.6297L12.7792 35.6328L12.7857 35.6879L12.6567 35.645Z" stroke="#FEF7FF" stroke-width="0.1"/>
</g>
<g style="mix-blend-mode:multiply" opacity="0.3">
<path d="M39.4951 22.2282L37.4896 21.6237L40.3497 21.9872L40.3497 21.9872L41.2051 22.0953L41.2353 22.0991L41.2525 22.074L42.1871 20.7136H42.8871L40.1902 28.8869L38.7536 28.1262L39.5302 22.2826L39.5358 22.2404L39.4951 22.2282Z" fill="url(#paint38_linear_207_1017)" style="mix-blend-mode:multiply"/>
<path d="M39.4951 22.2282L37.4896 21.6237L40.3497 21.9872L40.3497 21.9872L41.2051 22.0953L41.2353 22.0991L41.2525 22.074L42.1871 20.7136H42.8871L40.1902 28.8869L38.7536 28.1262L39.5302 22.2826L39.5358 22.2404L39.4951 22.2282Z" stroke="#FEF7FF" stroke-width="0.1"/>
</g>
<path style="mix-blend-mode:screen" opacity="0.6" fill-rule="evenodd" clip-rule="evenodd" d="M42.9177 26.916L40.1806 35.2111L37.0015 35.5268L35.516 35.6747L36.1775 36.5164L34.9087 39.9062L32.8558 41.1176L28.9012 40.0512L29.403 42.1243L24.3193 41.3963L24.1369 40.5574L20.3533 40.8958L13.1512 37.5942L13.3451 36.7098L8.80024 35.5581L3.14061 26.6856L9.12243 26.7425L10.6136 26.7567L11.814 26.7681L14.9959 26.7965L18.52 26.8306L19.3297 26.8363L22.2009 26.8619V26.879H27.5155L29.1464 26.9273H29.1778L34.0049 26.9728H34.0163L35.1938 26.9842L35.191 27.1093L35.5901 27.1207L36.5481 27.1491L36.5766 26.9131L42.1222 26.916H42.9177Z" fill="url(#paint39_linear_207_1017)"/>
<path style="mix-blend-mode:multiply" opacity="0.5" fill-rule="evenodd" clip-rule="evenodd" d="M5.95657 28.9422L9.11285 32.295L15.2201 30.5148L18.7898 31.2001L18.9609 34.5188L19.956 34.8941L19.648 32.9121L19.6138 31.4049L22.2198 32.2608L22.3567 34.1093L22.5962 31.8485L25.9948 31.4049L27.2294 31.7461L33.3709 33.0827L32.41 35.8525L35.1557 35.6477L35.9797 30.1394L36.2534 30.2418L35.5663 35.6477L40.3021 34.9994L43.3216 26.2378L5.95657 28.9422Z" fill="url(#paint40_linear_207_1017)"/>
<path d="M4.72158 24.1765L3.91022 22.3206L22.5676 23.2635L22.6404 23.2672L22.6176 23.1979L21.8187 20.7742L27.3047 20.9089L27.3781 20.9107L27.353 20.8418L26.2329 17.7698L47.5159 14.0689C47.4347 14.4341 47.0725 16.0357 46.8167 17.0647L46.8163 17.0662C46.7523 17.3637 46.6689 17.6568 46.5667 17.9434C46.5512 17.9674 46.5498 17.9947 46.5545 18.0185C46.5596 18.0442 46.5724 18.07 46.588 18.0945C46.6195 18.1438 46.671 18.2009 46.7335 18.2613C46.8593 18.3828 47.0394 18.5271 47.2222 18.6648C47.4054 18.8027 47.5929 18.9351 47.7346 19.0329C47.8054 19.0819 47.8648 19.1222 47.9065 19.1503L47.931 19.1667L47.1965 20.2886L46.8427 20.3694L46.8155 20.3756L46.8065 20.402L44.4836 27.1995L42.2833 27.6188L41.614 27.4926L36.1055 26.4546L36.1056 26.4539L36.0969 26.4538L32.4274 26.4054L24.4777 26.3002L4.72158 24.1765Z" fill="url(#paint41_linear_207_1017)" stroke="#FEF7FF" stroke-width="0.1"/>
<g style="mix-blend-mode:multiply" opacity="0.5">
<path d="M26.8259 22.8638L25.5839 25.8808L19.8594 26.1357L20.0522 25.3515L21.1418 23.5293L21.1795 23.4663L21.107 23.4543L20.4883 23.3519L20.4427 23.3444L20.4316 23.3893L19.9586 25.3131L19.4422 26.1767L19.3945 26.2564L19.4873 26.2523L19.7304 26.2415L19.6724 26.477L8.95256 25.1035L9.00155 23.1434L26.8259 22.8638Z" fill="url(#paint42_linear_207_1017)" style="mix-blend-mode:multiply"/>
<path d="M26.8259 22.8638L25.5839 25.8808L19.8594 26.1357L20.0522 25.3515L21.1418 23.5293L21.1795 23.4663L21.107 23.4543L20.4883 23.3519L20.4427 23.3444L20.4316 23.3893L19.9586 25.3131L19.4422 26.1767L19.3945 26.2564L19.4873 26.2523L19.7304 26.2415L19.6724 26.477L8.95256 25.1035L9.00155 23.1434L26.8259 22.8638Z" stroke="#FEF7FF" stroke-width="0.1"/>
</g>
<g style="mix-blend-mode:multiply" opacity="0.3">
<path d="M47.5054 14.0597L46.5532 17.9308L45.2602 18.8215L45.1489 18.8981L45.2833 18.9124L47.9134 19.191L47.1973 20.2874L46.8138 20.3547L46.7845 20.3599L46.7751 20.388L44.4838 27.2099L42.1404 27.5794L35.1652 26.5908L35.1652 26.5906L35.1614 26.5904L22.2621 25.7681L22.8004 24.8767L29.6845 25.0495L28.9484 25.8587L28.8777 25.9364L28.9825 25.9423L31.751 26.0987L31.7912 26.101L31.802 26.0622L32.971 21.8763L32.9854 21.8248L32.9331 21.8139L29.2016 21.0335L28.827 18.0332L29.6056 17.2512L47.5054 14.0597Z" fill="url(#paint43_linear_207_1017)" style="mix-blend-mode:multiply"/>
<path d="M47.5054 14.0597L46.5532 17.9308L45.2602 18.8215L45.1489 18.8981L45.2833 18.9124L47.9134 19.191L47.1973 20.2874L46.8138 20.3547L46.7845 20.3599L46.7751 20.388L44.4838 27.2099L42.1404 27.5794L35.1652 26.5908L35.1652 26.5906L35.1614 26.5904L22.2621 25.7681L22.8004 24.8767L29.6845 25.0495L28.9484 25.8587L28.8777 25.9364L28.9825 25.9423L31.751 26.0987L31.7912 26.101L31.802 26.0622L32.971 21.8763L32.9854 21.8248L32.9331 21.8139L29.2016 21.0335L28.827 18.0332L29.6056 17.2512L47.5054 14.0597Z" stroke="#FEF7FF" stroke-width="0.1"/>
</g>
<g style="mix-blend-mode:multiply" opacity="0.3">
<path d="M28.6147 24.5439L26.0468 24.3996L26.9124 22.8933L28.6147 24.5439Z" fill="url(#paint44_linear_207_1017)" style="mix-blend-mode:multiply"/>
<path d="M28.6147 24.5439L26.0468 24.3996L26.9124 22.8933L28.6147 24.5439Z" stroke="#FEF7FF" stroke-width="0.1"/>
</g>
<g style="mix-blend-mode:multiply" opacity="0.3">
<path d="M37.5334 26.9068L37.1894 26.772L39.6214 21.2362L40.0892 22.701V27.1401L37.5334 26.9068Z" fill="url(#paint45_linear_207_1017)" style="mix-blend-mode:multiply"/>
<path d="M37.5334 26.9068L37.1894 26.772L39.6214 21.2362L40.0892 22.701V27.1401L37.5334 26.9068Z" stroke="#FEF7FF" stroke-width="0.1"/>
</g>
<g style="mix-blend-mode:multiply" opacity="0.3">
<path d="M28.8292 18.0509L31.8376 17.1401L31.1582 20.7155L29.1997 21.0179L28.8292 18.0509Z" fill="url(#paint46_linear_207_1017)" style="mix-blend-mode:multiply"/>
<path d="M28.8292 18.0509L31.8376 17.1401L31.1582 20.7155L29.1997 21.0179L28.8292 18.0509Z" stroke="#FEF7FF" stroke-width="0.1"/>
</g>
<path d="M16.4289 24.2527C12.2142 24.2079 8.02784 23.5626 3.99669 22.3366L7.32486 21.2735L26.6699 22.8355C26.5564 22.8751 26.3981 22.9281 26.1959 22.9904C25.741 23.1305 25.0639 23.3174 24.1768 23.5044C22.4026 23.8784 19.788 24.2527 16.4289 24.2527Z" fill="url(#paint47_linear_207_1017)" stroke="#FEF7FF" stroke-width="0.1"/>
<path d="M0.145665 24.1031C1.43365 23.833 3.2812 23.7702 5.3429 23.8308C7.47634 23.8935 9.83487 24.0883 12.0318 24.3202C14.2286 24.552 16.2632 24.8209 17.7486 25.0319C18.4913 25.1374 19.0967 25.2284 19.5164 25.293C19.7262 25.3253 19.8896 25.351 20.0005 25.3686L20.1268 25.3888L20.159 25.394L20.1672 25.3953L20.1692 25.3957L20.1697 25.3958C20.1698 25.3958 20.1699 25.3958 20.1779 25.3464L20.1698 25.3964L20.1774 25.3964L34.4726 25.5556L42.0363 27.605C41.8879 27.6186 41.681 27.6375 41.4218 27.6612C39.1172 27.8719 32.6739 28.4609 26.3521 29.0191L22.3912 29.3602H22.3648V29.36L22.3606 29.3603L17.3222 29.7864L12.874 29.2042L12.8739 29.2042L12.0756 29.099L12.0757 29.0989L12.0727 29.0987C11.6718 29.0698 11.2729 29.0179 10.8781 28.943L10.8781 28.9429L10.8756 28.9426L10.6504 28.9113L10.6412 28.91L10.6321 28.9122L9.68964 29.1325L8.75683 28.6324L8.75681 28.6324C7.8701 28.1575 6.8523 27.6201 5.83465 27.0827L5.83409 27.0824C3.29734 25.7415 0.731294 24.4073 0.145665 24.1031Z" fill="url(#paint48_linear_207_1017)" stroke="#FEF7FF" stroke-width="0.1"/>
<path d="M24.3729 25.3071L22.9222 24.8231L25.458 23.8706L29.2589 24.4573L29.6917 24.9589L24.3729 25.3071Z" fill="url(#paint49_linear_207_1017)" stroke="#FEF7FF" stroke-width="0.1"/>
<path d="M39.034 21.1129L32.9225 21.8126L22.6315 20.7781L30.8803 20.6702L39.034 21.1129Z" fill="url(#paint50_linear_207_1017)" stroke="#FEF7FF" stroke-width="0.1"/>
<path d="M31.908 17.0186L31.8976 17.0174L31.8876 17.0204L28.7697 17.9644L26.4571 17.7033L42.9531 14.0385L47.2345 14.0517L35.8551 17.4894L31.908 17.0186Z" fill="url(#paint51_linear_207_1017)" stroke="#FEF7FF" stroke-width="0.1"/>
<path d="M2.24828 27.7535L0.1053 24.1461L4.86281 25.3976L4.86275 25.3978L4.86717 25.3985L5.15168 25.4468L5.15229 25.4469L7.21024 25.8221L7.21055 25.8222L7.93723 25.9501L7.9376 25.9502L8.04558 25.97L8.04583 25.9701L9.44863 26.2203L9.44864 26.2203L13.1837 26.8857L13.1838 26.8857L22.8066 28.592L22.8064 28.5928H22.8153H22.9008V28.5928L22.9031 28.5927L27.6178 28.3823H27.765V28.3824L27.7674 28.3823L31.1888 28.2173L34.5675 28.0552L34.5676 28.0552L42.0425 27.682L40.5114 29.4722L24.0643 30.3583L24.0643 30.3583L22.8966 30.4208H22.0943L21.7925 30.3814L21.7923 30.3814L17.3306 29.8127L17.3302 29.8127L12.8742 29.2042L12.874 29.2041L12.0756 29.0989L12.0757 29.0988L12.0727 29.0986C11.6718 29.0698 11.2729 29.0178 10.8781 28.943L10.8781 28.9429L10.8756 28.9426L10.6504 28.9113L10.6412 28.91L10.6321 28.9121L9.67156 29.1367L9.67127 29.1368L5.13381 30.1692L2.24828 27.7535Z" fill="url(#paint52_linear_207_1017)" stroke="#FEF7FF" stroke-width="0.1"/>
<g style="mix-blend-mode:multiply" opacity="0.3">
<path d="M5.12646 30.212H5.1297H5.12646Z" stroke="#FEF7FF" stroke-width="0.1"/>
</g>
<g style="mix-blend-mode:multiply" opacity="0.3">
<path d="M34.5733 28.0695L42.0174 27.7143L40.5115 29.4751L24.0644 30.3583L22.8967 30.4208H22.0916L21.7897 30.3814L21.7896 30.3814L17.3279 29.8127L17.3274 29.8127L12.8743 29.2042L12.8741 29.2041L12.0757 29.0989L12.0757 29.0988L12.0728 29.0986C11.6719 29.0698 11.273 29.0178 10.8782 28.943L10.8782 28.9429L10.8757 28.9426L10.6505 28.9113L10.6413 28.91L10.6322 28.9121L9.67165 29.1367L9.67136 29.1368L5.22413 30.1486L6.30415 28.3524L6.31677 28.3314L6.30793 28.3086L5.84318 27.1085L5.84315 27.1085L5.21079 25.4843L7.21064 25.8222L7.21097 25.8223L7.93733 25.9501L7.93769 25.9502L8.04567 25.97L8.04592 25.9701L9.44872 26.2203L9.44873 26.2203L13.1838 26.8858L13.1838 26.8858L22.8066 28.592L22.8065 28.5928H22.8154H22.9009V28.5928L22.9031 28.5927L27.6179 28.3823H27.7651V28.3824L27.7675 28.3823L30.9026 28.2316H31.1865V28.2317L31.1888 28.2316L32.0442 28.1918L32.0443 28.1918L34.5733 28.0695L34.5733 28.0695Z" fill="url(#paint53_linear_207_1017)" style="mix-blend-mode:multiply"/>
<path d="M34.5733 28.0695L42.0174 27.7143L40.5115 29.4751L24.0644 30.3583L22.8967 30.4208H22.0916L21.7897 30.3814L21.7896 30.3814L17.3279 29.8127L17.3274 29.8127L12.8743 29.2042L12.8741 29.2041L12.0757 29.0989L12.0757 29.0988L12.0728 29.0986C11.6719 29.0698 11.273 29.0178 10.8782 28.943L10.8782 28.9429L10.8757 28.9426L10.6505 28.9113L10.6413 28.91L10.6322 28.9121L9.67165 29.1367L9.67136 29.1368L5.22413 30.1486L6.30415 28.3524L6.31677 28.3314L6.30793 28.3086L5.84318 27.1085L5.84315 27.1085L5.21079 25.4843L7.21064 25.8222L7.21097 25.8223L7.93733 25.9501L7.93769 25.9502L8.04567 25.97L8.04592 25.9701L9.44872 26.2203L9.44873 26.2203L13.1838 26.8858L13.1838 26.8858L22.8066 28.592L22.8065 28.5928H22.8154H22.9009V28.5928L22.9031 28.5927L27.6179 28.3823H27.7651V28.3824L27.7675 28.3823L30.9026 28.2316H31.1865V28.2317L31.1888 28.2316L32.0442 28.1918L32.0443 28.1918L34.5733 28.0695L34.5733 28.0695Z" stroke="#FEF7FF" stroke-width="0.1"/>
</g>
<g style="mix-blend-mode:multiply" opacity="0.5">
<path d="M9.89588 28.8884L10.4158 28.9626L9.67165 29.1366L9.67136 29.1367L5.22413 30.1485L6.28707 28.3807L8.71199 28.7258L8.71208 28.7258L9.29943 28.8083L9.29947 28.8083L9.86971 28.8879L9.86964 28.8884H9.87662H9.89588Z" fill="url(#paint54_linear_207_1017)" style="mix-blend-mode:multiply"/>
<path d="M9.89588 28.8884L10.4158 28.9626L9.67165 29.1366L9.67136 29.1367L5.22413 30.1485L6.28707 28.3807L8.71199 28.7258L8.71208 28.7258L9.29943 28.8083L9.29947 28.8083L9.86971 28.8879L9.86964 28.8884H9.87662H9.89588Z" stroke="#FEF7FF" stroke-width="0.1"/>
</g>
<g style="mix-blend-mode:multiply" opacity="0.5">
<path d="M34.5732 28.0409L42.0304 27.6823L40.4972 29.475L24.0643 30.3582L24.0643 30.3582L22.897 30.4207L22.0918 30.4094L21.8652 30.3798L22.4305 29.4357L22.4305 29.4356L22.93 28.5998L27.6191 28.3765L27.6196 28.3764L27.7674 28.3679L27.7679 28.3679L31.1917 28.203L31.1917 28.203L34.5732 28.0409L34.5732 28.0409Z" fill="url(#paint55_linear_207_1017)" style="mix-blend-mode:multiply"/>
<path d="M34.5732 28.0409L42.0304 27.6823L40.4972 29.475L24.0643 30.3582L24.0643 30.3582L22.897 30.4207L22.0918 30.4094L21.8652 30.3798L22.4305 29.4357L22.4305 29.4356L22.93 28.5998L27.6191 28.3765L27.6196 28.3764L27.7674 28.3679L27.7679 28.3679L31.1917 28.203L31.1917 28.203L34.5732 28.0409L34.5732 28.0409Z" stroke="#FEF7FF" stroke-width="0.1"/>
</g>
<path d="M40.5904 16.1424L39.1369 18.9478L39.1334 18.9545L39.1321 18.9619L38.901 20.2416L38.9715 18.8753L39.5237 16.4481L39.5371 16.3891L39.4767 16.387L37.5858 16.3214L40.5904 16.1424Z" fill="url(#paint56_linear_207_1017)" stroke="#FEF7FF" stroke-width="0.1"/>
<g style="mix-blend-mode:multiply" opacity="0.5">
<path d="M45.3043 19.6578L45.3071 19.6894L45.337 19.7003L47.0342 20.3161L46.8138 20.3548L46.7845 20.3599L46.775 20.3881L44.4838 27.2099L42.1435 27.5789L41.0966 27.2975L41.0959 27.2973L40.9257 27.2492L40.9255 27.2492L40.7974 27.2123L40.797 27.2121L40.4207 27.1069L40.4206 27.1069L37.4112 26.2693L39.6689 21.1465L39.6979 21.0808L39.6262 21.0764L36.2471 20.8714L35.9134 17.6069L39.3842 16.4911L39.4134 16.5202L40.0772 17.2221L40.1265 17.2743L40.1584 17.2099L40.6762 16.1629L40.7495 16.1408L40.7496 16.1408L41.8386 15.8138L41.8387 15.8138L44.7611 14.9351L44.7613 14.935L45.5082 14.7076L45.5083 14.7075L47.4879 14.1122C47.3892 14.5538 47.0455 16.0699 46.7998 17.0583L46.5512 17.9302L45.2545 18.8215L45.2304 18.8381L45.233 18.8672L45.3043 19.6578Z" fill="url(#paint57_linear_207_1017)" style="mix-blend-mode:multiply"/>
<path d="M45.3043 19.6578L45.3071 19.6894L45.337 19.7003L47.0342 20.3161L46.8138 20.3548L46.7845 20.3599L46.775 20.3881L44.4838 27.2099L42.1435 27.5789L41.0966 27.2975L41.0959 27.2973L40.9257 27.2492L40.9255 27.2492L40.7974 27.2123L40.797 27.2121L40.4207 27.1069L40.4206 27.1069L37.4112 26.2693L39.6689 21.1465L39.6979 21.0808L39.6262 21.0764L36.2471 20.8714L35.9134 17.6069L39.3842 16.4911L39.4134 16.5202L40.0772 17.2221L40.1265 17.2743L40.1584 17.2099L40.6762 16.1629L40.7495 16.1408L40.7496 16.1408L41.8386 15.8138L41.8387 15.8138L44.7611 14.9351L44.7613 14.935L45.5082 14.7076L45.5083 14.7075L47.4879 14.1122C47.3892 14.5538 47.0455 16.0699 46.7998 17.0583L46.5512 17.9302L45.2545 18.8215L45.2304 18.8381L45.233 18.8672L45.3043 19.6578Z" stroke="#FEF7FF" stroke-width="0.1"/>
</g>
<g style="mix-blend-mode:multiply" opacity="0.3">
<path d="M46.8605 20.3654L46.1147 19.9812L47.0509 20.3219L46.8605 20.3654Z" fill="url(#paint58_linear_207_1017)" style="mix-blend-mode:multiply"/>
<path d="M46.8605 20.3654L46.1147 19.9812L47.0509 20.3219L46.8605 20.3654Z" stroke="#FEF7FF" stroke-width="0.1"/>
</g>
<g style="mix-blend-mode:screen" opacity="0.3">
<path d="M41.1869 19.2483L41.1902 19.213L41.158 19.1982L40.9629 19.1084L40.7929 16.1293L41.7734 15.8349L40.7335 27.1788L40.4551 27.101L41.1869 19.2483Z" fill="url(#paint59_linear_207_1017)" style="mix-blend-mode:screen"/>
<path d="M41.1869 19.2483L41.1902 19.213L41.158 19.1982L40.9629 19.1084L40.7929 16.1293L41.7734 15.8349L40.7335 27.1788L40.4551 27.101L41.1869 19.2483Z" stroke="#FEF7FF" stroke-width="0.1"/>
</g>
<g style="mix-blend-mode:screen" opacity="0.3">
<path d="M45.4046 14.7375C45.1668 15.3612 44.8872 16.1967 44.5899 17.1424C44.6688 16.7846 44.731 16.4479 44.7725 16.1392C44.8371 15.659 44.852 15.2437 44.8006 14.9221L45.4046 14.7375ZM41.0843 27.279L40.9605 27.2614C41.1382 26.8551 42.1736 24.4791 43.1286 21.8665C43.2368 21.5705 43.3441 21.2713 43.4489 20.9716C43.3265 21.3991 43.2061 21.8241 43.0891 22.24C42.6974 23.6335 42.3449 24.9259 42.0903 25.8699C41.963 26.3419 41.8602 26.7268 41.7892 26.9938L41.7075 27.3018L41.6904 27.3665L41.0844 27.2791L41.0843 27.279Z" fill="url(#paint60_linear_207_1017)" style="mix-blend-mode:screen"/>
<path d="M45.4046 14.7375C45.1668 15.3612 44.8872 16.1967 44.5899 17.1424C44.6688 16.7846 44.731 16.4479 44.7725 16.1392C44.8371 15.659 44.852 15.2437 44.8006 14.9221L45.4046 14.7375ZM41.0843 27.279L40.9605 27.2614C41.1382 26.8551 42.1736 24.4791 43.1286 21.8665C43.2368 21.5705 43.3441 21.2713 43.4489 20.9716C43.3265 21.3991 43.2061 21.8241 43.0891 22.24C42.6974 23.6335 42.3449 24.9259 42.0903 25.8699C41.963 26.3419 41.8602 26.7268 41.7892 26.9938L41.7075 27.3018L41.6904 27.3665L41.0844 27.2791L41.0843 27.279Z" stroke="#FEF7FF" stroke-width="0.1"/>
</g>
<g style="mix-blend-mode:multiply" opacity="0.15">
<path d="M22.0918 30.4094L21.8636 30.3796L22.4025 29.4377L22.4025 29.4376L22.8794 28.6025L22.9032 28.6011L22.9036 28.6011L27.4168 28.3861L26.3341 29.0228L26.334 29.0228L24.0522 30.3589L22.897 30.4207L22.0918 30.4094Z" fill="url(#paint61_linear_207_1017)" style="mix-blend-mode:multiply"/>
<path d="M22.0918 30.4094L21.8636 30.3796L22.4025 29.4377L22.4025 29.4376L22.8794 28.6025L22.9032 28.6011L22.9036 28.6011L27.4168 28.3861L26.3341 29.0228L26.334 29.0228L24.0522 30.3589L22.897 30.4207L22.0918 30.4094Z" stroke="#FEF7FF" stroke-width="0.1"/>
</g>
<g style="mix-blend-mode:multiply" opacity="0.15">
<path d="M30.6626 30.0028H30.5787C30.8582 29.4472 30.9896 28.829 30.9598 28.2078L31.1371 28.2042C31.1067 28.8301 30.9451 29.4428 30.6626 30.0028Z" fill="url(#paint62_linear_207_1017)" style="mix-blend-mode:multiply"/>
<path d="M30.6626 30.0028H30.5787C30.8582 29.4472 30.9896 28.829 30.9598 28.2078L31.1371 28.2042C31.1067 28.8301 30.9451 29.4428 30.6626 30.0028Z" stroke="#FEF7FF" stroke-width="0.1"/>
</g>
<g style="mix-blend-mode:screen" opacity="0.3">
<path d="M32.0766 28.1613L34.4934 28.0447C34.2978 28.5484 34.0485 29.2256 33.828 29.834L31.8068 29.9426L32.0766 28.1613Z" fill="url(#paint63_linear_207_1017)" style="mix-blend-mode:screen"/>
<path d="M32.0766 28.1613L34.4934 28.0447C34.2978 28.5484 34.0485 29.2256 33.828 29.834L31.8068 29.9426L32.0766 28.1613Z" stroke="#FEF7FF" stroke-width="0.1"/>
</g>
<g style="mix-blend-mode:multiply" opacity="0.15">
<path d="M6.98687 28.3924L7.26322 25.8346L7.98545 25.9649C7.87565 26.2388 7.73945 26.5794 7.60397 26.9183C7.31804 27.6334 7.03538 28.3404 7.01115 28.3943C7.00949 28.398 7.00811 28.4002 7.00719 28.4014C7.00586 28.4012 7.00353 28.4007 6.99998 28.3993C6.99568 28.3976 6.9912 28.3952 6.98687 28.3924Z" fill="url(#paint64_linear_207_1017)" style="mix-blend-mode:multiply"/>
<path d="M6.98687 28.3924L7.26322 25.8346L7.98545 25.9649C7.87565 26.2388 7.73945 26.5794 7.60397 26.9183C7.31804 27.6334 7.03538 28.3404 7.01115 28.3943C7.00949 28.398 7.00811 28.4002 7.00719 28.4014C7.00586 28.4012 7.00353 28.4007 6.99998 28.3993C6.99568 28.3976 6.9912 28.3952 6.98687 28.3924Z" stroke="#FEF7FF" stroke-width="0.1"/>
</g>
<g style="mix-blend-mode:multiply" opacity="0.15">
<path d="M10.8838 28.9373L10.8838 28.9373L10.8827 28.9371L9.92472 28.7778L9.92483 28.7771H9.91652H9.8978L9.37347 28.6909V28.6579L9.45323 27.1976L9.45323 27.1975L9.50438 26.2443L13.1192 26.8801C12.9165 27.3055 12.6648 27.8152 12.4543 28.2416L12.4381 28.2743C12.3264 28.5005 12.2272 28.7016 12.1544 28.8515C12.1181 28.9264 12.0882 28.9887 12.0667 29.0352C12.0566 29.0569 12.0482 29.0755 12.0418 29.0902C11.6532 29.0609 11.2667 29.0099 10.8838 28.9373Z" fill="url(#paint65_linear_207_1017)" style="mix-blend-mode:multiply"/>
<path d="M10.8838 28.9373L10.8838 28.9373L10.8827 28.9371L9.92472 28.7778L9.92483 28.7771H9.91652H9.8978L9.37347 28.6909V28.6579L9.45323 27.1976L9.45323 27.1975L9.50438 26.2443L13.1192 26.8801C12.9165 27.3055 12.6648 27.8152 12.4543 28.2416L12.4381 28.2743C12.3264 28.5005 12.2272 28.7016 12.1544 28.8515C12.1181 28.9264 12.0882 28.9887 12.0667 29.0352C12.0566 29.0569 12.0482 29.0755 12.0418 29.0902C11.6532 29.0609 11.2667 29.0099 10.8838 28.9373Z" stroke="#FEF7FF" stroke-width="0.1"/>
</g>
<g style="mix-blend-mode:multiply" opacity="0.5">
<path d="M38.8449 19.1236L38.6013 20.8244C38.3562 20.8466 38.1097 20.8475 37.8645 20.827C37.8699 20.8166 37.8761 20.8049 37.8829 20.7921C37.9138 20.7343 37.9582 20.6545 38.0116 20.5599C38.1183 20.3709 38.2608 20.1241 38.4033 19.8789C38.5458 19.6337 38.6883 19.3902 38.7952 19.2081L38.8449 19.1236Z" fill="url(#paint66_linear_207_1017)" style="mix-blend-mode:multiply"/>
<path d="M38.8449 19.1236L38.6013 20.8244C38.3562 20.8466 38.1097 20.8475 37.8645 20.827C37.8699 20.8166 37.8761 20.8049 37.8829 20.7921C37.9138 20.7343 37.9582 20.6545 38.0116 20.5599C38.1183 20.3709 38.2608 20.1241 38.4033 19.8789C38.5458 19.6337 38.6883 19.3902 38.7952 19.2081L38.8449 19.1236Z" stroke="#FEF7FF" stroke-width="0.1"/>
</g>
<g style="mix-blend-mode:multiply" opacity="0.5">
<path d="M30.9608 20.3367L30.9908 20.3318L31.0002 20.3028L31.5959 18.4677L31.1711 20.5625L29.8577 20.5929L29.9447 20.5047L30.9608 20.3367Z" fill="url(#paint67_linear_207_1017)" style="mix-blend-mode:multiply"/>
<path d="M30.9608 20.3367L30.9908 20.3318L31.0002 20.3028L31.5959 18.4677L31.1711 20.5625L29.8577 20.5929L29.9447 20.5047L30.9608 20.3367Z" stroke="#FEF7FF" stroke-width="0.1"/>
</g>
<g style="mix-blend-mode:multiply" opacity="0.5">
<path d="M9.81688 28.7914L9.37188 28.7556L9.41009 27.3904L9.81688 28.7914Z" fill="url(#paint68_linear_207_1017)" style="mix-blend-mode:multiply"/>
<path d="M9.81688 28.7914L9.37188 28.7556L9.41009 27.3904L9.81688 28.7914Z" stroke="#FEF7FF" stroke-width="0.1"/>
</g>
<g style="mix-blend-mode:multiply" opacity="0.5">
<path d="M32.0884 28.121L32.0949 28.079L32.0545 28.0658L29.386 27.1974L32.8313 28.1049L31.8362 29.7533L32.0884 28.121Z" fill="url(#paint69_linear_207_1017)" style="mix-blend-mode:multiply"/>
<path d="M32.0884 28.121L32.0949 28.079L32.0545 28.0658L29.386 27.1974L32.8313 28.1049L31.8362 29.7533L32.0884 28.121Z" stroke="#FEF7FF" stroke-width="0.1"/>
</g>
<mask id="path-74-inside-1_207_1017" fill="white">
<path fill-rule="evenodd" clip-rule="evenodd" d="M21.7821 30.4196L21.7604 30.4522L21.7821 30.4196Z"/>
</mask>
<path fill-rule="evenodd" clip-rule="evenodd" d="M21.7821 30.4196L21.7604 30.4522L21.7821 30.4196Z" fill="url(#paint70_linear_207_1017)"/>
<path d="M21.6988 30.3642L21.6771 30.3968L21.8436 30.5076L21.8653 30.475L21.6988 30.3642ZM21.8436 30.5076L21.8653 30.475L21.6988 30.3642L21.6771 30.3968L21.8436 30.5076Z" fill="#FEF7FF" mask="url(#path-74-inside-1_207_1017)"/>
<path d="M26.9182 37.2491H26.929L26.9389 37.2446L27.9738 36.7754L28.0011 36.7631L28.0031 36.7332L28.0312 36.3133L28.3092 36.5218L28.8904 40.0311L28.8903 40.0311L28.8911 40.0346L29.3736 42.0393L24.4254 41.5438L24.2286 40.5406L26.5112 37.3278L26.5113 37.3276L26.5675 37.2491H26.9182Z" fill="url(#paint71_linear_207_1017)" stroke="#FEF7FF" stroke-width="0.1"/>
<g style="mix-blend-mode:multiply" opacity="0.5">
<path d="M26.4072 40.8223L29.0203 41.956L24.5936 41.5586L26.4072 40.8223Z" fill="url(#paint72_linear_207_1017)" style="mix-blend-mode:multiply"/>
<path d="M26.4072 40.8223L29.0203 41.956L24.5936 41.5586L26.4072 40.8223Z" stroke="#FEF7FF" stroke-width="0.1"/>
</g>
<g style="mix-blend-mode:multiply" opacity="0.5">
<path d="M29.3736 42.0393L24.5894 41.5602L26.4267 40.8143L26.4572 40.8019L26.4578 40.7689L26.5203 37.3151L26.5675 37.2491H26.9182H26.929L26.9389 37.2446L27.9738 36.7754L28.0011 36.7631L28.0031 36.7332L28.0312 36.3133L28.3092 36.5218L28.8904 40.0311L28.8903 40.0311L28.8911 40.0346L29.3736 42.0393Z" fill="url(#paint73_linear_207_1017)" style="mix-blend-mode:multiply"/>
<path d="M29.3736 42.0393L24.5894 41.5602L26.4267 40.8143L26.4572 40.8019L26.4578 40.7689L26.5203 37.3151L26.5675 37.2491H26.9182H26.929L26.9389 37.2446L27.9738 36.7754L28.0011 36.7631L28.0031 36.7332L28.0312 36.3133L28.3092 36.5218L28.8904 40.0311L28.8903 40.0311L28.8911 40.0346L29.3736 42.0393Z" stroke="#FEF7FF" stroke-width="0.1"/>
</g>
<path d="M16.4509 31.9333L17.6134 33.663L16.7766 34.3483L15.6688 34.0242L15.5374 32.3585L16.4509 31.9333Z" fill="url(#paint74_linear_207_1017)" stroke="#FEF7FF" stroke-width="0.1"/>
<g style="mix-blend-mode:multiply" opacity="0.3">
<path d="M16.7766 34.3483L15.8002 34.0626L16.5053 33.8574L16.5418 33.8468L16.5413 33.8088L16.5205 32.0369L17.6134 33.663L16.7766 34.3483Z" fill="url(#paint75_linear_207_1017)" style="mix-blend-mode:multiply"/>
<path d="M16.7766 34.3483L15.8002 34.0626L16.5053 33.8574L16.5418 33.8468L16.5413 33.8088L16.5205 32.0369L17.6134 33.663L16.7766 34.3483Z" stroke="#FEF7FF" stroke-width="0.1"/>
</g>
<g style="mix-blend-mode:multiply" opacity="0.5">
<path d="M16.5413 33.7973L16.5206 32.0378L17.2966 33.2001L17.3057 33.2137L17.321 33.2193L18.6567 33.7097L18.2713 34.309L16.8184 34.3528L16.5413 33.7973Z" fill="url(#paint76_linear_207_1017)" style="mix-blend-mode:multiply"/>
<path d="M16.5413 33.7973L16.5206 32.0378L17.2966 33.2001L17.3057 33.2137L17.321 33.2193L18.6567 33.7097L18.2713 34.309L16.8184 34.3528L16.5413 33.7973Z" stroke="#FEF7FF" stroke-width="0.1"/>
</g>
<path d="M24.4184 41.523L24.2999 41.0485L24.8603 41.3542L24.4184 41.523Z" fill="#B7E3FD" stroke="#FEF7FF" stroke-width="0.1"/>
<path d="M15.6702 33.9962L15.6672 33.87L16.1242 33.864L15.6702 33.9962Z" fill="#B7E3FD" stroke="#FEF7FF" stroke-width="0.1"/>
<path style="mix-blend-mode:screen" opacity="0.5" d="M16.3374 35.925C17.8444 35.925 19.066 34.7066 19.066 33.2036C19.066 31.7006 17.8444 30.4821 16.3374 30.4821C14.8304 30.4821 13.6088 31.7006 13.6088 33.2036C13.6088 34.7066 14.8304 35.925 16.3374 35.925Z" fill="url(#paint77_radial_207_1017)"/>
<g style="mix-blend-mode:multiply" opacity="0.15">
<path d="M9.3941 21.7969C9.33001 21.7685 9.26694 21.7408 9.20503 21.7138C9.30975 21.7506 9.42065 21.7894 9.53699 21.8303C10.3703 22.1225 11.4825 22.5132 12.5982 22.9067C13.7139 23.3002 14.8329 23.6965 15.68 24.0001C16.1036 24.1519 16.459 24.2805 16.712 24.374C16.786 24.4013 16.8511 24.4256 16.9066 24.4466C16.8606 24.4434 16.8091 24.4394 16.7528 24.4345C16.4914 24.4122 16.1321 24.3739 15.7689 24.3327C15.4057 24.2914 15.0391 24.2474 14.7631 24.2136C14.6252 24.1968 14.51 24.1824 14.4292 24.1724L14.3354 24.1606L14.3108 24.1575L14.3033 24.1537L14.259 24.1314L14.09 24.0465C13.9438 23.9732 13.7336 23.8682 13.4779 23.7413C12.9666 23.4876 12.2728 23.1462 11.5434 22.796C10.814 22.4457 10.0486 22.0865 9.3941 21.7969Z" fill="url(#paint78_linear_207_1017)" style="mix-blend-mode:multiply"/>
<path d="M9.3941 21.7969C9.33001 21.7685 9.26694 21.7408 9.20503 21.7138C9.30975 21.7506 9.42065 21.7894 9.53699 21.8303C10.3703 22.1225 11.4825 22.5132 12.5982 22.9067C13.7139 23.3002 14.8329 23.6965 15.68 24.0001C16.1036 24.1519 16.459 24.2805 16.712 24.374C16.786 24.4013 16.8511 24.4256 16.9066 24.4466C16.8606 24.4434 16.8091 24.4394 16.7528 24.4345C16.4914 24.4122 16.1321 24.3739 15.7689 24.3327C15.4057 24.2914 15.0391 24.2474 14.7631 24.2136C14.6252 24.1968 14.51 24.1824 14.4292 24.1724L14.3354 24.1606L14.3108 24.1575L14.3033 24.1537L14.259 24.1314L14.09 24.0465C13.9438 23.9732 13.7336 23.8682 13.4779 23.7413C12.9666 23.4876 12.2728 23.1462 11.5434 22.796C10.814 22.4457 10.0486 22.0865 9.3941 21.7969Z" stroke="#FEF7FF" stroke-width="0.1"/>
</g>
<defs>
<linearGradient id="paint0_linear_207_1017" x1="15.6169" y1="21.3003" x2="20.2824" y2="13.3084" gradientUnits="userSpaceOnUse">
<stop stop-color="#71C8FC"/>
<stop offset="1" stop-color="#58299A"/>
</linearGradient>
<linearGradient id="paint1_linear_207_1017" x1="21.9361" y1="24.1772" x2="24.0151" y2="13.1396" gradientUnits="userSpaceOnUse">
<stop stop-color="#71C8FC"/>
<stop offset="1" stop-color="#58299A"/>
</linearGradient>
<linearGradient id="paint2_linear_207_1017" x1="12.1533" y1="9.0729" x2="20.9805" y2="14.1254" gradientUnits="userSpaceOnUse">
<stop stop-color="#71C8FC"/>
<stop offset="1" stop-color="#58299A"/>
</linearGradient>
<radialGradient id="paint3_radial_207_1017" cx="0" cy="0" r="1" gradientUnits="userSpaceOnUse" gradientTransform="translate(14.3615 11.3323) rotate(-22.8063) scale(4.69408 4.68549)">
<stop/>
<stop offset="1" stop-color="white"/>
</radialGradient>
<linearGradient id="paint4_linear_207_1017" x1="21.6974" y1="11.7236" x2="34.5003" y2="17.8849" gradientUnits="userSpaceOnUse">
<stop stop-color="#71C8FC"/>
<stop offset="1" stop-color="#58299A"/>
</linearGradient>
<linearGradient id="paint5_linear_207_1017" x1="15.5253" y1="15.4104" x2="24.0437" y2="20.9227" gradientUnits="userSpaceOnUse">
<stop stop-color="#D4B6FC"/>
<stop offset="1" stop-color="#C092FB"/>
</linearGradient>
<linearGradient id="paint6_linear_207_1017" x1="23.0366" y1="16.3736" x2="27.1448" y2="20.7263" gradientUnits="userSpaceOnUse">
<stop stop-color="#D4B6FC"/>
<stop offset="1" stop-color="#C092FB"/>
</linearGradient>
<linearGradient id="paint7_linear_207_1017" x1="26.549" y1="20.4242" x2="43.8928" y2="37.8442" gradientUnits="userSpaceOnUse">
<stop stop-color="#D4B6FC"/>
<stop offset="1" stop-color="#C092FB"/>
</linearGradient>
<linearGradient id="paint8_linear_207_1017" x1="16.3641" y1="7.54919" x2="12.1729" y2="6.17972" gradientUnits="userSpaceOnUse">
<stop/>
<stop offset="1" stop-color="white"/>
</linearGradient>
<linearGradient id="paint9_linear_207_1017" x1="25.804" y1="14.9944" x2="21.6643" y2="11.1219" gradientUnits="userSpaceOnUse">
<stop/>
<stop offset="1" stop-color="white"/>
</linearGradient>
<linearGradient id="paint10_linear_207_1017" x1="15.5214" y1="23.007" x2="26.2702" y2="7.4119" gradientUnits="userSpaceOnUse">
<stop stop-color="#4F1E95"/>
<stop offset="1"/>
</linearGradient>
<linearGradient id="paint11_linear_207_1017" x1="17.3198" y1="24.437" x2="31.4689" y2="11.8302" gradientUnits="userSpaceOnUse">
<stop stop-color="#4F1E95"/>
<stop offset="1"/>
</linearGradient>
<linearGradient id="paint12_linear_207_1017" x1="18.29" y1="25.5286" x2="32.4391" y2="12.9218" gradientUnits="userSpaceOnUse">
<stop stop-color="#4F1E95"/>
<stop offset="1"/>
</linearGradient>
<linearGradient id="paint13_linear_207_1017" x1="10.9412" y1="17.8225" x2="23.8408" y2="12.1498" gradientUnits="userSpaceOnUse">
<stop stop-color="#D0A7FB"/>
<stop offset="1"/>
</linearGradient>
<linearGradient id="paint14_linear_207_1017" x1="19.1838" y1="20.3272" x2="24.5131" y2="15.9858" gradientUnits="userSpaceOnUse">
<stop stop-color="#D0A7FB"/>
<stop offset="1"/>
</linearGradient>
<linearGradient id="paint15_linear_207_1017" x1="20.329" y1="54.2502" x2="28.9592" y2="15.2331" gradientUnits="userSpaceOnUse">
<stop stop-color="#00CAFF"/>
<stop offset="1" stop-color="#14002E"/>
</linearGradient>
<linearGradient id="paint16_linear_207_1017" x1="22.9693" y1="34.7735" x2="23.3777" y2="24.7947" gradientUnits="userSpaceOnUse">
<stop stop-color="#B37CFA"/>
<stop offset="1" stop-color="#4F1E95"/>
</linearGradient>
<linearGradient id="paint17_linear_207_1017" x1="17.2926" y1="49.0917" x2="11.3056" y2="28.1392" gradientUnits="userSpaceOnUse">
<stop stop-color="#160330"/>
<stop offset="1" stop-color="#6B30B9"/>
</linearGradient>
<linearGradient id="paint18_linear_207_1017" x1="9.56578" y1="37.9925" x2="36.8933" y2="18.9178" gradientUnits="userSpaceOnUse">
<stop stop-color="#00CAFF"/>
<stop offset="1" stop-color="#14002E"/>
</linearGradient>
<linearGradient id="paint19_linear_207_1017" x1="10.3385" y1="42.6876" x2="42.0322" y2="20.5622" gradientUnits="userSpaceOnUse">
<stop stop-color="#5A189A"/>
<stop offset="1" stop-color="#190532"/>
</linearGradient>
<linearGradient id="paint20_linear_207_1017" x1="28.3267" y1="45.938" x2="22.3397" y2="24.9855" gradientUnits="userSpaceOnUse">
<stop stop-color="#160330"/>
<stop offset="1" stop-color="#6B30B9"/>
</linearGradient>
<linearGradient id="paint21_linear_207_1017" x1="26.2653" y1="50.1154" x2="27.3006" y2="36.3285" gradientUnits="userSpaceOnUse">
<stop stop-color="#271926"/>
<stop offset="1" stop-color="#14002E"/>
</linearGradient>
<linearGradient id="paint22_linear_207_1017" x1="34.7619" y1="44.098" x2="28.7749" y2="23.1484" gradientUnits="userSpaceOnUse">
<stop stop-color="#160330"/>
<stop offset="1" stop-color="#6B30B9"/>
</linearGradient>
<linearGradient id="paint23_linear_207_1017" x1="27.3545" y1="47.9997" x2="49.7592" y2="13.46" gradientUnits="userSpaceOnUse">
<stop stop-color="#9D4EDD"/>
<stop offset="1" stop-color="#14002E"/>
</linearGradient>
<linearGradient id="paint24_linear_207_1017" x1="28.3495" y1="39.1216" x2="34.7915" y2="25.8195" gradientUnits="userSpaceOnUse">
<stop stop-color="#5A189A"/>
<stop offset="1" stop-color="#14002E"/>
</linearGradient>
<linearGradient id="paint25_linear_207_1017" x1="31.5248" y1="37.5461" x2="32.075" y2="24.0581" gradientUnits="userSpaceOnUse">
<stop stop-color="#B37CFA"/>
<stop offset="1" stop-color="#4F1E95"/>
</linearGradient>
<linearGradient id="paint26_linear_207_1017" x1="27.879" y1="40.2333" x2="28.0889" y2="35.0349" gradientUnits="userSpaceOnUse">
<stop stop-color="#D4B6FC"/>
<stop offset="1" stop-color="#C092FB"/>
</linearGradient>
<linearGradient id="paint27_linear_207_1017" x1="34.5908" y1="33.0814" x2="34.8971" y2="25.5995" gradientUnits="userSpaceOnUse">
<stop stop-color="#D4B6FC"/>
<stop offset="1" stop-color="#C092FB"/>
</linearGradient>
<linearGradient id="paint28_linear_207_1017" x1="19.1915" y1="32.4758" x2="19.4723" y2="25.5711" gradientUnits="userSpaceOnUse">
<stop stop-color="#D4B6FC"/>
<stop offset="1" stop-color="#C092FB"/>
</linearGradient>
<linearGradient id="paint29_linear_207_1017" x1="20.4717" y1="38.2598" x2="24.8085" y2="32.7404" gradientUnits="userSpaceOnUse">
<stop stop-color="#271926"/>
<stop offset="1" stop-color="#14002E"/>
</linearGradient>
<linearGradient id="paint30_linear_207_1017" x1="21.6948" y1="43.3388" x2="23.102" y2="36.9815" gradientUnits="userSpaceOnUse">
<stop stop-color="#B37CFA"/>
<stop offset="1" stop-color="#4F1E95"/>
</linearGradient>
<linearGradient id="paint31_linear_207_1017" x1="20.4745" y1="45.9265" x2="32.3369" y2="32.186" gradientUnits="userSpaceOnUse">
<stop stop-color="#271926"/>
<stop offset="1" stop-color="#14002E"/>
</linearGradient>
<linearGradient id="paint32_linear_207_1017" x1="31.9192" y1="40.515" x2="31.9816" y2="38.9708" gradientUnits="userSpaceOnUse">
<stop stop-color="#D4B6FC"/>
<stop offset="1" stop-color="#C092FB"/>
</linearGradient>
<linearGradient id="paint33_linear_207_1017" x1="34.2857" y1="36.2209" x2="34.3169" y2="35.4587" gradientUnits="userSpaceOnUse">
<stop stop-color="#D4B6FC"/>
<stop offset="1" stop-color="#C092FB"/>
</linearGradient>
<linearGradient id="paint34_linear_207_1017" x1="32.5208" y1="39.6702" x2="32.6853" y2="35.6179" gradientUnits="userSpaceOnUse">
<stop stop-color="#B37CFA"/>
<stop offset="1" stop-color="#4F1E95"/>
</linearGradient>
<linearGradient id="paint35_linear_207_1017" x1="33.4218" y1="38.1972" x2="40.2734" y2="40.146" gradientUnits="userSpaceOnUse">
<stop stop-color="#D4B6FC"/>
<stop offset="1" stop-color="#C092FB"/>
</linearGradient>
<linearGradient id="paint36_linear_207_1017" x1="26.8982" y1="41.7235" x2="26.9294" y2="40.95" gradientUnits="userSpaceOnUse">
<stop stop-color="#B37CFA"/>
<stop offset="1" stop-color="#4F1E95"/>
</linearGradient>
<linearGradient id="paint37_linear_207_1017" x1="12.7335" y1="35.7517" x2="12.6994" y2="35.5298" gradientUnits="userSpaceOnUse">
<stop stop-color="#D4B6FC"/>
<stop offset="1" stop-color="#C092FB"/>
</linearGradient>
<linearGradient id="paint38_linear_207_1017" x1="31.7425" y1="24.4373" x2="42.4287" y2="24.8461" gradientUnits="userSpaceOnUse">
<stop stop-color="#D4B6FC"/>
<stop offset="1" stop-color="#C092FB"/>
</linearGradient>
<linearGradient id="paint39_linear_207_1017" x1="7.0382" y1="44.5927" x2="18.2018" y2="34.1241" gradientUnits="userSpaceOnUse">
<stop stop-color="#4F1E95"/>
<stop offset="1"/>
</linearGradient>
<linearGradient id="paint40_linear_207_1017" x1="10.3246" y1="43.9145" x2="20.8767" y2="34.0191" gradientUnits="userSpaceOnUse">
<stop stop-color="#B37CFA"/>
<stop offset="1" stop-color="#4F1E95"/>
</linearGradient>
<linearGradient id="paint41_linear_207_1017" x1="21.9685" y1="10.5959" x2="29.3503" y2="25.7796" gradientUnits="userSpaceOnUse">
<stop stop-color="#71C8FC"/>
<stop offset="1" stop-color="#58299A"/>
</linearGradient>
<linearGradient id="paint42_linear_207_1017" x1="10.6492" y1="22.9122" x2="31.4749" y2="25.9935" gradientUnits="userSpaceOnUse">
<stop stop-color="#D4B6FC"/>
<stop offset="1" stop-color="#C092FB"/>
</linearGradient>
<linearGradient id="paint43_linear_207_1017" x1="33.0169" y1="13.2178" x2="35.2471" y2="21.2914" gradientUnits="userSpaceOnUse">
<stop stop-color="#D4B6FC"/>
<stop offset="1" stop-color="#C092FB"/>
</linearGradient>
<linearGradient id="paint44_linear_207_1017" x1="26.7528" y1="22.3605" x2="27.116" y2="23.6691" gradientUnits="userSpaceOnUse">
<stop stop-color="#D4B6FC"/>
<stop offset="1" stop-color="#C092FB"/>
</linearGradient>
<linearGradient id="paint45_linear_207_1017" x1="37.4135" y1="20.367" x2="38.3952" y2="23.923" gradientUnits="userSpaceOnUse">
<stop stop-color="#D4B6FC"/>
<stop offset="1" stop-color="#C092FB"/>
</linearGradient>
<linearGradient id="paint46_linear_207_1017" x1="29.9177" y1="16.8664" x2="30.4681" y2="18.8578" gradientUnits="userSpaceOnUse">
<stop stop-color="#D4B6FC"/>
<stop offset="1" stop-color="#C092FB"/>
</linearGradient>
<linearGradient id="paint47_linear_207_1017" x1="15.3994" y1="22.7727" x2="17.7907" y2="36.3594" gradientUnits="userSpaceOnUse">
<stop stop-color="#AEE0FD"/>
<stop offset="1" stop-color="#6B42A6"/>
</linearGradient>
<linearGradient id="paint48_linear_207_1017" x1="20.4288" y1="21.7548" x2="22.8457" y2="35.4894" gradientUnits="userSpaceOnUse">
<stop stop-color="#AEE0FD"/>
<stop offset="1" stop-color="#6B42A6"/>
</linearGradient>
<linearGradient id="paint49_linear_207_1017" x1="27.5826" y1="26.3672" x2="22.7583" y2="20.9117" gradientUnits="userSpaceOnUse">
<stop stop-color="#AEE0FD"/>
<stop offset="1" stop-color="#6B42A6"/>
</linearGradient>
<linearGradient id="paint50_linear_207_1017" x1="28.5633" y1="13.2634" x2="36.2157" y2="40.9661" gradientUnits="userSpaceOnUse">
<stop stop-color="#AEE0FD"/>
<stop offset="1" stop-color="#6B42A6"/>
</linearGradient>
<linearGradient id="paint51_linear_207_1017" x1="35.6486" y1="11.4888" x2="43.3775" y2="39.4788" gradientUnits="userSpaceOnUse">
<stop stop-color="#AEE0FD"/>
<stop offset="1" stop-color="#6B42A6"/>
</linearGradient>
<linearGradient id="paint52_linear_207_1017" x1="11.0484" y1="42.6449" x2="25.2465" y2="18.7276" gradientUnits="userSpaceOnUse">
<stop stop-color="#71C8FC"/>
<stop offset="1" stop-color="#58299A"/>
</linearGradient>
<linearGradient id="paint53_linear_207_1017" x1="1.53686" y1="22.3832" x2="39.6811" y2="33.7302" gradientUnits="userSpaceOnUse">
<stop stop-color="#D4B6FC"/>
<stop offset="1" stop-color="#C092FB"/>
</linearGradient>
<linearGradient id="paint54_linear_207_1017" x1="4.75016" y1="28.4773" x2="12.3026" y2="30.7232" gradientUnits="userSpaceOnUse">
<stop stop-color="#D4B6FC"/>
<stop offset="1" stop-color="#C092FB"/>
</linearGradient>
<linearGradient id="paint55_linear_207_1017" x1="20.8394" y1="25.733" x2="40.6184" y2="31.6165" gradientUnits="userSpaceOnUse">
<stop stop-color="#D4B6FC"/>
<stop offset="1" stop-color="#C092FB"/>
</linearGradient>
<linearGradient id="paint56_linear_207_1017" x1="37.5561" y1="13.8719" x2="39.2167" y2="17.6175" gradientUnits="userSpaceOnUse">
<stop stop-color="#71C8FC"/>
<stop offset="1" stop-color="#58299A"/>
</linearGradient>
<linearGradient id="paint57_linear_207_1017" x1="40.5526" y1="13.3231" x2="42.4991" y2="20.3725" gradientUnits="userSpaceOnUse">
<stop stop-color="#D4B6FC"/>
<stop offset="1" stop-color="#C092FB"/>
</linearGradient>
<linearGradient id="paint58_linear_207_1017" x1="46.0925" y1="19.221" x2="46.277" y2="19.8895" gradientUnits="userSpaceOnUse">
<stop stop-color="#D4B6FC"/>
<stop offset="1" stop-color="#C092FB"/>
</linearGradient>
<linearGradient id="paint59_linear_207_1017" x1="40.9204" y1="15.2823" x2="41.0679" y2="19.929" gradientUnits="userSpaceOnUse">
<stop stop-color="#71C8FC"/>
<stop offset="1" stop-color="#58299A"/>
</linearGradient>
<linearGradient id="paint60_linear_207_1017" x1="43.0189" y1="15.217" x2="43.1636" y2="19.8637" gradientUnits="userSpaceOnUse">
<stop stop-color="#71C8FC"/>
<stop offset="1" stop-color="#58299A"/>
</linearGradient>
<linearGradient id="paint61_linear_207_1017" x1="24.2209" y1="27.7066" x2="24.5671" y2="28.9526" gradientUnits="userSpaceOnUse">
<stop stop-color="#D4B6FC"/>
<stop offset="1" stop-color="#C092FB"/>
</linearGradient>
<linearGradient id="paint62_linear_207_1017" x1="30.505" y1="27.8887" x2="30.7916" y2="28.927" gradientUnits="userSpaceOnUse">
<stop stop-color="#D4B6FC"/>
<stop offset="1" stop-color="#C092FB"/>
</linearGradient>
<linearGradient id="paint63_linear_207_1017" x1="32.7261" y1="27.4365" x2="33.0836" y2="28.7309" gradientUnits="userSpaceOnUse">
<stop stop-color="#71C8FC"/>
<stop offset="1" stop-color="#58299A"/>
</linearGradient>
<linearGradient id="paint64_linear_207_1017" x1="6.97122" y1="25.281" x2="7.38264" y2="26.7802" gradientUnits="userSpaceOnUse">
<stop stop-color="#D4B6FC"/>
<stop offset="1" stop-color="#C092FB"/>
</linearGradient>
<linearGradient id="paint65_linear_207_1017" x1="10.5067" y1="25.0933" x2="11.0884" y2="27.1985" gradientUnits="userSpaceOnUse">
<stop stop-color="#D4B6FC"/>
<stop offset="1" stop-color="#C092FB"/>
</linearGradient>
<linearGradient id="paint66_linear_207_1017" x1="38.0379" y1="18.7148" x2="38.3386" y2="19.8044" gradientUnits="userSpaceOnUse">
<stop stop-color="#D4B6FC"/>
<stop offset="1" stop-color="#C092FB"/>
</linearGradient>
<linearGradient id="paint67_linear_207_1017" x1="30.3055" y1="17.4294" x2="30.7509" y2="19.0396" gradientUnits="userSpaceOnUse">
<stop stop-color="#D4B6FC"/>
<stop offset="1" stop-color="#C092FB"/>
</linearGradient>
<linearGradient id="paint68_linear_207_1017" x1="9.0269" y1="26.7513" x2="9.3305" y2="27.8465" gradientUnits="userSpaceOnUse">
<stop stop-color="#D4B6FC"/>
<stop offset="1" stop-color="#C092FB"/>
</linearGradient>
<linearGradient id="paint69_linear_207_1017" x1="29.701" y1="25.2071" x2="30.3962" y2="27.719" gradientUnits="userSpaceOnUse">
<stop stop-color="#D4B6FC"/>
<stop offset="1" stop-color="#C092FB"/>
</linearGradient>
<linearGradient id="paint70_linear_207_1017" x1="21.7522" y1="30.4549" x2="21.7658" y2="30.4414" gradientUnits="userSpaceOnUse">
<stop stop-color="#4F1E95"/>
<stop offset="1"/>
</linearGradient>
<linearGradient id="paint71_linear_207_1017" x1="18.7752" y1="42.8837" x2="32.1073" y2="37.8586" gradientUnits="userSpaceOnUse">
<stop stop-color="#71C8FC"/>
<stop offset="1" stop-color="#58299A"/>
</linearGradient>
<linearGradient id="paint72_linear_207_1017" x1="20.426" y1="44.1919" x2="31.2251" y2="40.1209" gradientUnits="userSpaceOnUse">
<stop stop-color="#D4B6FC"/>
<stop offset="1" stop-color="#C092FB"/>
</linearGradient>
<linearGradient id="paint73_linear_207_1017" x1="18.7752" y1="42.8837" x2="32.1073" y2="37.8586" gradientUnits="userSpaceOnUse">
<stop stop-color="#B37CFA"/>
<stop offset="1" stop-color="#4F1E95"/>
</linearGradient>
<linearGradient id="paint74_linear_207_1017" x1="13.4434" y1="34.3326" x2="18.4326" y2="32.4528" gradientUnits="userSpaceOnUse">
<stop stop-color="#71C8FC"/>
<stop offset="1" stop-color="#58299A"/>
</linearGradient>
<linearGradient id="paint75_linear_207_1017" x1="13.4434" y1="34.3326" x2="18.4326" y2="32.4528" gradientUnits="userSpaceOnUse">
<stop stop-color="#D4B6FC"/>
<stop offset="1" stop-color="#C092FB"/>
</linearGradient>
<linearGradient id="paint76_linear_207_1017" x1="14.2988" y1="34.2729" x2="19.4761" y2="32.3188" gradientUnits="userSpaceOnUse">
<stop stop-color="#B37CFA"/>
<stop offset="1" stop-color="#4F1E95"/>
</linearGradient>
<radialGradient id="paint77_radial_207_1017" cx="0" cy="0" r="1" gradientUnits="userSpaceOnUse" gradientTransform="translate(16.3374 33.2036) scale(2.7286 2.72146)">
<stop stop-color="#36116A"/>
<stop offset="1"/>
</radialGradient>
<linearGradient id="paint78_linear_207_1017" x1="11.3678" y1="21.3907" x2="13.1724" y2="23.7158" gradientUnits="userSpaceOnUse">
<stop stop-color="#D4B6FC"/>
<stop offset="1" stop-color="#C092FB"/>
</linearGradient>
</defs>
</svg>
