<svg width="24" height="24" viewBox="0 0 24 24" fill="none" xmlns="http://www.w3.org/2000/svg">
<path d="M8.55398 5.24801L9.08687 5.82451L9.47689 7.02956L9.4769 7.02958L9.53809 7.21836L9.5382 7.21869L9.57231 7.32642L9.58336 7.36133H9.58502L10.03 8.73721L10.0301 8.73731L10.1954 9.24485L10.1954 9.24492L11.0353 11.8359L10.1318 11.9654L10.1317 11.9654L9.64295 12.036L9.23097 11.3466L9.23094 11.3465L8.88597 10.7679L8.88594 10.7678L6.30883 6.45561L7.9242 3.75213L8.54457 5.23338L8.54798 5.24153L8.55398 5.24801Z" fill="url(#paint0_linear_1073_8072)" stroke="#FEF7FF" stroke-width="0.1"/>
<path d="M12.6282 8.99811L12.6281 8.99822L12.5398 9.86813L12.5398 9.86841L12.5198 10.0544L12.5198 10.0547L12.3874 11.3572L11.9642 11.3534L11.9641 11.3534L11.4353 11.3481L11.2344 10.2346H11.2346L11.2331 10.226L11.2046 10.0625L11.2045 10.0622L10.9095 8.43416L10.9094 8.43414L10.7555 7.5825L10.7555 7.58246L10.6587 7.04419L12.006 6.97871L12.0061 6.9787L12.6387 6.94744L12.639 6.94742L12.8404 6.9386L12.6952 8.35258L12.6952 8.35264L12.6282 8.99811Z" fill="url(#paint1_linear_1073_8072)" stroke="#FEF7FF" stroke-width="0.1"/>
<path d="M7.36038 7.11286L7.36036 7.11284L6.29168 6.42332L6.04356 5.80601L6.46005 3.55239L6.46052 3.55248L6.46083 3.54558L6.46454 3.46434L6.71406 3.00893L7.89512 3.67799L9.07136 5.79526L8.13966 7.07421L8.13964 7.07423L7.87097 7.44269L7.36038 7.11286Z" fill="url(#paint2_linear_1073_8072)" stroke="#FEF7FF" stroke-width="0.1"/>
<g style="mix-blend-mode:screen" opacity="0.5">
<path d="M6.2953 6.41819L6.04505 5.80033L6.46123 3.55402L6.46228 3.54985L6.46326 3.55009L6.46372 3.54L6.46754 3.45761L6.71691 3.00332L7.89659 3.67236L9.0733 5.78936L8.13833 7.0742L8.13824 7.07432L7.87251 7.43713L7.37041 7.11293L7.37039 7.11292L6.2953 6.41819Z" fill="url(#paint3_radial_1073_8072)" style="mix-blend-mode:screen"/>
<path d="M6.2953 6.41819L6.04505 5.80033L6.46123 3.55402L6.46228 3.54985L6.46326 3.55009L6.46372 3.54L6.46754 3.45761L6.71691 3.00332L7.89659 3.67236L9.0733 5.78936L8.13833 7.0742L8.13824 7.07432L7.87251 7.43713L7.37041 7.11293L7.37039 7.11292L6.2953 6.41819Z" stroke="#FEF7FF" stroke-width="0.1"/>
</g>
<path d="M10.8402 7.40429L10.8402 7.40427L10.6553 6.9991L10.882 6.58594L12.1291 4.61521L12.532 4.89592L12.8433 6.87258L12.4263 7.41095L11.3706 7.69377L11.3705 7.6938L11.0151 7.78816L10.8402 7.40429Z" fill="url(#paint4_linear_1073_8072)" stroke="#FEF7FF" stroke-width="0.1"/>
<g style="mix-blend-mode:multiply" opacity="0.5">
<path d="M9.11365 5.90721L9.47447 7.02205V7.02354L9.47694 7.03111L9.53817 7.21857L9.57232 7.32643L9.58337 7.36133H9.58503L10.03 8.73722L10.0301 8.73732L10.1954 9.24485L10.1954 9.24492L11.0353 11.8359L10.1675 11.9603L9.34965 10.3247L9.33583 10.297H9.33442L9.1572 9.9422L9.15718 9.94216L7.94196 7.51524L8.22053 7.1332L8.22054 7.13318L9.11365 5.90721Z" fill="url(#paint5_linear_1073_8072)" style="mix-blend-mode:multiply"/>
<path d="M9.11365 5.90721L9.47447 7.02205V7.02354L9.47694 7.03111L9.53817 7.21857L9.57232 7.32643L9.58337 7.36133H9.58503L10.03 8.73722L10.0301 8.73732L10.1954 9.24485L10.1954 9.24492L11.0353 11.8359L10.1675 11.9603L9.34965 10.3247L9.33583 10.297H9.33442L9.1572 9.9422L9.15718 9.94216L7.94196 7.51524L8.22053 7.1332L8.22054 7.13318L9.11365 5.90721Z" stroke="#FEF7FF" stroke-width="0.1"/>
</g>
<g style="mix-blend-mode:multiply" opacity="0.5">
<path d="M12.0207 11.3539L12.1729 10.127L12.1729 10.127L12.19 9.98774L12.19 9.98762L12.3026 9.08912L12.3026 9.089L12.3582 8.63694L12.3582 8.63685L12.5034 7.47464L12.8298 7.05314L12.7065 8.34865L12.7065 8.34874L12.6438 8.99561L12.6438 8.99571L12.5611 9.86732L12.5611 9.86743L12.544 10.0522L12.544 10.0523L12.42 11.3575L12.0207 11.3539Z" fill="url(#paint6_linear_1073_8072)" style="mix-blend-mode:multiply"/>
<path d="M12.0207 11.3539L12.1729 10.127L12.1729 10.127L12.19 9.98774L12.19 9.98762L12.3026 9.08912L12.3026 9.089L12.3582 8.63694L12.3582 8.63685L12.5034 7.47464L12.8298 7.05314L12.7065 8.34865L12.7065 8.34874L12.6438 8.99561L12.6438 8.99571L12.5611 9.86732L12.5611 9.86743L12.544 10.0522L12.544 10.0523L12.42 11.3575L12.0207 11.3539Z" stroke="#FEF7FF" stroke-width="0.1"/>
</g>
<path d="M11.0138 7.78857L10.8871 7.53162L11.2495 7.72623L11.0138 7.78857Z" fill="#C8EAFE" stroke="#FEF7FF" stroke-width="0.1"/>
<g style="mix-blend-mode:multiply" opacity="0.5">
<path d="M12.6438 8.99561L12.6438 8.99571L12.5611 9.86732L12.5611 9.86743L12.544 10.0522L12.544 10.0523L12.4202 11.3556L11.9688 11.335L11.9687 11.335L11.5284 11.3155L11.3431 10.0044L11.3431 10.0043L11.3232 9.86507L11.3232 9.86495L11.1122 8.365L11.1122 8.3648L11.0574 7.98664H11.0576L11.0566 7.97955L11.0429 7.88421L11.3963 7.7904L11.3964 7.79037L12.4684 7.50315L12.4847 7.49879L12.495 7.48547L12.8299 7.05314L12.7065 8.34865L12.7065 8.34874L12.6438 8.99561Z" fill="url(#paint7_linear_1073_8072)" style="mix-blend-mode:multiply"/>
<path d="M12.6438 8.99561L12.6438 8.99571L12.5611 9.86732L12.5611 9.86743L12.544 10.0522L12.544 10.0523L12.4202 11.3556L11.9688 11.335L11.9687 11.335L11.5284 11.3155L11.3431 10.0044L11.3431 10.0043L11.3232 9.86507L11.3232 9.86495L11.1122 8.365L11.1122 8.3648L11.0574 7.98664H11.0576L11.0566 7.97955L11.0429 7.88421L11.3963 7.7904L11.3964 7.79037L12.4684 7.50315L12.4847 7.49879L12.495 7.48547L12.8299 7.05314L12.7065 8.34865L12.7065 8.34874L12.6438 8.99561Z" stroke="#FEF7FF" stroke-width="0.1"/>
</g>
<g style="mix-blend-mode:screen" opacity="0.5">
<path d="M6.4646 3.46434L6.71412 3.00893L7.71775 3.57747L6.46314 3.49648L6.4646 3.46434Z" fill="url(#paint8_linear_1073_8072)" style="mix-blend-mode:screen"/>
<path d="M6.4646 3.46434L6.71412 3.00893L7.71775 3.57747L6.46314 3.49648L6.4646 3.46434Z" stroke="#FEF7FF" stroke-width="0.1"/>
</g>
<g style="mix-blend-mode:screen" opacity="0.5">
<path d="M12.673 6.98663L12.4479 7.36918L11.2761 6.00385L11.2855 5.98114L12.673 6.98663Z" fill="url(#paint9_linear_1073_8072)" style="mix-blend-mode:screen"/>
<path d="M12.673 6.98663L12.4479 7.36918L11.2761 6.00385L11.2855 5.98114L12.673 6.98663Z" stroke="#FEF7FF" stroke-width="0.1"/>
</g>
<path d="M7.90747 7.47666L7.4522 7.19809L8.09264 7.15932L7.90747 7.47666Z" fill="#C8EAFE" stroke="#FEF7FF" stroke-width="0.1"/>
<g style="mix-blend-mode:screen" opacity="0.6">
<path d="M9.30491 10.3385L9.25617 10.3274C9.1914 10.6103 9.15309 10.8985 9.14165 11.1883L8.89758 10.7789L9.12989 10.0645L9.12992 10.0644L9.13032 10.0632L9.13193 10.0585L9.13801 10.0403C9.14326 10.0245 9.1508 10.0012 9.16013 9.97113C9.21421 9.80364 9.32909 9.42486 9.42858 8.95981C9.42813 9.02419 9.42943 9.08162 9.43278 9.13047C9.43677 9.18851 9.44387 9.23851 9.45626 9.27435C9.46233 9.29192 9.47135 9.31119 9.48612 9.3258C9.50295 9.34246 9.5269 9.35224 9.55386 9.34682C9.59272 9.33976 9.63347 9.31163 9.67121 9.27943C9.71143 9.2451 9.75645 9.19876 9.80413 9.1447C9.88271 9.05562 9.97097 8.94278 10.0603 8.82176L10.1848 9.20373C9.98402 9.36709 9.78637 9.54405 9.62509 9.72079C9.45756 9.90437 9.32517 10.0921 9.2727 10.2673L9.27059 10.2743V10.2817C9.27059 10.2816 9.27059 10.2816 9.27059 10.2817C9.27056 10.2819 9.27028 10.2844 9.2673 10.2926C9.26692 10.2937 9.26644 10.295 9.2659 10.2965C9.26311 10.304 9.25859 10.3161 9.25603 10.328L9.30491 10.3385ZM9.30491 10.3385C9.30663 10.3305 9.3095 10.3228 9.31231 10.3151C9.31651 10.3038 9.32059 10.2927 9.32059 10.2817L9.1892 11.268C9.19629 10.9552 9.23504 10.6438 9.30491 10.3385Z" fill="url(#paint10_linear_1073_8072)" style="mix-blend-mode:screen"/>
<path d="M9.30491 10.3385L9.25617 10.3274C9.1914 10.6103 9.15309 10.8985 9.14165 11.1883L8.89758 10.7789L9.12989 10.0645L9.12992 10.0644L9.13032 10.0632L9.13193 10.0585L9.13801 10.0403C9.14326 10.0245 9.1508 10.0012 9.16013 9.97113C9.21421 9.80364 9.32909 9.42486 9.42858 8.95981C9.42813 9.02419 9.42943 9.08162 9.43278 9.13047C9.43677 9.18851 9.44387 9.23851 9.45626 9.27435C9.46233 9.29192 9.47135 9.31119 9.48612 9.3258C9.50295 9.34246 9.5269 9.35224 9.55386 9.34682C9.59272 9.33976 9.63347 9.31163 9.67121 9.27943C9.71143 9.2451 9.75645 9.19876 9.80413 9.1447C9.88271 9.05562 9.97097 8.94278 10.0603 8.82176L10.1848 9.20373C9.98402 9.36709 9.78637 9.54405 9.62509 9.72079C9.45756 9.90437 9.32517 10.0921 9.2727 10.2673L9.27059 10.2743V10.2817C9.27059 10.2816 9.27059 10.2816 9.27059 10.2817C9.27056 10.2819 9.27028 10.2844 9.2673 10.2926C9.26692 10.2937 9.26644 10.295 9.2659 10.2965C9.26311 10.304 9.25859 10.3161 9.25603 10.328L9.30491 10.3385ZM9.30491 10.3385C9.30663 10.3305 9.3095 10.3228 9.31231 10.3151C9.31651 10.3038 9.32059 10.2927 9.32059 10.2817L9.1892 11.268C9.19629 10.9552 9.23504 10.6438 9.30491 10.3385Z" stroke="#FEF7FF" stroke-width="0.1"/>
</g>
<g style="mix-blend-mode:screen" opacity="0.6">
<path d="M11.7892 9.25607C11.7434 9.29699 11.6993 9.3397 11.6572 9.38408C11.8595 9.12041 12.089 8.87788 12.3421 8.66059C12.4525 8.57062 12.5721 8.49265 12.6988 8.42795L12.6479 8.95325C12.5087 8.96815 12.371 8.99497 12.2364 9.03343L12.2364 9.03345C12.0764 9.07939 11.926 9.15387 11.7926 9.25327L11.7925 9.25312L11.7892 9.25607Z" fill="url(#paint11_linear_1073_8072)" style="mix-blend-mode:screen"/>
<path d="M11.7892 9.25607C11.7434 9.29699 11.6993 9.3397 11.6572 9.38408C11.8595 9.12041 12.089 8.87788 12.3421 8.66059C12.4525 8.57062 12.5721 8.49265 12.6988 8.42795L12.6479 8.95325C12.5087 8.96815 12.371 8.99497 12.2364 9.03343L12.2364 9.03345C12.0764 9.07939 11.926 9.15387 11.7926 9.25327L11.7925 9.25312L11.7892 9.25607Z" stroke="#FEF7FF" stroke-width="0.1"/>
</g>
<g style="mix-blend-mode:screen" opacity="0.6">
<path d="M12.1165 10.0686L11.9907 10.0854C12.0451 10.0641 12.1002 10.0444 12.1558 10.0263L12.1558 10.0263L12.1561 10.0263C12.2868 9.98298 12.4207 9.9497 12.5565 9.92671L12.5482 10.0094L12.1167 10.0686L12.1165 10.0686Z" fill="url(#paint12_linear_1073_8072)" style="mix-blend-mode:screen"/>
<path d="M12.1165 10.0686L11.9907 10.0854C12.0451 10.0641 12.1002 10.0444 12.1558 10.0263L12.1558 10.0263L12.1561 10.0263C12.2868 9.98298 12.4207 9.9497 12.5565 9.92671L12.5482 10.0094L12.1167 10.0686L12.1165 10.0686Z" stroke="#FEF7FF" stroke-width="0.1"/>
</g>
<g style="mix-blend-mode:screen" opacity="0.5">
<path d="M10.1954 9.24493L11.0352 11.8359L10.1317 11.9654L10.1317 11.9654L9.64289 12.036L9.2309 11.3466L9.23088 11.3465L8.88591 10.7679L8.88588 10.7678L6.29615 6.4345L6.04356 5.80608L6.46005 3.55246L6.46052 3.55255L6.46083 3.54565L6.46448 3.46573L6.46801 3.46044V3.45667L6.71687 3.00332L7.89655 3.67236L9.07382 5.79038L9.0651 5.80343L9.08708 5.82535L9.47683 7.02956L9.47683 7.02958L9.53803 7.21836L9.53814 7.21869L9.57225 7.32643L9.5833 7.36133H9.58496L10.03 8.73722L10.03 8.73732L10.1953 9.24486L10.1954 9.24493Z" fill="url(#paint13_linear_1073_8072)" style="mix-blend-mode:screen"/>
<path d="M10.1954 9.24493L11.0352 11.8359L10.1317 11.9654L10.1317 11.9654L9.64289 12.036L9.2309 11.3466L9.23088 11.3465L8.88591 10.7679L8.88588 10.7678L6.29615 6.4345L6.04356 5.80608L6.46005 3.55246L6.46052 3.55255L6.46083 3.54565L6.46448 3.46573L6.46801 3.46044V3.45667L6.71687 3.00332L7.89655 3.67236L9.07382 5.79038L9.0651 5.80343L9.08708 5.82535L9.47683 7.02956L9.47683 7.02958L9.53803 7.21836L9.53814 7.21869L9.57225 7.32643L9.5833 7.36133H9.58496L10.03 8.73722L10.03 8.73732L10.1953 9.24486L10.1954 9.24493Z" stroke="#FEF7FF" stroke-width="0.1"/>
</g>
<g style="mix-blend-mode:screen" opacity="0.5">
<path d="M12.6438 8.99563L12.6438 8.99573L12.5611 9.86734L12.5611 9.86746L12.544 10.0522L12.544 10.0523L12.42 11.3576L11.9642 11.3534L11.9641 11.3534L11.4353 11.3481L11.2344 10.2346H11.2346L11.2331 10.2261L11.2046 10.0625L11.2045 10.0622L10.9095 8.43419L10.9094 8.43417L10.7555 7.58253L10.7555 7.58249L10.6517 7.00559L10.882 6.58594L12.1291 4.61521L12.532 4.89592L12.8456 6.88768L12.7065 8.34868L12.7065 8.34877L12.6438 8.99563Z" fill="url(#paint14_linear_1073_8072)" style="mix-blend-mode:screen"/>
<path d="M12.6438 8.99563L12.6438 8.99573L12.5611 9.86734L12.5611 9.86746L12.544 10.0522L12.544 10.0523L12.42 11.3576L11.9642 11.3534L11.9641 11.3534L11.4353 11.3481L11.2344 10.2346H11.2346L11.2331 10.2261L11.2046 10.0625L11.2045 10.0622L10.9095 8.43419L10.9094 8.43417L10.7555 7.58253L10.7555 7.58249L10.6517 7.00559L10.882 6.58594L12.1291 4.61521L12.532 4.89592L12.8456 6.88768L12.7065 8.34868L12.7065 8.34877L12.6438 8.99563Z" stroke="#FEF7FF" stroke-width="0.1"/>
</g>
<path d="M14.4213 20.0232L14.6548 20.988L12.2204 20.6394L12.1365 20.2539L12.1366 20.2539L12.1362 20.2523L12.1305 20.2296L12.1189 20.1834L12.0722 20.1927L12.0674 20.1937L10.2044 20.3826L6.65231 18.7542L6.74062 18.3514L6.75099 18.3041L6.70406 18.2922L4.49194 17.7317L6.62571 13.4753H13.7763L14.591 13.4994L14.591 13.4995H14.5925H14.6074L17.0143 13.5717L17.0186 13.5732L17.0259 13.5734L17.6133 13.5904L17.6133 13.5904L17.8128 13.5961L17.8129 13.5961L18.2918 13.6103L18.2918 13.6103L18.661 13.6217L18.6611 13.6217L20.1369 13.6657L20.128 14.0797L20.128 14.0798L20.0604 17.546L18.515 17.6994L18.515 17.6995L17.7723 17.7734L17.6817 17.7824L17.7379 17.854L18.0513 18.2528L17.433 19.9048L16.4399 20.4909L14.4829 19.9631L14.4014 19.9412L14.4213 20.0232Z" fill="url(#paint15_linear_1073_8072)" stroke="#FEF7FF" stroke-width="0.1"/>
<g style="mix-blend-mode:multiply" opacity="0.5">
<path d="M11.1994 18.2325V18.2733L10.8574 19.0378L10.7522 19.0302L11.187 17.1134L11.189 17.1139L11.1881 17.0995L11.1696 16.7824L11.1698 16.7824L11.1693 16.7787L10.8799 14.6188L10.8642 14.5016L10.791 14.5946L9.83871 15.8046L9.83021 15.8154L9.82842 15.829L9.74146 16.4901L9.74039 16.4983L9.74199 16.5064L9.92304 17.4216L9.35842 17.7296L8.01966 17.7718H7.59704H7.58372L7.57217 17.7785L6.68446 18.2874L4.51362 17.7373L8.50587 13.4597L8.50606 13.4595L8.51351 13.4516L9.27834 13.4655L9.27854 13.4655L9.68316 13.4711L9.68341 13.4711L9.90698 13.4754L9.90706 13.4754L11.1188 13.4967L11.1188 13.4967L12.3662 13.5181V13.5181H12.3671H12.3681H12.3685L17.0237 13.5977L17.0237 13.5977H17.0245H17.027H17.0274L17.6139 13.6076L17.614 13.6076L17.8134 13.6105L17.8136 13.6105L18.291 13.619L18.2911 13.619L18.5194 13.6225L18.517 13.8741L18.5157 13.8925L18.5156 13.8925L18.5156 13.8955L18.4705 17.704L17.7723 17.7735L17.7715 17.7736L17.5884 17.7949L16.6349 16.774L16.6348 16.7739L16.4125 16.5351L16.4069 16.5291L16.3996 16.5252L13.6995 15.0706L13.6171 15.0262L13.626 15.1194L13.884 17.8107L13.8841 17.811L13.8997 17.9856L13.8998 17.986L13.94 18.3923L13.4548 18.5485L11.7628 18.307L11.7626 18.307L11.2581 18.2331L11.2582 18.2325H11.2509H11.2494H11.1994Z" fill="url(#paint16_linear_1073_8072)" style="mix-blend-mode:multiply"/>
<path d="M11.1994 18.2325V18.2733L10.8574 19.0378L10.7522 19.0302L11.187 17.1134L11.189 17.1139L11.1881 17.0995L11.1696 16.7824L11.1698 16.7824L11.1693 16.7787L10.8799 14.6188L10.8642 14.5016L10.791 14.5946L9.83871 15.8046L9.83021 15.8154L9.82842 15.829L9.74146 16.4901L9.74039 16.4983L9.74199 16.5064L9.92304 17.4216L9.35842 17.7296L8.01966 17.7718H7.59704H7.58372L7.57217 17.7785L6.68446 18.2874L4.51362 17.7373L8.50587 13.4597L8.50606 13.4595L8.51351 13.4516L9.27834 13.4655L9.27854 13.4655L9.68316 13.4711L9.68341 13.4711L9.90698 13.4754L9.90706 13.4754L11.1188 13.4967L11.1188 13.4967L12.3662 13.5181V13.5181H12.3671H12.3681H12.3685L17.0237 13.5977L17.0237 13.5977H17.0245H17.027H17.0274L17.6139 13.6076L17.614 13.6076L17.8134 13.6105L17.8136 13.6105L18.291 13.619L18.2911 13.619L18.5194 13.6225L18.517 13.8741L18.5157 13.8925L18.5156 13.8925L18.5156 13.8955L18.4705 17.704L17.7723 17.7735L17.7715 17.7736L17.5884 17.7949L16.6349 16.774L16.6348 16.7739L16.4125 16.5351L16.4069 16.5291L16.3996 16.5252L13.6995 15.0706L13.6171 15.0262L13.626 15.1194L13.884 17.8107L13.8841 17.811L13.8997 17.9856L13.8998 17.986L13.94 18.3923L13.4548 18.5485L11.7628 18.307L11.7626 18.307L11.2581 18.2331L11.2582 18.2325H11.2509H11.2494H11.1994Z" stroke="#FEF7FF" stroke-width="0.1"/>
</g>
<path d="M6.41314 17.7461L6.41296 17.7461L6.29767 17.7447L6.29749 17.7447L4.44704 17.7153L1.6813 13.3795L4.57997 13.407L5.32556 13.4142L5.32556 13.4142L5.92574 13.4198L5.92577 13.4198L7.5167 13.4341L7.51674 13.4341L9.23015 13.4507L9.37473 17.2698L8.0119 17.7716L6.41314 17.7461Z" fill="url(#paint17_linear_1073_8072)" stroke="#FEF7FF" stroke-width="0.1"/>
<path d="M9.73513 13.4545L11.0697 13.4664V16.7232L9.83962 16.456L9.73513 13.4545Z" fill="url(#paint18_linear_1073_8072)" stroke="#FEF7FF" stroke-width="0.1"/>
<path d="M9.87947 16.6373L11.0801 17.1325L10.6626 18.9731L10.289 18.5755L9.87947 16.6373Z" fill="url(#paint19_linear_1073_8072)" stroke="#FEF7FF" stroke-width="0.1"/>
<path d="M12.7621 17.7835L11.3002 18.2167L11.3571 13.5518L13.0877 13.9867L12.7621 17.7835Z" fill="url(#paint20_linear_1073_8072)" stroke="#FEF7FF" stroke-width="0.1"/>
<path d="M12.8106 20.6297L12.8106 20.6299L12.8145 20.629L12.8313 20.6251L12.8665 20.6197L12.8665 20.6197L12.8672 20.6196L13.099 20.5804L14.1405 20.9144L12.5047 20.6802L12.7726 20.6353L12.8106 20.6297Z" fill="url(#paint21_linear_1073_8072)" stroke="#FEF7FF" stroke-width="0.1"/>
<path d="M17.565 13.5274L17.5648 13.5393L17.5648 13.5393V13.5404V13.5572V13.5575L17.5196 17.8027L16.1691 17.9611L16.169 17.9611L14.1982 18.194L13.9878 17.9487L13.9875 17.9484L13.8397 17.7731L13.4804 13.728L13.4773 13.6925L13.4427 13.6839L12.6316 13.4819L14.592 13.4994V13.4994H14.5925H14.6079H14.6082L17.0212 13.5222V13.5222H17.0217H17.0272H17.0274L17.565 13.5274Z" fill="url(#paint22_linear_1073_8072)" stroke="#FEF7FF" stroke-width="0.1"/>
<path d="M18.5151 17.6995L18.5151 17.6995L17.8344 17.7672L18.3414 13.5761L18.3427 13.5686L18.3427 13.5686L18.343 13.5664L18.3519 13.4924L21.0804 13.4938H21.0804H21.409L20.0723 17.5449L18.5151 17.6995Z" fill="url(#paint23_linear_1073_8072)" stroke="#FEF7FF" stroke-width="0.1"/>
<path d="M14.1983 18.1941L13.9088 17.8542L15.6939 18.0162L14.1983 18.1941Z" fill="url(#paint24_linear_1073_8072)" stroke="#FEF7FF" stroke-width="0.1"/>
<g style="mix-blend-mode:multiply" opacity="0.5">
<path d="M14.4222 20.0403L14.6557 21.0051L12.2213 20.6565L12.1375 20.271L12.1281 20.2279L12.0842 20.2318L10.3369 20.3881L11.5012 19.2972L11.5106 19.2884L11.5146 19.2762L11.804 18.389L11.8064 18.3814V18.3735V18.372V18.3287L11.7636 18.3225L11.4854 18.2826L12.805 17.8924L13.9719 18.4891L14.0534 18.5308L14.0444 18.4396L14.0158 18.1511L14.1406 18.2965L14.1579 18.3168L14.1844 18.3136L16.1817 18.0776L16.2125 18.074L16.2229 18.0447L16.3512 17.6835L16.3513 17.6833L16.6464 16.8416L16.6464 16.8415L17.1311 15.4509L17.1342 15.4422L17.1339 15.4329L17.0754 13.5631L17.0755 13.5631L17.0754 13.5619L17.0742 13.5398L17.5659 13.5445L17.5657 13.5564L17.5645 13.6061L17.6142 13.6076L17.8138 13.6132L17.8138 13.6132L18.2928 13.6275L18.3384 13.6288L18.3439 13.5835L18.3528 13.5095L21.0813 13.5109H21.0813H21.4099L20.0732 17.5619L18.516 17.7166L18.516 17.7166L17.7732 17.7905L17.6826 17.7995L17.7389 17.8712L18.0522 18.2699L17.4339 19.9219L16.4408 20.508L14.4838 19.9802L14.4023 19.9583L14.4222 20.0403Z" fill="url(#paint25_linear_1073_8072)" style="mix-blend-mode:multiply"/>
<path d="M14.4222 20.0403L14.6557 21.0051L12.2213 20.6565L12.1375 20.271L12.1281 20.2279L12.0842 20.2318L10.3369 20.3881L11.5012 19.2972L11.5106 19.2884L11.5146 19.2762L11.804 18.389L11.8064 18.3814V18.3735V18.372V18.3287L11.7636 18.3225L11.4854 18.2826L12.805 17.8924L13.9719 18.4891L14.0534 18.5308L14.0444 18.4396L14.0158 18.1511L14.1406 18.2965L14.1579 18.3168L14.1844 18.3136L16.1817 18.0776L16.2125 18.074L16.2229 18.0447L16.3512 17.6835L16.3513 17.6833L16.6464 16.8416L16.6464 16.8415L17.1311 15.4509L17.1342 15.4422L17.1339 15.4329L17.0754 13.5631L17.0755 13.5631L17.0754 13.5619L17.0742 13.5398L17.5659 13.5445L17.5657 13.5564L17.5645 13.6061L17.6142 13.6076L17.8138 13.6132L17.8138 13.6132L18.2928 13.6275L18.3384 13.6288L18.3439 13.5835L18.3528 13.5095L21.0813 13.5109H21.0813H21.4099L20.0732 17.5619L18.516 17.7166L18.516 17.7166L17.7732 17.7905L17.6826 17.7995L17.7389 17.8712L18.0522 18.2699L17.4339 19.9219L16.4408 20.508L14.4838 19.9802L14.4023 19.9583L14.4222 20.0403Z" stroke="#FEF7FF" stroke-width="0.1"/>
</g>
<g style="mix-blend-mode:multiply" opacity="0.3">
<path d="M14.009 18.475L14.0474 18.4627L14.0434 18.4225L14.0149 18.134L14.1305 18.2688L14.4205 20.0196L14.4204 20.0196L14.4212 20.0232L14.6512 20.9731L13.1598 20.4948L13.5028 18.6379L14.009 18.475Z" fill="url(#paint26_linear_1073_8072)" style="mix-blend-mode:multiply"/>
<path d="M14.009 18.475L14.0474 18.4627L14.0434 18.4225L14.0149 18.134L14.1305 18.2688L14.4205 20.0196L14.4204 20.0196L14.4212 20.0232L14.6512 20.9731L13.1598 20.4948L13.5028 18.6379L14.009 18.475Z" stroke="#FEF7FF" stroke-width="0.1"/>
</g>
<g style="mix-blend-mode:multiply" opacity="0.3">
<path d="M17.6133 13.5905L17.7623 13.5948L17.6223 16.0421L17.6234 15.4175L17.6235 15.3674H17.5734H17.1315L17.0774 13.5469V13.5235H17.0775L17.0774 13.5228L17.565 13.5275L17.5647 13.5394L17.5636 13.5891L17.6133 13.5905Z" fill="url(#paint27_linear_1073_8072)" style="mix-blend-mode:multiply"/>
<path d="M17.6133 13.5905L17.7623 13.5948L17.6223 16.0421L17.6234 15.4175L17.6235 15.3674H17.5734H17.1315L17.0774 13.5469V13.5235H17.0775L17.0774 13.5228L17.565 13.5275L17.5647 13.5394L17.5636 13.5891L17.6133 13.5905Z" stroke="#FEF7FF" stroke-width="0.1"/>
</g>
<g style="mix-blend-mode:multiply" opacity="0.5">
<path d="M9.47463 17.2652L9.33026 13.4516L9.63506 13.4537L9.74106 16.4984L9.74041 16.4984L9.74198 16.5064L9.9147 17.3795L9.47463 17.2652Z" fill="url(#paint28_linear_1073_8072)" style="mix-blend-mode:multiply"/>
<path d="M9.47463 17.2652L9.33026 13.4516L9.63506 13.4537L9.74106 16.4984L9.74041 16.4984L9.74198 16.5064L9.9147 17.3795L9.47463 17.2652Z" stroke="#FEF7FF" stroke-width="0.1"/>
</g>
<path d="M10.7045 18.7619L10.6612 18.9715L10.3941 18.6872L10.7045 18.7619Z" fill="url(#paint29_linear_1073_8072)" stroke="#FEF7FF" stroke-width="0.1"/>
<g style="mix-blend-mode:multiply" opacity="0.5">
<path d="M12.0033 20.2219L10.336 20.371L11.4554 19.3222L12.0033 20.2219Z" fill="url(#paint30_linear_1073_8072)" style="mix-blend-mode:multiply"/>
<path d="M12.0033 20.2219L10.336 20.371L11.4554 19.3222L12.0033 20.2219Z" stroke="#FEF7FF" stroke-width="0.1"/>
</g>
<path d="M13.0603 20.4833L12.2119 20.5768L12.1415 20.2751L13.2968 18.6495H13.3991L13.0603 20.4833Z" fill="url(#paint31_linear_1073_8072)" stroke="#FEF7FF" stroke-width="0.1"/>
<g style="mix-blend-mode:multiply" opacity="0.3">
<path d="M16.5454 19.9208L16.5546 19.9256L16.5649 19.9263L17.3095 19.9777L16.4399 20.4909L14.6733 20.0145L16.08 19.6805L16.5454 19.9208Z" fill="url(#paint32_linear_1073_8072)" style="mix-blend-mode:multiply"/>
<path d="M16.5454 19.9208L16.5546 19.9256L16.5649 19.9263L17.3095 19.9777L16.4399 20.4909L14.6733 20.0145L16.08 19.6805L16.5454 19.9208Z" stroke="#FEF7FF" stroke-width="0.1"/>
</g>
<g style="mix-blend-mode:multiply" opacity="0.3">
<path d="M17.7552 17.876L18.0037 18.1922L16.4969 18.1658L16.3155 18.0447L17.5749 17.897L17.5749 17.897L17.7552 17.876Z" fill="url(#paint33_linear_1073_8072)" style="mix-blend-mode:multiply"/>
<path d="M17.7552 17.876L18.0037 18.1922L16.4969 18.1658L16.3155 18.0447L17.5749 17.897L17.5749 17.897L17.7552 17.876Z" stroke="#FEF7FF" stroke-width="0.1"/>
</g>
<g style="mix-blend-mode:multiply" opacity="0.5">
<path d="M16.4356 20.4908L14.6785 20.0146L16.1037 19.6761L16.1369 19.6682L16.1417 19.6344C16.1417 19.6345 16.1419 19.6332 16.1427 19.6295L16.1458 19.6161C16.1485 19.605 16.1523 19.5901 16.1571 19.572C16.1667 19.5357 16.1799 19.4867 16.1959 19.4289C16.2278 19.3132 16.2701 19.1625 16.314 19.0071C16.365 18.8266 16.4183 18.6395 16.4596 18.4941C16.4887 18.3919 16.5119 18.3104 16.5244 18.2662L18.0362 18.2928L17.4287 19.9048L16.4356 20.4908Z" fill="url(#paint34_linear_1073_8072)" style="mix-blend-mode:multiply"/>
<path d="M16.4356 20.4908L14.6785 20.0146L16.1037 19.6761L16.1369 19.6682L16.1417 19.6344C16.1417 19.6345 16.1419 19.6332 16.1427 19.6295L16.1458 19.6161C16.1485 19.605 16.1523 19.5901 16.1571 19.572C16.1667 19.5357 16.1799 19.4867 16.1959 19.4289C16.2278 19.3132 16.2701 19.1625 16.314 19.0071C16.365 18.8266 16.4183 18.6395 16.4596 18.4941C16.4887 18.3919 16.5119 18.3104 16.5244 18.2662L18.0362 18.2928L17.4287 19.9048L16.4356 20.4908Z" stroke="#FEF7FF" stroke-width="0.1"/>
</g>
<g style="mix-blend-mode:multiply" opacity="0.3">
<path d="M16.1456 19.6018L16.4474 18.5228L16.5138 19.7931L16.1456 19.6018Z" fill="url(#paint35_linear_1073_8072)" style="mix-blend-mode:multiply"/>
<path d="M16.1456 19.6018L16.4474 18.5228L16.5138 19.7931L16.1456 19.6018Z" stroke="#FEF7FF" stroke-width="0.1"/>
</g>
<g style="mix-blend-mode:multiply" opacity="0.5">
<path d="M12.8106 20.6297L12.8106 20.6299L12.8145 20.629L12.8313 20.6251L12.8665 20.6197L12.8665 20.6197L12.8672 20.6196L13.099 20.5804L14.1405 20.9144L12.5047 20.6802L12.7726 20.6353L12.8106 20.6297Z" fill="url(#paint36_linear_1073_8072)" style="mix-blend-mode:multiply"/>
<path d="M12.8106 20.6297L12.8106 20.6299L12.8145 20.629L12.8313 20.6251L12.8665 20.6197L12.8665 20.6197L12.8672 20.6196L13.099 20.5804L14.1405 20.9144L12.5047 20.6802L12.7726 20.6353L12.8106 20.6297Z" stroke="#FEF7FF" stroke-width="0.1"/>
</g>
<g style="mix-blend-mode:multiply" opacity="0.3">
<mask id="path-40-inside-1_1073_8072" fill="white">
<path fill-rule="evenodd" clip-rule="evenodd" d="M6.41237 17.7962L6.42235 17.8801L6.30688 17.8417L6.2969 17.7947L6.29547 17.7891L6.41237 17.7919V17.7962Z"/>
</mask>
<path fill-rule="evenodd" clip-rule="evenodd" d="M6.41237 17.7962L6.42235 17.8801L6.30688 17.8417L6.2969 17.7947L6.29547 17.7891L6.41237 17.7919V17.7962Z" fill="url(#paint37_linear_1073_8072)" style="mix-blend-mode:multiply"/>
<path d="M6.41237 17.7962H6.31167L6.31307 17.808L6.41237 17.7962ZM6.42235 17.8801L6.3908 17.975L6.54025 18.0246L6.52165 17.8683L6.42235 17.8801ZM6.30688 17.8417L6.20906 17.8625L6.22098 17.9185L6.27533 17.9366L6.30688 17.8417ZM6.2969 17.7947L6.39477 17.7739L6.39389 17.7704L6.2969 17.7947ZM6.29547 17.7891L6.2979 17.6891L6.16651 17.6859L6.19847 17.8134L6.29547 17.7891ZM6.41237 17.7919H6.51237V17.6943L6.4148 17.6919L6.41237 17.7919ZM6.31307 17.808L6.32305 17.8919L6.52165 17.8683L6.51167 17.7844L6.31307 17.808ZM6.4539 17.7852L6.33843 17.7468L6.27533 17.9366L6.3908 17.975L6.4539 17.7852ZM6.40469 17.8209L6.39471 17.7739L6.19908 17.8156L6.20906 17.8625L6.40469 17.8209ZM6.39389 17.7704L6.39247 17.7647L6.19847 17.8134L6.1999 17.8191L6.39389 17.7704ZM6.29304 17.889L6.40994 17.8919L6.4148 17.6919L6.2979 17.6891L6.29304 17.889ZM6.31237 17.7919V17.7962H6.51237V17.7919H6.31237Z" fill="#FEF7FF" mask="url(#path-40-inside-1_1073_8072)"/>
</g>
<g style="mix-blend-mode:multiply" opacity="0.3">
<path d="M19.7547 11.0901L19.0392 10.8744L20.1717 11.0184L20.1717 11.0184L20.5994 11.0724L20.6296 11.0762L20.6468 11.0511L21.1067 10.3818H21.409L20.0806 14.4075L19.4038 14.0491L19.7899 11.1446L19.7955 11.1024L19.7547 11.0901Z" fill="url(#paint38_linear_1073_8072)" style="mix-blend-mode:multiply"/>
<path d="M19.7547 11.0901L19.0392 10.8744L20.1717 11.0184L20.1717 11.0184L20.5994 11.0724L20.6296 11.0762L20.6468 11.0511L21.1067 10.3818H21.409L20.0806 14.4075L19.4038 14.0491L19.7899 11.1446L19.7955 11.1024L19.7547 11.0901Z" stroke="#FEF7FF" stroke-width="0.1"/>
</g>
<path style="mix-blend-mode:screen" opacity="0.6" fill-rule="evenodd" clip-rule="evenodd" d="M21.4589 13.4579L20.0903 17.6055L18.5007 17.7634L17.758 17.8373L18.0887 18.2582L17.4544 19.9531L16.4279 20.5588L14.4506 20.0256L14.7015 21.0621L12.1597 20.6981L12.0684 20.2787L10.1767 20.4479L6.5756 18.7971L6.67254 18.3549L4.40013 17.779L1.57031 13.3428L4.56122 13.3712L5.30681 13.3783L5.90699 13.384L7.49796 13.3982L9.26 13.4153L9.66487 13.4181L11.1005 13.4309V13.4395H13.7578L14.5732 13.4636H14.5889L17.0024 13.4864H17.0081L17.5969 13.4921L17.5955 13.5546L17.7951 13.5603L18.2741 13.5745L18.2883 13.4565L21.0611 13.4579H21.4589Z" fill="url(#paint39_linear_1073_8072)"/>
<path style="mix-blend-mode:multiply" opacity="0.5" fill-rule="evenodd" clip-rule="evenodd" d="M2.97827 14.4711L4.55641 16.1475L7.61005 15.2574L9.3949 15.6001L9.48044 17.2594L9.97797 17.4471L9.82401 16.456L9.8069 15.7024L11.1099 16.1304L11.1783 17.0546L11.2981 15.9242L12.9974 15.7024L13.6147 15.8731L16.6854 16.5413L16.205 17.9262L17.5778 17.8239L17.9898 15.0697L18.1267 15.1209L17.7831 17.8239L20.1511 17.4997L21.6608 13.1189L2.97827 14.4711Z" fill="url(#paint40_linear_1073_8072)"/>
<path d="M23.4158 10.1603L23.3886 10.1665L23.3796 10.1929L22.2229 13.5779L21.1416 13.7839L20.8116 13.7217L20.8024 13.7708L20.8116 13.7217L18.0574 13.2027L18.0575 13.202L18.0488 13.2019L16.214 13.1777L12.2404 13.1251L2.37789 12.0649L1.9942 11.1873L11.2825 11.6567L11.3554 11.6604L11.3326 11.5911L10.9442 10.4129L13.6518 10.4794L13.7251 10.4812L13.7 10.4123L13.1502 8.9044L23.7254 7.06547C23.6728 7.30054 23.5048 8.04099 23.3841 8.52628L23.3837 8.52783C23.3521 8.67465 23.311 8.81928 23.2607 8.9608C23.2501 8.97892 23.2496 8.99858 23.2527 9.01414C23.2562 9.0313 23.2644 9.04722 23.2729 9.06065C23.2903 9.08786 23.3178 9.11802 23.3494 9.14859C23.4134 9.21045 23.5045 9.28336 23.5961 9.35233C23.688 9.42158 23.7821 9.48798 23.8531 9.53701C23.8842 9.55848 23.9109 9.57665 23.9311 9.59031L23.5829 10.1221L23.4158 10.1603Z" fill="url(#paint41_linear_1073_8072)" stroke="#FEF7FF" stroke-width="0.1"/>
<g style="mix-blend-mode:multiply" opacity="0.5">
<path d="M13.3754 11.4574L12.7749 12.9161L9.96195 13.0413L10.0495 12.6853L10.5924 11.7774L10.6301 11.7144L10.5576 11.7024L10.2483 11.6512L10.2026 11.6437L10.1916 11.6886L9.95596 12.6469L9.69966 13.0755L9.65198 13.1552L9.7448 13.1511L9.83295 13.1471L9.8173 13.2108L4.50186 12.5297L4.52519 11.5963L13.3754 11.4574Z" fill="url(#paint42_linear_1073_8072)" style="mix-blend-mode:multiply"/>
<path d="M13.3754 11.4574L12.7749 12.9161L9.96195 13.0413L10.0495 12.6853L10.5924 11.7774L10.6301 11.7144L10.5576 11.7024L10.2483 11.6512L10.2026 11.6437L10.1916 11.6886L9.95596 12.6469L9.69966 13.0755L9.65198 13.1552L9.7448 13.1511L9.83295 13.1471L9.8173 13.2108L4.50186 12.5297L4.52519 11.5963L13.3754 11.4574Z" stroke="#FEF7FF" stroke-width="0.1"/>
</g>
<g style="mix-blend-mode:multiply" opacity="0.3">
<path d="M23.7192 7.06113L23.2546 8.95011L22.6159 9.39006L22.5046 9.46672L22.639 9.48096L23.9134 9.61595L23.5836 10.1208L23.4026 10.1526L23.3733 10.1578L23.3638 10.186L22.223 13.5825L21.07 13.7643L17.5861 13.2705L17.5861 13.2704L17.5823 13.2702L11.1737 12.8616L11.4141 12.4636L14.787 12.5483L14.4557 12.9125L14.385 12.9901L14.4898 12.996L15.8741 13.0742L15.9142 13.0765L15.9251 13.0378L16.5096 10.9448L16.5239 10.8933L16.4716 10.8824L14.6234 10.4958L14.4398 9.02552L14.8149 8.64874L23.7192 7.06113Z" fill="url(#paint43_linear_1073_8072)" style="mix-blend-mode:multiply"/>
<path d="M23.7192 7.06113L23.2546 8.95011L22.6159 9.39006L22.5046 9.46672L22.639 9.48096L23.9134 9.61595L23.5836 10.1208L23.4026 10.1526L23.3733 10.1578L23.3638 10.186L22.223 13.5825L21.07 13.7643L17.5861 13.2705L17.5861 13.2704L17.5823 13.2702L11.1737 12.8616L11.4141 12.4636L14.787 12.5483L14.4557 12.9125L14.385 12.9901L14.4898 12.996L15.8741 13.0742L15.9142 13.0765L15.9251 13.0378L16.5096 10.9448L16.5239 10.8933L16.4716 10.8824L14.6234 10.4958L14.4398 9.02552L14.8149 8.64874L23.7192 7.06113Z" stroke="#FEF7FF" stroke-width="0.1"/>
</g>
<g style="mix-blend-mode:multiply" opacity="0.3">
<path d="M14.2418 12.2432L13.0652 12.177L13.4619 11.4869L14.2418 12.2432Z" fill="url(#paint44_linear_1073_8072)" style="mix-blend-mode:multiply"/>
<path d="M14.2418 12.2432L13.0652 12.177L13.4619 11.4869L14.2418 12.2432Z" stroke="#FEF7FF" stroke-width="0.1"/>
</g>
<g style="mix-blend-mode:multiply" opacity="0.3">
<path d="M18.7725 13.4288L18.6281 13.3722L19.807 10.6887L20.0196 11.3544V13.5426L18.7725 13.4288Z" fill="url(#paint45_linear_1073_8072)" style="mix-blend-mode:multiply"/>
<path d="M18.7725 13.4288L18.6281 13.3722L19.807 10.6887L20.0196 11.3544V13.5426L18.7725 13.4288Z" stroke="#FEF7FF" stroke-width="0.1"/>
</g>
<g style="mix-blend-mode:multiply" opacity="0.3">
<path d="M14.442 9.04318L15.8866 8.60584L15.5579 10.3356L14.6215 10.4802L14.442 9.04318Z" fill="url(#paint46_linear_1073_8072)" style="mix-blend-mode:multiply"/>
<path d="M14.442 9.04318L15.8866 8.60584L15.5579 10.3356L14.6215 10.4802L14.442 9.04318Z" stroke="#FEF7FF" stroke-width="0.1"/>
</g>
<path d="M8.21462 12.1013C6.1365 12.0792 4.07217 11.7648 2.08261 11.1677L3.66536 10.6621L13.2118 11.4329C13.1758 11.4447 13.1354 11.4575 13.0906 11.4713C12.8638 11.5411 12.5261 11.6344 12.0833 11.7277C11.1978 11.9144 9.89225 12.1013 8.21462 12.1013Z" fill="url(#paint47_linear_1073_8072)" stroke="#FEF7FF" stroke-width="0.1"/>
<path d="M0.147342 12.0621C0.784431 11.9394 1.67672 11.9111 2.67073 11.9404C3.73658 11.9717 4.91515 12.069 6.01328 12.1849C7.1113 12.3008 8.12829 12.4352 8.87081 12.5407C9.24205 12.5934 9.54464 12.6389 9.7544 12.6712C9.85927 12.6873 9.94093 12.7002 9.99636 12.709L10.0594 12.7191L10.0755 12.7217L10.0796 12.7223L10.0806 12.7225L10.0808 12.7225L10.089 12.6732L10.0808 12.7231L10.0884 12.7232L17.2329 12.8027L20.8774 13.7902C20.8274 13.7948 20.771 13.8 20.7085 13.8057C19.5561 13.911 16.3347 14.2055 13.174 14.4846L0.147342 12.0621ZM0.147342 12.0621C0.530676 12.2613 1.73617 12.8887 2.92872 13.5191C2.92873 13.5191 2.92873 13.5191 2.92874 13.5191L2.92915 13.5193C3.43791 13.7879 3.94683 14.0567 4.39022 14.2941L4.39024 14.2941L4.84833 14.5397L5.31038 14.4317L5.31944 14.4296L5.32865 14.4309L5.44127 14.4465L5.44372 14.4468L5.44371 14.4469C5.64019 14.4842 5.83867 14.51 6.03815 14.5244L6.04111 14.5246L6.0411 14.5247L6.44023 14.5773L6.44027 14.5773L8.66168 14.868L11.1782 14.6552L11.1824 14.6549V14.655H11.1945L13.1739 14.4846L0.147342 12.0621Z" fill="url(#paint48_linear_1073_8072)" stroke="#FEF7FF" stroke-width="0.1"/>
<path d="M12.1897 12.6282L11.5359 12.4101L12.7317 11.961L14.6165 12.2519L14.7941 12.4577L12.1897 12.6282Z" fill="url(#paint49_linear_1073_8072)" stroke="#FEF7FF" stroke-width="0.1"/>
<path d="M19.2196 10.5653L16.461 10.8811L11.7569 10.4082L15.4396 10.3601L19.2196 10.5653Z" fill="url(#paint50_linear_1073_8072)" stroke="#FEF7FF" stroke-width="0.1"/>
<path d="M15.957 8.4845L15.9466 8.48326L15.9365 8.48629L14.3825 8.95679L13.3801 8.84365L21.4792 7.04428L23.4497 7.05034L17.9253 8.71929L15.957 8.4845Z" fill="url(#paint51_linear_1073_8072)" stroke="#FEF7FF" stroke-width="0.1"/>
<path d="M1.14347 13.8603L0.105331 12.1127L2.42506 12.7229L2.42501 12.7231L2.42942 12.7239L2.57167 12.748L3.60065 12.9356L3.60095 12.9357L3.96411 12.9996L3.96448 12.9997L4.01829 13.0096L4.01854 13.0096L4.71994 13.1347L4.71995 13.1347L6.58749 13.4675L6.58753 13.4675L11.3989 14.3206L11.3988 14.3214H11.4077H11.4504V14.3214L11.4527 14.3213L13.8095 14.2161H13.8825V14.2162L13.8849 14.2161L15.5956 14.1336L15.5956 14.1336L17.285 14.0526L17.2851 14.0526L20.9646 13.8689L20.2437 14.7117L12.0308 15.1542L12.0308 15.1542L11.4477 15.1854H11.0488L10.8995 15.1659L10.8993 15.1659L8.66872 14.8816L8.66827 14.8815L6.4405 14.5773L6.44027 14.5772L6.0411 14.5246L6.04111 14.5246L6.03815 14.5243C5.83867 14.51 5.64019 14.4841 5.44371 14.4469L5.44372 14.4468L5.44127 14.4465L5.32865 14.4308L5.31944 14.4296L5.31039 14.4317L4.83025 14.5439L4.82996 14.544L2.57346 15.0574L1.14347 13.8603Z" fill="url(#paint52_linear_1073_8072)" stroke="#FEF7FF" stroke-width="0.1"/>
<g style="mix-blend-mode:multiply" opacity="0.3">
<path d="M2.56323 15.106H2.56485H2.56323Z" stroke="#FEF7FF" stroke-width="0.1"/>
</g>
<g style="mix-blend-mode:multiply" opacity="0.3">
<path d="M17.2879 14.0596L20.9521 13.8848L20.2437 14.7131L12.0309 15.1541L12.0309 15.1541L11.4477 15.1853H11.0474L10.8981 15.1658L10.898 15.1658L8.66734 14.8815L8.66689 14.8814L6.44055 14.5772L6.44032 14.5772L6.04115 14.5246L6.04116 14.5245L6.0382 14.5243C5.83871 14.5099 5.64023 14.4841 5.44375 14.4468L5.44376 14.4468L5.44131 14.4464L5.32869 14.4308L5.31948 14.4295L5.31043 14.4316L4.83029 14.5439L4.83 14.544L2.66373 15.0368L3.17352 14.189L3.18613 14.168L3.17729 14.1452L2.94492 13.5451L2.94489 13.5451L2.6447 12.7741L3.601 12.9356L3.60134 12.9357L3.96416 12.9996L3.96453 12.9996L4.01833 13.0095L4.01859 13.0096L4.71998 13.1347L4.71999 13.1347L6.58753 13.4674L6.58757 13.4674L11.399 14.3205L11.3988 14.3213H11.4077H11.4505V14.3213L11.4527 14.3212L13.8095 14.2161H13.8825V14.2161L13.8849 14.216L15.4519 14.1407H15.5933V14.1408L15.5956 14.1407L16.0233 14.1208L16.0234 14.1208L17.2878 14.0596L17.2879 14.0596Z" fill="url(#paint53_linear_1073_8072)" style="mix-blend-mode:multiply"/>
<path d="M17.2879 14.0596L20.9521 13.8848L20.2437 14.7131L12.0309 15.1541L12.0309 15.1541L11.4477 15.1853H11.0474L10.8981 15.1658L10.898 15.1658L8.66734 14.8815L8.66689 14.8814L6.44055 14.5772L6.44032 14.5772L6.04115 14.5246L6.04116 14.5245L6.0382 14.5243C5.83871 14.5099 5.64023 14.4841 5.44375 14.4468L5.44376 14.4468L5.44131 14.4464L5.32869 14.4308L5.31948 14.4295L5.31043 14.4316L4.83029 14.5439L4.83 14.544L2.66373 15.0368L3.17352 14.189L3.18613 14.168L3.17729 14.1452L2.94492 13.5451L2.94489 13.5451L2.6447 12.7741L3.601 12.9356L3.60134 12.9357L3.96416 12.9996L3.96453 12.9996L4.01833 13.0095L4.01859 13.0096L4.71998 13.1347L4.71999 13.1347L6.58753 13.4674L6.58757 13.4674L11.399 14.3205L11.3988 14.3213H11.4077H11.4505V14.3213L11.4527 14.3212L13.8095 14.2161H13.8825V14.2161L13.8849 14.216L15.4519 14.1407H15.5933V14.1408L15.5956 14.1407L16.0233 14.1208L16.0234 14.1208L17.2878 14.0596L17.2879 14.0596Z" stroke="#FEF7FF" stroke-width="0.1"/>
</g>
<g style="mix-blend-mode:multiply" opacity="0.5">
<path d="M4.94618 14.4691L5.07266 14.4872L4.83029 14.5439L4.83 14.5439L2.66373 15.0368L3.15644 14.2174L4.35249 14.3876L4.35258 14.3876L4.64625 14.4288L4.64629 14.4289L4.93141 14.4687L4.93135 14.4691H4.93833H4.94618Z" fill="url(#paint54_linear_1073_8072)" style="mix-blend-mode:multiply"/>
<path d="M4.94618 14.4691L5.07266 14.4872L4.83029 14.5439L4.83 14.5439L2.66373 15.0368L3.15644 14.2174L4.35249 14.3876L4.35258 14.3876L4.64625 14.4288L4.64629 14.4289L4.93141 14.4687L4.93135 14.4691H4.93833H4.94618Z" stroke="#FEF7FF" stroke-width="0.1"/>
</g>
<g style="mix-blend-mode:multiply" opacity="0.5">
<path d="M17.2878 14.0454L20.9586 13.8689L20.2366 14.7131L12.0308 15.1541L12.0308 15.1541L11.448 15.1853L11.0477 15.1797L10.9737 15.17L11.2367 14.7307L11.2367 14.7306L11.4796 14.3243L13.8108 14.2132L13.8108 14.2132L13.8113 14.2132L13.8849 14.2089L13.8854 14.2089L15.5971 14.1265L15.5971 14.1265L17.2878 14.0454L17.2878 14.0454Z" fill="url(#paint55_linear_1073_8072)" style="mix-blend-mode:multiply"/>
<path d="M17.2878 14.0454L20.9586 13.8689L20.2366 14.7131L12.0308 15.1541L12.0308 15.1541L11.448 15.1853L11.0477 15.1797L10.9737 15.17L11.2367 14.7307L11.2367 14.7306L11.4796 14.3243L13.8108 14.2132L13.8108 14.2132L13.8113 14.2132L13.8849 14.2089L13.8854 14.2089L15.5971 14.1265L15.5971 14.1265L17.2878 14.0454L17.2878 14.0454Z" stroke="#FEF7FF" stroke-width="0.1"/>
</g>
<path d="M20.2528 8.09873L19.5462 9.46236L19.5428 9.46905L19.5414 9.47647L19.4957 9.72962L19.5106 9.44106L19.7862 8.22956L19.7996 8.1706L19.7392 8.1685L19.3238 8.15409L20.2528 8.09873Z" fill="url(#paint56_linear_1073_8072)" stroke="#FEF7FF" stroke-width="0.1"/>
<g style="mix-blend-mode:multiply" opacity="0.5">
<path d="M22.6272 9.83104L22.6301 9.86271L22.6599 9.87355L23.4205 10.1495L23.4025 10.1527L23.3733 10.1578L23.3638 10.186L22.223 13.5825L21.0731 13.7639L20.555 13.6246L20.5544 13.6244L20.4698 13.6005L20.4695 13.6004L20.4056 13.582L20.4052 13.5819L20.217 13.5293L20.217 13.5293L18.7401 13.1182L19.8573 10.5832L19.8863 10.5175L19.8146 10.5132L18.1462 10.4119L17.9836 8.82095L19.6852 8.27392L19.6888 8.27747L20.0204 8.62814L20.0697 8.68029L20.1016 8.61596L20.3557 8.10218L20.3819 8.09425L20.382 8.09423L20.9265 7.93074L20.9265 7.93073L22.3877 7.49138L22.3879 7.49132L22.7613 7.37762L22.7614 7.37757L23.7102 7.09226C23.6513 7.35469 23.4917 8.05616 23.3757 8.5226L23.254 8.94952L22.613 9.39006L22.5889 9.40663L22.5916 9.43576L22.6272 9.83104Z" fill="url(#paint57_linear_1073_8072)" style="mix-blend-mode:multiply"/>
<path d="M22.6272 9.83104L22.6301 9.86271L22.6599 9.87355L23.4205 10.1495L23.4025 10.1527L23.3733 10.1578L23.3638 10.186L22.223 13.5825L21.0731 13.7639L20.555 13.6246L20.5544 13.6244L20.4698 13.6005L20.4695 13.6004L20.4056 13.582L20.4052 13.5819L20.217 13.5293L20.217 13.5293L18.7401 13.1182L19.8573 10.5832L19.8863 10.5175L19.8146 10.5132L18.1462 10.4119L17.9836 8.82095L19.6852 8.27392L19.6888 8.27747L20.0204 8.62814L20.0697 8.68029L20.1016 8.61596L20.3557 8.10218L20.3819 8.09425L20.382 8.09423L20.9265 7.93074L20.9265 7.93073L22.3877 7.49138L22.3879 7.49132L22.7613 7.37762L22.7614 7.37757L23.7102 7.09226C23.6513 7.35469 23.4917 8.05616 23.3757 8.5226L23.254 8.94952L22.613 9.39006L22.5889 9.40663L22.5916 9.43576L22.6272 9.83104Z" stroke="#FEF7FF" stroke-width="0.1"/>
</g>
<g style="mix-blend-mode:multiply" opacity="0.3">
<path d="M23.4336 10.1563L23.4191 10.1488L23.4372 10.1554L23.4336 10.1563Z" fill="url(#paint58_linear_1073_8072)" style="mix-blend-mode:multiply"/>
<path d="M23.4336 10.1563L23.4191 10.1488L23.4372 10.1554L23.4336 10.1563Z" stroke="#FEF7FF" stroke-width="0.1"/>
</g>
<g style="mix-blend-mode:screen" opacity="0.3">
<path d="M20.6183 9.6264L20.6216 9.59115L20.5895 9.57634L20.5056 9.53772L20.4226 8.08287L20.8584 7.952L20.3446 13.5572L20.2544 13.532L20.6183 9.6264Z" fill="url(#paint59_linear_1073_8072)" style="mix-blend-mode:screen"/>
<path d="M20.6183 9.6264L20.6216 9.59115L20.5895 9.57634L20.5056 9.53772L20.4226 8.08287L20.8584 7.952L20.3446 13.5572L20.2544 13.532L20.6183 9.6264Z" stroke="#FEF7FF" stroke-width="0.1"/>
</g>
<g style="mix-blend-mode:screen" opacity="0.3">
<path d="M22.6609 7.40754C22.5806 7.62153 22.4914 7.8809 22.3968 8.17088C22.402 8.13766 22.4068 8.10501 22.4111 8.07295C22.4421 7.84239 22.4506 7.63973 22.4283 7.47867L22.6609 7.40754ZM20.5457 13.6148L20.5163 13.6106C20.6279 13.355 21.0734 12.3251 21.5076 11.1593C21.3169 11.8385 21.1455 12.4668 21.021 12.9284C20.9574 13.1645 20.906 13.357 20.8705 13.4905L20.8296 13.6445L20.8267 13.6553L20.5458 13.6148L20.5457 13.6148Z" fill="url(#paint60_linear_1073_8072)" style="mix-blend-mode:screen"/>
<path d="M22.6609 7.40754C22.5806 7.62153 22.4914 7.8809 22.3968 8.17088C22.402 8.13766 22.4068 8.10501 22.4111 8.07295C22.4421 7.84239 22.4506 7.63973 22.4283 7.47867L22.6609 7.40754ZM20.5457 13.6148L20.5163 13.6106C20.6279 13.355 21.0734 12.3251 21.5076 11.1593C21.3169 11.8385 21.1455 12.4668 21.021 12.9284C20.9574 13.1645 20.906 13.357 20.8705 13.4905L20.8296 13.6445L20.8267 13.6553L20.5458 13.6148L20.5457 13.6148Z" stroke="#FEF7FF" stroke-width="0.1"/>
</g>
<g style="mix-blend-mode:multiply" opacity="0.15">
<path d="M11.0477 15.1797L10.972 15.1698L11.223 14.7312L11.223 14.7312L11.4547 14.3254L13.6084 14.2228L13.1544 14.4897L13.1543 14.4898L12.0187 15.1547L11.448 15.1853L11.0477 15.1797Z" fill="url(#paint61_linear_1073_8072)" style="mix-blend-mode:multiply"/>
<path d="M11.0477 15.1797L10.972 15.1698L11.223 14.7312L11.223 14.7312L11.4547 14.3254L13.6084 14.2228L13.1544 14.4897L13.1543 14.4898L12.0187 15.1547L11.448 15.1853L11.0477 15.1797Z" stroke="#FEF7FF" stroke-width="0.1"/>
</g>
<g style="mix-blend-mode:multiply" opacity="0.15">
<path d="M15.5059 14.1283L15.5421 14.1276C15.532 14.2939 15.5032 14.4581 15.4564 14.6172C15.4947 14.4578 15.5115 14.2934 15.5059 14.1283Z" fill="url(#paint62_linear_1073_8072)" style="mix-blend-mode:multiply"/>
<path d="M15.5059 14.1283L15.5421 14.1276C15.532 14.2939 15.5032 14.4581 15.4564 14.6172C15.4947 14.4578 15.5115 14.2934 15.5059 14.1283Z" stroke="#FEF7FF" stroke-width="0.1"/>
</g>
<g style="mix-blend-mode:screen" opacity="0.3">
<path d="M16.0599 14.1046L17.2095 14.0491C17.1156 14.2925 16.9998 14.607 16.8961 14.8929L15.9327 14.9447L16.0599 14.1046Z" fill="url(#paint63_linear_1073_8072)" style="mix-blend-mode:screen"/>
<path d="M16.0599 14.1046L17.2095 14.0491C17.1156 14.2925 16.9998 14.607 16.8961 14.8929L15.9327 14.9447L16.0599 14.1046Z" stroke="#FEF7FF" stroke-width="0.1"/>
</g>
<g style="mix-blend-mode:multiply" opacity="0.15">
<path d="M3.5329 14.0639L3.65361 12.9467L3.95814 13.0016C3.90494 13.1344 3.84098 13.2943 3.77746 13.4532C3.68252 13.6907 3.58855 13.9257 3.5329 14.0639Z" fill="url(#paint64_linear_1073_8072)" style="mix-blend-mode:multiply"/>
<path d="M3.5329 14.0639L3.65361 12.9467L3.95814 13.0016C3.90494 13.1344 3.84098 13.2943 3.77746 13.4532C3.68252 13.6907 3.58855 13.9257 3.5329 14.0639Z" stroke="#FEF7FF" stroke-width="0.1"/>
</g>
<g style="mix-blend-mode:multiply" opacity="0.15">
<path d="M5.44658 14.4441L5.44659 14.4441L5.44547 14.4439L4.96647 14.3642L4.96658 14.3636H4.95827H4.95095L4.71204 14.3243L4.75159 13.6001L4.75159 13.6001L4.77565 13.1517L6.52287 13.459C6.42424 13.6652 6.30515 13.9064 6.2047 14.1098L6.19666 14.1261C6.14082 14.2392 6.09115 14.3398 6.05473 14.4148C6.03653 14.4523 6.02152 14.4837 6.01066 14.5071C6.00874 14.5112 6.00693 14.5151 6.00525 14.5188C5.81781 14.5041 5.63131 14.4791 5.44658 14.4441Z" fill="url(#paint65_linear_1073_8072)" style="mix-blend-mode:multiply"/>
<path d="M5.44658 14.4441L5.44659 14.4441L5.44547 14.4439L4.96647 14.3642L4.96658 14.3636H4.95827H4.95095L4.71204 14.3243L4.75159 13.6001L4.75159 13.6001L4.77565 13.1517L6.52287 13.459C6.42424 13.6652 6.30515 13.9064 6.2047 14.1098L6.19666 14.1261C6.14082 14.2392 6.09115 14.3398 6.05473 14.4148C6.03653 14.4523 6.02152 14.4837 6.01066 14.5071C6.00874 14.5112 6.00693 14.5151 6.00525 14.5188C5.81781 14.5041 5.63131 14.4791 5.44658 14.4441Z" stroke="#FEF7FF" stroke-width="0.1"/>
</g>
<g style="mix-blend-mode:multiply" opacity="0.5">
<path d="M19.3797 9.68402L19.2787 10.3889C19.1768 10.3972 19.0744 10.398 18.9723 10.3914C18.9868 10.3647 19.0056 10.331 19.0275 10.2922C19.0808 10.1978 19.152 10.0745 19.2232 9.95194C19.2781 9.85759 19.3329 9.76376 19.3797 9.68402Z" fill="url(#paint66_linear_1073_8072)" style="mix-blend-mode:multiply"/>
<path d="M19.3797 9.68402L19.2787 10.3889C19.1768 10.3972 19.0744 10.398 18.9723 10.3914C18.9868 10.3647 19.0056 10.331 19.0275 10.2922C19.0808 10.1978 19.152 10.0745 19.2232 9.95194C19.2781 9.85759 19.3329 9.76376 19.3797 9.68402Z" stroke="#FEF7FF" stroke-width="0.1"/>
</g>
<g style="mix-blend-mode:multiply" opacity="0.5">
<path d="M15.4845 10.1929L15.5145 10.188L15.5239 10.159L15.6862 9.65901L15.565 10.2566L15.0235 10.2692L15.4845 10.1929Z" fill="url(#paint67_linear_1073_8072)" style="mix-blend-mode:multiply"/>
<path d="M15.4845 10.1929L15.5145 10.188L15.5239 10.159L15.6862 9.65901L15.565 10.2566L15.0235 10.2692L15.4845 10.1929Z" stroke="#FEF7FF" stroke-width="0.1"/>
</g>
<g style="mix-blend-mode:multiply" opacity="0.5">
<path d="M4.87432 14.3678L4.71159 14.3547L4.72556 13.8555L4.87432 14.3678Z" fill="url(#paint68_linear_1073_8072)" style="mix-blend-mode:multiply"/>
<path d="M4.87432 14.3678L4.71159 14.3547L4.72556 13.8555L4.87432 14.3678Z" stroke="#FEF7FF" stroke-width="0.1"/>
</g>
<g style="mix-blend-mode:multiply" opacity="0.5">
<path d="M16.0689 14.0643L16.0754 14.0223L16.035 14.0091L15.5335 13.8459L16.377 14.0681L15.9622 14.7553L16.0689 14.0643Z" fill="url(#paint69_linear_1073_8072)" style="mix-blend-mode:multiply"/>
<path d="M16.0689 14.0643L16.0754 14.0223L16.035 14.0091L15.5335 13.8459L16.377 14.0681L15.9622 14.7553L16.0689 14.0643Z" stroke="#FEF7FF" stroke-width="0.1"/>
</g>
<mask id="path-75-inside-2_1073_8072" fill="white">
<path fill-rule="evenodd" clip-rule="evenodd" d="M10.891 15.2098L10.8802 15.2261L10.891 15.2098Z"/>
</mask>
<path fill-rule="evenodd" clip-rule="evenodd" d="M10.891 15.2098L10.8802 15.2261L10.891 15.2098Z" fill="url(#paint70_linear_1073_8072)"/>
<path d="M10.8078 15.1544L10.7969 15.1707L10.9634 15.2815L10.9743 15.2653L10.8078 15.1544ZM10.9634 15.2815L10.9743 15.2653L10.8078 15.1544L10.7969 15.1707L10.9634 15.2815Z" fill="#FEF7FF" mask="url(#path-75-inside-2_1073_8072)"/>
<path d="M13.4591 18.6496H13.4699L13.4798 18.6451L13.9973 18.4105L14.0245 18.3981L14.0265 18.3683L14.0375 18.2043L14.1316 18.2749L14.4206 20.0196L14.4204 20.0197L14.4213 20.0232L14.6543 20.9912L12.2337 20.7489L12.1409 20.276L13.276 18.6784L13.2761 18.6783L13.2966 18.6496H13.4591Z" fill="url(#paint71_linear_1073_8072)" stroke="#FEF7FF" stroke-width="0.1"/>
<g style="mix-blend-mode:multiply" opacity="0.5">
<path d="M13.2033 20.4383L14.358 20.9392L12.4019 20.7636L13.2033 20.4383Z" fill="url(#paint72_linear_1073_8072)" style="mix-blend-mode:multiply"/>
<path d="M13.2033 20.4383L14.358 20.9392L12.4019 20.7636L13.2033 20.4383Z" stroke="#FEF7FF" stroke-width="0.1"/>
</g>
<g style="mix-blend-mode:multiply" opacity="0.5">
<path d="M14.6543 20.9912L12.3977 20.7653L13.2228 20.4303L13.2533 20.4179L13.2539 20.3849L13.285 18.6658L13.2966 18.6496H13.4591H13.4699L13.4798 18.6451L13.9973 18.4105L14.0245 18.3981L14.0265 18.3683L14.0375 18.2043L14.1316 18.2749L14.4206 20.0196L14.4204 20.0197L14.4213 20.0232L14.6543 20.9912Z" fill="url(#paint73_linear_1073_8072)" style="mix-blend-mode:multiply"/>
<path d="M14.6543 20.9912L12.3977 20.7653L13.2228 20.4303L13.2533 20.4179L13.2539 20.3849L13.285 18.6658L13.2966 18.6496H13.4591H13.4699L13.4798 18.6451L13.9973 18.4105L14.0245 18.3981L14.0265 18.3683L14.0375 18.2043L14.1316 18.2749L14.4206 20.0196L14.4204 20.0197L14.4213 20.0232L14.6543 20.9912Z" stroke="#FEF7FF" stroke-width="0.1"/>
</g>
<path d="M8.21661 15.9983L8.77327 16.8265L8.38266 17.1464L7.85799 16.9929L7.79501 16.1945L8.21661 15.9983Z" fill="url(#paint74_linear_1073_8072)" stroke="#FEF7FF" stroke-width="0.1"/>
<g style="mix-blend-mode:multiply" opacity="0.3">
<path d="M8.38265 17.1464L7.98933 17.0313L8.25963 16.9527L8.2961 16.942L8.29566 16.9041L8.28622 16.1019L8.77326 16.8265L8.38265 17.1464Z" fill="url(#paint75_linear_1073_8072)" style="mix-blend-mode:multiply"/>
<path d="M8.38265 17.1464L7.98933 17.0313L8.25963 16.9527L8.2961 16.942L8.29566 16.9041L8.28622 16.1019L8.77326 16.8265L8.38265 17.1464Z" stroke="#FEF7FF" stroke-width="0.1"/>
</g>
<g style="mix-blend-mode:multiply" opacity="0.5">
<path d="M8.29558 16.8926L8.28629 16.1028L8.62754 16.6139L8.63659 16.6275L8.65189 16.6331L9.29044 16.8675L9.12173 17.1299L8.42444 17.1509L8.29558 16.8926Z" fill="url(#paint76_linear_1073_8072)" style="mix-blend-mode:multiply"/>
<path d="M8.29558 16.8926L8.28629 16.1028L8.62754 16.6139L8.63659 16.6275L8.65189 16.6331L9.29044 16.8675L9.12173 17.1299L8.42444 17.1509L8.29558 16.8926Z" stroke="#FEF7FF" stroke-width="0.1"/>
</g>
<path d="M12.2266 20.7281L12.1881 20.5735L12.3706 20.6731L12.2266 20.7281Z" fill="#B7E3FD" stroke="#FEF7FF" stroke-width="0.1"/>
<path d="M7.85935 16.965L7.85922 16.9597L7.87857 16.9594L7.85935 16.965Z" fill="#B7E3FD" stroke="#FEF7FF" stroke-width="0.1"/>
<path style="mix-blend-mode:screen" opacity="0.5" d="M8.16868 17.9626C8.92216 17.9626 9.53298 17.3533 9.53298 16.6018C9.53298 15.8503 8.92216 15.2411 8.16868 15.2411C7.4152 15.2411 6.80438 15.8503 6.80438 16.6018C6.80438 17.3533 7.4152 17.9626 8.16868 17.9626Z" fill="url(#paint77_radial_1073_8072)"/>
<g style="mix-blend-mode:multiply" opacity="0.15">
<path d="M7.17081 12.0555L7.16277 12.0545L7.14073 12.0434L7.05616 12.0009C6.98303 11.9642 6.87795 11.9117 6.75006 11.8482C6.49431 11.7213 6.14733 11.5506 5.78248 11.3754C5.56975 11.2733 5.35085 11.1696 5.14035 11.0721C5.48869 11.1944 5.88927 11.3353 6.29074 11.4769C6.84858 11.6736 7.40808 11.8718 7.83156 12.0236C8.00384 12.0853 8.15353 12.1393 8.2714 12.1825C8.15765 12.1715 8.02307 12.1569 7.88723 12.1415C7.70576 12.1209 7.5225 12.0988 7.38459 12.082L7.21768 12.0613L7.17081 12.0555Z" fill="url(#paint78_linear_1073_8072)" style="mix-blend-mode:multiply"/>
<path d="M7.17081 12.0555L7.16277 12.0545L7.14073 12.0434L7.05616 12.0009C6.98303 11.9642 6.87795 11.9117 6.75006 11.8482C6.49431 11.7213 6.14733 11.5506 5.78248 11.3754C5.56975 11.2733 5.35085 11.1696 5.14035 11.0721C5.48869 11.1944 5.88927 11.3353 6.29074 11.4769C6.84858 11.6736 7.40808 11.8718 7.83156 12.0236C8.00384 12.0853 8.15353 12.1393 8.2714 12.1825C8.15765 12.1715 8.02307 12.1569 7.88723 12.1415C7.70576 12.1209 7.5225 12.0988 7.38459 12.082L7.21768 12.0613L7.17081 12.0555Z" stroke="#FEF7FF" stroke-width="0.1"/>
</g>
<defs>
<linearGradient id="paint0_linear_1073_8072" x1="7.80848" y1="10.6502" x2="10.1412" y2="6.65422" gradientUnits="userSpaceOnUse">
<stop stop-color="#71C8FC"/>
<stop offset="1" stop-color="#58299A"/>
</linearGradient>
<linearGradient id="paint1_linear_1073_8072" x1="10.968" y1="12.0886" x2="12.0076" y2="6.56973" gradientUnits="userSpaceOnUse">
<stop stop-color="#71C8FC"/>
<stop offset="1" stop-color="#58299A"/>
</linearGradient>
<linearGradient id="paint2_linear_1073_8072" x1="6.0766" y1="4.53636" x2="10.4902" y2="7.06262" gradientUnits="userSpaceOnUse">
<stop stop-color="#71C8FC"/>
<stop offset="1" stop-color="#58299A"/>
</linearGradient>
<radialGradient id="paint3_radial_1073_8072" cx="0" cy="0" r="1" gradientUnits="userSpaceOnUse" gradientTransform="translate(7.18075 5.66615) rotate(-22.8063) scale(2.34704 2.34275)">
<stop/>
<stop offset="1" stop-color="white"/>
</radialGradient>
<linearGradient id="paint4_linear_1073_8072" x1="10.8487" y1="5.86178" x2="17.2502" y2="8.94242" gradientUnits="userSpaceOnUse">
<stop stop-color="#71C8FC"/>
<stop offset="1" stop-color="#58299A"/>
</linearGradient>
<linearGradient id="paint5_linear_1073_8072" x1="7.76267" y1="7.70521" x2="12.0219" y2="10.4614" gradientUnits="userSpaceOnUse">
<stop stop-color="#D4B6FC"/>
<stop offset="1" stop-color="#C092FB"/>
</linearGradient>
<linearGradient id="paint6_linear_1073_8072" x1="11.5183" y1="8.18672" x2="13.5724" y2="10.3631" gradientUnits="userSpaceOnUse">
<stop stop-color="#D4B6FC"/>
<stop offset="1" stop-color="#C092FB"/>
</linearGradient>
<linearGradient id="paint7_linear_1073_8072" x1="13.2745" y1="10.212" x2="21.9464" y2="18.9221" gradientUnits="userSpaceOnUse">
<stop stop-color="#D4B6FC"/>
<stop offset="1" stop-color="#C092FB"/>
</linearGradient>
<linearGradient id="paint8_linear_1073_8072" x1="8.18205" y1="3.77451" x2="6.08646" y2="3.08977" gradientUnits="userSpaceOnUse">
<stop/>
<stop offset="1" stop-color="white"/>
</linearGradient>
<linearGradient id="paint9_linear_1073_8072" x1="12.902" y1="7.49715" x2="10.8322" y2="5.56087" gradientUnits="userSpaceOnUse">
<stop/>
<stop offset="1" stop-color="white"/>
</linearGradient>
<linearGradient id="paint10_linear_1073_8072" x1="7.76074" y1="11.5035" x2="13.1351" y2="3.70598" gradientUnits="userSpaceOnUse">
<stop stop-color="#4F1E95"/>
<stop offset="1"/>
</linearGradient>
<linearGradient id="paint11_linear_1073_8072" x1="8.65989" y1="12.2185" x2="15.7345" y2="5.91506" gradientUnits="userSpaceOnUse">
<stop stop-color="#4F1E95"/>
<stop offset="1"/>
</linearGradient>
<linearGradient id="paint12_linear_1073_8072" x1="9.145" y1="12.7643" x2="16.2196" y2="6.46088" gradientUnits="userSpaceOnUse">
<stop stop-color="#4F1E95"/>
<stop offset="1"/>
</linearGradient>
<linearGradient id="paint13_linear_1073_8072" x1="5.47056" y1="8.91126" x2="11.9204" y2="6.07489" gradientUnits="userSpaceOnUse">
<stop stop-color="#D0A7FB"/>
<stop offset="1"/>
</linearGradient>
<linearGradient id="paint14_linear_1073_8072" x1="9.59189" y1="10.1636" x2="12.2565" y2="7.99288" gradientUnits="userSpaceOnUse">
<stop stop-color="#D0A7FB"/>
<stop offset="1"/>
</linearGradient>
<linearGradient id="paint15_linear_1073_8072" x1="10.1645" y1="27.125" x2="14.4796" y2="7.61644" gradientUnits="userSpaceOnUse">
<stop stop-color="#00CAFF"/>
<stop offset="1" stop-color="#14002E"/>
</linearGradient>
<linearGradient id="paint16_linear_1073_8072" x1="11.4847" y1="17.3867" x2="11.6889" y2="12.3974" gradientUnits="userSpaceOnUse">
<stop stop-color="#B37CFA"/>
<stop offset="1" stop-color="#4F1E95"/>
</linearGradient>
<linearGradient id="paint17_linear_1073_8072" x1="8.64626" y1="24.5458" x2="5.65277" y2="14.0695" gradientUnits="userSpaceOnUse">
<stop stop-color="#160330"/>
<stop offset="1" stop-color="#6B30B9"/>
</linearGradient>
<linearGradient id="paint18_linear_1073_8072" x1="4.78287" y1="18.9963" x2="18.4466" y2="9.45891" gradientUnits="userSpaceOnUse">
<stop stop-color="#00CAFF"/>
<stop offset="1" stop-color="#14002E"/>
</linearGradient>
<linearGradient id="paint19_linear_1073_8072" x1="5.16922" y1="21.3438" x2="21.0161" y2="10.2811" gradientUnits="userSpaceOnUse">
<stop stop-color="#5A189A"/>
<stop offset="1" stop-color="#190532"/>
</linearGradient>
<linearGradient id="paint20_linear_1073_8072" x1="14.1633" y1="22.969" x2="11.1698" y2="12.4927" gradientUnits="userSpaceOnUse">
<stop stop-color="#160330"/>
<stop offset="1" stop-color="#6B30B9"/>
</linearGradient>
<linearGradient id="paint21_linear_1073_8072" x1="13.1326" y1="25.0577" x2="13.6503" y2="18.1643" gradientUnits="userSpaceOnUse">
<stop stop-color="#271926"/>
<stop offset="1" stop-color="#14002E"/>
</linearGradient>
<linearGradient id="paint22_linear_1073_8072" x1="17.381" y1="22.0489" x2="14.3875" y2="11.5741" gradientUnits="userSpaceOnUse">
<stop stop-color="#160330"/>
<stop offset="1" stop-color="#6B30B9"/>
</linearGradient>
<linearGradient id="paint23_linear_1073_8072" x1="13.6773" y1="23.9998" x2="24.8796" y2="6.72993" gradientUnits="userSpaceOnUse">
<stop stop-color="#9D4EDD"/>
<stop offset="1" stop-color="#14002E"/>
</linearGradient>
<linearGradient id="paint24_linear_1073_8072" x1="14.1747" y1="19.5607" x2="17.3957" y2="12.9097" gradientUnits="userSpaceOnUse">
<stop stop-color="#5A189A"/>
<stop offset="1" stop-color="#14002E"/>
</linearGradient>
<linearGradient id="paint25_linear_1073_8072" x1="15.7624" y1="18.773" x2="16.0375" y2="12.029" gradientUnits="userSpaceOnUse">
<stop stop-color="#B37CFA"/>
<stop offset="1" stop-color="#4F1E95"/>
</linearGradient>
<linearGradient id="paint26_linear_1073_8072" x1="13.9395" y1="20.1166" x2="14.0444" y2="17.5174" gradientUnits="userSpaceOnUse">
<stop stop-color="#D4B6FC"/>
<stop offset="1" stop-color="#C092FB"/>
</linearGradient>
<linearGradient id="paint27_linear_1073_8072" x1="17.2954" y1="16.5407" x2="17.4486" y2="12.7997" gradientUnits="userSpaceOnUse">
<stop stop-color="#D4B6FC"/>
<stop offset="1" stop-color="#C092FB"/>
</linearGradient>
<linearGradient id="paint28_linear_1073_8072" x1="9.59572" y1="16.2379" x2="9.73612" y2="12.7855" gradientUnits="userSpaceOnUse">
<stop stop-color="#D4B6FC"/>
<stop offset="1" stop-color="#C092FB"/>
</linearGradient>
<linearGradient id="paint29_linear_1073_8072" x1="10.2359" y1="19.1298" x2="12.4043" y2="16.3702" gradientUnits="userSpaceOnUse">
<stop stop-color="#271926"/>
<stop offset="1" stop-color="#14002E"/>
</linearGradient>
<linearGradient id="paint30_linear_1073_8072" x1="10.8474" y1="21.6694" x2="11.551" y2="18.4907" gradientUnits="userSpaceOnUse">
<stop stop-color="#B37CFA"/>
<stop offset="1" stop-color="#4F1E95"/>
</linearGradient>
<linearGradient id="paint31_linear_1073_8072" x1="10.2373" y1="22.9632" x2="16.1685" y2="16.093" gradientUnits="userSpaceOnUse">
<stop stop-color="#271926"/>
<stop offset="1" stop-color="#14002E"/>
</linearGradient>
<linearGradient id="paint32_linear_1073_8072" x1="15.9596" y1="20.2575" x2="15.9908" y2="19.4854" gradientUnits="userSpaceOnUse">
<stop stop-color="#D4B6FC"/>
<stop offset="1" stop-color="#C092FB"/>
</linearGradient>
<linearGradient id="paint33_linear_1073_8072" x1="17.1428" y1="18.1103" x2="17.1584" y2="17.7293" gradientUnits="userSpaceOnUse">
<stop stop-color="#D4B6FC"/>
<stop offset="1" stop-color="#C092FB"/>
</linearGradient>
<linearGradient id="paint34_linear_1073_8072" x1="16.2604" y1="19.8351" x2="16.3426" y2="17.8089" gradientUnits="userSpaceOnUse">
<stop stop-color="#B37CFA"/>
<stop offset="1" stop-color="#4F1E95"/>
</linearGradient>
<linearGradient id="paint35_linear_1073_8072" x1="16.7109" y1="19.0986" x2="20.1367" y2="20.073" gradientUnits="userSpaceOnUse">
<stop stop-color="#D4B6FC"/>
<stop offset="1" stop-color="#C092FB"/>
</linearGradient>
<linearGradient id="paint36_linear_1073_8072" x1="13.4491" y1="20.8618" x2="13.4647" y2="20.475" gradientUnits="userSpaceOnUse">
<stop stop-color="#B37CFA"/>
<stop offset="1" stop-color="#4F1E95"/>
</linearGradient>
<linearGradient id="paint37_linear_1073_8072" x1="6.36675" y1="17.8758" x2="6.34973" y2="17.7649" gradientUnits="userSpaceOnUse">
<stop stop-color="#D4B6FC"/>
<stop offset="1" stop-color="#C092FB"/>
</linearGradient>
<linearGradient id="paint38_linear_1073_8072" x1="15.8712" y1="12.2186" x2="21.2143" y2="12.423" gradientUnits="userSpaceOnUse">
<stop stop-color="#D4B6FC"/>
<stop offset="1" stop-color="#C092FB"/>
</linearGradient>
<linearGradient id="paint39_linear_1073_8072" x1="3.51911" y1="22.2963" x2="9.10091" y2="17.062" gradientUnits="userSpaceOnUse">
<stop stop-color="#4F1E95"/>
<stop offset="1"/>
</linearGradient>
<linearGradient id="paint40_linear_1073_8072" x1="5.16229" y1="21.9573" x2="10.4383" y2="17.0096" gradientUnits="userSpaceOnUse">
<stop stop-color="#B37CFA"/>
<stop offset="1" stop-color="#4F1E95"/>
</linearGradient>
<linearGradient id="paint41_linear_1073_8072" x1="10.9843" y1="5.2979" x2="14.6752" y2="12.8898" gradientUnits="userSpaceOnUse">
<stop stop-color="#71C8FC"/>
<stop offset="1" stop-color="#58299A"/>
</linearGradient>
<linearGradient id="paint42_linear_1073_8072" x1="5.32464" y1="11.456" x2="15.7375" y2="12.9967" gradientUnits="userSpaceOnUse">
<stop stop-color="#D4B6FC"/>
<stop offset="1" stop-color="#C092FB"/>
</linearGradient>
<linearGradient id="paint43_linear_1073_8072" x1="16.5085" y1="6.60882" x2="17.6235" y2="10.6456" gradientUnits="userSpaceOnUse">
<stop stop-color="#D4B6FC"/>
<stop offset="1" stop-color="#C092FB"/>
</linearGradient>
<linearGradient id="paint44_linear_1073_8072" x1="13.3764" y1="11.1802" x2="13.558" y2="11.8345" gradientUnits="userSpaceOnUse">
<stop stop-color="#D4B6FC"/>
<stop offset="1" stop-color="#C092FB"/>
</linearGradient>
<linearGradient id="paint45_linear_1073_8072" x1="18.7068" y1="10.1835" x2="19.1976" y2="11.9615" gradientUnits="userSpaceOnUse">
<stop stop-color="#D4B6FC"/>
<stop offset="1" stop-color="#C092FB"/>
</linearGradient>
<linearGradient id="paint46_linear_1073_8072" x1="14.9589" y1="8.4331" x2="15.2341" y2="9.42879" gradientUnits="userSpaceOnUse">
<stop stop-color="#D4B6FC"/>
<stop offset="1" stop-color="#C092FB"/>
</linearGradient>
<linearGradient id="paint47_linear_1073_8072" x1="7.6997" y1="11.3864" x2="8.89539" y2="18.1797" gradientUnits="userSpaceOnUse">
<stop stop-color="#AEE0FD"/>
<stop offset="1" stop-color="#6B42A6"/>
</linearGradient>
<linearGradient id="paint48_linear_1073_8072" x1="10.2144" y1="10.8774" x2="11.4229" y2="17.7447" gradientUnits="userSpaceOnUse">
<stop stop-color="#AEE0FD"/>
<stop offset="1" stop-color="#6B42A6"/>
</linearGradient>
<linearGradient id="paint49_linear_1073_8072" x1="13.7913" y1="13.1835" x2="11.3791" y2="10.4558" gradientUnits="userSpaceOnUse">
<stop stop-color="#AEE0FD"/>
<stop offset="1" stop-color="#6B42A6"/>
</linearGradient>
<linearGradient id="paint50_linear_1073_8072" x1="14.2816" y1="6.63168" x2="18.1078" y2="20.483" gradientUnits="userSpaceOnUse">
<stop stop-color="#AEE0FD"/>
<stop offset="1" stop-color="#6B42A6"/>
</linearGradient>
<linearGradient id="paint51_linear_1073_8072" x1="17.8243" y1="5.74444" x2="21.6888" y2="19.7394" gradientUnits="userSpaceOnUse">
<stop stop-color="#AEE0FD"/>
<stop offset="1" stop-color="#6B42A6"/>
</linearGradient>
<linearGradient id="paint52_linear_1073_8072" x1="5.5242" y1="21.3224" x2="12.6232" y2="9.36377" gradientUnits="userSpaceOnUse">
<stop stop-color="#71C8FC"/>
<stop offset="1" stop-color="#58299A"/>
</linearGradient>
<linearGradient id="paint53_linear_1073_8072" x1="0.768445" y1="11.1915" x2="19.8406" y2="16.865" gradientUnits="userSpaceOnUse">
<stop stop-color="#D4B6FC"/>
<stop offset="1" stop-color="#C092FB"/>
</linearGradient>
<linearGradient id="paint54_linear_1073_8072" x1="2.3751" y1="14.2386" x2="6.15134" y2="15.3616" gradientUnits="userSpaceOnUse">
<stop stop-color="#D4B6FC"/>
<stop offset="1" stop-color="#C092FB"/>
</linearGradient>
<linearGradient id="paint55_linear_1073_8072" x1="10.4197" y1="12.8665" x2="20.3092" y2="15.8083" gradientUnits="userSpaceOnUse">
<stop stop-color="#D4B6FC"/>
<stop offset="1" stop-color="#C092FB"/>
</linearGradient>
<linearGradient id="paint56_linear_1073_8072" x1="18.778" y1="6.93594" x2="19.6084" y2="8.80874" gradientUnits="userSpaceOnUse">
<stop stop-color="#71C8FC"/>
<stop offset="1" stop-color="#58299A"/>
</linearGradient>
<linearGradient id="paint57_linear_1073_8072" x1="20.2763" y1="6.66146" x2="21.2495" y2="10.1862" gradientUnits="userSpaceOnUse">
<stop stop-color="#D4B6FC"/>
<stop offset="1" stop-color="#C092FB"/>
</linearGradient>
<linearGradient id="paint58_linear_1073_8072" x1="23.0463" y1="9.61046" x2="23.1385" y2="9.94473" gradientUnits="userSpaceOnUse">
<stop stop-color="#D4B6FC"/>
<stop offset="1" stop-color="#C092FB"/>
</linearGradient>
<linearGradient id="paint59_linear_1073_8072" x1="20.4602" y1="7.64109" x2="20.5339" y2="9.96444" gradientUnits="userSpaceOnUse">
<stop stop-color="#71C8FC"/>
<stop offset="1" stop-color="#58299A"/>
</linearGradient>
<linearGradient id="paint60_linear_1073_8072" x1="21.5095" y1="7.60852" x2="21.5818" y2="9.93187" gradientUnits="userSpaceOnUse">
<stop stop-color="#71C8FC"/>
<stop offset="1" stop-color="#58299A"/>
</linearGradient>
<linearGradient id="paint61_linear_1073_8072" x1="12.1105" y1="13.8532" x2="12.2836" y2="14.4763" gradientUnits="userSpaceOnUse">
<stop stop-color="#D4B6FC"/>
<stop offset="1" stop-color="#C092FB"/>
</linearGradient>
<linearGradient id="paint62_linear_1073_8072" x1="15.2525" y1="13.9443" x2="15.3958" y2="14.4635" gradientUnits="userSpaceOnUse">
<stop stop-color="#D4B6FC"/>
<stop offset="1" stop-color="#C092FB"/>
</linearGradient>
<linearGradient id="paint63_linear_1073_8072" x1="16.3631" y1="13.7182" x2="16.5418" y2="14.3654" gradientUnits="userSpaceOnUse">
<stop stop-color="#71C8FC"/>
<stop offset="1" stop-color="#58299A"/>
</linearGradient>
<linearGradient id="paint64_linear_1073_8072" x1="3.48563" y1="12.6405" x2="3.69134" y2="13.3901" gradientUnits="userSpaceOnUse">
<stop stop-color="#D4B6FC"/>
<stop offset="1" stop-color="#C092FB"/>
</linearGradient>
<linearGradient id="paint65_linear_1073_8072" x1="5.25337" y1="12.5467" x2="5.5442" y2="13.5992" gradientUnits="userSpaceOnUse">
<stop stop-color="#D4B6FC"/>
<stop offset="1" stop-color="#C092FB"/>
</linearGradient>
<linearGradient id="paint66_linear_1073_8072" x1="19.0189" y1="9.35735" x2="19.1693" y2="9.90213" gradientUnits="userSpaceOnUse">
<stop stop-color="#D4B6FC"/>
<stop offset="1" stop-color="#C092FB"/>
</linearGradient>
<linearGradient id="paint67_linear_1073_8072" x1="15.1527" y1="8.71463" x2="15.3755" y2="9.51971" gradientUnits="userSpaceOnUse">
<stop stop-color="#D4B6FC"/>
<stop offset="1" stop-color="#C092FB"/>
</linearGradient>
<linearGradient id="paint68_linear_1073_8072" x1="4.51344" y1="13.3755" x2="4.66524" y2="13.9232" gradientUnits="userSpaceOnUse">
<stop stop-color="#D4B6FC"/>
<stop offset="1" stop-color="#C092FB"/>
</linearGradient>
<linearGradient id="paint69_linear_1073_8072" x1="14.8505" y1="12.6035" x2="15.1981" y2="13.8595" gradientUnits="userSpaceOnUse">
<stop stop-color="#D4B6FC"/>
<stop offset="1" stop-color="#C092FB"/>
</linearGradient>
<linearGradient id="paint70_linear_1073_8072" x1="10.8761" y1="15.2275" x2="10.8829" y2="15.2207" gradientUnits="userSpaceOnUse">
<stop stop-color="#4F1E95"/>
<stop offset="1"/>
</linearGradient>
<linearGradient id="paint71_linear_1073_8072" x1="9.38762" y1="21.4419" x2="16.0537" y2="18.9293" gradientUnits="userSpaceOnUse">
<stop stop-color="#71C8FC"/>
<stop offset="1" stop-color="#58299A"/>
</linearGradient>
<linearGradient id="paint72_linear_1073_8072" x1="10.213" y1="22.096" x2="15.6125" y2="20.0605" gradientUnits="userSpaceOnUse">
<stop stop-color="#D4B6FC"/>
<stop offset="1" stop-color="#C092FB"/>
</linearGradient>
<linearGradient id="paint73_linear_1073_8072" x1="9.38762" y1="21.4419" x2="16.0537" y2="18.9293" gradientUnits="userSpaceOnUse">
<stop stop-color="#B37CFA"/>
<stop offset="1" stop-color="#4F1E95"/>
</linearGradient>
<linearGradient id="paint74_linear_1073_8072" x1="6.7217" y1="17.1663" x2="9.21631" y2="16.2264" gradientUnits="userSpaceOnUse">
<stop stop-color="#71C8FC"/>
<stop offset="1" stop-color="#58299A"/>
</linearGradient>
<linearGradient id="paint75_linear_1073_8072" x1="6.72169" y1="17.1663" x2="9.2163" y2="16.2264" gradientUnits="userSpaceOnUse">
<stop stop-color="#D4B6FC"/>
<stop offset="1" stop-color="#C092FB"/>
</linearGradient>
<linearGradient id="paint76_linear_1073_8072" x1="7.14943" y1="17.1364" x2="9.73806" y2="16.1594" gradientUnits="userSpaceOnUse">
<stop stop-color="#B37CFA"/>
<stop offset="1" stop-color="#4F1E95"/>
</linearGradient>
<radialGradient id="paint77_radial_1073_8072" cx="0" cy="0" r="1" gradientUnits="userSpaceOnUse" gradientTransform="translate(8.16868 16.6018) scale(1.3643 1.36073)">
<stop stop-color="#36116A"/>
<stop offset="1"/>
</radialGradient>
<linearGradient id="paint78_linear_1073_8072" x1="5.68385" y1="10.6953" x2="6.58616" y2="11.8579" gradientUnits="userSpaceOnUse">
<stop stop-color="#D4B6FC"/>
<stop offset="1" stop-color="#C092FB"/>
</linearGradient>
</defs>
</svg>
