<svg width="1512" height="457" viewBox="0 0 1512 457" fill="none" xmlns="http://www.w3.org/2000/svg">
<g clip-path="url(#clip0_482_33983)">
<path fill-rule="evenodd" clip-rule="evenodd" d="M578.856 40.1267L573.282 60.3156L593.684 79.0524L606.868 64.3924C606.868 64.3924 612.443 52.7203 601.963 39.261C601.879 39.289 583.845 36.9154 578.856 40.1267Z" fill="url(#paint0_linear_482_33983)"/>
<path fill-rule="evenodd" clip-rule="evenodd" d="M573.421 60.3155L583.26 53.8372L606.785 64.3923L593.685 79.0523C586.019 73.8751 579.185 67.5569 573.421 60.3155Z" fill="url(#paint1_linear_482_33983)"/>
<path fill-rule="evenodd" clip-rule="evenodd" d="M1099.18 30.437L1103 51.0168L1129.28 59.1705L1134.86 40.2103C1134.86 40.2103 1134.86 27.2537 1119.58 19.7422C1119.58 19.7422 1102.33 25.3828 1099.18 30.437Z" fill="url(#paint2_linear_482_33983)"/>
<path fill-rule="evenodd" clip-rule="evenodd" d="M1103 51.0167L1109.07 40.8804L1134.86 40.2102L1129.28 59.1704C1120.16 57.8105 1111.29 55.0608 1103 51.0167Z" fill="url(#paint3_linear_482_33983)"/>
<path fill-rule="evenodd" clip-rule="evenodd" d="M845.262 15.7212L842.697 25.2711L852.23 34.1229L858.473 27.1978C859.206 25.1946 859.374 23.0284 858.962 20.9355C858.549 18.8427 857.57 16.9037 856.132 15.3302C856.132 15.3302 847.631 14.2133 845.262 15.7212Z" fill="url(#paint4_linear_482_33983)"/>
<path fill-rule="evenodd" clip-rule="evenodd" d="M842.697 25.2711L847.324 22.3391L858.473 27.3375L852.23 34.2626C848.614 31.769 845.399 28.7369 842.697 25.2711Z" fill="url(#paint5_linear_482_33983)"/>
<path fill-rule="evenodd" clip-rule="evenodd" d="M963.72 99.2411L961.128 108.903L970.688 117.755L976.904 110.829C977.646 108.83 977.823 106.663 977.415 104.569C977.006 102.475 976.029 100.535 974.59 98.9618C974.59 98.9618 966.061 97.7332 963.72 99.2411Z" fill="url(#paint6_linear_482_33983)"/>
<path fill-rule="evenodd" clip-rule="evenodd" d="M961.128 108.903L965.783 105.831L976.932 110.829L970.716 117.754C967.08 115.321 963.845 112.335 961.128 108.903Z" fill="url(#paint7_linear_482_33983)"/>
<path fill-rule="evenodd" clip-rule="evenodd" d="M150.261 75.3945L147.724 85.0003L157.257 93.8521L163.5 86.927C164.242 84.9272 164.419 82.761 164.011 80.667C163.603 78.573 162.625 76.6325 161.187 75.0594C161.187 75.0594 152.63 73.9425 150.261 75.3945Z" fill="url(#paint8_linear_482_33983)"/>
<path fill-rule="evenodd" clip-rule="evenodd" d="M147.724 85.0001L152.379 81.9285L163.528 86.9268L157.285 93.8519C153.661 91.4134 150.436 88.4274 147.724 85.0001Z" fill="url(#paint9_linear_482_33983)"/>
<path fill-rule="evenodd" clip-rule="evenodd" d="M828.984 67.6594L827.563 72.9649L832.83 77.8795L836.175 74.026C836.584 72.9197 836.68 71.7222 836.454 70.5646C836.228 69.4071 835.688 68.3343 834.893 67.4639C832.93 67.1348 830.921 67.2013 828.984 67.6594Z" fill="url(#paint10_linear_482_33983)"/>
<path fill-rule="evenodd" clip-rule="evenodd" d="M827.563 72.9648L830.127 71.2615L836.287 74.0538L832.83 77.9073C830.831 76.5408 829.055 74.8737 827.563 72.9648Z" fill="url(#paint11_linear_482_33983)"/>
<path fill-rule="evenodd" clip-rule="evenodd" d="M1142.43 219.57L1140.63 226.667L1147.21 233.241L1151.51 228.086C1152.01 226.606 1152.13 225.005 1151.85 223.456C1151.57 221.908 1150.9 220.473 1149.91 219.309C1147.43 218.848 1144.88 218.937 1142.43 219.57Z" fill="url(#paint12_linear_482_33983)"/>
<path fill-rule="evenodd" clip-rule="evenodd" d="M1139.68 226.19L1143.33 223.76L1152 227.743L1147.14 233.241C1144.32 231.287 1141.8 228.909 1139.68 226.19Z" fill="url(#paint13_linear_482_33983)"/>
<path fill-rule="evenodd" clip-rule="evenodd" d="M855.686 55.1774L859.198 55.9593L862.264 52.3571L859.672 50.207C858.937 49.9662 858.151 49.9326 857.399 50.1099C856.646 50.2872 855.957 50.6686 855.407 51.2122C855.244 52.5396 855.339 53.886 855.686 55.1774Z" fill="url(#paint14_linear_482_33983)"/>
<path fill-rule="evenodd" clip-rule="evenodd" d="M859.254 55.8478L858.083 54.2002L859.728 50.0955L862.32 52.2456C861.496 53.6025 860.461 54.8186 859.254 55.8478Z" fill="url(#paint15_linear_482_33983)"/>
<path fill-rule="evenodd" clip-rule="evenodd" d="M665.038 102.508L668.55 103.318L671.616 99.716L669.024 97.5379C668.286 97.3069 667.5 97.281 666.749 97.463C665.998 97.6449 665.31 98.028 664.759 98.5711C664.583 99.8888 664.677 101.229 665.038 102.508Z" fill="url(#paint16_linear_482_33983)"/>
<path fill-rule="evenodd" clip-rule="evenodd" d="M668.55 103.318L667.351 101.671L669.024 97.5378L671.616 99.7159C670.784 101.067 669.75 102.281 668.55 103.318Z" fill="url(#paint17_linear_482_33983)"/>
<path fill-rule="evenodd" clip-rule="evenodd" d="M1087.64 73.691L1088.48 77.8237L1096.34 80.7837L1098.32 77.4607C1098.32 77.4607 1098.54 74.9755 1094 72.7416C1091.84 72.7281 1089.7 73.0484 1087.64 73.691Z" fill="url(#paint18_linear_482_33983)"/>
<path fill-rule="evenodd" clip-rule="evenodd" d="M1088.48 77.8237L1090.48 76.2041L1098.32 77.4607L1096.34 80.7836C1093.63 80.0443 1091 79.0534 1088.48 77.8237Z" fill="url(#paint19_linear_482_33983)"/>
<path fill-rule="evenodd" clip-rule="evenodd" d="M729.228 311.183L730.092 315.315L737.953 318.275L739.931 314.952C739.931 314.952 740.155 312.495 735.611 310.233C733.449 310.235 731.298 310.555 729.228 311.183Z" fill="url(#paint20_linear_482_33983)"/>
<path fill-rule="evenodd" clip-rule="evenodd" d="M730.093 315.315L732.072 313.724L739.932 314.952L737.953 318.275C735.241 317.551 732.609 316.56 730.093 315.315Z" fill="url(#paint21_linear_482_33983)"/>
<path fill-rule="evenodd" clip-rule="evenodd" d="M1204.9 81.4537L1205.76 85.5864L1213.62 88.5184L1215.6 85.2234C1215.6 85.2234 1215.83 82.7381 1211.28 80.4763C1209.12 80.476 1206.97 80.8056 1204.9 81.4537Z" fill="url(#paint22_linear_482_33983)"/>
<path fill-rule="evenodd" clip-rule="evenodd" d="M1205.76 85.5864L1207.77 83.9668L1215.6 85.2234L1213.62 88.5184C1210.92 87.7972 1208.28 86.8153 1205.76 85.5864Z" fill="url(#paint23_linear_482_33983)"/>
<path fill-rule="evenodd" clip-rule="evenodd" d="M507.475 106.976L508.311 111.109L516.199 114.069L518.178 110.746C518.178 110.746 518.373 108.261 513.858 106.027C511.695 106.029 509.545 106.348 507.475 106.976Z" fill="url(#paint24_linear_482_33983)"/>
<path fill-rule="evenodd" clip-rule="evenodd" d="M508.311 111.109L510.318 109.489L518.178 110.746L516.199 114.069C513.484 113.327 510.844 112.336 508.311 111.109Z" fill="url(#paint25_linear_482_33983)"/>
<path fill-rule="evenodd" clip-rule="evenodd" d="M847.826 9.38257L851.338 10.1924L854.404 6.59019L851.784 4.41214C851.047 4.17161 850.258 4.14085 849.505 4.32329C848.752 4.50572 848.065 4.89418 847.519 5.44532C847.354 6.765 847.459 8.10445 847.826 9.38257Z" fill="url(#paint26_linear_482_33983)"/>
<path fill-rule="evenodd" clip-rule="evenodd" d="M851.338 10.1923L850.111 8.54483L851.756 4.41211L854.376 6.59016C853.552 7.93886 852.528 9.1536 851.338 10.1923Z" fill="url(#paint27_linear_482_33983)"/>
<path fill-rule="evenodd" clip-rule="evenodd" d="M867.838 5.16597L871.323 5.97576L874.416 2.37359L871.796 0.195539C871.059 -0.0355046 870.272 -0.0614222 869.521 0.120556C868.77 0.302534 868.083 0.685567 867.532 1.22872C867.367 2.5484 867.471 3.88785 867.838 5.16597Z" fill="url(#paint28_linear_482_33983)"/>
<path fill-rule="evenodd" clip-rule="evenodd" d="M871.322 5.97577L870.152 4.32827L871.796 0.195556L874.416 2.37361C873.568 3.72069 872.525 4.93456 871.322 5.97577Z" fill="url(#paint29_linear_482_33983)"/>
<path fill-rule="evenodd" clip-rule="evenodd" d="M1255.15 44.9853L1258.67 45.7671L1261.73 42.1929L1259.11 40.0148C1258.38 39.774 1257.59 39.7404 1256.84 39.9177C1256.09 40.0951 1255.4 40.4764 1254.85 41.0201C1254.68 42.349 1254.79 43.6976 1255.15 44.9853Z" fill="url(#paint30_linear_482_33983)"/>
<path fill-rule="evenodd" clip-rule="evenodd" d="M1258.67 45.7672L1257.47 44.1197L1259.11 40.0149L1261.73 42.1929C1260.9 43.5377 1259.87 44.7438 1258.67 45.7672Z" fill="url(#paint31_linear_482_33983)"/>
<path fill-rule="evenodd" clip-rule="evenodd" d="M999.842 126.411L1003.33 127.221L1006.42 123.619L1003.8 121.441C1003.07 121.2 1002.28 121.166 1001.53 121.344C1000.77 121.521 1000.09 121.902 999.536 122.446C999.371 123.775 999.475 125.123 999.842 126.411Z" fill="url(#paint32_linear_482_33983)"/>
<path fill-rule="evenodd" clip-rule="evenodd" d="M1003.41 127.221L1002.24 125.573L1003.88 121.441L1006.5 123.619C1005.66 124.966 1004.61 126.18 1003.41 127.221Z" fill="url(#paint33_linear_482_33983)"/>
<path fill-rule="evenodd" clip-rule="evenodd" d="M350.664 179.438L357.158 180.918L362.872 174.245L358.05 170.335C356.683 169.882 355.217 169.817 353.815 170.148C352.413 170.478 351.13 171.19 350.107 172.206C350.107 172.206 349.577 177.875 350.664 179.438Z" fill="url(#paint34_linear_482_33983)"/>
<path fill-rule="evenodd" clip-rule="evenodd" d="M357.158 180.918L354.984 177.875L358.05 170.223L362.872 174.244C361.325 176.752 359.397 179.004 357.158 180.918Z" fill="url(#paint35_linear_482_33983)"/>
<path fill-rule="evenodd" clip-rule="evenodd" d="M316.158 58.0259L322.68 59.5058L328.255 52.832L323.405 48.7831C322.039 48.3393 320.577 48.2818 319.18 48.6168C317.784 48.9518 316.506 49.6664 315.489 50.6819C315.489 50.6819 314.959 56.4621 316.158 58.0259Z" fill="url(#paint36_linear_482_33983)"/>
<path fill-rule="evenodd" clip-rule="evenodd" d="M322.68 59.5057L320.534 56.462L323.6 48.783L328.45 52.8319C326.874 55.3358 324.929 57.5859 322.68 59.5057Z" fill="url(#paint37_linear_482_33983)"/>
<path fill-rule="evenodd" clip-rule="evenodd" d="M447.326 195.243L450.81 196.053L453.904 192.451L451.284 190.273C450.547 190.032 449.758 190.001 449.005 190.184C448.252 190.366 447.565 190.755 447.019 191.306C446.855 192.625 446.959 193.965 447.326 195.243Z" fill="url(#paint38_linear_482_33983)"/>
<path fill-rule="evenodd" clip-rule="evenodd" d="M450.81 196.053L449.639 194.405L451.284 190.273L453.904 192.451C453.056 193.798 452.013 195.012 450.81 196.053Z" fill="url(#paint39_linear_482_33983)"/>
<path fill-rule="evenodd" clip-rule="evenodd" d="M333.801 105.496L337.285 106.306L340.379 102.704L337.759 100.526C337.021 100.295 336.235 100.269 335.484 100.451C334.733 100.633 334.045 101.016 333.495 101.559C333.33 102.879 333.434 104.218 333.801 105.496Z" fill="url(#paint40_linear_482_33983)"/>
<path fill-rule="evenodd" clip-rule="evenodd" d="M337.257 106.306L336.087 104.659L337.731 100.526L340.351 102.704C339.503 104.051 338.46 105.265 337.257 106.306Z" fill="url(#paint41_linear_482_33983)"/>
<path fill-rule="evenodd" clip-rule="evenodd" d="M369.255 163.019L369.84 166.566L374.328 168.073L375.359 164.834C375.305 164.059 375.036 163.314 374.583 162.682C374.131 162.051 373.511 161.559 372.795 161.26C372.795 161.26 369.812 162.154 369.255 163.019Z" fill="url(#paint42_linear_482_33983)"/>
<path fill-rule="evenodd" clip-rule="evenodd" d="M369.84 166.565L370.927 164.862L375.359 164.862L374.328 168.101C372.764 167.815 371.252 167.298 369.84 166.565Z" fill="url(#paint43_linear_482_33983)"/>
<path fill-rule="evenodd" clip-rule="evenodd" d="M107.142 151.878L110.626 152.687L113.72 149.085L111.1 146.907C110.363 146.667 109.574 146.636 108.821 146.818C108.068 147.001 107.381 147.389 106.835 147.94C106.671 149.26 106.775 150.599 107.142 151.878Z" fill="url(#paint44_linear_482_33983)"/>
<path fill-rule="evenodd" clip-rule="evenodd" d="M110.626 152.687L109.455 151.04L111.1 146.907L113.72 149.085C112.872 150.432 111.829 151.646 110.626 152.687Z" fill="url(#paint45_linear_482_33983)"/>
<path fill-rule="evenodd" clip-rule="evenodd" d="M988.972 138.921L992.456 139.731L995.55 136.128L992.93 133.95C992.196 133.71 991.409 133.676 990.657 133.853C989.905 134.031 989.216 134.412 988.666 134.956C988.501 136.285 988.605 137.633 988.972 138.921Z" fill="url(#paint46_linear_482_33983)"/>
<path fill-rule="evenodd" clip-rule="evenodd" d="M992.456 139.619L991.286 137.943L992.93 133.839L995.55 136.017C994.702 137.364 993.659 138.578 992.456 139.619Z" fill="url(#paint47_linear_482_33983)"/>
<path fill-rule="evenodd" clip-rule="evenodd" d="M973.113 338.157L975.231 344.468L983.9 345.864L984.819 339.637C984.477 338.242 983.762 336.966 982.75 335.947C981.738 334.929 980.469 334.206 979.078 333.857C979.078 333.857 973.893 336.426 973.113 338.157Z" fill="url(#paint48_linear_482_33983)"/>
<path fill-rule="evenodd" clip-rule="evenodd" d="M975.231 344.468L976.709 341.005L984.82 339.637L983.9 345.864C980.955 345.852 978.031 345.381 975.231 344.468Z" fill="url(#paint49_linear_482_33983)"/>
<path fill-rule="evenodd" clip-rule="evenodd" d="M2.9545 138.418L5.07281 144.729L13.7133 146.125L14.6331 139.898C14.3155 138.487 13.6132 137.192 12.6044 136.156C11.5956 135.121 10.3199 134.387 8.91922 134.034C8.91922 134.034 3.70706 136.827 2.9545 138.418Z" fill="url(#paint50_linear_482_33983)"/>
<path fill-rule="evenodd" clip-rule="evenodd" d="M5.07282 144.729L6.52219 141.266L14.6331 139.898L13.7133 146.125C10.7782 146.113 7.86303 145.642 5.07282 144.729Z" fill="url(#paint51_linear_482_33983)"/>
<path fill-rule="evenodd" clip-rule="evenodd" d="M686.5 272.313L683.936 281.891L693.468 290.742L699.711 283.789C700.455 281.794 700.632 279.632 700.223 277.542C699.815 275.452 698.837 273.517 697.398 271.95C697.398 271.95 688.869 270.861 686.5 272.313Z" fill="url(#paint52_linear_482_33983)"/>
<path fill-rule="evenodd" clip-rule="evenodd" d="M683.936 282.03L688.59 278.958L699.739 283.929L693.496 290.882C689.88 288.433 686.657 285.448 683.936 282.03Z" fill="url(#paint53_linear_482_33983)"/>
<path fill-rule="evenodd" clip-rule="evenodd" d="M85.039 103.095L82.4748 112.645L91.9793 121.497L98.2506 114.488C98.9937 112.493 99.1708 110.33 98.7625 108.241C98.3542 106.151 97.3763 104.215 95.9372 102.648C95.9372 102.648 87.4082 101.559 85.039 103.095Z" fill="url(#paint54_linear_482_33983)"/>
<path fill-rule="evenodd" clip-rule="evenodd" d="M82.4748 112.645L87.1295 109.573L98.2785 114.543L91.9793 121.496C88.3811 119.046 85.1762 116.061 82.4748 112.645Z" fill="url(#paint55_linear_482_33983)"/>
<path fill-rule="evenodd" clip-rule="evenodd" d="M1430.53 232.106L1437.95 258.973L1473.8 266.426L1478.84 240.565C1478.84 240.565 1477.32 223.312 1456.13 215.226C1456.28 215.338 1434.05 224.952 1430.53 232.106Z" fill="url(#paint56_linear_482_33983)"/>
<path fill-rule="evenodd" clip-rule="evenodd" d="M1438.11 258.901L1444.91 244.847L1478.84 240.826L1473.81 266.426C1461.6 265.741 1449.56 263.203 1438.11 258.901Z" fill="url(#paint57_linear_482_33983)"/>
<path fill-rule="evenodd" clip-rule="evenodd" d="M1386 188.514L1389.7 201.941L1407.2 205.745L1409.68 192.812C1409.15 189.855 1407.82 187.109 1405.87 184.874C1403.91 182.64 1401.39 181.003 1398.58 180.145C1398.58 180.145 1387.74 184.976 1386 188.514Z" fill="url(#paint58_linear_482_33983)"/>
<path fill-rule="evenodd" clip-rule="evenodd" d="M1389.79 201.841L1393.11 194.579L1409.68 192.471L1407.22 205.745C1401.25 205.4 1395.37 204.083 1389.79 201.841Z" fill="url(#paint59_linear_482_33983)"/>
<path fill-rule="evenodd" clip-rule="evenodd" d="M348.726 264.926L350.526 257.829L343.947 251.256L339.652 256.41C339.145 257.89 339.025 259.492 339.306 261.04C339.587 262.588 340.258 264.023 341.245 265.188C343.729 265.648 346.274 265.559 348.726 264.926Z" fill="url(#paint60_linear_482_33983)"/>
<path fill-rule="evenodd" clip-rule="evenodd" d="M351.474 258.307L347.826 260.737L339.158 256.753L344.022 251.255C346.842 253.21 349.355 255.587 351.474 258.307Z" fill="url(#paint61_linear_482_33983)"/>
<path fill-rule="evenodd" clip-rule="evenodd" d="M60.6316 252.39L53.2098 225.523L17.3626 218.071L12.3158 243.931C12.3158 243.931 13.8373 261.184 35.0264 269.27C34.878 269.158 57.1063 259.544 60.6316 252.39Z" fill="url(#paint62_linear_482_33983)"/>
<path fill-rule="evenodd" clip-rule="evenodd" d="M53.0527 225.596L46.251 239.65L12.3158 243.67L17.3432 218.071C29.5602 218.756 41.6014 221.293 53.0527 225.596Z" fill="url(#paint63_linear_482_33983)"/>
<path fill-rule="evenodd" clip-rule="evenodd" d="M105.158 295.983L101.457 282.555L83.9531 278.751L81.4737 291.684C82.0123 294.641 83.3334 297.387 85.2921 299.622C87.2507 301.857 89.771 303.493 92.5758 304.351C92.5758 304.351 103.419 299.52 105.158 295.983Z" fill="url(#paint64_linear_482_33983)"/>
<path fill-rule="evenodd" clip-rule="evenodd" d="M101.368 282.656L98.0528 289.917L81.4737 292.025L83.9421 278.752C89.9057 279.097 95.7834 280.413 101.368 282.656Z" fill="url(#paint65_linear_482_33983)"/>
<path fill-rule="evenodd" clip-rule="evenodd" d="M717.076 157.853L718.748 115.13C718.748 115.13 737.841 106.753 747.067 103.681L747.429 94.578L790.548 83.7715L803.648 98.5431L793.085 128.449L782.716 167.822L751.081 176.199L740.155 164.359L717.076 157.853Z" fill="url(#paint66_linear_482_33983)"/>
<path style="mix-blend-mode:multiply" fill-rule="evenodd" clip-rule="evenodd" d="M717.076 156.094L740.963 149.253L743.527 161.79L775.664 152.659L782.716 167.822L751.081 176.283L740.155 164.443L717.076 157.825L717.076 156.094Z" fill="url(#paint67_linear_482_33983)"/>
<path style="mix-blend-mode:multiply" opacity="0.36" fill-rule="evenodd" clip-rule="evenodd" d="M747.067 103.681L740.963 149.253L717.076 156.094L718.748 115.13L747.067 103.681Z" fill="url(#paint68_linear_482_33983)"/>
<path fill-rule="evenodd" clip-rule="evenodd" d="M775.664 152.659L775.664 113.538L790.548 83.7156L803.62 98.4872L790.91 136.575L782.716 167.822L775.664 152.659Z" fill="url(#paint69_linear_482_33983)"/>
<path fill-rule="evenodd" clip-rule="evenodd" d="M207.093 267.175L207.678 252.068C207.678 252.068 214.423 249.108 217.684 248.019L217.824 244.808L233.07 240.954L237.697 246.176L233.962 256.731L230.283 270.693L219.134 273.681L215.287 269.492L207.093 267.175Z" fill="url(#paint70_linear_482_33983)"/>
<path style="mix-blend-mode:multiply" fill-rule="evenodd" clip-rule="evenodd" d="M207.093 266.533L215.538 264.131L216.43 268.571L227.802 265.332L230.311 270.693L219.106 273.681L215.259 269.492L207.093 267.175L207.093 266.533Z" fill="url(#paint71_linear_482_33983)"/>
<path style="mix-blend-mode:multiply" opacity="0.36" fill-rule="evenodd" clip-rule="evenodd" d="M217.684 248.019L215.538 264.131L207.093 266.532L207.678 252.068L217.684 248.019Z" fill="url(#paint72_linear_482_33983)"/>
<path fill-rule="evenodd" clip-rule="evenodd" d="M227.802 265.332L227.802 251.51L233.07 240.954L237.697 246.176L233.181 259.635L230.311 270.693L227.802 265.332Z" fill="url(#paint73_linear_482_33983)"/>
<path fill-rule="evenodd" clip-rule="evenodd" d="M394.87 91.4505L410.228 108.903C426.034 103.414 440.556 94.7479 452.9 83.4364L459.339 57.9978L466.92 49.0063L453.291 11.1697C453.291 11.1697 421.795 5.86414 391.971 32.0566L387.038 64.7274L400.974 74.2494L394.87 91.4505Z" fill="url(#paint74_linear_482_33983)"/>
<path style="mix-blend-mode:multiply" fill-rule="evenodd" clip-rule="evenodd" d="M394.87 91.4506C408.699 82.6944 424.203 76.9306 440.386 74.5288L452.9 83.4644C440.412 94.5736 425.931 103.206 410.228 108.903L394.87 91.4506Z" fill="url(#paint75_linear_482_33983)"/>
<path style="mix-blend-mode:multiply" fill-rule="evenodd" clip-rule="evenodd" d="M400.946 74.3613L440.386 59.8688L440.386 52.3015C440.386 52.3015 417.92 52.8879 386.926 64.8393L400.946 74.3613Z" fill="url(#paint76_linear_482_33983)"/>
<path fill-rule="evenodd" clip-rule="evenodd" d="M453.291 11.2814L440.386 22.7022L438.1 52.3014L440.386 59.8687L445.709 35.575L450.336 32.0846L440.386 74.5287L452.9 83.4643L459.339 58.0257L466.92 49.0064L453.291 11.2814Z" fill="url(#paint77_linear_482_33983)"/>
<path fill-rule="evenodd" clip-rule="evenodd" d="M308.66 216.465L301.831 262.484L320.032 271.196L364.015 262.483L366.802 257.932L378.564 257.932L385.867 248.019L389.184 223.139L380.822 219.146L362.984 216.353L362.621 207.222L351.194 202.029C351.194 202.029 322.29 204.681 308.66 216.465Z" fill="url(#paint78_linear_482_33983)"/>
<path style="mix-blend-mode:multiply" fill-rule="evenodd" clip-rule="evenodd" d="M301.831 262.484C301.831 262.484 317.775 252.236 349.995 252.515L363.931 262.484L319.949 271.196L301.831 262.484Z" fill="url(#paint79_linear_482_33983)"/>
<path style="mix-blend-mode:multiply" fill-rule="evenodd" clip-rule="evenodd" d="M359.277 248.522L366.663 258.044L378.425 258.044L376.92 245.087C376.92 245.087 365.13 246.846 359.277 248.522Z" fill="url(#paint80_linear_482_33983)"/>
<path fill-rule="evenodd" clip-rule="evenodd" d="M351.11 202.029L349.995 252.487L359.277 248.382L362.872 216.465L362.51 207.334L351.11 202.029Z" fill="url(#paint81_linear_482_33983)"/>
<path fill-rule="evenodd" clip-rule="evenodd" d="M1206.75 257.438L1223.83 300.708L1243.94 299.145L1277.68 269.591L1277.82 264.254L1288.01 258.369L1289.38 246.129L1279.82 222.923L1270.59 223.649L1253.74 230.157L1248.87 222.431L1236.38 223.651C1236.38 223.651 1212.67 240.412 1206.75 257.438Z" fill="url(#paint82_linear_482_33983)"/>
<path style="mix-blend-mode:multiply" fill-rule="evenodd" clip-rule="evenodd" d="M1223.83 300.708C1223.83 300.708 1232.52 283.855 1260.56 267.973L1277.61 269.633L1243.87 299.187L1223.83 300.708Z" fill="url(#paint83_linear_482_33983)"/>
<path style="mix-blend-mode:multiply" fill-rule="evenodd" clip-rule="evenodd" d="M1266.6 259.871L1277.76 264.421L1287.94 258.535L1280.17 248.067C1280.17 248.067 1270.84 255.491 1266.6 259.871Z" fill="url(#paint84_linear_482_33983)"/>
<path fill-rule="evenodd" clip-rule="evenodd" d="M1236.3 223.693L1260.55 267.949L1266.53 259.75L1253.7 230.31L1248.83 222.584L1236.3 223.693Z" fill="url(#paint85_linear_482_33983)"/>
<path fill-rule="evenodd" clip-rule="evenodd" d="M380.711 219.118L376.92 244.947L378.425 257.904L385.728 247.991L389.045 223.111L380.711 219.118Z" fill="url(#paint86_linear_482_33983)"/>
<path fill-rule="evenodd" clip-rule="evenodd" d="M848.467 74.6963L845.067 112.505L866.11 125.518L872.354 120.491L888.854 74.6963L878.625 66.738L848.467 74.6963Z" fill="url(#paint87_linear_482_33983)"/>
<path fill-rule="evenodd" clip-rule="evenodd" d="M845.067 112.505L870.932 106.083L872.354 120.491L866.11 125.517L845.067 112.505Z" fill="url(#paint88_linear_482_33983)"/>
<path fill-rule="evenodd" clip-rule="evenodd" d="M878.625 66.738L870.932 106.083L872.354 120.491L888.854 74.6963L878.625 66.738Z" fill="url(#paint89_linear_482_33983)"/>
<path fill-rule="evenodd" clip-rule="evenodd" d="M624.344 312.746L624.344 338.297L638.559 347.428L652.496 338.297L658.795 312.746L652.496 307.162C642.83 307.083 633.25 308.983 624.344 312.746Z" fill="url(#paint90_linear_482_33983)"/>
<path fill-rule="evenodd" clip-rule="evenodd" d="M624.344 338.157L645.109 333.605L652.468 338.157L638.559 347.288L624.344 338.157Z" fill="url(#paint91_linear_482_33983)"/>
<path fill-rule="evenodd" clip-rule="evenodd" d="M652.468 307.106L645.109 333.605L652.468 338.157L658.767 312.607L652.468 307.106Z" fill="url(#paint92_linear_482_33983)"/>
<path fill-rule="evenodd" clip-rule="evenodd" d="M382.968 183.655L382.968 196.444L390.215 201.051L397.183 196.5L400.333 183.71L397.183 180.918C392.308 180.849 387.471 181.78 382.968 183.655Z" fill="url(#paint93_linear_482_33983)"/>
<path fill-rule="evenodd" clip-rule="evenodd" d="M382.968 196.444L393.365 194.154L397.044 196.444L390.076 200.995L382.968 196.444Z" fill="url(#paint94_linear_482_33983)"/>
<path fill-rule="evenodd" clip-rule="evenodd" d="M397.044 180.918L393.365 194.154L397.044 196.444L400.194 183.655L397.044 180.918Z" fill="url(#paint95_linear_482_33983)"/>
<path fill-rule="evenodd" clip-rule="evenodd" d="M8.6972e-07 48.6434L4.89277e-06 71.6526L12.8214 79.8901L25.3361 71.6526L30.9106 48.6434L25.3361 43.673C16.6404 43.578 8.01764 45.2696 8.6972e-07 48.6434Z" fill="url(#paint96_linear_482_33983)"/>
<path fill-rule="evenodd" clip-rule="evenodd" d="M7.17704e-07 71.6526L18.7025 67.5478L25.3361 71.6526L12.8214 79.8902L7.17704e-07 71.6526Z" fill="url(#paint97_linear_482_33983)"/>
<path fill-rule="evenodd" clip-rule="evenodd" d="M25.3361 43.6731L18.7025 67.5479L25.3361 71.6527L31.0221 48.6435L25.3361 43.6731Z" fill="url(#paint98_linear_482_33983)"/>
<path fill-rule="evenodd" clip-rule="evenodd" d="M149.285 203.313L149.285 216.074L156.393 220.598L163.333 216.019L166.483 203.257L163.333 200.465C158.505 200.442 153.724 201.412 149.285 203.313Z" fill="url(#paint99_linear_482_33983)"/>
<path fill-rule="evenodd" clip-rule="evenodd" d="M149.285 216.074L159.654 213.812L163.333 216.074L156.393 220.654L149.285 216.074Z" fill="url(#paint100_linear_482_33983)"/>
<path fill-rule="evenodd" clip-rule="evenodd" d="M163.333 200.549L159.654 213.812L163.333 216.074L166.483 203.313L163.333 200.549Z" fill="url(#paint101_linear_482_33983)"/>
<path fill-rule="evenodd" clip-rule="evenodd" d="M1392.12 120.854L1392.12 133.168L1385.26 137.608L1378.55 133.28L1375.4 120.966L1378.44 118.173C1383.13 118.117 1387.79 119.03 1392.12 120.854Z" fill="url(#paint102_linear_482_33983)"/>
<path fill-rule="evenodd" clip-rule="evenodd" d="M1392.2 133.169L1382.17 131.046L1378.66 133.28L1385.38 137.608L1392.2 133.169Z" fill="url(#paint103_linear_482_33983)"/>
<path fill-rule="evenodd" clip-rule="evenodd" d="M1378.55 118.285L1382.17 131.046L1378.66 133.28L1375.51 120.966L1378.55 118.285Z" fill="url(#paint104_linear_482_33983)"/>
<path fill-rule="evenodd" clip-rule="evenodd" d="M559.624 76.4275L559.624 89.3562L566.732 93.9077L573.672 89.3562L576.961 76.4275L573.811 73.6351C568.941 73.5829 564.113 74.5333 559.624 76.4275Z" fill="url(#paint105_linear_482_33983)"/>
<path fill-rule="evenodd" clip-rule="evenodd" d="M559.624 89.2165L569.993 86.9268L573.672 89.2165L566.732 93.7681L559.624 89.2165Z" fill="url(#paint106_linear_482_33983)"/>
<path fill-rule="evenodd" clip-rule="evenodd" d="M573.672 73.6909L569.993 86.9268L573.672 89.2165L576.822 76.4274L573.672 73.6909Z" fill="url(#paint107_linear_482_33983)"/>
</g>
<defs>
<linearGradient id="paint0_linear_482_33983" x1="581.213" y1="71.8005" x2="600.928" y2="38.9074" gradientUnits="userSpaceOnUse">
<stop stop-color="#170E1B"/>
<stop offset="1" stop-color="#7B2CBF"/>
</linearGradient>
<linearGradient id="paint1_linear_482_33983" x1="575.439" y1="57.0485" x2="601.823" y2="72.8039" gradientUnits="userSpaceOnUse">
<stop stop-color="#10002B"/>
<stop offset="1" stop-color="#12032D"/>
</linearGradient>
<linearGradient id="paint2_linear_482_33983" x1="1117.82" y1="52.3571" x2="1121.28" y2="13.991" gradientUnits="userSpaceOnUse">
<stop stop-color="#170E1B"/>
<stop offset="1" stop-color="#7B2CBF"/>
</linearGradient>
<linearGradient id="paint3_linear_482_33983" x1="1106.18" y1="41.567" x2="1136.89" y2="44.3264" gradientUnits="userSpaceOnUse">
<stop stop-color="#10002B"/>
<stop offset="1" stop-color="#12032D"/>
</linearGradient>
<linearGradient id="paint4_linear_482_33983" x1="846.37" y1="30.8007" x2="855.696" y2="15.2399" gradientUnits="userSpaceOnUse">
<stop stop-color="#170E1B"/>
<stop offset="1" stop-color="#7B2CBF"/>
</linearGradient>
<linearGradient id="paint5_linear_482_33983" x1="843.622" y1="23.8173" x2="856.096" y2="31.2661" gradientUnits="userSpaceOnUse">
<stop stop-color="#10002B"/>
<stop offset="1" stop-color="#12032D"/>
</linearGradient>
<linearGradient id="paint6_linear_482_33983" x1="964.809" y1="114.315" x2="974.121" y2="98.7777" gradientUnits="userSpaceOnUse">
<stop stop-color="#170E1B"/>
<stop offset="1" stop-color="#7B2CBF"/>
</linearGradient>
<linearGradient id="paint7_linear_482_33983" x1="962.085" y1="107.345" x2="974.559" y2="114.794" gradientUnits="userSpaceOnUse">
<stop stop-color="#10002B"/>
<stop offset="1" stop-color="#12032D"/>
</linearGradient>
<linearGradient id="paint8_linear_482_33983" x1="151.406" y1="90.5192" x2="160.732" y2="74.9584" gradientUnits="userSpaceOnUse">
<stop stop-color="#170E1B"/>
<stop offset="1" stop-color="#7B2CBF"/>
</linearGradient>
<linearGradient id="paint9_linear_482_33983" x1="148.682" y1="83.5499" x2="161.156" y2="90.9986" gradientUnits="userSpaceOnUse">
<stop stop-color="#10002B"/>
<stop offset="1" stop-color="#12032D"/>
</linearGradient>
<linearGradient id="paint10_linear_482_33983" x1="829.588" y1="76.0918" x2="834.753" y2="67.4735" gradientUnits="userSpaceOnUse">
<stop stop-color="#170E1B"/>
<stop offset="1" stop-color="#7B2CBF"/>
</linearGradient>
<linearGradient id="paint11_linear_482_33983" x1="828.068" y1="72.2194" x2="834.987" y2="76.3513" gradientUnits="userSpaceOnUse">
<stop stop-color="#10002B"/>
<stop offset="1" stop-color="#12032D"/>
</linearGradient>
<linearGradient id="paint12_linear_482_33983" x1="1142.95" y1="230.84" x2="1150.09" y2="219.777" gradientUnits="userSpaceOnUse">
<stop stop-color="#170E1B"/>
<stop offset="1" stop-color="#7B2CBF"/>
</linearGradient>
<linearGradient id="paint13_linear_482_33983" x1="1140.4" y1="225.137" x2="1150.17" y2="230.893" gradientUnits="userSpaceOnUse">
<stop stop-color="#10002B"/>
<stop offset="1" stop-color="#12032D"/>
</linearGradient>
<linearGradient id="paint14_linear_482_33983" x1="861.426" y1="54.7094" x2="855.648" y2="51.5597" gradientUnits="userSpaceOnUse">
<stop stop-color="#10002B"/>
<stop offset="1" stop-color="#12032D"/>
</linearGradient>
<linearGradient id="paint15_linear_482_33983" x1="858.93" y1="55.7936" x2="861.462" y2="51.1656" gradientUnits="userSpaceOnUse">
<stop stop-color="#10002B"/>
<stop offset="1" stop-color="#12032D"/>
</linearGradient>
<linearGradient id="paint16_linear_482_33983" x1="670.696" y1="102.057" x2="664.918" y2="98.9074" gradientUnits="userSpaceOnUse">
<stop stop-color="#10002B"/>
<stop offset="1" stop-color="#12032D"/>
</linearGradient>
<linearGradient id="paint17_linear_482_33983" x1="668.224" y1="103.154" x2="670.756" y2="98.5264" gradientUnits="userSpaceOnUse">
<stop stop-color="#10002B"/>
<stop offset="1" stop-color="#12032D"/>
</linearGradient>
<linearGradient id="paint18_linear_482_33983" x1="1097.18" y1="77.0737" x2="1098.86" y2="69.9322" gradientUnits="userSpaceOnUse">
<stop stop-color="#10002B"/>
<stop offset="1" stop-color="#12032D"/>
</linearGradient>
<linearGradient id="paint19_linear_482_33983" x1="1093.84" y1="74.3826" x2="1103.12" y2="76.5257" gradientUnits="userSpaceOnUse">
<stop stop-color="#10002B"/>
<stop offset="1" stop-color="#12032D"/>
</linearGradient>
<linearGradient id="paint20_linear_482_33983" x1="739.918" y1="315.347" x2="741.594" y2="308.205" gradientUnits="userSpaceOnUse">
<stop stop-color="#10002B"/>
<stop offset="1" stop-color="#12032D"/>
</linearGradient>
<linearGradient id="paint21_linear_482_33983" x1="736.58" y1="312.656" x2="745.806" y2="314.788" gradientUnits="userSpaceOnUse">
<stop stop-color="#10002B"/>
<stop offset="1" stop-color="#12032D"/>
</linearGradient>
<linearGradient id="paint22_linear_482_33983" x1="1214.24" y1="84.7735" x2="1215.91" y2="77.6621" gradientUnits="userSpaceOnUse">
<stop stop-color="#10002B"/>
<stop offset="1" stop-color="#12032D"/>
</linearGradient>
<linearGradient id="paint23_linear_482_33983" x1="1210.89" y1="82.1127" x2="1220.12" y2="84.2444" gradientUnits="userSpaceOnUse">
<stop stop-color="#10002B"/>
<stop offset="1" stop-color="#12032D"/>
</linearGradient>
<linearGradient id="paint24_linear_482_33983" x1="518.457" y1="110.759" x2="520.126" y2="103.647" gradientUnits="userSpaceOnUse">
<stop stop-color="#10002B"/>
<stop offset="1" stop-color="#12032D"/>
</linearGradient>
<linearGradient id="paint25_linear_482_33983" x1="515.112" y1="108.098" x2="524.338" y2="110.23" gradientUnits="userSpaceOnUse">
<stop stop-color="#10002B"/>
<stop offset="1" stop-color="#12032D"/>
</linearGradient>
<linearGradient id="paint26_linear_482_33983" x1="853.491" y1="8.91075" x2="847.713" y2="5.76105" gradientUnits="userSpaceOnUse">
<stop stop-color="#10002B"/>
<stop offset="1" stop-color="#12032D"/>
</linearGradient>
<linearGradient id="paint27_linear_482_33983" x1="851.019" y1="10.0081" x2="853.551" y2="5.38016" gradientUnits="userSpaceOnUse">
<stop stop-color="#10002B"/>
<stop offset="1" stop-color="#12032D"/>
</linearGradient>
<linearGradient id="paint28_linear_482_33983" x1="873.5" y1="4.71345" x2="867.722" y2="1.56375" gradientUnits="userSpaceOnUse">
<stop stop-color="#10002B"/>
<stop offset="1" stop-color="#12032D"/>
</linearGradient>
<linearGradient id="paint29_linear_482_33983" x1="871.004" y1="5.79749" x2="873.536" y2="1.16953" gradientUnits="userSpaceOnUse">
<stop stop-color="#10002B"/>
<stop offset="1" stop-color="#12032D"/>
</linearGradient>
<linearGradient id="paint30_linear_482_33983" x1="1260.85" y1="44.515" x2="1255.05" y2="41.352" gradientUnits="userSpaceOnUse">
<stop stop-color="#10002B"/>
<stop offset="1" stop-color="#12032D"/>
</linearGradient>
<linearGradient id="paint31_linear_482_33983" x1="1258.35" y1="45.5991" x2="1260.9" y2="40.9467" gradientUnits="userSpaceOnUse">
<stop stop-color="#10002B"/>
<stop offset="1" stop-color="#12032D"/>
</linearGradient>
<linearGradient id="paint32_linear_482_33983" x1="1005.52" y1="125.944" x2="999.744" y2="122.794" gradientUnits="userSpaceOnUse">
<stop stop-color="#10002B"/>
<stop offset="1" stop-color="#12032D"/>
</linearGradient>
<linearGradient id="paint33_linear_482_33983" x1="1003.03" y1="127.028" x2="1005.56" y2="122.4" gradientUnits="userSpaceOnUse">
<stop stop-color="#10002B"/>
<stop offset="1" stop-color="#12032D"/>
</linearGradient>
<linearGradient id="paint34_linear_482_33983" x1="360.944" y1="178.461" x2="350.196" y2="172.603" gradientUnits="userSpaceOnUse">
<stop stop-color="#10002B"/>
<stop offset="1" stop-color="#12032D"/>
</linearGradient>
<linearGradient id="paint35_linear_482_33983" x1="356.318" y1="180.48" x2="361.034" y2="171.861" gradientUnits="userSpaceOnUse">
<stop stop-color="#10002B"/>
<stop offset="1" stop-color="#12032D"/>
</linearGradient>
<linearGradient id="paint36_linear_482_33983" x1="326.432" y1="57.034" x2="315.684" y2="51.1751" gradientUnits="userSpaceOnUse">
<stop stop-color="#10002B"/>
<stop offset="1" stop-color="#12032D"/>
</linearGradient>
<linearGradient id="paint37_linear_482_33983" x1="321.806" y1="59.0528" x2="326.522" y2="50.4335" gradientUnits="userSpaceOnUse">
<stop stop-color="#10002B"/>
<stop offset="1" stop-color="#12032D"/>
</linearGradient>
<linearGradient id="paint38_linear_482_33983" x1="452.966" y1="194.797" x2="447.189" y2="191.648" gradientUnits="userSpaceOnUse">
<stop stop-color="#10002B"/>
<stop offset="1" stop-color="#12032D"/>
</linearGradient>
<linearGradient id="paint39_linear_482_33983" x1="450.495" y1="195.895" x2="453.027" y2="191.267" gradientUnits="userSpaceOnUse">
<stop stop-color="#10002B"/>
<stop offset="1" stop-color="#12032D"/>
</linearGradient>
<linearGradient id="paint40_linear_482_33983" x1="339.451" y1="105.042" x2="333.673" y2="101.892" gradientUnits="userSpaceOnUse">
<stop stop-color="#10002B"/>
<stop offset="1" stop-color="#12032D"/>
</linearGradient>
<linearGradient id="paint41_linear_482_33983" x1="336.942" y1="106.15" x2="339.487" y2="101.498" gradientUnits="userSpaceOnUse">
<stop stop-color="#10002B"/>
<stop offset="1" stop-color="#12032D"/>
</linearGradient>
<linearGradient id="paint42_linear_482_33983" x1="365.814" y1="168.228" x2="366.54" y2="161.704" gradientUnits="userSpaceOnUse">
<stop stop-color="#10002B"/>
<stop offset="1" stop-color="#12032D"/>
</linearGradient>
<linearGradient id="paint43_linear_482_33983" x1="363.873" y1="166.333" x2="369.089" y2="166.911" gradientUnits="userSpaceOnUse">
<stop stop-color="#10002B"/>
<stop offset="1" stop-color="#12032D"/>
</linearGradient>
<linearGradient id="paint44_linear_482_33983" x1="112.783" y1="151.435" x2="106.981" y2="148.272" gradientUnits="userSpaceOnUse">
<stop stop-color="#10002B"/>
<stop offset="1" stop-color="#12032D"/>
</linearGradient>
<linearGradient id="paint45_linear_482_33983" x1="110.287" y1="152.519" x2="112.819" y2="147.891" gradientUnits="userSpaceOnUse">
<stop stop-color="#10002B"/>
<stop offset="1" stop-color="#12032D"/>
</linearGradient>
<linearGradient id="paint46_linear_482_33983" x1="994.642" y1="138.445" x2="988.864" y2="135.295" gradientUnits="userSpaceOnUse">
<stop stop-color="#10002B"/>
<stop offset="1" stop-color="#12032D"/>
</linearGradient>
<linearGradient id="paint47_linear_482_33983" x1="992.146" y1="139.529" x2="994.678" y2="134.901" gradientUnits="userSpaceOnUse">
<stop stop-color="#10002B"/>
<stop offset="1" stop-color="#12032D"/>
</linearGradient>
<linearGradient id="paint48_linear_482_33983" x1="979.34" y1="346.134" x2="978.743" y2="333.918" gradientUnits="userSpaceOnUse">
<stop stop-color="#170E1B"/>
<stop offset="1" stop-color="#7B2CBF"/>
</linearGradient>
<linearGradient id="paint49_linear_482_33983" x1="975.182" y1="343.261" x2="984.981" y2="342.785" gradientUnits="userSpaceOnUse">
<stop stop-color="#10002B"/>
<stop offset="1" stop-color="#12032D"/>
</linearGradient>
<linearGradient id="paint50_linear_482_33983" x1="9.13987" y1="146.363" x2="8.54345" y2="134.147" gradientUnits="userSpaceOnUse">
<stop stop-color="#170E1B"/>
<stop offset="1" stop-color="#7B2CBF"/>
</linearGradient>
<linearGradient id="paint51_linear_482_33983" x1="5.0096" y1="143.489" x2="14.7813" y2="143.014" gradientUnits="userSpaceOnUse">
<stop stop-color="#10002B"/>
<stop offset="1" stop-color="#12032D"/>
</linearGradient>
<linearGradient id="paint52_linear_482_33983" x1="687.594" y1="287.388" x2="696.921" y2="271.828" gradientUnits="userSpaceOnUse">
<stop stop-color="#170E1B"/>
<stop offset="1" stop-color="#7B2CBF"/>
</linearGradient>
<linearGradient id="paint53_linear_482_33983" x1="684.87" y1="280.419" x2="697.344" y2="287.868" gradientUnits="userSpaceOnUse">
<stop stop-color="#10002B"/>
<stop offset="1" stop-color="#12032D"/>
</linearGradient>
<linearGradient id="paint54_linear_482_33983" x1="86.1932" y1="118.139" x2="95.5052" y2="102.602" gradientUnits="userSpaceOnUse">
<stop stop-color="#170E1B"/>
<stop offset="1" stop-color="#7B2CBF"/>
</linearGradient>
<linearGradient id="paint55_linear_482_33983" x1="83.4691" y1="111.17" x2="95.9429" y2="118.619" gradientUnits="userSpaceOnUse">
<stop stop-color="#10002B"/>
<stop offset="1" stop-color="#12032D"/>
</linearGradient>
<linearGradient id="paint56_linear_482_33983" x1="1454.76" y1="266.537" x2="1454.76" y2="215.338" gradientUnits="userSpaceOnUse">
<stop stop-color="#150E15"/>
<stop offset="0.21" stop-color="#160D1A"/>
<stop offset="0.44" stop-color="#180C27"/>
<stop offset="0.59" stop-color="#1A0A33"/>
<stop offset="1" stop-color="#7F32C1"/>
</linearGradient>
<linearGradient id="paint57_linear_482_33983" x1="1438.11" y1="253.626" x2="1478.84" y2="253.626" gradientUnits="userSpaceOnUse">
<stop stop-color="#10002B"/>
<stop offset="1" stop-color="#12032D"/>
</linearGradient>
<linearGradient id="paint58_linear_482_33983" x1="1397.84" y1="205.745" x2="1397.84" y2="180.145" gradientUnits="userSpaceOnUse">
<stop stop-color="#1A0A33"/>
<stop offset="0.24" stop-color="#180C27"/>
<stop offset="0.64" stop-color="#160D1A"/>
<stop offset="1" stop-color="#150E15"/>
</linearGradient>
<linearGradient id="paint59_linear_482_33983" x1="1389.79" y1="199.108" x2="1409.68" y2="199.108" gradientUnits="userSpaceOnUse">
<stop stop-color="#10002B"/>
<stop offset="1" stop-color="#12032D"/>
</linearGradient>
<linearGradient id="paint60_linear_482_33983" x1="348.208" y1="253.656" x2="341.07" y2="264.719" gradientUnits="userSpaceOnUse">
<stop stop-color="#170E1B"/>
<stop offset="1" stop-color="#7B2CBF"/>
</linearGradient>
<linearGradient id="paint61_linear_482_33983" x1="350.758" y1="259.36" x2="340.985" y2="253.603" gradientUnits="userSpaceOnUse">
<stop stop-color="#10002B"/>
<stop offset="1" stop-color="#12032D"/>
</linearGradient>
<linearGradient id="paint62_linear_482_33983" x1="36.3995" y1="217.959" x2="36.3995" y2="269.158" gradientUnits="userSpaceOnUse">
<stop stop-color="#150E15"/>
<stop offset="0.21" stop-color="#160D1A"/>
<stop offset="0.44" stop-color="#180C27"/>
<stop offset="0.59" stop-color="#1A0A33"/>
<stop offset="1" stop-color="#7F32C1"/>
</linearGradient>
<linearGradient id="paint63_linear_482_33983" x1="53.0527" y1="230.871" x2="12.3158" y2="230.871" gradientUnits="userSpaceOnUse">
<stop stop-color="#10002B"/>
<stop offset="1" stop-color="#12032D"/>
</linearGradient>
<linearGradient id="paint64_linear_482_33983" x1="93.3158" y1="278.751" x2="93.3158" y2="304.351" gradientUnits="userSpaceOnUse">
<stop stop-color="#1A0A33"/>
<stop offset="0.24" stop-color="#180C27"/>
<stop offset="0.64" stop-color="#160D1A"/>
<stop offset="1" stop-color="#150E15"/>
</linearGradient>
<linearGradient id="paint65_linear_482_33983" x1="101.368" y1="285.388" x2="81.4737" y2="285.388" gradientUnits="userSpaceOnUse">
<stop stop-color="#10002B"/>
<stop offset="1" stop-color="#12032D"/>
</linearGradient>
<linearGradient id="paint66_linear_482_33983" x1="758.508" y1="176.638" x2="762.189" y2="82.691" gradientUnits="userSpaceOnUse">
<stop stop-color="#240046"/>
<stop offset="1" stop-color="#C77DFF"/>
</linearGradient>
<linearGradient id="paint67_linear_482_33983" x1="717.076" y1="162.768" x2="782.716" y2="162.768" gradientUnits="userSpaceOnUse">
<stop stop-color="#260348"/>
<stop offset="1" stop-color="#1A0A33"/>
</linearGradient>
<linearGradient id="paint68_linear_482_33983" x1="717.076" y1="129.902" x2="747.067" y2="129.902" gradientUnits="userSpaceOnUse">
<stop stop-color="#9D4EDD"/>
<stop offset="1" stop-color="#3E0B6D"/>
</linearGradient>
<linearGradient id="paint69_linear_482_33983" x1="789.656" y1="167.822" x2="789.656" y2="83.7156" gradientUnits="userSpaceOnUse">
<stop stop-color="#CC89FF"/>
<stop offset="1" stop-color="#D398FF"/>
</linearGradient>
<linearGradient id="paint70_linear_482_33983" x1="221.746" y1="273.812" x2="223.047" y2="240.608" gradientUnits="userSpaceOnUse">
<stop stop-color="#240046"/>
<stop offset="1" stop-color="#C77DFF"/>
</linearGradient>
<linearGradient id="paint71_linear_482_33983" x1="207.093" y1="268.906" x2="230.311" y2="268.906" gradientUnits="userSpaceOnUse">
<stop stop-color="#260348"/>
<stop offset="1" stop-color="#1A0A33"/>
</linearGradient>
<linearGradient id="paint72_linear_482_33983" x1="207.093" y1="257.29" x2="217.684" y2="257.29" gradientUnits="userSpaceOnUse">
<stop stop-color="#9D4EDD"/>
<stop offset="1" stop-color="#3E0B6D"/>
</linearGradient>
<linearGradient id="paint73_linear_482_33983" x1="232.736" y1="270.693" x2="232.736" y2="240.954" gradientUnits="userSpaceOnUse">
<stop stop-color="#CC89FF"/>
<stop offset="1" stop-color="#D398FF"/>
</linearGradient>
<linearGradient id="paint74_linear_482_33983" x1="426.923" y1="108.931" x2="426.923" y2="10.8346" gradientUnits="userSpaceOnUse">
<stop stop-color="#240046"/>
<stop offset="1" stop-color="#C77DFF"/>
</linearGradient>
<linearGradient id="paint75_linear_482_33983" x1="394.87" y1="91.7298" x2="452.9" y2="91.7298" gradientUnits="userSpaceOnUse">
<stop stop-color="#260348"/>
<stop offset="1" stop-color="#1A0A33"/>
</linearGradient>
<linearGradient id="paint76_linear_482_33983" x1="386.926" y1="63.3314" x2="440.386" y2="63.3314" gradientUnits="userSpaceOnUse">
<stop stop-color="#260348"/>
<stop offset="1" stop-color="#1A0A33"/>
</linearGradient>
<linearGradient id="paint77_linear_482_33983" x1="452.51" y1="83.4643" x2="452.51" y2="11.2814" gradientUnits="userSpaceOnUse">
<stop stop-color="#CC89FF"/>
<stop offset="1" stop-color="#D398FF"/>
</linearGradient>
<linearGradient id="paint78_linear_482_33983" x1="345.424" y1="271.168" x2="345.424" y2="202.029" gradientUnits="userSpaceOnUse">
<stop stop-color="#240046"/>
<stop offset="1" stop-color="#C77DFF"/>
</linearGradient>
<linearGradient id="paint79_linear_482_33983" x1="301.831" y1="261.841" x2="364.015" y2="261.841" gradientUnits="userSpaceOnUse">
<stop stop-color="#260348"/>
<stop offset="1" stop-color="#1A0A33"/>
</linearGradient>
<linearGradient id="paint80_linear_482_33983" x1="359.277" y1="251.426" x2="378.425" y2="251.426" gradientUnits="userSpaceOnUse">
<stop stop-color="#260348"/>
<stop offset="1" stop-color="#1A0A33"/>
</linearGradient>
<linearGradient id="paint81_linear_482_33983" x1="356.434" y1="252.487" x2="356.434" y2="202.029" gradientUnits="userSpaceOnUse">
<stop stop-color="#CC89FF"/>
<stop offset="1" stop-color="#D398FF"/>
</linearGradient>
<linearGradient id="paint82_linear_482_33983" x1="1265.92" y1="286.415" x2="1231.34" y2="226.563" gradientUnits="userSpaceOnUse">
<stop stop-color="#240046"/>
<stop offset="1" stop-color="#C77DFF"/>
</linearGradient>
<linearGradient id="paint83_linear_482_33983" x1="1223.51" y1="300.152" x2="1277.38" y2="269.072" gradientUnits="userSpaceOnUse">
<stop stop-color="#260348"/>
<stop offset="1" stop-color="#1A0A33"/>
</linearGradient>
<linearGradient id="paint84_linear_482_33983" x1="1268.05" y1="262.386" x2="1284.64" y2="252.815" gradientUnits="userSpaceOnUse">
<stop stop-color="#260348"/>
<stop offset="1" stop-color="#1A0A33"/>
</linearGradient>
<linearGradient id="paint85_linear_482_33983" x1="1266.12" y1="264.727" x2="1240.88" y2="221.047" gradientUnits="userSpaceOnUse">
<stop stop-color="#CC89FF"/>
<stop offset="1" stop-color="#D398FF"/>
</linearGradient>
<linearGradient id="paint86_linear_482_33983" x1="382.968" y1="257.904" x2="382.968" y2="219.118" gradientUnits="userSpaceOnUse">
<stop stop-color="#CC89FF"/>
<stop offset="1" stop-color="#D398FF"/>
</linearGradient>
<linearGradient id="paint87_linear_482_33983" x1="866.947" y1="125.518" x2="866.946" y2="66.738" gradientUnits="userSpaceOnUse">
<stop stop-color="#170E1B"/>
<stop offset="1" stop-color="#7B2CBF"/>
</linearGradient>
<linearGradient id="paint88_linear_482_33983" x1="845.067" y1="115.8" x2="872.354" y2="115.8" gradientUnits="userSpaceOnUse">
<stop stop-color="#10002B"/>
<stop offset="1" stop-color="#12032D"/>
</linearGradient>
<linearGradient id="paint89_linear_482_33983" x1="879.907" y1="120.491" x2="879.907" y2="66.738" gradientUnits="userSpaceOnUse">
<stop stop-color="#CC89FF"/>
<stop offset="1" stop-color="#D398FF"/>
</linearGradient>
<linearGradient id="paint90_linear_482_33983" x1="641.542" y1="347.288" x2="641.542" y2="307.078" gradientUnits="userSpaceOnUse">
<stop stop-color="#170E1B"/>
<stop offset="1" stop-color="#7B2CBF"/>
</linearGradient>
<linearGradient id="paint91_linear_482_33983" x1="624.344" y1="340.447" x2="652.468" y2="340.447" gradientUnits="userSpaceOnUse">
<stop stop-color="#10002B"/>
<stop offset="1" stop-color="#12032D"/>
</linearGradient>
<linearGradient id="paint92_linear_482_33983" x1="651.938" y1="338.157" x2="651.938" y2="307.106" gradientUnits="userSpaceOnUse">
<stop stop-color="#CC89FF"/>
<stop offset="1" stop-color="#D398FF"/>
</linearGradient>
<linearGradient id="paint93_linear_482_33983" x1="391.581" y1="200.995" x2="391.581" y2="180.89" gradientUnits="userSpaceOnUse">
<stop stop-color="#170E1B"/>
<stop offset="1" stop-color="#7B2CBF"/>
</linearGradient>
<linearGradient id="paint94_linear_482_33983" x1="382.968" y1="197.589" x2="397.044" y2="197.589" gradientUnits="userSpaceOnUse">
<stop stop-color="#10002B"/>
<stop offset="1" stop-color="#12032D"/>
</linearGradient>
<linearGradient id="paint95_linear_482_33983" x1="396.765" y1="196.444" x2="396.765" y2="180.918" gradientUnits="userSpaceOnUse">
<stop stop-color="#CC89FF"/>
<stop offset="1" stop-color="#D398FF"/>
</linearGradient>
<linearGradient id="paint96_linear_482_33983" x1="15.4971" y1="79.8901" x2="15.4971" y2="43.6451" gradientUnits="userSpaceOnUse">
<stop stop-color="#170E1B"/>
<stop offset="1" stop-color="#7B2CBF"/>
</linearGradient>
<linearGradient id="paint97_linear_482_33983" x1="1.079e-06" y1="73.719" x2="25.3361" y2="73.719" gradientUnits="userSpaceOnUse">
<stop stop-color="#10002B"/>
<stop offset="1" stop-color="#12032D"/>
</linearGradient>
<linearGradient id="paint98_linear_482_33983" x1="24.8623" y1="71.6527" x2="24.8623" y2="43.6731" gradientUnits="userSpaceOnUse">
<stop stop-color="#CC89FF"/>
<stop offset="1" stop-color="#D398FF"/>
</linearGradient>
<linearGradient id="paint99_linear_482_33983" x1="157.87" y1="220.654" x2="157.87" y2="200.549" gradientUnits="userSpaceOnUse">
<stop stop-color="#170E1B"/>
<stop offset="1" stop-color="#7B2CBF"/>
</linearGradient>
<linearGradient id="paint100_linear_482_33983" x1="149.285" y1="217.219" x2="163.333" y2="217.219" gradientUnits="userSpaceOnUse">
<stop stop-color="#10002B"/>
<stop offset="1" stop-color="#12032D"/>
</linearGradient>
<linearGradient id="paint101_linear_482_33983" x1="163.054" y1="216.074" x2="163.054" y2="200.549" gradientUnits="userSpaceOnUse">
<stop stop-color="#CC89FF"/>
<stop offset="1" stop-color="#D398FF"/>
</linearGradient>
<linearGradient id="paint102_linear_482_33983" x1="1384.49" y1="102.202" x2="1384.3" y2="82.795" gradientUnits="userSpaceOnUse">
<stop stop-color="#170E1B"/>
<stop offset="1" stop-color="#7B2CBF"/>
</linearGradient>
<linearGradient id="paint103_linear_482_33983" x1="1392.76" y1="98.7961" x2="1379.19" y2="98.9316" gradientUnits="userSpaceOnUse">
<stop stop-color="#10002B"/>
<stop offset="1" stop-color="#12032D"/>
</linearGradient>
<linearGradient id="paint104_linear_482_33983" x1="1379.43" y1="97.8405" x2="1379.28" y2="82.8454" gradientUnits="userSpaceOnUse">
<stop stop-color="#CC89FF"/>
<stop offset="1" stop-color="#D398FF"/>
</linearGradient>
<linearGradient id="paint105_linear_482_33983" x1="568.237" y1="93.7681" x2="568.237" y2="73.663" gradientUnits="userSpaceOnUse">
<stop stop-color="#170E1B"/>
<stop offset="1" stop-color="#7B2CBF"/>
</linearGradient>
<linearGradient id="paint106_linear_482_33983" x1="559.624" y1="90.3614" x2="573.672" y2="90.3614" gradientUnits="userSpaceOnUse">
<stop stop-color="#10002B"/>
<stop offset="1" stop-color="#12032D"/>
</linearGradient>
<linearGradient id="paint107_linear_482_33983" x1="573.421" y1="89.2165" x2="573.421" y2="73.6909" gradientUnits="userSpaceOnUse">
<stop stop-color="#CC89FF"/>
<stop offset="1" stop-color="#D398FF"/>
</linearGradient>
<clipPath id="clip0_482_33983">
<rect width="1512" height="457" fill="white" transform="translate(0 0.000244141)"/>
</clipPath>
</defs>
</svg>
