<svg width="48" height="48" viewBox="0 0 48 48" fill="none" xmlns="http://www.w3.org/2000/svg">
<path d="M40.0641 24.4139C40.1464 24.402 40.2299 24.4009 40.3125 24.4107C41.237 24.5115 42.2642 25.8831 43.4541 28.1576C44.8319 27.9622 45.6679 27.1679 46.6193 26.8446C46.923 26.7358 47.2456 26.6904 47.5673 26.7113C46.0998 24.2967 43.9659 23.7562 41.5112 24.1155C41.1213 24.172 40.7228 24.2512 40.318 24.349C40.2337 24.3707 40.1494 24.3922 40.0641 24.4139Z" fill="#5A189A"/>
<path d="M37.4163 24.9706V29.0635C39.1203 30.6698 40.7921 31.8603 42.3769 31.9525C43.3779 32.012 44.3444 31.6322 45.2636 30.6451C44.0226 29.8692 43.2991 27.4407 42.0735 25.8391C41.06 24.5109 39.7003 23.7521 37.4163 24.9706Z" fill="#5A189A"/>
<path d="M42.5709 32.3922C42.6136 32.3922 42.6564 32.3922 42.6989 32.3901C43.7482 32.3554 44.7176 31.8676 45.58 30.9405C45.6236 30.8937 45.6563 30.8377 45.6758 30.7767C45.6953 30.7156 45.7011 30.651 45.6927 30.5874C45.6844 30.5239 45.6621 30.463 45.6275 30.4091C45.5929 30.3552 45.5469 30.3097 45.4927 30.2758C44.8512 29.8743 44.3216 28.8725 43.7608 27.8118C43.1248 26.609 42.467 25.3648 41.4775 24.6067C40.2892 23.6962 38.8947 23.6899 37.2141 24.5869C37.1448 24.6238 37.0869 24.679 37.0465 24.7466C37.0061 24.8141 36.9847 24.8914 36.9848 24.9702V29.0632C36.9847 29.1225 36.9968 29.1813 37.0203 29.2357C37.0437 29.2902 37.0781 29.3392 37.1212 29.3798C39.3252 31.457 41.0139 32.3922 42.5709 32.3922ZM44.6102 30.6802C44.0022 31.223 43.3641 31.4995 42.6706 31.5223C41.3727 31.566 39.838 30.7229 37.8482 28.8736V25.2366C40.6914 23.8568 41.8123 25.9777 42.9973 28.2192C43.5042 29.1781 43.9882 30.0933 44.6102 30.6802Z" fill="#371A45"/>
<path d="M37.3101 25.3909C38.9219 25.7161 39.8989 26.9535 40.8768 28.1926C41.2268 28.6158 41.602 29.0459 42.0776 29.3753C42.273 29.507 42.4817 29.2233 42.2946 29.0753C41.8971 28.7522 41.5769 28.3296 41.2681 27.8914C40.6385 26.9808 40.0225 26.0112 39.0982 25.3356C38.6217 24.9846 38.0886 24.7188 37.5222 24.5497C36.9464 24.3984 36.7297 25.2473 37.3101 25.3902V25.3909Z" fill="#371A45"/>
<path d="M43.4539 28.5916C43.4741 28.5917 43.4943 28.5902 43.5143 28.5872C44.4562 28.4539 45.1572 28.0684 45.7755 27.7283C46.4131 27.3781 46.9173 27.1014 47.5377 27.1446C47.6168 27.1502 47.6959 27.1338 47.7664 27.0972C47.8368 27.0606 47.8959 27.0052 47.9371 26.9371C47.9783 26.869 48.0001 26.7908 48 26.7111C47.9999 26.6314 47.978 26.5533 47.9366 26.4853C45.7869 22.9482 42.3523 23.3689 39.9559 23.9932C39.8489 24.0209 39.7566 24.0888 39.6979 24.1828C39.6391 24.2769 39.6185 24.39 39.6403 24.4988C39.662 24.6077 39.7244 24.704 39.8147 24.768C39.9049 24.8321 40.0162 24.8589 40.1255 24.843C40.8077 24.7452 41.7984 25.9277 43.0717 28.3596C43.1083 28.4295 43.1633 28.4882 43.2306 28.529C43.298 28.5699 43.3752 28.5916 43.4539 28.5916ZM46.7948 26.3438C46.2744 26.4645 45.8125 26.7173 45.3608 26.9667C44.8547 27.2452 44.3333 27.5317 43.6879 27.6746C42.8719 26.1502 42.1667 25.1297 41.5115 24.5538C43.9049 24.1912 45.585 24.7634 46.7948 26.3438Z" fill="#371A45"/>
<path d="M41.965 26.0986C42.876 25.9774 43.8038 25.9396 44.6997 26.1147C44.9929 26.1667 45.103 25.7476 44.8233 25.6477C43.8872 25.3281 42.8906 25.2347 41.9087 25.2314C41.2997 25.2548 41.3567 26.1534 41.965 26.0976V26.0986Z" fill="#371A45"/>
<g opacity="0.2">
<path d="M37.4163 24.9706V29.0635C39.1203 30.6698 40.792 31.8603 42.3769 31.9525C41.7753 30.0969 41.4612 28.0535 42.0734 25.8389C41.0599 24.5109 39.7002 23.7521 37.4163 24.9706Z" fill="#371A45"/>
</g>
<g opacity="0.2">
<path d="M40.3125 24.4103C41.237 24.5112 42.2642 25.8828 43.4541 28.1573C44.8319 27.9619 45.6679 27.1676 46.6194 26.8443C44.7759 26.523 43.0956 25.5193 41.5112 24.1152C41.1213 24.1717 40.7228 24.2509 40.3181 24.3487L40.3125 24.4103Z" fill="#371A45"/>
</g>
<path d="M6.9066 37.1991C8.1321 39.7092 9.98351 41.8578 12.2806 43.4356C12.7653 43.769 13.2674 44.0764 13.7846 44.3564C14.0385 44.4946 14.2995 44.6263 14.5648 44.7533C16.8179 45.8246 19.2822 46.3724 21.7748 46.356C22.0913 46.3528 22.4068 46.3413 22.7214 46.3217C28.4764 45.95 33.8776 42.5939 36.5652 37.0733C40.5258 28.9427 37.0961 19.1976 28.9072 15.3073C27.3694 14.5756 25.7285 14.0865 24.0423 13.8573C23.8499 13.8295 23.6561 13.8071 23.4614 13.7889C22.9428 13.7366 22.425 13.7089 21.9079 13.7057C19.5326 13.695 17.1819 14.1906 15.0111 15.1598C14.6688 15.3126 14.3316 15.477 13.9995 15.6529C13.5007 15.9176 13.0157 16.2077 12.5464 16.5223C10.1273 18.1345 8.1803 20.3662 6.90637 22.9871C4.62842 27.6644 4.79595 32.875 6.9066 37.1991Z" fill="#FEF7FF"/>
<path d="M21.6681 46.3925H21.775C22.0908 46.3892 22.41 46.3778 22.7235 46.3582C28.6853 45.9732 34.0012 42.4219 36.5968 37.0894C38.5088 33.1639 38.7729 28.7399 37.3403 24.632C35.8965 20.4914 32.9068 17.1684 28.9218 15.2752C27.3807 14.5418 25.7363 14.0517 24.0465 13.8221C23.8624 13.7955 23.6721 13.773 23.4656 13.7537C22.9488 13.7014 22.4251 13.6733 21.9088 13.6701C19.5285 13.6597 17.173 14.1564 14.9976 15.1274C14.6512 15.282 14.3101 15.4482 13.9839 15.6217C10.9016 17.256 8.4132 19.8289 6.87544 22.9715C4.66813 27.502 4.66813 32.6932 6.87544 37.2143C8.10581 39.7286 9.96086 41.8813 12.2613 43.4646C12.7471 43.7986 13.2501 44.1066 13.7683 44.3872C14.0034 44.5152 14.2592 44.6457 14.5501 44.7855C16.7755 45.8436 19.2067 46.3924 21.6686 46.3923L21.6681 46.3925ZM21.8166 13.7408H21.9095C22.4235 13.7439 22.9449 13.7719 23.4598 13.8239C23.6661 13.8433 23.8548 13.8657 24.0383 13.8921C25.7211 14.1209 27.3586 14.6092 28.8932 15.3396C32.8613 17.2249 35.8379 20.5334 37.2754 24.6551C38.7014 28.745 38.4384 33.1499 36.5347 37.0582C33.9503 42.367 28.6567 45.9034 22.7202 46.2867C22.4079 46.3064 22.0901 46.3178 21.7757 46.3208C20.1671 46.3317 18.5655 46.1066 17.0216 45.6526C16.1854 45.4071 15.3696 45.0958 14.582 44.7216C14.2922 44.5815 14.0376 44.4524 13.8034 44.3247C13.2873 44.0452 12.7864 43.7384 12.3026 43.4057C10.0122 41.8295 8.16517 39.6861 6.94026 37.1828C4.74318 32.6815 4.74318 27.5127 6.94026 23.0021C8.21362 20.3889 10.1554 18.1628 12.5666 16.5518C13.0349 16.238 13.5189 15.9484 14.0167 15.6842C14.342 15.5117 14.6812 15.3462 15.0262 15.1921C17.1641 14.2376 19.4772 13.7432 21.8166 13.7408Z" fill="#371A45"/>
<path d="M36.5652 37.074C33.8781 42.5951 28.476 45.9514 22.7209 46.3224C22.4066 46.3425 22.0914 46.3539 21.7753 46.3567C19.2827 46.3719 16.8186 45.8244 14.5648 44.7547C14.3001 44.626 14.039 44.4948 13.7846 44.3578C13.2676 44.0772 12.7657 43.7696 12.2808 43.4363C10.5173 42.2247 9.01098 40.673 7.84939 38.8714C6.68779 37.0698 5.89407 35.0543 5.51435 32.9418C6.73869 35.3095 8.52661 37.3363 10.719 38.8418C11.2035 39.1759 11.7055 39.4835 12.2229 39.7633C12.4762 39.9015 12.7374 40.0325 13.0029 40.1602C15.2557 41.2322 17.72 41.7799 20.2125 41.7625C20.5297 41.7594 20.8453 41.7479 21.1593 41.728C26.9141 41.357 32.3162 38.0009 35.0033 32.4795C36.5721 29.259 36.9804 25.7855 36.3939 22.5234C38.6658 26.9127 38.9033 32.2745 36.5652 37.074Z" fill="#FEF7FF"/>
<path d="M21.6681 46.6294H21.7766C22.0973 46.6262 22.4205 46.6145 22.7381 46.5946C28.7845 46.2038 34.175 42.6016 36.8084 37.1937C38.7483 33.2112 39.0157 28.7223 37.5631 24.5541C36.0993 20.3533 33.0653 16.982 29.0229 15.0615C27.4598 14.3179 25.7921 13.8208 24.0783 13.5878C23.8924 13.561 23.6986 13.5381 23.4874 13.5178C22.9649 13.465 22.4337 13.4365 21.9102 13.4333C19.4964 13.4225 17.1078 13.9262 14.9019 14.9111C14.5506 15.0678 14.2049 15.2364 13.8738 15.4122C13.3667 15.6812 12.8736 15.9762 12.3965 16.2958C9.93978 17.9371 7.96133 20.2051 6.66376 22.8673C4.42439 27.4639 4.42439 32.7312 6.66376 37.3191C7.91193 39.87 9.79396 42.0541 12.1279 43.6604C12.6207 43.9991 13.1309 44.3115 13.6565 44.5961C13.8944 44.7255 14.1535 44.8576 14.4481 44.9996C16.7052 46.073 19.1712 46.6297 21.6684 46.6294H21.6681ZM21.8166 13.9777H21.907C22.4135 13.9808 22.9277 14.0083 23.4349 14.0597C23.6389 14.0788 23.8243 14.1008 24.0037 14.1267C25.6632 14.352 27.2782 14.8332 28.7917 15.5534C32.7019 17.4114 35.6355 20.6715 37.0519 24.7342C38.4569 28.7636 38.1976 33.1038 36.3219 36.9547C33.7744 42.1877 28.5563 45.6731 22.7039 46.0511C22.3961 46.0705 22.0824 46.0817 21.772 46.085C20.9126 46.0902 20.0542 46.0278 19.2045 45.8982C17.6378 45.6566 16.1141 45.1884 14.6809 44.5081C14.3961 44.3711 14.1447 44.2429 13.9142 44.1173C13.4053 43.8417 12.9112 43.5393 12.4341 43.2112C10.1773 41.6579 8.35739 39.5459 7.1503 37.0793C4.98551 32.6434 4.98574 27.5514 7.1503 23.1071C8.66003 20.0228 11.1022 17.4975 14.1273 15.8929C14.4472 15.7229 14.782 15.5597 15.1219 15.408C17.2299 14.4671 19.5103 13.9797 21.8168 13.977L21.8166 13.9777Z" fill="#371A45"/>
<path d="M21.6681 46.7914H21.7776C22.1029 46.7882 22.4281 46.7763 22.7481 46.7564C28.8526 46.3621 34.2958 42.7253 36.9532 37.2654C38.9121 33.2437 39.1837 28.7104 37.715 24.5011C36.2361 20.2585 33.1736 16.8543 29.0919 14.9153C27.5138 14.1645 25.83 13.6627 24.0997 13.4277C23.9138 13.4006 23.7163 13.3775 23.5023 13.3576C22.976 13.3044 22.4398 13.2757 21.9112 13.2726C19.4744 13.2615 17.063 13.7699 14.8362 14.7643C14.4818 14.9223 14.1326 15.0925 13.7985 15.2702C10.6422 16.9444 8.09398 19.5792 6.51878 22.7973C4.25756 27.4391 4.25756 32.7585 6.51878 37.391C7.77918 39.9669 9.67971 42.1725 12.0366 43.7944C12.5341 44.1364 13.0492 44.4518 13.5798 44.7392C13.8199 44.8697 14.0813 45.0031 14.3782 45.1462C16.657 46.2301 19.1469 46.7922 21.6681 46.7919V46.7914ZM21.8166 14.1397H21.907C22.4084 14.1428 22.9175 14.1699 23.4198 14.2208C23.6222 14.2399 23.805 14.2614 23.9816 14.2868C25.6253 14.51 27.2248 14.9866 28.7239 15.6998C32.5945 17.5388 35.4987 20.7661 36.9007 24.7874C38.2913 28.7757 38.0348 33.0716 36.1781 36.8832C33.6559 42.0641 28.4894 45.5151 22.6944 45.8893C22.3898 45.9082 22.0792 45.9194 21.7715 45.9227C19.3443 45.9372 16.9449 45.4036 14.7504 44.3615C14.4686 44.2258 14.2197 44.0988 13.9913 43.9746C13.4873 43.7017 12.998 43.4022 12.5254 43.0774C10.2915 41.5397 8.49004 39.4489 7.29529 37.0072C5.15257 32.618 5.1528 27.5764 7.29529 23.1774C8.53793 20.6272 10.433 18.455 12.7864 16.8833C13.2441 16.5766 13.7172 16.2937 14.2037 16.0358C14.5204 15.8677 14.852 15.7061 15.1886 15.5557C17.2759 14.6241 19.5341 14.1414 21.818 14.1388L21.8166 14.1397Z" fill="#371A45"/>
<path d="M9.21379 40.6917C18.5379 47.7737 31.8761 43.5673 33.1115 32.075C33.9519 24.2538 26.8772 17.4339 19.2492 17.1462C13.6974 16.9361 8.17496 19.1394 5.45555 27.5896C5.45555 27.5896 4.83402 31.5119 5.78828 34.1814C6.74253 36.8509 8.1257 39.285 8.1257 39.285L9.21379 40.6917Z" fill="#240046"/>
<path d="M33.1111 32.0751C31.8747 43.5672 18.5379 47.7736 9.21356 40.6923L8.99329 40.407C19.5117 42.7304 30.3777 36.8827 31.8448 25.2842C32.8764 27.3432 33.3699 29.661 33.1111 32.0751Z" fill="#160033"/>
<path d="M19.2724 46.2116C23.0894 46.2116 26.7596 44.9962 29.6003 42.7446C32.8086 40.2016 34.7487 36.5866 35.2108 32.2903C35.6351 28.3446 34.3279 24.382 31.533 21.1321C28.4269 17.5217 23.8422 15.2631 19.2682 15.0908C16.7263 14.9946 14.4175 15.3579 12.4063 16.1699L12.3703 16.1844L12.3377 16.2058C9.86489 17.8577 7.87344 20.1404 6.56736 22.8201C4.31358 27.4467 4.31358 32.7486 6.56736 37.3652C7.82354 39.933 9.71783 42.1316 12.0671 43.7485C12.5629 44.0896 13.0764 44.4039 13.6054 44.6903C13.8447 44.8206 14.1054 44.9537 14.4015 45.0961C15.2097 45.4801 16.0468 45.7995 16.905 46.0512L16.9626 46.0631C17.7286 46.1619 18.5001 46.2115 19.2724 46.2116ZM18.4787 15.8353C18.7298 15.8353 18.9834 15.8402 19.2396 15.8498C23.6078 16.0144 27.9894 18.1749 30.9612 21.6289C33.6174 24.7177 34.8607 28.4749 34.4592 32.2088C34.0193 36.2973 32.1768 39.7345 29.133 42.1481C25.8869 44.7205 21.4988 45.8731 17.0879 45.3128C16.2785 45.0738 15.4889 44.7718 14.7263 44.4095C14.4435 44.2734 14.1937 44.1461 13.9646 44.0212C13.4589 43.7475 12.9681 43.447 12.4941 43.121C10.2525 41.5786 8.44478 39.4813 7.24582 37.0316C5.09543 32.6265 5.09567 27.5684 7.24582 23.1539C8.48706 20.6072 10.3768 18.4358 12.7232 16.8603C14.4254 16.1792 16.3592 15.8353 18.4787 15.8353Z" fill="#371A45"/>
<path d="M19.2935 44.5153C21.3779 44.5153 23.4438 44.1055 25.3697 43.269C29.9628 41.274 32.911 37.2074 33.4587 32.112C33.8365 28.598 32.6731 25.0689 30.1826 22.175C27.4176 18.9604 23.3343 16.9495 19.2622 16.7959C12.2453 16.5309 7.48978 20.1268 5.12285 27.4818L5.1103 27.5348C5.08451 27.6982 4.48598 31.5775 5.45882 34.3003C6.41145 36.9674 7.80763 39.4347 7.82158 39.46L7.84922 39.5013L8.9645 40.9446L9.00121 40.9724C12.0752 43.3052 15.7117 44.5153 19.2935 44.5153ZM18.5612 17.4846C18.784 17.4846 19.008 17.4888 19.235 17.4972C23.1175 17.6438 27.0124 19.5639 29.6535 22.6336C32.0153 25.3787 33.1197 28.7178 32.763 32.0361C32.243 36.8733 29.4469 40.7324 25.0913 42.6242C20.0996 44.7924 14.114 43.955 9.45986 40.4394L8.41592 39.0897C8.27907 38.8457 7.00162 36.5404 6.11567 34.0626C5.2432 31.6214 5.74391 28.0118 5.79549 27.6704C7.9812 20.9089 12.2743 17.4846 18.5612 17.4846Z" fill="#371A45"/>
<path d="M40.4418 31.6639C40.4883 34.883 38.6104 37.6174 36.2454 37.7701C33.8803 37.9227 31.9237 35.4377 31.8772 32.2188C31.8772 32.1988 31.8772 32.1773 31.8772 32.157C31.854 28.965 33.7253 26.2647 36.0737 26.1127C37.9009 25.9943 39.4834 27.4507 40.1307 29.6031C40.329 30.2722 40.4337 30.9658 40.4418 31.6639Z" fill="#FEF7FF"/>
<path d="M40.4418 31.6638C40.4883 34.8829 38.6104 37.6173 36.2454 37.77C33.8803 37.9227 31.9237 35.4377 31.8772 32.2188C31.8772 32.1987 31.8772 32.1772 31.8772 32.1569C32.1419 32.4705 32.551 32.7696 33.0982 32.6239C34.0555 32.3692 35.7486 30.1876 35.7486 30.1876C35.7486 30.1876 37.6474 29.9215 40.1307 29.6025C40.329 30.2718 40.4337 30.9656 40.4418 31.6638Z" fill="#FEF7FF"/>
<path d="M36.0338 38.2112C36.113 38.2112 36.1927 38.2086 36.2724 38.2035C38.8598 38.0361 40.924 35.0997 40.8729 31.6582C40.8441 29.6723 40.135 27.8902 38.9275 26.7693C38.0871 25.989 37.0919 25.6122 36.0463 25.6802C33.4589 25.8476 31.3947 28.7839 31.4458 32.2255C31.4749 34.2114 32.184 35.9935 33.3913 37.1144C34.1676 37.8348 35.0767 38.2112 36.0338 38.2112ZM36.2815 26.5405C37.0201 26.5405 37.729 26.8379 38.3419 27.4069C39.3613 28.3532 39.9846 29.9473 40.01 31.671C40.0537 34.6571 38.3522 37.1989 36.2169 37.3373C35.4148 37.3889 34.6397 37.0917 33.9773 36.4767C32.958 35.5305 32.3343 33.9364 32.3092 32.2127C32.2656 29.2266 33.967 26.6846 36.1021 26.5463C36.1625 26.5421 36.2222 26.5405 36.2819 26.5405H36.2815Z" fill="#371A45"/>
<path d="M37.171 37.0209C35.2519 36.8637 33.8639 34.6684 34.0708 32.1175C34.2778 29.5666 36.0013 27.6261 37.9204 27.7833C39.8395 27.9404 41.2275 30.1358 41.0206 32.6867C40.8136 35.2376 39.0901 37.1781 37.171 37.0209Z" fill="#FEF7FF"/>
<path d="M37.386 37.0695C37.7676 37.0673 38.1448 36.9872 38.4948 36.8342C39.5403 36.3864 40.3805 35.3593 40.8013 34.0162C41.556 31.6058 40.7132 28.9198 38.9225 28.0282C38.179 27.6579 37.3748 27.6378 36.599 27.9703C35.5535 28.4178 34.7133 29.4448 34.2925 30.7882C33.5376 33.1983 34.3803 35.8846 36.171 36.776C36.5479 36.9673 36.9638 37.0678 37.386 37.0695ZM40.7318 33.994C40.3175 35.3168 39.4918 36.3273 38.4664 36.7667C37.7104 37.0903 36.928 37.0702 36.2036 36.7102C34.4435 35.8335 33.6175 33.1874 34.3611 30.8102C34.7753 29.4873 35.6011 28.4769 36.6264 28.0377C37.3823 27.7139 38.1648 27.7342 38.8893 28.094C40.6489 28.97 41.4749 31.6171 40.7307 33.994H40.7318Z" fill="#371A45"/>
<path d="M34.2811 34.4247C34.0527 33.5777 34.0583 32.6646 34.2539 31.8038C34.9389 33.6909 36.6936 34.4336 38.3226 33.4568C39.3753 32.8264 40.1328 31.621 40.4344 30.2886C40.4785 30.4074 40.5171 30.5323 40.552 30.6607C41.1328 32.818 40.1993 35.4095 38.4673 36.4487C36.7354 37.4879 34.8615 36.5806 34.2811 34.4247Z" fill="#FEF7FF"/>
<path d="M37.4494 37.4735C37.5145 37.4735 37.5796 37.4712 37.6451 37.4665C39.6507 37.3208 41.2579 34.8874 41.2277 32.0418C41.2095 30.3557 40.6156 28.8097 39.6386 27.9061C39.0045 27.3197 38.2585 27.0395 37.4813 27.096C35.4763 27.2419 33.8685 29.6751 33.8987 32.5207C33.9168 34.2068 34.5107 35.7528 35.4875 36.6561C36.0684 37.1933 36.7431 37.4735 37.4494 37.4735ZM37.6727 27.957C38.1607 27.957 38.636 28.1585 39.0536 28.5449C39.8584 29.2892 40.3482 30.5994 40.3636 32.0512C40.3891 34.4466 39.1416 36.4871 37.5828 36.6006C37.0484 36.6391 36.527 36.4371 36.0725 36.0169C35.2677 35.2726 34.7779 33.9623 34.7623 32.5106C34.7368 30.1152 35.9845 28.0747 37.5433 27.961C37.5868 27.9587 37.6297 27.957 37.6727 27.957Z" fill="#371A45"/>
<g opacity="0.5">
<path d="M17.0607 22.4254C17.0607 22.4254 11.9058 23.0233 9.19964 26.1233L9.19104 26.1331C8.62436 26.7842 8.24102 27.5755 8.08065 28.4253C7.86898 29.5446 7.88827 30.3456 7.93265 31.05C8.06857 33.1923 8.53675 34.1682 8.53675 34.1682C7.2356 33.1211 6.46165 31.8837 6.32944 30.1007C6.31689 29.9248 6.31046 29.7433 6.31015 29.5562C6.31015 29.5133 6.31016 29.4705 6.31201 29.4276C6.31201 29.4276 6.31201 29.4262 6.31201 29.425C6.34514 28.9449 6.40722 28.4672 6.49789 27.9945C6.81877 26.3192 7.62501 24.1075 9.64412 22.9677C13.4205 20.8364 17.2243 22.1896 17.0607 22.4254Z" fill="#FEF7FF"/>
</g>
<g opacity="0.5">
<path d="M26.2696 28.4448C25.9269 27.0839 26.6049 25.7376 27.784 25.4378C28.9631 25.138 30.1967 25.9982 30.5394 27.3591C30.8822 28.72 30.2041 30.0663 29.0251 30.3661C27.846 30.6659 26.6123 29.8057 26.2696 28.4448Z" fill="#FEF7FF"/>
</g>
<g opacity="0.5">
<path d="M28.6377 32.6924C28.4447 32.1459 28.6719 31.5662 29.145 31.3976C29.6181 31.229 30.158 31.5353 30.351 32.0818C30.5439 32.6283 30.3167 33.208 29.8436 33.3766C29.3705 33.5452 28.8306 33.2389 28.6377 32.6924Z" fill="#FEF7FF"/>
</g>
<path d="M28.6033 20.1225C20.4516 22.5401 12.2845 26.3181 5.43673 30.5696C5.54385 29.7585 5.78735 29.0111 6.26738 28.3749C11.5672 25.1008 18.2315 22.1273 25.5223 19.293L28.6033 20.1225Z" fill="#FFC14D"/>
<path d="M5.43672 30.895C5.49688 30.895 5.55586 30.8782 5.60703 30.8465C12.6955 26.4455 20.8956 22.7479 28.695 20.4337C28.7628 20.4137 28.8222 20.3719 28.8642 20.3148C28.9061 20.2578 28.9284 20.1884 28.9275 20.1175C28.9267 20.0465 28.9027 19.9777 28.8594 19.9217C28.816 19.8657 28.7556 19.8254 28.6874 19.8071L25.6062 18.9773C25.5397 18.9595 25.4694 18.9634 25.4052 18.9883C17.0042 22.2552 10.869 25.1498 6.09706 28.0973C6.06284 28.1185 6.03282 28.1459 6.00853 28.1781C5.53268 28.8085 5.24039 29.5789 5.11492 30.5275C5.10882 30.5735 5.11258 30.6203 5.12595 30.6647C5.13931 30.7091 5.16197 30.7501 5.19241 30.7849C5.22284 30.8198 5.26034 30.8477 5.3024 30.8668C5.34446 30.8859 5.3901 30.8958 5.43626 30.8957L5.43672 30.895ZM27.4234 20.1412C20.13 22.4121 12.5531 25.8476 5.89538 29.9058C6.02689 29.4106 6.22369 28.9855 6.48996 28.6185C11.2008 25.715 17.26 22.8576 25.5404 19.6331L27.4234 20.1412Z" fill="#371A45"/>
<path d="M13.1721 23.7401C11.4685 24.0053 9.66897 24.8575 7.82134 26.0031C7.42797 26.2471 7.21166 26.732 7.28694 27.2111C7.61687 29.3315 8.78674 30.461 10.6602 30.7598C11.3247 30.8663 12.0024 30.633 12.5136 30.1507C14.7325 28.0572 15.2388 26.0558 14.0322 24.1463C13.841 23.8456 13.5092 23.6871 13.1721 23.7401Z" fill="#FFC14D"/>
<g opacity="0.5">
<path d="M7.82132 26.0029C9.66896 24.8572 11.4692 24.0051 13.1721 23.7398C13.4834 23.6913 13.789 23.8246 13.9839 24.0826C12.2908 24.3539 10.5033 25.2014 8.668 26.3395C8.27463 26.5833 8.05832 27.0684 8.1336 27.5475C8.36943 29.0623 9.03418 30.0713 10.0777 30.6335C8.54416 30.2042 7.58131 29.1017 7.28692 27.2108C7.21164 26.7318 7.42796 26.2468 7.82132 26.0029Z" fill="#FEF7FF"/>
</g>
<g opacity="0.2">
<path d="M9.67036 29.9623C10.3349 30.0685 11.0126 29.8355 11.5238 29.3532C13.5945 27.3995 14.1734 25.5261 13.2606 23.7329C13.5664 23.7184 13.8577 23.8729 14.0315 24.1473C15.2379 26.0566 14.7317 28.0581 12.5129 30.1517C12.0017 30.634 11.324 30.8672 10.6595 30.7608C9.63551 30.5973 8.82205 30.1843 8.24072 29.4982C8.65802 29.723 9.13526 29.8766 9.67036 29.9623Z" fill="#FFC14D"/>
</g>
<path d="M38.5686 33.9453L37.4164 34.7214C38.5549 36.4023 38.6374 37.5207 36.8885 37.6631H36.7542L35.0546 37.6201C38.9197 42.3278 42.0244 36.8793 38.5686 33.9453Z" fill="#FEDA24"/>
<g opacity="0.2">
<path d="M38.2053 34.19L38.5687 33.9453C41.4407 36.3839 39.7811 40.5583 36.919 39.196C39.0454 39.4153 40.1033 36.3706 38.2053 34.19Z" fill="#371A45"/>
</g>
<path d="M38.0108 39.8961C38.1856 39.8966 38.36 39.8772 38.5305 39.8384C39.4448 39.6283 40.1423 38.8718 40.3968 37.818C40.6756 36.6588 40.4163 34.9463 38.8475 33.6132C38.7758 33.5523 38.6863 33.5166 38.5926 33.5114C38.4989 33.5062 38.4061 33.5317 38.3282 33.5842L37.1759 34.3605C37.1286 34.3924 37.0881 34.4334 37.0566 34.4811C37.0252 34.5288 37.0034 34.5824 36.9926 34.6386C36.9818 34.6948 36.9822 34.7526 36.9937 34.8086C37.0052 34.8647 37.0277 34.9179 37.0598 34.9652C37.9143 36.2259 37.8402 36.7122 37.7689 36.8624C37.6509 37.1101 37.2194 37.1981 36.8711 37.228H36.7549L35.0662 37.1853C34.9836 37.1839 34.9022 37.206 34.8316 37.2492C34.7609 37.2923 34.7039 37.3546 34.667 37.429C34.6306 37.5039 34.6164 37.5878 34.6262 37.6706C34.636 37.7534 34.6693 37.8316 34.7221 37.8959C36.0658 39.5335 37.237 39.8961 38.0108 39.8961ZM38.5287 34.4943C39.5849 35.5309 39.7615 36.7664 39.557 37.6134C39.3816 38.3409 38.9255 38.8564 38.3372 38.9923C37.6753 39.1455 36.879 38.8167 36.0779 38.0792L36.8885 38.096C36.9001 38.096 36.9118 38.096 36.9231 38.0946C37.7626 38.0267 38.3091 37.7381 38.5477 37.2371C38.8249 36.655 38.6546 35.8881 38.0108 34.8431L38.5287 34.4943Z" fill="#371A45"/>
<path d="M7.30157 20.7792C17.1531 18.7536 30.759 20.9506 38.4918 26.7112V25.284C28.9485 15.7858 14.2297 11.2301 7.30157 20.7792Z" fill="#5A189A"/>
<g opacity="0.2">
<path d="M10.8254 17.4537C17.833 17.0554 25.2377 18.1641 30.733 20.8967C31.2618 21.1596 31.8692 20.7279 31.7997 20.1393C31.434 19.8526 31.0628 19.5724 30.6863 19.2988C33.4731 20.9023 36.1397 22.9421 38.4918 25.2831V26.7103C30.7595 20.9508 17.1534 18.7539 7.30157 20.7795C8.32088 19.3744 9.51004 18.2771 10.8254 17.4537Z" fill="#371A45"/>
</g>
<path d="M38.4918 27.1453C38.5486 27.1454 38.6048 27.1342 38.6572 27.1124C38.7096 27.0906 38.7573 27.0587 38.7974 27.0184C38.8375 26.978 38.8693 26.9302 38.891 26.8775C38.9127 26.8248 38.9238 26.7683 38.9238 26.7113V25.2841C38.9238 25.2268 38.9125 25.17 38.8905 25.117C38.8685 25.0641 38.8363 25.0161 38.7957 24.9757C35.633 21.8278 31.9398 19.237 28.1156 17.4832C24.1338 15.6577 20.2016 14.8398 16.744 15.1188C12.6649 15.4478 9.27911 17.3167 6.95237 20.5237C6.90107 20.5944 6.87226 20.6791 6.86972 20.7666C6.86719 20.8541 6.89104 20.9404 6.93816 21.014C6.98528 21.0876 7.05346 21.1452 7.13375 21.1792C7.21403 21.2132 7.30267 21.222 7.38803 21.2045C17.6578 19.0932 30.9193 21.6102 38.2346 27.0599C38.3089 27.1155 38.3992 27.1454 38.4918 27.1453ZM38.0599 25.4658V25.8692C30.7302 20.8262 18.3484 18.4428 8.35901 20.1396C10.4982 17.6611 13.3368 16.264 16.813 15.9838C23.3562 15.4569 31.678 19.1742 38.0599 25.4658Z" fill="#371A45"/>
<path d="M8.67404 19.7265C11.2206 18.6867 14.0462 18.4506 16.7612 18.8977C17.037 18.9372 17.1178 18.5312 16.8411 18.4653C15.4547 18.17 14.0248 18.0332 12.594 18.1011C11.1557 18.1689 9.73444 18.4423 8.37292 18.9129C8.31893 18.9322 8.2693 18.9621 8.22692 19.0008C8.18454 19.0396 8.15026 19.0864 8.12606 19.1386C8.10186 19.1908 8.08824 19.2473 8.08598 19.3049C8.08372 19.3624 8.09287 19.4198 8.1129 19.4738C8.13293 19.5277 8.16343 19.5771 8.20264 19.6191C8.24185 19.6611 8.28897 19.6949 8.34128 19.7184C8.39358 19.7419 8.45002 19.7547 8.50731 19.7561C8.5646 19.7575 8.62159 19.7475 8.67497 19.7265H8.67404Z" fill="#371A45"/>
<path d="M0.433353 20.1992C0.397804 21.6 1.24332 22.7275 2.48081 23.3364C3.47991 23.8301 4.73458 23.9852 5.99066 23.6728L7.30157 20.7796C11.8221 13.3597 26.7259 13.7055 38.4918 25.2842C44.5793 24.8306 46.0922 18.3882 40.0641 16.8006C33.1796 14.1236 31.8773 7.9026 27.3017 3.77859C26.103 2.71187 24.5458 1.98601 22.8276 1.64958C19.5954 1.01571 15.793 1.75697 12.7313 4.18226C11.3437 5.28143 10.2659 6.72568 9.5521 8.35016C7.77998 12.3761 5.57894 15.7843 2.41064 17.2666C1.26167 17.8055 0.465649 18.9263 0.433353 20.1992Z" fill="#5A189A"/>
<path d="M0.433361 20.199C0.38364 22.1728 2.08559 23.6077 4.16976 23.8092C-0.082222 22.7653 0.322063 19.6142 3.11164 18.388C7.08898 17.2127 9.04884 13.2855 10.7703 9.03147C11.2973 7.72687 12.1439 6.57724 13.2313 5.68935C15.3859 3.93179 17.6969 3.12468 20.1374 3.09853C23.4194 3.06468 26.4917 4.7522 28.2952 7.50831C30.5504 10.9548 33.0988 13.9075 36.0587 16.1656C36.8277 16.7526 37.6937 17.1929 38.6085 17.5013C42.7738 18.9072 44.6095 20.8978 42.1894 23.9623C44.8614 21.8777 44.5652 17.9855 40.0641 16.8004C33.1796 14.1234 31.8773 7.90241 27.3017 3.7784C23.846 0.703597 17.4204 0.468026 12.7313 4.18253C11.3438 5.28171 10.2659 6.72595 9.55211 8.35044C7.77999 12.3764 5.57895 15.7846 2.41065 17.2669C1.26168 17.8053 0.46566 18.9262 0.433361 20.199Z" fill="#FEDA24"/>
<g opacity="0.5">
<path d="M40.7024 17.8074C33.8181 15.1304 32.5156 8.90936 27.9399 4.78582C24.4842 1.71055 18.0588 1.47522 13.3698 5.18949C11.982 6.28866 10.9044 7.73431 10.1904 9.35739C8.41824 13.3833 6.21721 16.7918 3.0489 18.2741C2.54249 18.5107 2.09948 18.8652 1.75658 19.3081C1.10136 19.9894 0.839264 20.8268 1.08741 21.6129C1.11617 21.9031 1.18555 22.1877 1.29351 22.4583C0.738892 21.8539 0.410583 21.0808 0.433819 20.199C0.466114 18.9262 1.26214 17.8053 2.41111 17.2669C5.57917 15.7846 7.78021 12.3764 9.5521 8.35043C10.2659 6.72595 11.3437 5.28171 12.7313 4.18253C17.4203 0.468026 23.8459 0.703597 27.3017 3.7784C31.8773 7.90194 33.1801 14.123 40.0641 16.7999C41.9926 17.3075 43.1485 18.3121 43.6306 19.4585C43.0031 18.7487 42.0379 18.1601 40.7024 17.8074Z" fill="#FEF7FF"/>
<path d="M43.1302 20.6367C43.4299 20.9573 43.6471 21.2986 43.7749 21.6626C43.5498 22.5124 43.0098 23.3226 42.1894 23.9625C43.2045 22.677 43.4706 21.5804 43.1302 20.6367Z" fill="#FEF7FF"/>
<path d="M4.16974 23.8098C3.30563 23.7263 2.50775 23.43 1.87274 22.9719C1.8103 22.8541 1.75919 22.7306 1.72009 22.603C2.23497 23.1031 3.03704 23.5308 4.16974 23.8098Z" fill="#FEF7FF"/>
</g>
<path d="M38.4918 25.7183C38.5025 25.7183 38.5132 25.7183 38.5239 25.7183C42.237 25.4416 44.1263 23.1373 44.3094 21.1133C44.4655 19.3978 43.4662 17.2582 40.1968 16.3883C36.0008 14.7494 33.9808 11.8065 31.8425 8.69107C30.6041 6.88378 29.3224 5.01719 27.5898 3.45598C25.8105 1.87305 23.221 0.980027 20.4758 1.00034C17.5932 1.02369 14.7479 2.03228 12.4639 3.84143C11.0563 4.95579 9.91389 6.4542 9.15667 8.17487C7.09364 12.8636 4.89214 15.6277 2.22873 16.8742C0.910851 17.491 0.0365219 18.7917 0.00120544 20.1895C-0.0280724 21.3517 0.47961 22.4147 1.43038 23.1818C2.66183 24.1748 4.40444 24.5166 6.09501 24.0956C6.1582 24.0799 6.21702 24.0499 6.26707 24.0081C6.31712 23.9662 6.35711 23.9136 6.38405 23.854L7.68357 20.9849C9.23311 18.4597 12.1172 16.817 15.8083 16.3575C22.9228 15.4724 31.4991 19.0116 38.1895 25.5955C38.2705 25.6744 38.379 25.7185 38.4918 25.7183ZM20.575 1.86838C23.0729 1.86838 25.4155 2.68132 27.015 4.10409C28.6684 5.59479 29.9214 7.41889 31.1313 9.18276C33.2545 12.2746 35.449 15.4717 39.9085 17.2055C39.9236 17.2114 39.9391 17.2164 39.9549 17.2204C42.2691 17.8298 43.6084 19.2908 43.4499 21.0321C43.3012 22.6696 41.7363 24.5341 38.6519 24.8339C35.1316 21.4056 31.0825 18.7466 26.9306 17.1389C23.0411 15.6331 19.1586 15.0646 15.7022 15.4948C11.7339 15.9886 8.61948 17.785 6.93309 20.5527C6.9239 20.5678 6.9156 20.5834 6.90823 20.5994L5.68654 23.2967C4.33752 23.5741 2.93042 23.2773 1.97129 22.5029C1.23544 21.9092 0.842773 21.0946 0.865078 20.2093C0.892029 19.1395 1.57049 18.1389 2.59352 17.6603C5.45675 16.3209 7.79417 13.4181 9.94688 8.52601C10.6474 6.93421 11.7027 5.5502 12.9988 4.52363C15.1329 2.83308 17.7907 1.89033 20.4825 1.86885L20.575 1.86838Z" fill="#371A45"/>
<path d="M42.1889 24.396C42.2539 24.3961 42.3182 24.3815 42.3768 24.3532C42.4354 24.3249 42.4869 24.2837 42.5274 24.2325C43.5509 22.9372 43.9081 21.7316 43.589 20.6495C43.165 19.2113 41.5809 18.0475 38.7457 17.0912C37.8396 16.7858 37.0247 16.3585 36.3203 15.8209C33.5376 13.697 31.0306 10.8993 28.656 7.26979C26.7463 4.35141 23.5569 2.62934 20.1335 2.66459C17.5256 2.69191 15.1115 3.5959 12.9588 5.35183C11.8154 6.28659 10.925 7.49597 10.3699 8.86812C8.7607 12.8469 6.86544 16.8271 2.9894 17.9718C2.9718 17.9769 2.95456 17.9832 2.93782 17.9907C1.38898 18.6725 0.460289 19.9423 0.571583 21.2259C0.693565 22.6214 1.96962 23.7168 4.0747 24.2328C4.18602 24.26 4.30355 24.2417 4.40144 24.1819C4.49933 24.122 4.56956 24.0256 4.59667 23.9137C4.62378 23.8019 4.60557 23.6838 4.54602 23.5854C4.48648 23.4871 4.39049 23.4165 4.27917 23.3892C2.55677 22.9678 1.5191 22.1519 1.4322 21.1498C1.35413 20.2493 2.07069 19.3287 3.26032 18.7957C7.48674 17.5324 9.4854 13.3603 11.1704 9.19404C11.6706 7.95773 12.4729 6.86808 13.5032 6.02586C15.5288 4.37359 17.7005 3.55808 20.1425 3.53287C20.1739 3.53287 20.206 3.53287 20.2373 3.53287C23.3329 3.53287 26.2043 5.10295 27.9341 7.74723C30.3645 11.4596 32.9359 14.3276 35.7977 16.5117C36.5772 17.1063 37.4766 17.5779 38.4697 17.9125C40.9828 18.7612 42.4273 19.7644 42.7605 20.8953C42.9949 21.6903 42.6889 22.6312 41.8508 23.6921C41.8003 23.756 41.7688 23.8329 41.7598 23.914C41.7508 23.9951 41.7648 24.0771 41.8001 24.1506C41.8354 24.2241 41.8906 24.2861 41.9594 24.3295C42.0281 24.3729 42.1077 24.3959 42.1889 24.396Z" fill="#371A45"/>
<path d="M5.11913 23.8148L4.18973 23.8115C4.49881 23.8402 4.80985 23.8413 5.11913 23.8148Z" fill="#FEDA24"/>
<path d="M4.1695 23.8105C4.1715 23.8117 4.17376 23.8125 4.17608 23.8126H4.19043C4.18341 23.8125 4.17641 23.8118 4.1695 23.8105Z" fill="#FEDA24"/>
<g opacity="0.2">
<path d="M2.48081 23.3362C3.47991 23.83 4.73459 23.985 5.99067 23.6726L7.30157 20.7795C11.8221 13.3596 26.7259 13.7053 38.4918 25.284C44.5793 24.8304 46.0922 18.388 40.0641 16.8004C33.1796 14.1235 31.8773 7.90244 27.3017 3.77843C26.103 2.7117 24.5458 1.98584 22.8276 1.64941C26.9766 3.38876 30.5522 7.08249 33.3276 13.5055C34.0177 15.1038 32.4496 16.7456 30.8255 16.1357C24.3027 13.6911 18.3546 13.6976 12.8071 15.4164C10.1288 16.2464 7.84597 17.9881 6.22162 20.2822C5.3782 21.4754 4.05544 22.4604 2.48081 23.3362Z" fill="#371A45"/>
</g>
<g opacity="0.5">
<path d="M13.0409 7.98353C12.8322 7.62028 13.8017 6.66524 15.2062 5.85039C16.6108 5.03554 17.9186 4.66945 18.1274 5.0327C18.3361 5.39595 17.3666 6.35099 15.9621 7.16584C14.5575 7.98069 13.2497 8.34678 13.0409 7.98353Z" fill="#FEF7FF"/>
</g>
<path d="M13.6015 25.1482C13.7889 25.613 13.7972 26.1314 13.6247 26.602C13.5942 26.6844 13.5152 26.7404 13.4256 26.7157C13.3468 26.694 13.2817 26.599 13.3124 26.5156C13.4669 26.1012 13.4586 25.6433 13.2892 25.2348C13.2555 25.1535 13.3254 25.0557 13.4023 25.0345C13.4953 25.0088 13.5678 25.0667 13.6017 25.1482H13.6015Z" fill="#371A45"/>
<path d="M13.2406 27.6512C13.1097 28.0058 12.9282 28.3393 12.7018 28.6414C12.6506 28.7091 12.5598 28.7516 12.4801 28.6997C12.4136 28.6568 12.3672 28.5496 12.422 28.4772C12.5295 28.3354 12.6267 28.186 12.7129 28.0301C12.7561 27.9523 12.7966 27.8724 12.8342 27.7904C12.8749 27.7024 12.893 27.6582 12.9271 27.5646C12.9569 27.4852 13.038 27.4222 13.1265 27.4509C13.2036 27.4761 13.2715 27.566 13.2396 27.6512H13.2406Z" fill="#371A45"/>
<path d="M11.9643 29.4004C11.6278 29.8062 11.0776 30.0042 10.5634 29.8879C10.4779 29.8688 10.428 29.7695 10.4503 29.6878C10.4624 29.6466 10.4899 29.6117 10.5271 29.5905C10.5643 29.5693 10.6082 29.5634 10.6496 29.5741C10.7451 29.5959 10.8432 29.6031 10.9408 29.5954C11.0422 29.5871 11.142 29.5651 11.2375 29.53C11.4321 29.4563 11.6038 29.3322 11.7352 29.1702C11.7912 29.1027 11.9064 29.1121 11.9643 29.1702C12.0307 29.2372 12.0205 29.3336 11.9643 29.4004Z" fill="#371A45"/>
<path d="M9.56273 29.5083C9.24746 29.3934 8.96411 29.2044 8.73626 28.9571C8.67887 28.8945 8.67004 28.7881 8.73626 28.7269C8.79876 28.6692 8.90402 28.6601 8.96536 28.7269C9.01564 28.7817 9.06885 28.8338 9.12475 28.8829C9.13915 28.8955 9.15356 28.9076 9.1682 28.9197L9.18795 28.9359C9.21978 28.9618 9.17099 28.9233 9.19004 28.9375C9.22048 28.9608 9.25092 28.9826 9.28298 29.0038C9.34367 29.0448 9.40666 29.0822 9.47165 29.1159C9.50263 29.1314 9.53446 29.147 9.56714 29.1626C9.58457 29.1703 9.58619 29.174 9.56853 29.1626C9.57601 29.1663 9.58378 29.1694 9.59177 29.1719C9.61105 29.1798 9.63034 29.1871 9.64986 29.1952C9.72932 29.2242 9.79136 29.3071 9.76301 29.3953C9.73768 29.4738 9.64893 29.5403 9.56366 29.509L9.56273 29.5083Z" fill="#371A45"/>
<path d="M10.9817 31.1118C11.6144 31.1118 12.2364 30.8582 12.7348 30.388C15.0729 28.182 15.6011 26.0221 14.305 23.972C14.0466 23.5632 13.5824 23.3456 13.1224 23.4173C11.5501 23.6622 9.76051 24.417 7.65125 25.7249C7.14729 26.0376 6.87195 26.6546 6.96629 27.2605C7.309 29.4637 8.53464 30.7494 10.6086 31.0814C10.732 31.1014 10.8568 31.1116 10.9817 31.1118ZM13.2999 24.0554C13.4806 24.0554 13.6512 24.1528 13.7581 24.3218C14.8789 26.0962 14.3991 27.9252 12.2913 29.9143C11.8433 30.3369 11.2668 30.5283 10.7113 30.4392C8.9222 30.1527 7.90591 29.0801 7.60711 27.1605C7.55251 26.8103 7.70748 26.4564 7.99234 26.2797C10.0266 25.0189 11.7373 24.2928 13.2223 24.0617C13.2479 24.0576 13.2739 24.0554 13.2999 24.0554Z" fill="#371A45"/>
<path d="M8.19583 27.9632C8.09871 27.6938 8.00151 27.4242 7.90423 27.1545C7.87519 27.0742 7.93653 26.9726 8.01739 26.9542C8.05876 26.9438 8.1025 26.9499 8.13956 26.971C8.17663 26.9922 8.20418 27.0269 8.21651 27.0679L8.50834 27.8768C8.53715 27.9569 8.47581 28.0585 8.39518 28.0769C8.35378 28.0873 8.30998 28.0813 8.27287 28.0601C8.23575 28.039 8.20816 28.0043 8.19583 27.9632Z" fill="#371A45"/>
</svg>
