<svg width="24" height="24" viewBox="0 0 24 24" fill="none" xmlns="http://www.w3.org/2000/svg">
<path d="M20.0321 12.707C20.0732 12.701 20.115 12.7004 20.1563 12.7053C20.6185 12.7558 21.1321 13.4416 21.7271 14.5788C22.416 14.4811 22.834 14.084 23.3097 13.9223C23.4615 13.8679 23.6228 13.8452 23.7837 13.8556C23.0499 12.6484 21.983 12.3781 20.7556 12.5578C20.5607 12.586 20.3614 12.6256 20.1591 12.6745C20.1169 12.6854 20.0747 12.6961 20.0321 12.707Z" fill="#5A189A"/>
<path d="M18.7082 12.9853V15.0318C19.5602 15.8349 20.3961 16.4301 21.1885 16.4762C21.689 16.506 22.1723 16.3161 22.6318 15.8225C22.0113 15.4346 21.6496 14.2203 21.0368 13.4195C20.53 12.7554 19.8502 12.376 18.7082 12.9853Z" fill="#5A189A"/>
<path d="M21.2854 16.6962C21.3068 16.6962 21.3282 16.6962 21.3494 16.6952C21.8741 16.6778 22.3588 16.4339 22.79 15.9704C22.8118 15.947 22.8282 15.919 22.8379 15.8885C22.8476 15.8579 22.8505 15.8256 22.8463 15.7938C22.8422 15.7621 22.831 15.7316 22.8137 15.7047C22.7964 15.6777 22.7734 15.655 22.7463 15.638C22.4256 15.4373 22.1608 14.9363 21.8804 14.406C21.5624 13.8046 21.2335 13.1825 20.7387 12.8035C20.1446 12.3482 19.4473 12.3451 18.607 12.7936C18.5724 12.812 18.5434 12.8396 18.5232 12.8734C18.503 12.9072 18.4924 12.9458 18.4924 12.9852V15.0317C18.4924 15.0614 18.4984 15.0907 18.5101 15.118C18.5219 15.1452 18.539 15.1697 18.5606 15.19C19.6626 16.2286 20.5069 16.6962 21.2854 16.6962ZM22.3051 15.8402C22.0011 16.1116 21.6821 16.2498 21.3353 16.2613C20.6863 16.2831 19.919 15.8616 18.9241 14.9369V13.1184C20.3457 12.4285 20.9061 13.489 21.4986 14.6097C21.7521 15.0892 21.9941 15.5468 22.3051 15.8402Z" fill="#371A45"/>
<path d="M18.655 13.1956C19.4609 13.3582 19.9494 13.9769 20.4384 14.5964C20.6134 14.808 20.801 15.0231 21.0388 15.1878C21.1365 15.2536 21.2408 15.1118 21.1473 15.0378C20.9485 14.8762 20.7885 14.6649 20.6341 14.4458C20.3192 13.9905 20.0112 13.5057 19.5491 13.1679C19.3108 12.9924 19.0443 12.8595 18.7611 12.775C18.4732 12.6993 18.3648 13.1238 18.655 13.1952V13.1956Z" fill="#371A45"/>
<path d="M21.7269 14.7958C21.7371 14.7958 21.7472 14.7951 21.7572 14.7936C22.2281 14.7269 22.5786 14.5342 22.8878 14.3641C23.2065 14.189 23.4586 14.0507 23.7688 14.0723C23.8084 14.0751 23.848 14.0669 23.8832 14.0486C23.9184 14.0303 23.948 14.0026 23.9686 13.9686C23.9892 13.9345 24 13.8954 24 13.8556C24 13.8157 23.989 13.7766 23.9683 13.7426C22.8935 11.9741 21.1762 12.1845 19.9779 12.4966C19.9245 12.5105 19.8783 12.5444 19.8489 12.5914C19.8196 12.6384 19.8093 12.695 19.8201 12.7494C19.831 12.8038 19.8622 12.852 19.9073 12.884C19.9525 12.916 20.0081 12.9295 20.0628 12.9215C20.4038 12.8726 20.8992 13.4639 21.5358 14.6798C21.5542 14.7148 21.5816 14.7441 21.6153 14.7645C21.649 14.785 21.6876 14.7958 21.7269 14.7958ZM23.3974 13.6719C23.1372 13.7322 22.9062 13.8587 22.6804 13.9833C22.4274 14.1226 22.1667 14.2658 21.8439 14.3373C21.4359 13.5751 21.0833 13.0649 20.7557 12.7769C21.9524 12.5956 22.7925 12.8817 23.3974 13.6719Z" fill="#371A45"/>
<path d="M20.9825 13.5492C21.438 13.4886 21.9019 13.4697 22.3499 13.5572C22.4965 13.5832 22.5515 13.3737 22.4117 13.3237C21.9436 13.1639 21.4453 13.1172 20.9544 13.1156C20.6499 13.1273 20.6783 13.5766 20.9825 13.5487V13.5492Z" fill="#371A45"/>
<g opacity="0.2">
<path d="M18.7082 12.9853V15.0318C19.5602 15.8349 20.3961 16.4301 21.1885 16.4762C20.8877 15.5484 20.7306 14.5268 21.0368 13.4194C20.53 12.7554 19.8501 12.376 18.7082 12.9853Z" fill="#371A45"/>
</g>
<g opacity="0.2">
<path d="M20.1563 12.7053C20.6185 12.7557 21.1321 13.4415 21.7271 14.5788C22.416 14.4811 22.834 14.0839 23.3097 13.9223C22.388 13.7616 21.5478 13.2598 20.7556 12.5577C20.5607 12.586 20.3614 12.6256 20.159 12.6745L20.1563 12.7053Z" fill="#371A45"/>
</g>
<path d="M3.45326 19.0996C4.06601 20.3546 4.99171 21.4289 6.14025 22.2178C6.38263 22.3845 6.63365 22.5382 6.89225 22.6782C7.01923 22.7473 7.14969 22.8131 7.28236 22.8766C8.40892 23.4123 9.64107 23.6862 10.8874 23.678C11.0456 23.6764 11.2034 23.6707 11.3607 23.6609C14.2382 23.475 16.9388 21.7969 18.2826 19.0366C20.2629 14.9713 18.548 10.0988 14.4536 8.15367C13.6847 7.7878 12.8642 7.54325 12.0211 7.42863C11.9249 7.41474 11.828 7.40353 11.7307 7.39443C11.4714 7.36828 11.2125 7.35443 10.9539 7.35287C9.76624 7.3475 8.59092 7.59529 7.50553 8.07989C7.33437 8.15632 7.16576 8.2385 6.99971 8.32644C6.7503 8.45878 6.50779 8.60387 6.27316 8.76116C5.06362 9.56724 4.09011 10.6831 3.45315 11.9935C2.31417 14.3322 2.39794 16.9375 3.45326 19.0996Z" fill="#FEF7FF"/>
<path d="M10.8341 23.6963H10.8875C11.0454 23.6946 11.205 23.6889 11.3617 23.6791C14.3427 23.4866 17.0006 21.7109 18.2984 19.0447C19.2544 17.0819 19.3865 14.8699 18.6701 12.816C17.9482 10.7457 16.4534 9.0842 14.4609 8.13759C13.6904 7.77092 12.8681 7.52585 12.0232 7.41103C11.9312 7.39773 11.8361 7.38652 11.7328 7.37683C11.4744 7.35068 11.2126 7.33667 10.9544 7.33504C9.76427 7.32987 8.58652 7.57821 7.49883 8.0637C7.32561 8.14098 7.15507 8.22409 6.99196 8.31083C5.45079 9.128 4.20661 10.4144 3.43773 11.9858C2.33407 14.251 2.33407 16.8466 3.43773 19.1072C4.05291 20.3643 4.98044 21.4407 6.13064 22.2323C6.37354 22.3993 6.62506 22.5533 6.88415 22.6936C7.00172 22.7576 7.12963 22.8228 7.27508 22.8928C8.38775 23.4218 9.60337 23.6962 10.8343 23.6961L10.8341 23.6963ZM10.9083 7.37041H10.9548C11.2118 7.37193 11.4725 7.38594 11.7299 7.41197C11.8331 7.42166 11.9274 7.43286 12.0192 7.44606C12.8605 7.56047 13.6793 7.8046 14.4466 8.16981C16.4307 9.11245 17.919 10.7667 18.6377 12.8275C19.3507 14.8725 19.2192 17.0749 18.2674 19.0291C16.9752 21.6835 14.3284 23.4517 11.3601 23.6434C11.204 23.6532 11.045 23.6589 10.8879 23.6604C10.0836 23.6659 9.28277 23.5533 8.51082 23.3263C8.09268 23.2036 7.68481 23.0479 7.29099 22.8608C7.14612 22.7907 7.0188 22.7262 6.90169 22.6623C6.64367 22.5226 6.3932 22.3692 6.15132 22.2029C5.00609 21.4148 4.08259 20.3431 3.47014 19.0914C2.3716 16.8408 2.3716 14.2564 3.47014 12.0011C4.10682 10.6945 5.07768 9.58142 6.2833 8.7759C6.51747 8.61899 6.75946 8.4742 7.00834 8.34211C7.17099 8.25585 7.3406 8.17308 7.51312 8.09603C8.58207 7.61879 9.73859 7.37162 10.9083 7.37041Z" fill="#371A45"/>
<path d="M18.2826 19.0369C16.939 21.7974 14.238 23.4756 11.3604 23.6611C11.2033 23.6711 11.0457 23.6768 10.8876 23.6782C9.64134 23.6858 8.40928 23.4121 7.28238 22.8772C7.15006 22.8129 7.01948 22.7473 6.89227 22.6788C6.6338 22.5385 6.38283 22.3847 6.14039 22.218C5.25863 21.6122 4.50548 20.8364 3.92468 19.9356C3.34388 19.0348 2.94702 18.027 2.75716 16.9708C3.36933 18.1546 4.26329 19.168 5.35946 19.9208C5.60172 20.0878 5.85275 20.2416 6.11146 20.3815C6.23809 20.4506 6.36867 20.5161 6.50146 20.58C7.62782 21.116 8.85997 21.3898 10.1062 21.3811C10.2648 21.3796 10.4226 21.3738 10.5796 21.3639C13.457 21.1784 16.1581 19.5003 17.5016 16.7396C18.2861 15.1294 18.4902 13.3926 18.1969 11.7616C19.3329 13.9562 19.4516 16.6371 18.2826 19.0369Z" fill="#FEF7FF"/>
<path d="M10.8341 23.8146H10.8883C11.0486 23.813 11.2102 23.8071 11.3691 23.7972C14.3923 23.6018 17.0875 21.8007 18.4042 19.0967C19.3742 17.1055 19.5079 14.861 18.7816 12.777C18.0497 10.6765 16.5327 8.99089 14.5115 8.03062C13.7299 7.65881 12.896 7.41028 12.0391 7.29379C11.9462 7.28037 11.8493 7.26893 11.7437 7.25877C11.4824 7.23239 11.2169 7.21815 10.9551 7.21652C9.74822 7.21113 8.55389 7.46298 7.45096 7.95545C7.27531 8.03378 7.10244 8.11806 6.93689 8.20596C6.68335 8.3405 6.43682 8.48797 6.19826 8.6478C4.9699 9.46845 3.98067 10.6024 3.33189 11.9335C2.2122 14.2318 2.2122 16.8655 3.33189 19.1594C3.95597 20.4349 4.89699 21.5269 6.06396 22.3301C6.31034 22.4995 6.56547 22.6556 6.82827 22.7979C6.94723 22.8626 7.07676 22.9287 7.22407 22.9997C8.3526 23.5364 9.58563 23.8147 10.8342 23.8146H10.8341ZM10.9083 7.48874H10.9535C11.2068 7.49026 11.4639 7.50403 11.7175 7.52971C11.8195 7.53929 11.9122 7.55026 12.0019 7.56322C12.8316 7.67586 13.6391 7.91648 14.3959 8.27659C16.351 9.20556 17.8178 10.8356 18.526 12.867C19.2285 14.8817 19.0988 17.0518 18.161 18.9772C16.8872 21.5937 14.2782 23.3364 11.352 23.5254C11.198 23.5351 11.0412 23.5407 10.886 23.5424C10.4563 23.545 10.0271 23.5138 9.60228 23.449C8.81891 23.3282 8.05708 23.0941 7.34048 22.7539C7.19805 22.6854 7.07235 22.6213 6.9571 22.5585C6.70263 22.4208 6.45561 22.2695 6.21708 22.1055C5.08866 21.3288 4.1787 20.2728 3.57516 19.0395C2.49276 16.8216 2.49288 14.2756 3.57516 12.0534C4.33002 10.5113 5.55112 9.24865 7.06364 8.44632C7.22361 8.36133 7.39102 8.27974 7.56098 8.20386C8.61493 7.73343 9.75517 7.48972 10.9084 7.48839L10.9083 7.48874Z" fill="#371A45"/>
<path d="M10.8341 23.8956H10.8888C11.0514 23.894 11.2141 23.888 11.3741 23.8781C14.4263 23.6809 17.1479 21.8625 18.4766 19.1326C19.4561 17.1217 19.5919 14.8551 18.8575 12.7504C18.1181 10.6291 16.5868 8.92703 14.546 7.95754C13.7569 7.58212 12.915 7.33122 12.0498 7.21371C11.9569 7.20017 11.8582 7.18861 11.7512 7.17869C11.488 7.15207 11.2199 7.13772 10.9556 7.1362C9.73721 7.13063 8.5315 7.38483 7.41809 7.88202C7.24093 7.96105 7.06632 8.04615 6.89926 8.13498C5.3211 8.97207 4.047 10.2895 3.2594 11.8985C2.1288 14.2194 2.1288 16.8791 3.2594 19.1954C3.88961 20.4833 4.83987 21.5861 6.01831 22.3971C6.26707 22.5681 6.52464 22.7258 6.78994 22.8695C6.90995 22.9348 7.04064 23.0014 7.18911 23.073C8.32853 23.6149 9.57346 23.896 10.8341 23.8958V23.8956ZM10.9083 7.56975H10.9535C11.2042 7.57127 11.4587 7.58481 11.7099 7.61026C11.8111 7.61983 11.9025 7.63057 11.9908 7.64329C12.8126 7.75489 13.6124 7.99318 14.3619 8.34977C16.2973 9.26929 17.7494 10.8829 18.4503 12.8936C19.1456 14.8877 19.0174 17.0357 18.089 18.9415C16.828 21.5319 14.2447 23.2574 11.3472 23.4445C11.1949 23.454 11.0396 23.4596 10.8858 23.4612C9.67218 23.4685 8.47247 23.2017 7.37522 22.6806C7.2343 22.6128 7.10988 22.5493 6.99568 22.4872C6.74369 22.3507 6.49903 22.201 6.26274 22.0386C5.14575 21.2697 4.24504 20.2243 3.64766 19.0035C2.5763 16.8089 2.57642 14.2881 3.64766 12.0886C4.26898 10.8135 5.21653 9.72738 6.3932 8.9415C6.62207 8.78818 6.8586 8.64675 7.10187 8.51776C7.26021 8.43371 7.42599 8.35293 7.59433 8.27775C8.63797 7.81192 9.76704 7.5706 10.909 7.56928L10.9083 7.56975Z" fill="#371A45"/>
<path d="M4.60694 20.8458C9.26901 24.3869 15.9381 22.2837 16.5558 16.5375C16.976 12.6269 13.4386 9.21693 9.62462 9.07312C6.84876 8.96805 4.08753 10.0697 2.72782 14.2948C2.72782 14.2948 2.41706 16.2559 2.89419 17.5907C3.37131 18.9254 4.0629 20.1425 4.0629 20.1425L4.60694 20.8458Z" fill="#240046"/>
<path d="M16.5555 16.5376C15.9374 22.2836 9.26895 24.3868 4.60676 20.8461L4.49663 20.7035C9.75584 21.8652 15.1888 18.9414 15.9224 13.1421C16.4382 14.1716 16.6849 15.3305 16.5555 16.5376Z" fill="#160033"/>
<path d="M9.63624 23.6058C11.5447 23.6058 13.3798 22.9981 14.8002 21.8723C16.4043 20.6008 17.3744 18.7933 17.6054 16.6451C17.8176 14.6723 17.164 12.691 15.7665 11.066C14.2135 9.26084 11.9212 8.13155 9.63415 8.0454C8.3632 7.9973 7.20877 8.17894 6.20317 8.58495L6.18516 8.59219L6.1689 8.60292C4.93248 9.42887 3.93675 10.5702 3.28371 11.91C2.15682 14.2234 2.15682 16.8743 3.28371 19.1826C3.9118 20.4665 4.85894 21.5658 6.03356 22.3743C6.28149 22.5448 6.53825 22.702 6.80275 22.8452C6.92241 22.9103 7.05275 22.9768 7.20076 23.0481C7.60487 23.2401 8.02343 23.3998 8.45254 23.5256L8.48135 23.5316C8.86435 23.581 9.25009 23.6058 9.63624 23.6058ZM9.23938 8.41767C9.36493 8.41767 9.49175 8.42008 9.61985 8.4249C11.8039 8.5072 13.9947 9.58747 15.4806 11.3144C16.8087 12.8588 17.4304 14.7375 17.2296 16.6044C17.0097 18.6487 16.0884 20.3672 14.5666 21.574C12.9435 22.8602 10.7494 23.4365 8.54397 23.1564C8.13929 23.0369 7.74449 22.8859 7.36317 22.7047C7.22179 22.6367 7.0969 22.5731 6.98235 22.5106C6.7295 22.3737 6.48407 22.2235 6.24708 22.0605C5.12627 21.2893 4.22242 20.2406 3.62294 19.0158C2.54775 16.8132 2.54786 14.2842 3.62294 12.077C4.24356 10.8036 5.18843 9.71792 6.36163 8.93013C7.21272 8.58962 8.17964 8.41767 9.23938 8.41767Z" fill="#371A45"/>
<path d="M9.64679 22.7576C10.689 22.7576 11.7219 22.5528 12.6849 22.1345C14.9814 21.137 16.4555 19.1037 16.7294 16.556C16.9183 14.799 16.3366 13.0344 15.0913 11.5875C13.7088 9.98019 11.6672 8.97475 9.63111 8.89794C6.12264 8.76544 3.74491 10.5634 2.56144 14.2409L2.55516 14.2674C2.54227 14.3491 2.243 16.2888 2.72943 17.6501C3.20574 18.9837 3.90383 20.2174 3.9108 20.23L3.92463 20.2506L4.48226 20.9723L4.50062 20.9862C6.03761 22.1526 7.85585 22.7576 9.64679 22.7576ZM9.28061 9.2423C9.39202 9.2423 9.50401 9.24441 9.61751 9.24861C11.5588 9.32192 13.5062 10.2819 14.8268 11.8168C16.0077 13.1893 16.5599 14.8589 16.3815 16.518C16.1215 18.9367 14.7235 20.8662 12.5457 21.8121C10.0498 22.8962 7.05703 22.4775 4.72995 20.7197L4.20798 20.0448C4.13955 19.9228 3.50082 18.7702 3.05785 17.5313C2.62162 16.3107 2.87197 14.5059 2.89776 14.3352C3.99061 10.9545 6.13717 9.2423 9.28061 9.2423Z" fill="#371A45"/>
<path d="M20.2209 16.3319C20.2441 17.9415 19.3052 19.3087 18.1227 19.385C16.9401 19.4614 15.9618 18.2188 15.9386 16.6094C15.9386 16.5994 15.9386 16.5886 15.9386 16.5785C15.927 14.9825 16.8626 13.6323 18.0368 13.5563C18.9504 13.4972 19.7417 14.2253 20.0653 15.3015C20.1645 15.6361 20.2168 15.9829 20.2209 16.3319Z" fill="#FEF7FF"/>
<path d="M20.2209 16.3319C20.2441 17.9415 19.3052 19.3087 18.1227 19.385C16.9401 19.4614 15.9618 18.2188 15.9386 16.6094C15.9386 16.5994 15.9386 16.5886 15.9386 16.5785C16.0709 16.7352 16.2755 16.8848 16.5491 16.8119C17.0277 16.6846 17.8743 15.5938 17.8743 15.5938C17.8743 15.5938 18.8237 15.4607 20.0653 15.3013C20.1645 15.6359 20.2168 15.9828 20.2209 16.3319Z" fill="#FEF7FF"/>
<path d="M18.0169 19.6055C18.0565 19.6055 18.0963 19.6042 18.1362 19.6016C19.4299 19.5179 20.462 18.0497 20.4364 16.329C20.422 15.336 20.0675 14.445 19.4637 13.8845C19.0435 13.4944 18.5459 13.306 18.0231 13.34C16.7294 13.4237 15.6973 14.8918 15.7229 16.6126C15.7374 17.6056 16.092 18.4966 16.6956 19.0571C17.0838 19.4173 17.5383 19.6055 18.0169 19.6055ZM18.1407 13.7701C18.51 13.7701 18.8645 13.9189 19.1709 14.2033C19.6806 14.6765 19.9923 15.4735 20.005 16.3354C20.0268 17.8284 19.1761 19.0993 18.1084 19.1685C17.7074 19.1943 17.3198 19.0457 16.9886 18.7383C16.4789 18.2651 16.1671 17.4681 16.1546 16.6062C16.1328 15.1132 16.9835 13.8422 18.051 13.773C18.0812 13.7709 18.1111 13.7701 18.1409 13.7701H18.1407Z" fill="#371A45"/>
<path d="M18.5855 19.0105C17.626 18.9319 16.932 17.8342 17.0354 16.5587C17.1389 15.2833 18.0006 14.313 18.9602 14.3916C19.9198 14.4702 20.6138 15.5679 20.5103 16.8433C20.4068 18.1188 19.5451 19.089 18.5855 19.0105Z" fill="#FEF7FF"/>
<path d="M18.693 19.0349C18.8838 19.0338 19.0724 18.9937 19.2474 18.9172C19.7701 18.6933 20.1902 18.1798 20.4006 17.5082C20.778 16.303 20.3566 14.96 19.4612 14.5142C19.0895 14.3291 18.6874 14.319 18.2995 14.4852C17.7767 14.709 17.3566 15.2225 17.1462 15.8942C16.7688 17.0993 17.1901 18.4424 18.0855 18.8881C18.2739 18.9838 18.4819 19.034 18.693 19.0349ZM20.3659 17.4971C20.1587 18.1585 19.7459 18.6638 19.2332 18.8835C18.8552 19.0453 18.464 19.0352 18.1018 18.8552C17.2217 18.4169 16.8087 17.0938 17.1805 15.9052C17.3876 15.2438 17.8005 14.7386 18.3132 14.519C18.6911 14.3571 19.0824 14.3672 19.4446 14.5471C20.3244 14.9851 20.7374 16.3086 20.3653 17.4971H20.3659Z" fill="#371A45"/>
<path d="M17.1406 17.7125C17.0264 17.289 17.0291 16.8324 17.127 16.402C17.4694 17.3456 18.3468 17.7169 19.1613 17.2285C19.6877 16.9133 20.0664 16.3106 20.2172 15.6444C20.2393 15.7038 20.2586 15.7663 20.276 15.8305C20.5664 16.9091 20.0996 18.2049 19.2337 18.7245C18.3677 19.244 17.4308 18.7904 17.1406 17.7125Z" fill="#FEF7FF"/>
<path d="M18.7247 19.2367C18.7572 19.2367 18.7898 19.2356 18.8225 19.2332C19.8253 19.1604 20.6289 17.9437 20.6138 16.5209C20.6047 15.6779 20.3078 14.9048 19.8193 14.4531C19.5022 14.1598 19.1292 14.0197 18.7406 14.048C17.7381 14.121 16.9342 15.3376 16.9493 16.7603C16.9584 17.6034 17.2553 18.3764 17.7437 18.8281C18.0342 19.0967 18.3715 19.2367 18.7247 19.2367ZM18.8363 14.4785C19.0803 14.4785 19.318 14.5793 19.5268 14.7725C19.9292 15.1446 20.1741 15.7997 20.1818 16.5256C20.1945 17.7233 19.5708 18.7435 18.7914 18.8003C18.5242 18.8195 18.2635 18.7186 18.0362 18.5084C17.6338 18.1363 17.3889 17.4812 17.3811 16.7553C17.3684 15.5576 17.9922 14.5374 18.7716 14.4805C18.7934 14.4793 18.8148 14.4785 18.8363 14.4785Z" fill="#371A45"/>
<g opacity="0.5">
<path d="M8.53035 11.7126C8.53035 11.7126 5.95291 12.0115 4.59983 13.5615L4.59553 13.5664C4.31219 13.892 4.12052 14.2876 4.04033 14.7125C3.9345 15.2722 3.94414 15.6727 3.96633 16.0249C4.03429 17.096 4.26838 17.584 4.26838 17.584C3.61781 17.0604 3.23083 16.4417 3.16473 15.5502C3.15845 15.4623 3.15524 15.3715 3.15508 15.278C3.15508 15.2565 3.15509 15.2351 3.15601 15.2137C3.15601 15.2137 3.15601 15.213 3.15601 15.2124C3.17258 14.9723 3.20362 14.7335 3.24895 14.4972C3.40939 13.6595 3.81251 12.5536 4.82207 11.9837C6.71025 10.9181 8.61214 11.5947 8.53035 11.7126Z" fill="#FEF7FF"/>
</g>
<g opacity="0.5">
<path d="M13.1348 14.7224C12.9634 14.0419 13.3024 13.3688 13.892 13.2189C14.4815 13.069 15.0983 13.4991 15.2697 14.1796C15.441 14.86 15.102 15.5331 14.5125 15.683C13.923 15.8329 13.3061 15.4028 13.1348 14.7224Z" fill="#FEF7FF"/>
</g>
<g opacity="0.5">
<path d="M14.3188 16.8462C14.2223 16.573 14.3359 16.2831 14.5725 16.1988C14.809 16.1145 15.079 16.2676 15.1754 16.5409C15.2719 16.8141 15.1583 17.104 14.9218 17.1883C14.6852 17.2726 14.4153 17.1195 14.3188 16.8462Z" fill="#FEF7FF"/>
</g>
<path d="M14.3016 10.5612C10.2258 11.77 6.14225 13.659 2.71837 15.7848C2.77192 15.3792 2.89367 15.0056 3.13369 14.6875C5.78362 13.0504 9.11573 11.5636 12.7612 10.1465L14.3016 10.5612Z" fill="#FFC14D"/>
<path d="M2.71833 15.9475C2.74841 15.9475 2.7779 15.9391 2.80349 15.9232C6.34773 13.7228 10.4478 11.8739 14.3475 10.7169C14.3814 10.7068 14.4111 10.686 14.4321 10.6574C14.453 10.6289 14.4642 10.5942 14.4637 10.5587C14.4633 10.5232 14.4513 10.4889 14.4297 10.4609C14.408 10.4328 14.3778 10.4127 14.3437 10.4035L12.8031 9.98866C12.7698 9.97977 12.7347 9.98169 12.7026 9.99414C8.50207 11.6276 5.43449 13.0749 3.0485 14.5487C3.03139 14.5593 3.01638 14.573 3.00424 14.5891C2.76631 14.9042 2.62016 15.2895 2.55743 15.7638C2.55438 15.7868 2.55626 15.8101 2.56294 15.8323C2.56962 15.8545 2.58096 15.875 2.59617 15.8925C2.61139 15.9099 2.63014 15.9239 2.65117 15.9334C2.6722 15.943 2.69502 15.9479 2.7181 15.9479L2.71833 15.9475ZM13.7117 10.5706C10.065 11.7061 6.27652 13.4238 2.94766 15.4529C3.01341 15.2053 3.11181 14.9927 3.24495 14.8092C5.60038 13.3575 8.62997 11.9288 12.7702 10.3166L13.7117 10.5706Z" fill="#371A45"/>
<path d="M6.58605 12.3702C5.73426 12.5028 4.83449 12.9289 3.91067 13.5017C3.71399 13.6237 3.60583 13.8661 3.64347 14.1057C3.80844 15.1658 4.39337 15.7306 5.33009 15.88C5.66234 15.9333 6.00122 15.8166 6.25681 15.5755C7.36627 14.5287 7.61938 13.528 7.01612 12.5733C6.92051 12.4229 6.75461 12.3437 6.58605 12.3702Z" fill="#FFC14D"/>
<g opacity="0.5">
<path d="M3.91065 13.5014C4.83447 12.9286 5.73459 12.5025 6.58603 12.3699C6.7417 12.3456 6.89447 12.4123 6.99194 12.5413C6.14538 12.6769 5.25165 13.1007 4.33399 13.6698C4.13731 13.7916 4.02915 14.0342 4.06679 14.2738C4.18471 15.0311 4.51708 15.5357 5.03882 15.8168C4.27207 15.6021 3.79065 15.0509 3.64345 14.1054C3.60581 13.8659 3.71397 13.6234 3.91065 13.5014Z" fill="#FEF7FF"/>
</g>
<g opacity="0.2">
<path d="M4.83522 15.4812C5.16748 15.5343 5.50636 15.4178 5.76194 15.1766C6.79728 14.1998 7.08675 13.263 6.63034 12.3664C6.78323 12.3592 6.92891 12.4365 7.01581 12.5736C7.61899 13.5283 7.36588 14.529 6.25649 15.5758C6.00091 15.817 5.66203 15.9336 5.32977 15.8804C4.81779 15.7987 4.41107 15.5922 4.1204 15.2491C4.32905 15.3615 4.56767 15.4383 4.83522 15.4812Z" fill="#FFC14D"/>
</g>
<path d="M19.2843 17.4727L18.7082 17.8607C19.2775 18.7012 19.3187 19.2603 18.4443 19.3315H18.3771L17.5273 19.3101C19.4598 21.6639 21.0122 18.9397 19.2843 17.4727Z" fill="#FEDA24"/>
<g opacity="0.2">
<path d="M19.1026 17.595L19.2843 17.4727C20.7203 18.692 19.8905 20.7792 18.4595 20.098C19.5227 20.2076 20.0516 18.6853 19.1026 17.595Z" fill="#371A45"/>
</g>
<path d="M19.0054 20.448C19.0928 20.4483 19.18 20.4386 19.2652 20.4192C19.7224 20.3141 20.0711 19.9359 20.1983 19.409C20.3378 18.8294 20.2081 17.9731 19.4237 17.3066C19.3878 17.2762 19.3431 17.2583 19.2963 17.2557C19.2494 17.2531 19.203 17.2659 19.164 17.2921L18.5879 17.6803C18.5643 17.6962 18.544 17.7167 18.5283 17.7406C18.5126 17.7644 18.5017 17.7912 18.4963 17.8193C18.4909 17.8474 18.4911 17.8763 18.4968 17.9043C18.5026 17.9323 18.5138 17.9589 18.5299 17.9826C18.9571 18.613 18.9201 18.8561 18.8844 18.9312C18.8254 19.055 18.6097 19.099 18.4355 19.114H18.3774L17.5331 19.0926C17.4918 19.0919 17.4511 19.103 17.4158 19.1246C17.3804 19.1461 17.3519 19.1773 17.3335 19.2145C17.3153 19.252 17.3082 19.2939 17.3131 19.3353C17.3179 19.3767 17.3346 19.4158 17.361 19.448C18.0329 20.2667 18.6185 20.448 19.0054 20.448ZM19.2643 17.7471C19.7924 18.2654 19.8807 18.8832 19.7785 19.3067C19.6908 19.6705 19.4627 19.9282 19.1686 19.9962C18.8376 20.0727 18.4395 19.9084 18.0389 19.5396L18.4442 19.548C18.45 19.548 18.4558 19.548 18.4615 19.5473C18.8813 19.5133 19.1545 19.3691 19.2738 19.1185C19.4124 18.8275 19.3273 18.444 19.0054 17.9215L19.2643 17.7471Z" fill="#371A45"/>
<path d="M3.65074 10.8897C8.57652 9.87695 15.3795 10.9754 19.2458 13.8557V13.1421C14.4742 8.39301 7.11482 6.11516 3.65074 10.8897Z" fill="#5A189A"/>
<g opacity="0.2">
<path d="M5.41264 9.22684C8.91645 9.02769 12.6188 9.58207 15.3664 10.9483C15.6309 11.0798 15.9345 10.8639 15.8998 10.5696C15.7169 10.4263 15.5314 10.2862 15.3431 10.1494C16.7365 10.9511 18.0698 11.971 19.2458 13.1415V13.8551C15.3797 10.9754 8.57664 9.87694 3.65074 10.8897C4.16039 10.1872 4.75497 9.63857 5.41264 9.22684Z" fill="#371A45"/>
</g>
<path d="M19.2459 14.0727C19.2743 14.0727 19.3024 14.0671 19.3286 14.0562C19.3548 14.0453 19.3787 14.0293 19.3987 14.0092C19.4188 13.989 19.4347 13.9651 19.4455 13.9387C19.4564 13.9124 19.4619 13.8842 19.4619 13.8557V13.1421C19.4619 13.1134 19.4563 13.085 19.4453 13.0585C19.4343 13.032 19.4182 13.008 19.3979 12.9879C17.8165 11.4139 15.9699 10.1185 14.0578 9.24159C12.067 8.32884 10.1008 7.91992 8.37204 8.05942C6.33248 8.2239 4.63959 9.15836 3.47622 10.7618C3.45057 10.7972 3.43617 10.8396 3.4349 10.8833C3.43363 10.9271 3.44556 10.9702 3.46912 11.007C3.49268 11.0438 3.52677 11.0726 3.56691 11.0896C3.60705 11.1066 3.65137 11.111 3.69405 11.1022C8.82895 10.0466 15.4597 11.3051 19.1173 14.0299C19.1545 14.0577 19.1996 14.0727 19.2459 14.0727ZM19.03 13.2329V13.4346C15.3651 10.9131 9.17422 9.72138 4.17954 10.5698C5.24916 9.33055 6.66846 8.63201 8.40654 8.49192C11.6781 8.22845 15.839 10.0871 19.03 13.2329Z" fill="#371A45"/>
<path d="M4.33704 10.3633C5.61031 9.84333 7.02311 9.72531 8.3806 9.94885C8.5185 9.96858 8.55893 9.76558 8.42057 9.73266C7.72736 9.58499 7.01242 9.51658 6.29702 9.55055C5.5779 9.58446 4.86724 9.72113 4.18648 9.95644C4.15949 9.96609 4.13467 9.98104 4.11348 10.0004C4.09229 10.0198 4.07515 10.0432 4.06305 10.0693C4.05095 10.0954 4.04414 10.1237 4.04301 10.1524C4.04188 10.1812 4.04646 10.2099 4.05647 10.2369C4.06649 10.2639 4.08174 10.2886 4.10134 10.3096C4.12095 10.3306 4.14451 10.3474 4.17066 10.3592C4.19682 10.3709 4.22503 10.3774 4.25368 10.3781C4.28232 10.3788 4.31082 10.3737 4.33751 10.3633H4.33704Z" fill="#371A45"/>
<path d="M0.216722 10.5996C0.198948 11.3 0.621706 11.8637 1.24045 12.1682C1.74 12.4151 2.36734 12.4926 2.99538 12.3364L3.65083 10.8898C5.91112 7.17986 13.363 7.35275 19.2459 13.1421C22.2897 12.9153 23.0461 9.6941 20.0321 8.9003C16.5899 7.56182 15.9387 4.4513 13.6509 2.38929C13.0515 1.85593 12.2729 1.493 11.4138 1.32479C9.79773 1.00785 7.89654 1.37849 6.36571 2.59113C5.67192 3.14072 5.13298 3.86284 4.7761 4.67508C3.89004 6.68806 2.78952 8.39215 1.20536 9.1333C0.630882 9.40273 0.23287 9.96317 0.216722 10.5996Z" fill="#5A189A"/>
<path d="M0.216673 10.5996C0.191813 11.5865 1.04279 12.304 2.08487 12.4047C-0.0411186 11.8828 0.161024 10.3072 1.55581 9.69413C3.54448 9.10648 4.52441 7.14288 5.38515 5.01586C5.64865 4.36356 6.07193 3.78874 6.61567 3.3448C7.69295 2.46601 8.84842 2.06246 10.0687 2.04939C11.7097 2.03246 13.2458 2.87622 14.1476 4.25428C15.2752 5.97752 16.5494 7.45387 18.0293 8.58293C18.4139 8.8764 18.8468 9.09656 19.3042 9.25077C21.3869 9.95374 22.3048 10.949 21.0947 12.4813C22.4307 11.439 22.2826 9.49288 20.032 8.90033C16.5898 7.56185 15.9387 4.45133 13.6508 2.38932C11.923 0.851921 8.71017 0.734135 6.36566 2.59139C5.67187 3.14098 5.13293 3.8631 4.77605 4.67534C3.88999 6.68832 2.78947 8.39241 1.20532 9.13356C0.630835 9.40276 0.232822 9.9632 0.216673 10.5996Z" fill="#FEDA24"/>
<g opacity="0.5">
<path d="M20.3512 9.4038C16.909 8.06532 16.2578 4.9548 13.9699 2.89303C12.2421 1.3554 9.0294 1.23773 6.68489 3.09487C5.99098 3.64445 5.45217 4.36728 5.09517 5.17882C4.2091 7.19179 3.10859 8.89601 1.52444 9.63716C1.27123 9.75547 1.04973 9.9327 0.878273 10.1542C0.550663 10.4948 0.419617 10.9135 0.543692 11.3066C0.558067 11.4517 0.592758 11.594 0.646738 11.7293C0.369431 11.4271 0.205276 11.0405 0.216894 10.5996C0.233042 9.9632 0.631056 9.40275 1.20554 9.13356C2.78957 8.39241 3.89009 6.68832 4.77604 4.67534C5.13292 3.8631 5.67185 3.14098 6.36565 2.59139C8.71016 0.734135 11.923 0.851921 13.6508 2.38932C15.9386 4.45109 16.59 7.56161 20.032 8.90009C20.9963 9.15387 21.5742 9.65618 21.8153 10.2294C21.5015 9.87448 21.0189 9.58019 20.3512 9.4038Z" fill="#FEF7FF"/>
<path d="M21.5651 10.8184C21.7149 10.9786 21.8236 11.1493 21.8875 11.3313C21.7749 11.7562 21.5049 12.1613 21.0947 12.4812C21.6022 11.8385 21.7353 11.2902 21.5651 10.8184Z" fill="#FEF7FF"/>
<path d="M2.08484 12.4052C1.65279 12.3634 1.25384 12.2152 0.936341 11.9862C0.90512 11.9273 0.879563 11.8655 0.860015 11.8018C1.11746 12.0518 1.51849 12.2657 2.08484 12.4052Z" fill="#FEF7FF"/>
</g>
<path d="M19.2459 13.3591C19.2512 13.3591 19.2566 13.3591 19.2619 13.3591C21.1185 13.2208 22.0631 12.0686 22.1547 11.0567C22.2327 10.1989 21.7331 9.12912 20.0984 8.69417C18.0004 7.87469 16.9904 6.40325 15.9212 4.84554C15.302 3.94189 14.6612 3.00859 13.7949 2.22799C12.9052 1.43652 11.6105 0.990014 10.2379 1.00017C8.7966 1.01184 7.37393 1.51614 6.23194 2.42072C5.52816 2.97789 4.95693 3.7271 4.57832 4.58743C3.54681 6.93182 2.44605 8.31385 1.11435 8.93709C0.45541 9.24551 0.0182457 9.89584 0.000587463 10.5947C-0.0140514 11.1758 0.23979 11.7073 0.715176 12.0909C1.3309 12.5874 2.20221 12.7583 3.04749 12.5478C3.07908 12.5399 3.10849 12.525 3.13352 12.504C3.15855 12.4831 3.17854 12.4568 3.19201 12.427L3.84177 10.9924C4.61654 9.72984 6.05861 8.90849 7.90415 8.67876C11.4614 8.23622 15.7495 10.0058 19.0948 13.2977C19.1353 13.3372 19.1895 13.3592 19.2459 13.3591ZM10.2875 1.43419C11.5365 1.43419 12.7077 1.84066 13.5075 2.55204C14.3342 3.2974 14.9607 4.20945 15.5656 5.09138C16.6272 6.6373 17.7245 8.23587 19.9542 9.10274C19.9618 9.10571 19.9696 9.1082 19.9774 9.11021C21.1345 9.41489 21.8042 10.1454 21.7249 11.016C21.6506 11.8348 20.8682 12.7671 19.3259 12.9169C17.5658 11.2028 15.5412 9.87331 13.4653 9.06947C11.5205 8.31653 9.57927 8.03228 7.85106 8.24742C5.86692 8.49432 4.30972 9.39248 3.46653 10.7764C3.46194 10.7839 3.45778 10.7917 3.4541 10.7997L2.84326 12.1484C2.16875 12.287 1.4652 12.1387 0.985628 11.7515C0.617704 11.4546 0.421371 11.0473 0.432524 10.6047C0.445999 10.0698 0.785229 9.56945 1.29674 9.33014C2.72836 8.66043 3.89707 7.20907 4.97343 4.763C5.32369 3.9671 5.85135 3.2751 6.49937 2.76182C7.56643 1.91654 8.89535 1.44516 10.2412 1.43442L10.2875 1.43419Z" fill="#371A45"/>
<path d="M21.0945 12.698C21.127 12.6981 21.1591 12.6908 21.1884 12.6766C21.2178 12.6625 21.2435 12.6418 21.2638 12.6163C21.7755 11.9686 21.9541 11.3658 21.7946 10.8247C21.5825 10.1056 20.7905 9.52373 19.3729 9.04558C18.9198 8.89289 18.5124 8.67927 18.1602 8.41043C16.7689 7.34849 15.5153 5.94965 14.328 4.13489C13.3732 2.67571 11.7785 1.81467 10.0668 1.8323C8.76284 1.84595 7.55579 2.29795 6.47943 3.17592C5.90772 3.64329 5.46253 4.24798 5.18502 4.93406C4.3804 6.92346 3.43277 8.91355 1.49475 9.4859C1.48594 9.48846 1.47733 9.49162 1.46895 9.49536C0.694538 9.83623 0.23019 10.4711 0.285837 11.113C0.346828 11.8107 0.984858 12.3584 2.0374 12.6164C2.09306 12.63 2.15182 12.6209 2.20077 12.5909C2.24971 12.561 2.28482 12.5128 2.29838 12.4569C2.31194 12.4009 2.30283 12.3419 2.27306 12.2927C2.24329 12.2435 2.19529 12.2082 2.13963 12.1946C1.27843 11.9839 0.759596 11.5759 0.716146 11.0749C0.677113 10.6247 1.03539 10.1644 1.63021 9.89786C3.74341 9.26621 4.74275 7.18016 5.58524 5.09702C5.83533 4.47886 6.23649 3.93404 6.75163 3.51293C7.76444 2.6868 8.85032 2.27904 10.0713 2.26643C10.087 2.26643 10.103 2.26643 10.1187 2.26643C11.6665 2.26643 13.1022 3.05148 13.9671 4.37362C15.1823 6.22982 16.468 7.66379 17.8989 8.75584C18.2887 9.05317 18.7384 9.28897 19.2349 9.45625C20.4914 9.88059 21.2137 10.3822 21.3803 10.9477C21.4975 11.3451 21.3445 11.8156 20.9255 12.346C20.9002 12.378 20.8844 12.4164 20.88 12.457C20.8755 12.4975 20.8824 12.5385 20.9001 12.5753C20.9177 12.612 20.9453 12.643 20.9797 12.6647C21.0141 12.6864 21.0539 12.698 21.0945 12.698Z" fill="#371A45"/>
<path d="M2.55957 12.4074L2.09487 12.4058C2.24941 12.4201 2.40493 12.4207 2.55957 12.4074Z" fill="#FEDA24"/>
<path d="M2.08475 12.4052C2.08575 12.4057 2.08688 12.4061 2.08804 12.4062H2.09521C2.0917 12.4061 2.08821 12.4058 2.08475 12.4052Z" fill="#FEDA24"/>
<g opacity="0.2">
<path d="M1.24045 12.1682C1.74 12.4151 2.36734 12.4926 2.99538 12.3364L3.65083 10.8899C5.91112 7.1799 13.363 7.35279 19.2459 13.1421C22.2897 12.9153 23.0461 9.69414 20.0321 8.90034C16.5899 7.56186 15.9387 4.45134 13.6509 2.38933C13.0515 1.85597 12.2729 1.49304 11.4138 1.32483C13.4884 2.1945 15.2762 4.04137 16.6639 7.25286C17.0089 8.05203 16.2248 8.87291 15.4128 8.568C12.1514 7.34567 9.17736 7.34893 6.40358 8.20834C5.06444 8.62333 3.92303 9.49417 3.11086 10.6412C2.68914 11.2378 2.02776 11.7303 1.24045 12.1682Z" fill="#371A45"/>
</g>
<g opacity="0.5">
<path d="M6.52045 4.49176C6.41609 4.31014 6.90081 3.83262 7.6031 3.42519C8.30539 3.01777 8.95931 2.83473 9.06367 3.01635C9.16803 3.19798 8.68331 3.6755 7.98102 4.08292C7.27873 4.49035 6.62481 4.67339 6.52045 4.49176Z" fill="#FEF7FF"/>
</g>
<path d="M6.80072 13.0741C6.89444 13.3065 6.89858 13.5657 6.81234 13.801C6.79712 13.8422 6.75762 13.8702 6.71277 13.8578C6.67339 13.847 6.64086 13.7995 6.6562 13.7578C6.73344 13.5506 6.72929 13.3216 6.64458 13.1174C6.62773 13.0768 6.6627 13.0279 6.70116 13.0172C6.74763 13.0044 6.78387 13.0333 6.80083 13.0741H6.80072Z" fill="#371A45"/>
<path d="M6.62029 14.3256C6.55486 14.5029 6.46411 14.6697 6.35088 14.8207C6.32532 14.8545 6.2799 14.8758 6.24005 14.8499C6.20682 14.8284 6.18359 14.7748 6.211 14.7386C6.26477 14.6677 6.31337 14.593 6.35645 14.5151C6.37806 14.4762 6.39828 14.4362 6.4171 14.3952C6.43743 14.3512 6.44649 14.3291 6.46357 14.2823C6.47844 14.2426 6.51898 14.2111 6.56324 14.2255C6.60181 14.2381 6.63574 14.283 6.61982 14.3256H6.62029Z" fill="#371A45"/>
<path d="M5.98215 15.2002C5.81393 15.4031 5.53883 15.5021 5.28173 15.444C5.23898 15.4344 5.214 15.3848 5.22516 15.3439C5.2312 15.3233 5.24497 15.3059 5.26356 15.2952C5.28216 15.2846 5.30412 15.2817 5.32483 15.2871C5.37255 15.2979 5.42162 15.3015 5.4704 15.2977C5.52109 15.2935 5.57099 15.2826 5.61875 15.265C5.71605 15.2282 5.80191 15.1661 5.8676 15.0851C5.8956 15.0514 5.95322 15.056 5.98215 15.0851C6.01537 15.1186 6.01026 15.1668 5.98215 15.2002Z" fill="#371A45"/>
<path d="M4.78138 15.2542C4.62375 15.1967 4.48207 15.1022 4.36815 14.9786C4.33945 14.9473 4.33504 14.894 4.36815 14.8635C4.3994 14.8346 4.45202 14.8301 4.48269 14.8635C4.50784 14.8909 4.53444 14.9169 4.56239 14.9414C4.56959 14.9477 4.5768 14.9538 4.58411 14.9599L4.59399 14.9679C4.6099 14.9809 4.58551 14.9616 4.59504 14.9687C4.61025 14.9804 4.62547 14.9913 4.64151 15.0019C4.67185 15.0224 4.70335 15.0411 4.73584 15.0579C4.75133 15.0657 4.76724 15.0735 4.78359 15.0813C4.7923 15.0851 4.79311 15.087 4.78428 15.0813C4.78802 15.0832 4.79191 15.0847 4.7959 15.0859C4.80554 15.0899 4.81518 15.0935 4.82494 15.0976C4.86467 15.1121 4.89569 15.1535 4.88152 15.1977C4.86886 15.2369 4.82448 15.2702 4.78184 15.2545L4.78138 15.2542Z" fill="#371A45"/>
<path d="M5.49091 16.0559C5.80725 16.0559 6.11825 15.9291 6.36744 15.694C7.5365 14.591 7.80057 13.5111 7.15255 12.486C7.02336 12.2816 6.79124 12.1728 6.56122 12.2087C5.77507 12.3311 4.88029 12.7085 3.82566 13.3625C3.57368 13.5188 3.43602 13.8273 3.48318 14.1302C3.65454 15.2319 4.26736 15.8747 5.30433 16.0407C5.36603 16.0507 5.42841 16.0558 5.49091 16.0559ZM6.64998 12.5277C6.74036 12.5277 6.82563 12.5764 6.87907 12.6609C7.4395 13.5481 7.1996 14.4626 6.14566 15.4572C5.92168 15.6684 5.63345 15.7642 5.35568 15.7196C4.46114 15.5763 3.95299 15.0401 3.80359 14.0803C3.77629 13.9052 3.85378 13.7282 3.99621 13.6398C5.01331 13.0095 5.8687 12.6464 6.61117 12.5308C6.62401 12.5288 6.63698 12.5277 6.64998 12.5277Z" fill="#371A45"/>
<path d="M4.09795 14.4816C4.04938 14.3469 4.00078 14.2121 3.95215 14.0772C3.93762 14.0371 3.96829 13.9863 4.00872 13.9771C4.02941 13.9719 4.05128 13.9749 4.06981 13.9855C4.08834 13.9961 4.10212 14.0134 4.10829 14.0339L4.2542 14.4384C4.26861 14.4785 4.23794 14.5292 4.19762 14.5385C4.17692 14.5437 4.15502 14.5407 4.13646 14.5301C4.11791 14.5195 4.10411 14.5021 4.09795 14.4816Z" fill="#371A45"/>
</svg>
