<svg width="84" height="84" viewBox="0 0 84 84" fill="none" xmlns="http://www.w3.org/2000/svg">
<path d="M18.6284 20.8796C18.9828 20.4882 19.3486 20.1035 19.726 19.7261C21.418 18.0342 23.2545 16.5749 25.1958 15.3484C24.0971 15.0456 23.1095 14.8662 22.2439 14.8009C20.2407 14.6498 19.3634 15.1255 18.9893 15.4997C18.6151 15.8738 18.1394 16.7511 18.2905 18.7542C18.339 19.3969 18.4504 20.1069 18.6284 20.8796ZM72.5399 49.7375C72.7555 50.168 72.962 50.595 73.1597 51.0181C74.8275 54.592 75.9293 58.0804 76.1655 61.2161C76.4011 64.3367 75.7959 67.5875 73.4366 69.9468C71.0769 72.3065 67.8264 72.9113 64.7058 72.6761C61.9737 72.47 58.9739 71.6072 55.883 70.2853L55.8739 70.2895C55.3381 70.0602 54.7994 69.8173 54.2587 69.5611C47.1432 66.1931 39.0022 60.2718 31.3596 52.6292C23.7248 44.9946 17.8082 36.8627 14.4381 29.7526C14.1811 29.2104 13.9371 28.6702 13.7069 28.1329L13.7106 28.1254C12.3834 25.0268 11.5169 22.0193 11.3103 19.2807C11.075 16.16 11.68 12.9094 14.0395 10.5499C16.3991 8.19041 19.6496 7.58536 22.7703 7.82074C25.906 8.05723 29.3943 9.159 32.9681 10.8268C33.3988 11.0277 33.8333 11.2381 34.2712 11.4578C44.668 8.83742 56.1413 11.5935 64.2739 19.7261C72.4086 27.861 75.1642 39.3383 72.5399 49.7375ZM68.6447 58.8147C67.4194 60.7523 65.9627 62.5849 64.2739 64.2737C63.8994 64.6482 63.5176 65.0115 63.1294 65.3632C63.8935 65.5382 64.5959 65.6478 65.2322 65.6957C67.2353 65.8469 68.1127 65.3713 68.4869 64.9971C68.861 64.623 69.3367 63.7459 69.1855 61.7425C69.1207 60.8832 68.9436 59.9039 68.6447 58.8147ZM19.726 64.2737C11.8033 56.3511 8.98322 45.2582 11.2656 35.0784C15.0536 42.0112 20.733 49.4274 27.6472 56.3416C34.567 63.2615 41.9898 68.9448 48.9278 72.7328C38.7467 75.018 27.6504 72.1984 19.726 64.2737Z" fill="url(#paint0_linear_482_33949)"/>
<defs>
<linearGradient id="paint0_linear_482_33949" x1="10.4999" y1="11.2946" x2="78.2936" y2="17.1131" gradientUnits="userSpaceOnUse">
<stop stop-color="#5A189A"/>
<stop offset="1" stop-color="#C77DFF"/>
</linearGradient>
</defs>
</svg>
