<svg width="84" height="84" viewBox="0 0 84 84" fill="none" xmlns="http://www.w3.org/2000/svg">
<path d="M30.0306 18.2831L31.9144 20.3211L33.2879 24.5649L33.288 24.5649L33.5024 25.2265L33.5025 25.2268L33.6222 25.6047L33.6332 25.6396H33.6384L35.2239 30.5417L35.2239 30.5418L35.8027 32.3184L35.8027 32.3184L38.7881 41.5282L35.4789 42.0025L35.4789 42.0025L33.6857 42.2615L32.2009 39.777L32.2009 39.777L30.9934 37.7516L30.9934 37.7515L21.9364 22.5966L21.9394 22.5906V22.5876L27.7543 12.8558L30.0212 18.2685L30.0246 18.2766L30.0306 18.2831Z" fill="url(#paint0_linear_220_9996)" stroke="#FEF7FF" stroke-width="0.1"/>
<path d="M43.9437 35.2042L43.4688 39.8766L41.8733 39.8621L41.8733 39.8621L39.9188 39.8426L39.1935 35.8218V35.8213H39.1943L39.1928 35.8127L39.093 35.2404L39.0929 35.2401L38.0601 29.542L38.0601 29.542L37.5212 26.5611L37.5212 26.561L37.1571 24.5369L42.015 24.3008L42.015 24.3008L44.2301 24.1913L44.2304 24.1913L45.0804 24.1541L44.5574 29.2471L44.5574 29.2472L44.3229 31.5065L44.3229 31.5066L44.0135 34.552L44.0135 34.5522L43.9437 35.2039L43.9437 35.2042Z" fill="url(#paint1_linear_220_9996)" stroke="#FEF7FF" stroke-width="0.1"/>
<path d="M25.6937 25.0005L25.6936 25.0005L21.9199 22.5656L21.0231 20.3345L22.4874 12.4111L22.4879 12.4112L22.4882 12.4043L22.5025 12.0898L22.5048 12.0865L22.5049 12.0866L22.5071 12.0827L23.4507 10.3605L27.7253 12.782L31.8979 20.293L28.5899 24.8339L28.5899 24.8339L27.58 26.219L25.6937 25.0005Z" fill="url(#paint2_linear_220_9996)" stroke="#FEF7FF" stroke-width="0.1"/>
<g style="mix-blend-mode:screen" opacity="0.5">
<path d="M25.7286 25.0004L21.9326 22.5473L21.0281 20.3144L22.4921 12.4126L22.4968 12.3942L22.4977 12.3944L22.4982 12.3843L22.5129 12.067L23.4606 10.3405L27.7303 12.762L31.9046 20.2719L28.585 24.8337L28.585 24.8338L27.585 26.199L25.7286 25.0004L25.7286 25.0004Z" fill="url(#paint3_radial_220_9996)" style="mix-blend-mode:screen"/>
<path d="M25.7286 25.0004L21.9326 22.5473L21.0281 20.3144L22.4921 12.4126L22.4968 12.3942L22.4977 12.3944L22.4982 12.3843L22.5129 12.067L23.4606 10.3405L27.7303 12.762L31.9046 20.2719L28.585 24.8337L28.585 24.8338L27.585 26.199L25.7286 25.0004L25.7286 25.0004Z" stroke="#FEF7FF" stroke-width="0.1"/>
</g>
<path d="M37.8269 25.967L37.8268 25.967L37.1537 24.4919L37.9791 22.9874L42.416 15.9762L43.9773 17.0638L45.0833 24.0881L43.565 26.0483L39.8292 27.0492L39.8291 27.0492L38.4829 27.4066L37.8269 25.967Z" fill="url(#paint4_linear_220_9996)" stroke="#FEF7FF" stroke-width="0.1"/>
<g style="mix-blend-mode:multiply" opacity="0.5">
<path d="M31.9412 20.4032L33.2857 24.5573V24.5623L33.2882 24.5699L33.5026 25.2264L33.5027 25.2268L33.6223 25.6046L33.6334 25.6395H33.6386L35.2241 30.5416L35.2241 30.5417L35.8029 32.3183L35.8029 32.3183L38.7883 41.5281L35.5148 41.9973L32.612 36.1921L32.5982 36.1644H32.5932L31.9384 34.8534L31.9384 34.8533L27.6623 26.3136L27.6623 26.3136L27.651 26.291L28.6709 24.8924L28.6709 24.8923L31.9412 20.4032Z" fill="url(#paint5_linear_220_9996)" style="mix-blend-mode:multiply"/>
<path d="M31.9412 20.4032L33.2857 24.5573V24.5623L33.2882 24.5699L33.5026 25.2264L33.5027 25.2268L33.6223 25.6046L33.6334 25.6395H33.6386L35.2241 30.5416L35.2241 30.5417L35.8029 32.3183L35.8029 32.3183L38.7883 41.5281L35.5148 41.9973L32.612 36.1921L32.5982 36.1644H32.5932L31.9384 34.8534L31.9384 34.8533L27.6623 26.3136L27.6623 26.3136L27.651 26.291L28.6709 24.8924L28.6709 24.8923L31.9412 20.4032Z" stroke="#FEF7FF" stroke-width="0.1"/>
</g>
<g style="mix-blend-mode:multiply" opacity="0.5">
<path d="M43.5143 39.877L41.9309 39.8626L41.9321 39.855L41.9321 39.855L41.9323 39.8535L42.4811 35.4294L42.4811 35.4293L42.541 34.9417L42.541 34.9416L42.9352 31.7966L42.9352 31.7964L43.1298 30.214L43.1298 30.2139L43.642 26.112L45.0698 24.2686L44.5971 29.2325L44.5971 29.2326L44.3776 31.4969L44.3776 31.497L44.0882 34.5476L44.0882 34.5477L44.0283 35.1945L44.0283 35.1947L43.5835 39.877H43.5145H43.5143Z" fill="url(#paint6_linear_220_9996)" style="mix-blend-mode:multiply"/>
<path d="M43.5143 39.877L41.9309 39.8626L41.9321 39.855L41.9321 39.855L41.9323 39.8535L42.4811 35.4294L42.4811 35.4293L42.541 34.9417L42.541 34.9416L42.9352 31.7966L42.9352 31.7964L43.1298 30.214L43.1298 30.2139L43.642 26.112L45.0698 24.2686L44.5971 29.2325L44.5971 29.2326L44.3776 31.4969L44.3776 31.497L44.0882 34.5476L44.0882 34.5477L44.0283 35.1945L44.0283 35.1947L43.5835 39.877H43.5145H43.5143Z" stroke="#FEF7FF" stroke-width="0.1"/>
</g>
<path d="M38.4816 27.4073L37.8203 26.0662L39.7116 27.0819L38.4816 27.4073Z" fill="#C8EAFE" stroke="#FEF7FF" stroke-width="0.1"/>
<g style="mix-blend-mode:multiply" opacity="0.5">
<path d="M44.3776 31.4969L44.3776 31.497L44.0882 34.5476L44.0882 34.5477L44.0283 35.1945L44.0283 35.1947L43.5838 39.875L43.5166 39.8721L43.5165 39.8721L41.885 39.7974L41.8849 39.7974L40.2399 39.7246L39.5771 35.033L39.5771 35.0329L39.5073 34.5454L39.5072 34.5452L38.7688 29.2951L38.7688 29.2949L38.5747 27.9548V27.9534H38.5752L38.5742 27.9463L38.5106 27.5026L39.8548 27.1458L39.8549 27.1457L43.6071 26.1405L43.6233 26.1361L43.6337 26.1228L45.0698 24.2686L44.5972 29.2325L44.5972 29.2326L44.3776 31.4969Z" fill="url(#paint7_linear_220_9996)" style="mix-blend-mode:multiply"/>
<path d="M44.3776 31.4969L44.3776 31.497L44.0882 34.5476L44.0882 34.5477L44.0283 35.1945L44.0283 35.1947L43.5838 39.875L43.5166 39.8721L43.5165 39.8721L41.885 39.7974L41.8849 39.7974L40.2399 39.7246L39.5771 35.033L39.5771 35.0329L39.5073 34.5454L39.5072 34.5452L38.7688 29.2951L38.7688 29.2949L38.5747 27.9548V27.9534H38.5752L38.5742 27.9463L38.5106 27.5026L39.8548 27.1458L39.8549 27.1457L43.6071 26.1405L43.6233 26.1361L43.6337 26.1228L45.0698 24.2686L44.5972 29.2325L44.5972 29.2326L44.3776 31.4969Z" stroke="#FEF7FF" stroke-width="0.1"/>
</g>
<g style="mix-blend-mode:screen" opacity="0.5">
<path d="M22.507 12.0827L23.4506 10.3605L27.5478 12.6815L22.4904 12.355L22.5025 12.0898L22.5047 12.0865L22.5049 12.0866L22.507 12.0827Z" fill="url(#paint8_linear_220_9996)" style="mix-blend-mode:screen"/>
<path d="M22.507 12.0827L23.4506 10.3605L27.5478 12.6815L22.4904 12.355L22.5025 12.0898L22.5047 12.0865L22.5049 12.0866L22.507 12.0827Z" stroke="#FEF7FF" stroke-width="0.1"/>
</g>
<g style="mix-blend-mode:screen" opacity="0.5">
<path d="M44.5209 24.4188L43.5865 26.0064L39.3212 21.0366L39.4447 20.7402L44.5209 24.4188Z" fill="url(#paint9_linear_220_9996)" style="mix-blend-mode:screen"/>
<path d="M44.5209 24.4188L43.5865 26.0064L39.3212 21.0366L39.4447 20.7402L44.5209 24.4188Z" stroke="#FEF7FF" stroke-width="0.1"/>
</g>
<path d="M27.7198 26.3417L25.6785 25.0927L28.55 24.9188L27.7198 26.3417Z" fill="#C8EAFE" stroke="#FEF7FF" stroke-width="0.1"/>
<g style="mix-blend-mode:screen" opacity="0.6">
<path d="M33.4148 32.5912C33.5153 32.5734 33.6362 32.4955 33.768 32.383C33.9023 32.2683 34.0555 32.111 34.2206 31.9239C34.5341 31.5684 34.8939 31.1016 35.2543 30.6056L35.792 32.2561C35.0692 32.8407 34.3566 33.4754 33.78 34.1071C33.1973 34.7457 32.7495 35.3858 32.5741 35.9716L32.572 35.9786V35.9859C32.572 36.0088 32.5648 36.034 32.5531 36.0667C32.5511 36.0723 32.5489 36.0782 32.5466 36.0843C32.5367 36.111 32.5252 36.1422 32.5183 36.1738C32.2614 37.2964 32.1243 38.4428 32.1093 39.5938L31.005 37.7415L31.8359 35.1862L31.8359 35.1862L31.8359 35.1861L31.836 35.1858L31.8362 35.1852L31.8364 35.1848L31.8378 35.1807L31.8433 35.1647C31.8481 35.1506 31.8551 35.1296 31.8642 35.1021C31.8824 35.0471 31.9087 34.966 31.9411 34.8614C32.1561 34.1956 32.6481 32.5676 33.021 30.6281C33.0931 30.2527 33.1609 29.8654 33.2213 29.471C33.1989 29.7552 33.1798 30.0287 33.1646 30.2873C33.1246 30.9664 33.1117 31.545 33.1393 31.9482C33.1531 32.149 33.1772 32.3104 33.2149 32.4195C33.2337 32.4737 33.2574 32.5202 33.2892 32.5516C33.323 32.585 33.3662 32.6014 33.4148 32.5912ZM33.4148 32.5912C33.4145 32.5913 33.4142 32.5913 33.4139 32.5914L33.4053 32.5421L33.4159 32.591C33.4155 32.5911 33.4152 32.5911 33.4148 32.5912ZM33.6238 25.58C33.5763 25.9732 33.5291 26.3772 33.4837 26.7831C33.5035 26.1867 33.493 25.5979 33.4428 25.0322L33.5025 25.2124L33.5026 25.2125L33.6238 25.58ZM35.2352 30.5469C35.2473 30.5302 35.2593 30.5135 35.2714 30.4968L35.2906 30.5556L35.2352 30.5469Z" fill="url(#paint10_linear_220_9996)" style="mix-blend-mode:screen"/>
<path d="M33.4148 32.5912C33.5153 32.5734 33.6362 32.4955 33.768 32.383C33.9023 32.2683 34.0555 32.111 34.2206 31.9239C34.5341 31.5684 34.8939 31.1016 35.2543 30.6056L35.792 32.2561C35.0692 32.8407 34.3566 33.4754 33.78 34.1071C33.1973 34.7457 32.7495 35.3858 32.5741 35.9716L32.572 35.9786V35.9859C32.572 36.0088 32.5648 36.034 32.5531 36.0667C32.5511 36.0723 32.5489 36.0782 32.5466 36.0843C32.5367 36.111 32.5252 36.1422 32.5183 36.1738C32.2614 37.2964 32.1243 38.4428 32.1093 39.5938L31.005 37.7415L31.8359 35.1862L31.8359 35.1862L31.8359 35.1861L31.836 35.1858L31.8362 35.1852L31.8364 35.1848L31.8378 35.1807L31.8433 35.1647C31.8481 35.1506 31.8551 35.1296 31.8642 35.1021C31.8824 35.0471 31.9087 34.966 31.9411 34.8614C32.1561 34.1956 32.6481 32.5676 33.021 30.6281C33.0931 30.2527 33.1609 29.8654 33.2213 29.471C33.1989 29.7552 33.1798 30.0287 33.1646 30.2873C33.1246 30.9664 33.1117 31.545 33.1393 31.9482C33.1531 32.149 33.1772 32.3104 33.2149 32.4195C33.2337 32.4737 33.2574 32.5202 33.2892 32.5516C33.323 32.585 33.3662 32.6014 33.4148 32.5912ZM33.4148 32.5912C33.4145 32.5913 33.4142 32.5913 33.4139 32.5914L33.4053 32.5421L33.4159 32.591C33.4155 32.5911 33.4152 32.5911 33.4148 32.5912ZM33.6238 25.58C33.5763 25.9732 33.5291 26.3772 33.4837 26.7831C33.5035 26.1867 33.493 25.5979 33.4428 25.0322L33.5025 25.2124L33.5026 25.2125L33.6238 25.58ZM35.2352 30.5469C35.2473 30.5302 35.2593 30.5135 35.2714 30.4968L35.2906 30.5556L35.2352 30.5469Z" stroke="#FEF7FF" stroke-width="0.1"/>
</g>
<g style="mix-blend-mode:screen" opacity="0.6">
<path d="M44.3726 31.4519V31.4517L44.3678 31.4521C43.8582 31.5014 43.3542 31.5969 42.862 31.7375L42.8619 31.7375C42.3164 31.8942 41.8038 32.1481 41.349 32.487L41.3489 32.4868L41.3455 32.4898C40.562 33.1895 39.9298 34.0414 39.4878 34.9933C39.3778 35.2046 39.2712 35.4191 39.1706 35.6288L39.101 35.233C39.223 35.0101 39.3592 34.7822 39.5052 34.5492L39.5052 34.5492L39.506 34.5479C40.4597 32.9137 41.6802 31.4497 43.1174 30.2165C43.5692 29.848 44.0644 29.5359 44.592 29.2873L44.3821 31.4519H44.3726Z" fill="url(#paint11_linear_220_9996)" style="mix-blend-mode:screen"/>
<path d="M44.3726 31.4519V31.4517L44.3678 31.4521C43.8582 31.5014 43.3542 31.5969 42.862 31.7375L42.8619 31.7375C42.3164 31.8942 41.8038 32.1481 41.349 32.487L41.3489 32.4868L41.3455 32.4898C40.562 33.1895 39.9298 34.0414 39.4878 34.9933C39.3778 35.2046 39.2712 35.4191 39.1706 35.6288L39.101 35.233C39.223 35.0101 39.3592 34.7822 39.5052 34.5492L39.5052 34.5492L39.506 34.5479C40.4597 32.9137 41.6802 31.4497 43.1174 30.2165C43.5692 29.848 44.0644 29.5359 44.592 29.2873L44.3821 31.4519H44.3726Z" stroke="#FEF7FF" stroke-width="0.1"/>
</g>
<g style="mix-blend-mode:screen" opacity="0.6">
<path d="M42.4248 35.3637L41.1098 35.5389C41.5614 35.3177 42.0283 35.1286 42.5069 34.9731L42.5072 34.973C43.0157 34.8047 43.5375 34.679 44.067 34.5974H44.0878L44.0329 35.1493H43.9933V35.1488L43.9866 35.1498L42.425 35.3637L42.4248 35.3637Z" fill="url(#paint12_linear_220_9996)" style="mix-blend-mode:screen"/>
<path d="M42.4248 35.3637L41.1098 35.5389C41.5614 35.3177 42.0283 35.1286 42.5069 34.9731L42.5072 34.973C43.0157 34.8047 43.5375 34.679 44.067 34.5974H44.0878L44.0329 35.1493H43.9933V35.1488L43.9866 35.1498L42.425 35.3637L42.4248 35.3637Z" stroke="#FEF7FF" stroke-width="0.1"/>
</g>
<g style="mix-blend-mode:screen" opacity="0.5">
<path d="M35.8028 32.3186L38.7882 41.5284L35.479 42.0027L35.4789 42.0027L33.6857 42.2617L32.201 39.7772L32.2009 39.7772L30.9935 37.7518L30.9934 37.7517L21.9244 22.5766L21.0231 20.3343L22.4874 12.411L22.4879 12.4111L22.4882 12.4042L22.5025 12.0897L22.5048 12.0863L22.5132 12.0737V12.0664L23.4606 10.3405L27.7303 12.762L31.9049 20.2724L31.889 20.2962L31.9146 20.3216L33.288 24.5651L33.288 24.5651L33.5024 25.2267L33.5025 25.227L33.6222 25.6049L33.6332 25.6398H33.6385L35.2239 30.5419L35.224 30.542L35.8027 32.3186L35.8028 32.3186Z" fill="url(#paint13_linear_220_9996)" style="mix-blend-mode:screen"/>
<path d="M35.8028 32.3186L38.7882 41.5284L35.479 42.0027L35.4789 42.0027L33.6857 42.2617L32.201 39.7772L32.2009 39.7772L30.9935 37.7518L30.9934 37.7517L21.9244 22.5766L21.0231 20.3343L22.4874 12.411L22.4879 12.4111L22.4882 12.4042L22.5025 12.0897L22.5048 12.0863L22.5132 12.0737V12.0664L23.4606 10.3405L27.7303 12.762L31.9049 20.2724L31.889 20.2962L31.9146 20.3216L33.288 24.5651L33.288 24.5651L33.5024 25.2267L33.5025 25.227L33.6222 25.6049L33.6332 25.6398H33.6385L35.2239 30.5419L35.224 30.542L35.8027 32.3186L35.8028 32.3186Z" stroke="#FEF7FF" stroke-width="0.1"/>
</g>
<g style="mix-blend-mode:screen" opacity="0.5">
<path d="M44.3777 31.497L44.3777 31.4971L44.0883 34.5477L44.0883 34.5478L44.0285 35.1946L44.0284 35.1947L43.5837 39.8771L43.5149 39.8771L43.5144 39.8771L41.8733 39.8622H41.8733L39.9188 39.8427L39.1935 35.8219V35.8214H39.1943L39.1928 35.8128L39.093 35.2405L39.0929 35.2402L38.0601 29.5421L38.0601 29.5421L37.5212 26.5612L37.5212 26.5611L37.1501 24.4984L37.9791 22.9874L42.416 15.9762L43.9773 17.0638L45.0857 24.1032L44.5973 29.2326L44.5973 29.2327L44.3777 31.497Z" fill="url(#paint14_linear_220_9996)" style="mix-blend-mode:screen"/>
<path d="M44.3777 31.497L44.3777 31.4971L44.0883 34.5477L44.0883 34.5478L44.0285 35.1946L44.0284 35.1947L43.5837 39.8771L43.5149 39.8771L43.5144 39.8771L41.8733 39.8622H41.8733L39.9188 39.8427L39.1935 35.8219V35.8214H39.1943L39.1928 35.8128L39.093 35.2405L39.0929 35.2402L38.0601 29.5421L38.0601 29.5421L37.5212 26.5612L37.5212 26.5611L37.1501 24.4984L37.9791 22.9874L42.416 15.9762L43.9773 17.0638L45.0857 24.1032L44.5973 29.2326L44.5973 29.2327L44.3777 31.497Z" stroke="#FEF7FF" stroke-width="0.1"/>
</g>
<path d="M62.181 62.4121L63.3212 63.8631L61.1169 69.7523L57.5578 71.8526L50.6575 69.9919L50.576 69.9699L50.5959 70.0519L51.4567 73.6081L42.6676 72.3495L42.3557 70.9153L42.3557 70.9153L42.3553 70.9138L42.3354 70.8342L42.3238 70.788L42.2771 70.7973L42.2545 70.8018L35.6941 71.4671L23.1394 65.7118L23.47 64.2034L23.4804 64.1561L23.4335 64.1442L15.5403 62.144L23.1128 47.0388H48.2188H48.2195L51.0721 47.1233L51.0721 47.1234H51.0736H51.1277H51.1285L59.572 47.3769L59.58 47.3796L59.587 47.3819L59.5944 47.3821L61.6501 47.4418L61.6501 47.4418L62.3486 47.4618L62.3486 47.4618L64.025 47.5115L64.0251 47.5115L65.3173 47.5513L65.3174 47.5513L70.6067 47.7091L70.5728 49.2819L70.5728 49.282L70.3342 61.5247L64.815 62.0727L62.2154 62.3315L62.1247 62.3405L62.181 62.4121Z" fill="url(#paint15_linear_220_9996)" stroke="#FEF7FF" stroke-width="0.1"/>
<g style="mix-blend-mode:multiply" opacity="0.5">
<path d="M39.323 63.9388V63.9831L38.0792 66.7631L37.4787 66.72L39.0325 59.8693L39.0345 59.8698L39.0337 59.8553L38.9688 58.7456L38.969 58.7456L38.9685 58.7418L37.9556 51.1825L37.9399 51.0652L37.8667 51.1582L34.5337 55.3932L34.5252 55.404L34.5234 55.4176L34.219 57.7317L34.2179 57.7399L34.2195 57.7479L34.871 61.0412L32.7882 62.1775L28.0715 62.3264H28.0707H26.5896H26.5763L26.5647 62.333L23.4139 64.1394L15.562 62.1496L29.6796 47.0232L29.6798 47.023L29.7443 46.9547L32.4764 47.0041L32.4766 47.0041L33.8934 47.024L33.8937 47.024L34.6768 47.0389L34.6769 47.0389L38.918 47.1135L38.918 47.1135L43.284 47.1882H43.2848H43.2894H43.2898L59.585 47.4669H59.5858H59.5954H59.5958L61.6507 47.5017L61.6508 47.5017L62.3492 47.5117L62.3494 47.5117L64.0207 47.5415L64.0208 47.5415L64.9441 47.5557L64.9346 48.5644L64.9297 48.6326L64.9296 48.6326L64.9296 48.6355L64.7705 62.0773L62.2154 62.3316L62.2146 62.3317L61.5112 62.4134L58.1305 58.794L58.1305 58.794L57.3522 57.958L57.3465 57.9519L57.3393 57.948L47.889 52.857L47.8066 52.8126L47.8155 52.9058L48.7186 62.3261L48.7186 62.3264L48.7735 62.9382L48.7735 62.9387L48.9242 64.4612L47.1025 65.0474L41.1515 64.1981L41.1513 64.1981L39.3852 63.9393L39.3853 63.9388H39.3779H39.373H39.323Z" fill="url(#paint16_linear_220_9996)" style="mix-blend-mode:multiply"/>
<path d="M39.323 63.9388V63.9831L38.0792 66.7631L37.4787 66.72L39.0325 59.8693L39.0345 59.8698L39.0337 59.8553L38.9688 58.7456L38.969 58.7456L38.9685 58.7418L37.9556 51.1825L37.9399 51.0652L37.8667 51.1582L34.5337 55.3932L34.5252 55.404L34.5234 55.4176L34.219 57.7317L34.2179 57.7399L34.2195 57.7479L34.871 61.0412L32.7882 62.1775L28.0715 62.3264H28.0707H26.5896H26.5763L26.5647 62.333L23.4139 64.1394L15.562 62.1496L29.6796 47.0232L29.6798 47.023L29.7443 46.9547L32.4764 47.0041L32.4766 47.0041L33.8934 47.024L33.8937 47.024L34.6768 47.0389L34.6769 47.0389L38.918 47.1135L38.918 47.1135L43.284 47.1882H43.2848H43.2894H43.2898L59.585 47.4669H59.5858H59.5954H59.5958L61.6507 47.5017L61.6508 47.5017L62.3492 47.5117L62.3494 47.5117L64.0207 47.5415L64.0208 47.5415L64.9441 47.5557L64.9346 48.5644L64.9297 48.6326L64.9296 48.6326L64.9296 48.6355L64.7705 62.0773L62.2154 62.3316L62.2146 62.3317L61.5112 62.4134L58.1305 58.794L58.1305 58.794L57.3522 57.958L57.3465 57.9519L57.3393 57.948L47.889 52.857L47.8066 52.8126L47.8155 52.9058L48.7186 62.3261L48.7186 62.3264L48.7735 62.9382L48.7735 62.9387L48.9242 64.4612L47.1025 65.0474L41.1515 64.1981L41.1513 64.1981L39.3852 63.9393L39.3853 63.9388H39.3779H39.373H39.323Z" stroke="#FEF7FF" stroke-width="0.1"/>
</g>
<path d="M22.4441 62.2367L22.4439 62.2367L22.0399 62.2317L22.0398 62.2317L15.4955 62.1277L5.65524 46.7013L16.0312 46.7999L18.6407 46.8248L18.6412 46.7748L18.6407 46.8248L20.7414 46.8447L20.7414 46.8447L26.3098 46.8945L26.3098 46.8945L32.4274 46.9537V46.954V46.9888H32.4274L32.4274 46.9907L32.94 60.5304L28.063 62.3261L22.4441 62.2367Z" fill="url(#paint17_linear_220_9996)" stroke="#FEF7FF" stroke-width="0.1"/>
<path d="M33.9444 46.9645L38.8689 47.0084V58.6863L34.3172 57.6975L33.9444 46.9878V46.9738V46.9645Z" fill="url(#paint18_linear_220_9996)" stroke="#FEF7FF" stroke-width="0.1"/>
<path d="M34.407 58.0247L38.9257 59.8885L37.3891 66.663L35.8964 65.0746L34.407 58.0247Z" fill="url(#paint19_linear_220_9996)" stroke="#FEF7FF" stroke-width="0.1"/>
<path d="M44.7846 62.3383L39.4237 63.9267L39.6267 47.2719L45.9407 48.8585L44.7846 62.3383Z" fill="url(#paint20_linear_220_9996)" stroke="#FEF7FF" stroke-width="0.1"/>
<path d="M44.819 72.0802L44.819 72.0803L44.8229 72.0794L44.8859 72.0649L45.0138 72.0453L45.0138 72.0453L45.0146 72.0452L45.8558 71.9029L50.9424 73.5344L42.952 72.3901L44.6847 72.1L44.819 72.0802Z" fill="url(#paint21_linear_220_9996)" stroke="#FEF7FF" stroke-width="0.1"/>
<path d="M61.6055 47.2222L61.6016 47.3905V47.3917L61.6016 47.4509L61.6016 47.4514L61.4424 62.4211L56.6063 62.9883L56.6063 62.9883L49.6423 63.8113L48.8616 62.9012L48.8613 62.9009L48.3179 62.2564L47.057 48.0591L47.0538 48.0236L47.0192 48.015L43.302 47.0894L43.3024 47.0879H43.2911L43.1484 47.0523L51.0732 47.1232V47.1232H51.0737H51.1283H51.1286L59.5755 47.2028H59.576H59.5957H59.5959L61.6055 47.2222Z" fill="url(#paint22_linear_220_9996)" stroke="#FEF7FF" stroke-width="0.1"/>
<path d="M64.0759 47.4696L64.0759 47.4696L64.0762 47.4674L64.1208 47.0984L73.7812 47.1033H73.7812H75.1042L70.346 61.5234L64.815 62.0726L62.2775 62.3252L64.0711 47.4984L64.0759 47.4696Z" fill="url(#paint23_linear_220_9996)" stroke="#FEF7FF" stroke-width="0.1"/>
<path d="M49.6424 63.8116L48.3871 62.3377L56.1276 63.04L49.6424 63.8116Z" fill="url(#paint24_linear_220_9996)" stroke="#FEF7FF" stroke-width="0.1"/>
<g style="mix-blend-mode:multiply" opacity="0.5">
<path d="M62.1844 62.472L63.3246 63.923L61.1202 69.8122L57.5611 71.9125L50.6608 70.0518L50.5793 70.0298L50.5992 70.1118L51.46 73.668L42.671 72.4094L42.359 70.9753L42.3496 70.9321L42.3057 70.9361L35.829 71.5154L40.1689 67.4492L40.1783 67.4404L40.1822 67.4282L41.1951 64.3229L41.1976 64.3153V64.3074V64.3024V64.259L41.1547 64.2529L39.6149 64.0316L44.8299 62.4898L48.9585 64.6007L49.04 64.6424L49.031 64.5513L48.892 63.1466L49.587 63.9567L49.6043 63.9769L49.6308 63.9738L56.6212 63.1477L56.6521 63.1441L56.6625 63.1148L57.1115 61.8507L57.1116 61.8505L58.1444 58.9044L58.1445 58.9043L59.8409 54.0373L59.844 54.0285L59.8437 54.0193L59.6391 47.4751L59.6391 47.4739L59.6341 47.3857L59.6341 47.3843L59.6306 47.2632L61.6087 47.2823L61.6049 47.4506L61.6037 47.5003L61.6534 47.5018L62.3519 47.5217L62.352 47.5217L64.0284 47.5714L64.0741 47.5728L64.0795 47.5274L64.1241 47.1584L73.7845 47.1634H75.1075L70.3494 61.5834L64.8183 62.1326L62.2187 62.3914L62.1281 62.4004L62.1844 62.472Z" fill="url(#paint25_linear_220_9996)" style="mix-blend-mode:multiply"/>
<path d="M62.1844 62.472L63.3246 63.923L61.1202 69.8122L57.5611 71.9125L50.6608 70.0518L50.5793 70.0298L50.5992 70.1118L51.46 73.668L42.671 72.4094L42.359 70.9753L42.3496 70.9321L42.3057 70.9361L35.829 71.5154L40.1689 67.4492L40.1783 67.4404L40.1822 67.4282L41.1951 64.3229L41.1976 64.3153V64.3074V64.3024V64.259L41.1547 64.2529L39.6149 64.0316L44.8299 62.4898L48.9585 64.6007L49.04 64.6424L49.031 64.5513L48.892 63.1466L49.587 63.9567L49.6043 63.9769L49.6308 63.9738L56.6212 63.1477L56.6521 63.1441L56.6625 63.1148L57.1115 61.8507L57.1116 61.8505L58.1444 58.9044L58.1445 58.9043L59.8409 54.0373L59.844 54.0285L59.8437 54.0193L59.6391 47.4751L59.6391 47.4739L59.6341 47.3857L59.6341 47.3843L59.6306 47.2632L61.6087 47.2823L61.6049 47.4506L61.6037 47.5003L61.6534 47.5018L62.3519 47.5217L62.352 47.5217L64.0284 47.5714L64.0741 47.5728L64.0795 47.5274L64.1241 47.1584L73.7845 47.1634H75.1075L70.3494 61.5834L64.8183 62.1326L62.2187 62.3914L62.1281 62.4004L62.1844 62.472Z" stroke="#FEF7FF" stroke-width="0.1"/>
</g>
<g style="mix-blend-mode:multiply" opacity="0.3">
<path d="M48.9932 64.5438L49.0316 64.5315L49.0276 64.4913L48.8886 63.0866L49.5745 63.8862L50.5951 70.0483L50.5949 70.0483L50.5958 70.0519L51.453 73.5932L45.9165 71.8174L47.1505 65.1368L48.9932 64.5438Z" fill="url(#paint26_linear_220_9996)" style="mix-blend-mode:multiply"/>
<path d="M48.9932 64.5438L49.0316 64.5315L49.0276 64.4913L48.8886 63.0866L49.5745 63.8862L50.5951 70.0483L50.5949 70.0483L50.5958 70.0519L51.453 73.5932L45.9165 71.8174L47.1505 65.1368L48.9932 64.5438Z" stroke="#FEF7FF" stroke-width="0.1"/>
</g>
<g style="mix-blend-mode:multiply" opacity="0.3">
<path d="M61.6054 47.2227L61.6015 47.3911L61.6004 47.4408L61.6501 47.4422L62.3 47.4607L61.545 60.6609L61.5568 53.9613L61.5569 53.9112H61.5068H59.8389L59.6458 47.4163V47.3325H59.6459L59.6457 47.3296L59.6385 47.2037L61.6054 47.2227Z" fill="url(#paint27_linear_220_9996)" style="mix-blend-mode:multiply"/>
<path d="M61.6054 47.2227L61.6015 47.3911L61.6004 47.4408L61.6501 47.4422L62.3 47.4607L61.545 60.6609L61.5568 53.9613L61.5569 53.9112H61.5068H59.8389L59.6458 47.4163V47.3325H59.6459L59.6457 47.3296L59.6385 47.2037L61.6054 47.2227Z" stroke="#FEF7FF" stroke-width="0.1"/>
</g>
<g style="mix-blend-mode:multiply" opacity="0.5">
<path d="M33.8445 46.9889H33.8444L33.8445 46.9906L34.2187 57.74L34.2181 57.74L34.2196 57.748L34.8628 60.9992L33.0399 60.5259L32.5274 46.988V46.9546L33.8445 46.9639V46.974V46.9889Z" fill="url(#paint28_linear_220_9996)" style="mix-blend-mode:multiply"/>
<path d="M33.8445 46.9889H33.8444L33.8445 46.9906L34.2187 57.74L34.2181 57.74L34.2196 57.748L34.8628 60.9992L33.0399 60.5259L32.5274 46.988V46.9546L33.8445 46.9639V46.974V46.9889Z" stroke="#FEF7FF" stroke-width="0.1"/>
</g>
<path d="M37.6128 65.5734L37.3876 66.6609L36.0014 65.1859L37.6128 65.5734Z" fill="url(#paint29_linear_220_9996)" stroke="#FEF7FF" stroke-width="0.1"/>
<g style="mix-blend-mode:multiply" opacity="0.5">
<path d="M42.2193 70.8775L42.2228 70.8835L35.8257 71.4557L40.1207 67.4316L42.2191 70.8773L42.2193 70.8775Z" fill="url(#paint30_linear_220_9996)" style="mix-blend-mode:multiply"/>
<path d="M42.2193 70.8775L42.2228 70.8835L35.8257 71.4557L40.1207 67.4316L42.2191 70.8773L42.2193 70.8775Z" stroke="#FEF7FF" stroke-width="0.1"/>
</g>
<path d="M45.8171 71.8057L42.6449 72.1551L42.3607 70.9363L46.4741 65.1481H47.0468L45.8171 71.8057Z" fill="url(#paint31_linear_220_9996)" stroke="#FEF7FF" stroke-width="0.1"/>
<g style="mix-blend-mode:multiply" opacity="0.3">
<path d="M57.9663 69.6121L57.9755 69.6168L57.9858 69.6176L60.9935 69.8254L57.5578 71.8529L50.848 70.0435L56.2963 68.7497L57.9663 69.6121Z" fill="url(#paint32_linear_220_9996)" style="mix-blend-mode:multiply"/>
<path d="M57.9663 69.6121L57.9755 69.6168L57.9858 69.6176L60.9935 69.8254L57.5578 71.8529L50.848 70.0435L56.2963 68.7497L57.9663 69.6121Z" stroke="#FEF7FF" stroke-width="0.1"/>
</g>
<g style="mix-blend-mode:multiply" opacity="0.3">
<path d="M62.1983 62.4342L63.2736 63.8026L57.7004 63.7051L56.7527 63.0721L61.4977 62.5156L61.4977 62.5156L62.1983 62.4342Z" fill="url(#paint33_linear_220_9996)" style="mix-blend-mode:multiply"/>
<path d="M62.1983 62.4342L63.2736 63.8026L57.7004 63.7051L56.7527 63.0721L61.4977 62.5156L61.4977 62.5156L62.1983 62.4342Z" stroke="#FEF7FF" stroke-width="0.1"/>
</g>
<g style="mix-blend-mode:multiply" opacity="0.5">
<path d="M57.5428 71.8527L50.8674 70.0435L56.3342 68.7452L56.3674 68.7374L56.3722 68.7035C56.3754 68.6805 56.395 68.6002 56.4291 68.4705C56.4627 68.3427 56.5094 68.1709 56.5652 67.9683C56.6769 67.5631 56.8251 67.0353 56.9789 66.4913C57.1576 65.8587 57.3439 65.2041 57.4886 64.6956C57.5926 64.3301 57.6751 64.0401 57.7179 63.8881C57.7179 63.888 57.7179 63.888 57.718 63.8879L57.742 63.8055L63.3061 63.9032L61.102 69.7523L57.5428 71.8527Z" fill="url(#paint34_linear_220_9996)" style="mix-blend-mode:multiply"/>
<path d="M57.5428 71.8527L50.8674 70.0435L56.3342 68.7452L56.3674 68.7374L56.3722 68.7035C56.3754 68.6805 56.395 68.6002 56.4291 68.4705C56.4627 68.3427 56.5094 68.1709 56.5652 67.9683C56.6769 67.5631 56.8251 67.0353 56.9789 66.4913C57.1576 65.8587 57.3439 65.2041 57.4886 64.6956C57.5926 64.3301 57.6751 64.0401 57.7179 63.8881C57.7179 63.888 57.7179 63.888 57.718 63.8879L57.742 63.8055L63.3061 63.9032L61.102 69.7523L57.5428 71.8527Z" stroke="#FEF7FF" stroke-width="0.1"/>
</g>
<g style="mix-blend-mode:multiply" opacity="0.3">
<path d="M56.3618 68.6709L57.6509 64.0621L57.9347 69.4878L56.3618 68.6709Z" fill="url(#paint35_linear_220_9996)" style="mix-blend-mode:multiply"/>
<path d="M56.3618 68.6709L57.6509 64.0621L57.9347 69.4878L56.3618 68.6709Z" stroke="#FEF7FF" stroke-width="0.1"/>
</g>
<g style="mix-blend-mode:multiply" opacity="0.5">
<path d="M44.819 72.0802L44.819 72.0803L44.8229 72.0794L44.8859 72.0649L45.0138 72.0453L45.0138 72.0453L45.0146 72.0452L45.8558 71.9029L50.9424 73.5344L42.952 72.3901L44.6847 72.1L44.819 72.0802Z" fill="url(#paint36_linear_220_9996)" style="mix-blend-mode:multiply"/>
<path d="M44.819 72.0802L44.819 72.0803L44.8229 72.0794L44.8859 72.0649L45.0138 72.0453L45.0138 72.0453L45.0146 72.0452L45.8558 71.9029L50.9424 73.5344L42.952 72.3901L44.6847 72.1L44.819 72.0802Z" stroke="#FEF7FF" stroke-width="0.1"/>
</g>
<g style="mix-blend-mode:multiply" opacity="0.3">
<path d="M22.1169 62.4074L22.0969 62.3133L22.3969 62.3206L22.4192 62.5079L22.1169 62.4074Z" fill="url(#paint37_linear_220_9996)" style="mix-blend-mode:multiply"/>
<path d="M22.1169 62.4074L22.0969 62.3133L22.3969 62.3206L22.4192 62.5079L22.1169 62.4074Z" stroke="#FEF7FF" stroke-width="0.1"/>
</g>
<g style="mix-blend-mode:multiply" opacity="0.3">
<path d="M69.1406 38.9899L69.1462 38.9477L69.1055 38.9355L65.1651 37.7478L70.6166 38.4407L70.6166 38.4407L72.1135 38.6298L72.1437 38.6336L72.161 38.6085L73.8076 36.2116H75.1042L70.3545 50.6063L67.7781 49.242L69.1406 38.9899Z" fill="url(#paint38_linear_220_9996)" style="mix-blend-mode:multiply"/>
<path d="M69.1406 38.9899L69.1462 38.9477L69.1055 38.9355L65.1651 37.7478L70.6166 38.4407L70.6166 38.4407L72.1135 38.6298L72.1437 38.6336L72.161 38.6085L73.8076 36.2116H75.1042L70.3545 50.6063L67.7781 49.242L69.1406 38.9899Z" stroke="#FEF7FF" stroke-width="0.1"/>
</g>
<path style="mix-blend-mode:screen" opacity="0.6" fill-rule="evenodd" clip-rule="evenodd" d="M75.106 47.1028L70.316 61.6194L64.7526 62.1718L62.153 62.4306L63.3106 63.9036L61.0903 69.8357L57.4977 71.9557L50.5772 70.0895L51.4553 73.7174L42.5589 72.4434L42.2395 70.9753L35.6183 71.5675L23.0146 65.7898L23.3539 64.2421L15.4005 62.2265L5.49609 46.6997L15.9643 46.7992L18.5738 46.8241L20.6745 46.844L26.2429 46.8938L32.41 46.9535L33.8271 46.9635L38.8516 47.0083V47.0381H48.1522L51.0063 47.1227H51.0611L59.5085 47.2023H59.5285L61.5892 47.2222L61.5842 47.4412L62.2828 47.4611L63.9593 47.5109L64.0092 47.0978L73.714 47.1028H75.106Z" fill="url(#paint39_linear_220_9996)"/>
<path style="mix-blend-mode:multiply" opacity="0.5" fill-rule="evenodd" clip-rule="evenodd" d="M10.424 50.6487L15.9474 56.5161L26.6352 53.4007L32.8822 54.6001L33.1815 60.4077L34.9229 61.0646L34.384 57.596L34.3241 54.9584L38.8846 56.4564L39.1241 59.6911L39.5433 55.7348L45.4909 54.9584L47.6514 55.5556L58.399 57.8946L56.7175 62.7417L61.5225 62.3834L62.9645 52.7438L63.4435 52.923L62.241 62.3834L70.5287 61.2488L75.8127 45.916L10.424 50.6487Z" fill="url(#paint40_linear_220_9996)"/>
<path d="M8.23713 42.3438L6.78424 39.0206L39.4952 40.6737L39.568 40.6774L39.5452 40.6081L38.1304 36.316L47.7842 36.5531L47.8576 36.5549L47.8324 36.486L45.8571 31.068L83.2015 24.5741C83.0882 25.0875 82.4278 28.0135 81.9656 29.8723L81.9653 29.8738C81.8525 30.3976 81.7056 30.9134 81.5255 31.4181C81.503 31.4505 81.4999 31.4887 81.5072 31.5251C81.5149 31.5635 81.5345 31.6041 81.5607 31.6452C81.6133 31.7278 81.7009 31.8252 81.8097 31.9303C82.0282 32.1413 82.3417 32.3927 82.6614 32.6334C82.9815 32.8744 83.3092 33.1058 83.5568 33.2768C83.6806 33.3623 83.7845 33.4328 83.8574 33.482L83.931 33.5313L82.617 35.5382L81.983 35.683L81.9559 35.6893L81.9469 35.7156L77.8748 47.6318L73.9958 48.3711L72.8176 48.1489L63.1777 46.3325L63.1778 46.3317L63.1691 46.3316L56.7474 46.247L42.8338 46.0629L8.23713 42.3438Z" fill="url(#paint41_linear_220_9996)" stroke="#FEF7FF" stroke-width="0.1"/>
<g style="mix-blend-mode:multiply" opacity="0.5">
<path d="M47.0017 39.9735L44.7975 45.3281L34.7055 45.7774L35.0562 44.351L36.9659 41.1573L37.0036 41.0943L36.9312 41.0823L35.8485 40.9032L35.8028 40.8956L35.7917 40.9406L34.9627 44.3125L34.056 45.8288L34.0083 45.9085L34.1011 45.9044L34.5765 45.8832L34.5743 45.8922L34.4552 46.3764L15.6286 43.9643L15.7161 40.4643L47.0017 39.9735Z" fill="url(#paint42_linear_220_9996)" style="mix-blend-mode:multiply"/>
<path d="M47.0017 39.9735L44.7975 45.3281L34.7055 45.7774L35.0562 44.351L36.9659 41.1573L37.0036 41.0943L36.9312 41.0823L35.8485 40.9032L35.8028 40.8956L35.7917 40.9406L34.9627 44.3125L34.056 45.8288L34.0083 45.9085L34.1011 45.9044L34.5765 45.8832L34.5743 45.8922L34.4552 46.3764L15.6286 43.9643L15.7161 40.4643L47.0017 39.9735Z" stroke="#FEF7FF" stroke-width="0.1"/>
</g>
<g style="mix-blend-mode:multiply" opacity="0.3">
<path d="M83.1847 24.5573L81.5011 31.4015L79.2266 32.9683L79.1153 33.045L79.2496 33.0592L83.9135 33.5532L82.6178 35.5369L81.9307 35.6575L81.9014 35.6627L81.8919 35.6909L77.875 47.6506L73.746 48.3017L61.5339 46.5709L61.5339 46.5707L61.53 46.5705L38.8946 45.1275L39.8798 43.496L52.0309 43.8011L50.6874 45.2779L50.6168 45.3555L50.7216 45.3615L55.5665 45.6352L55.6066 45.6374L55.6174 45.5987L57.6632 38.2732L57.6775 38.2218L57.6252 38.2108L51.0689 36.8396L50.4078 31.5445L51.7915 30.1546L83.1847 24.5573Z" fill="url(#paint43_linear_220_9996)" style="mix-blend-mode:multiply"/>
<path d="M83.1847 24.5573L81.5011 31.4015L79.2266 32.9683L79.1153 33.045L79.2496 33.0592L83.9135 33.5532L82.6178 35.5369L81.9307 35.6575L81.9014 35.6627L81.8919 35.6909L77.875 47.6506L73.746 48.3017L61.5339 46.5709L61.5339 46.5707L61.53 46.5705L38.8946 45.1275L39.8798 43.496L52.0309 43.8011L50.6874 45.2779L50.6168 45.3555L50.7216 45.3615L55.5665 45.6352L55.6066 45.6374L55.6174 45.5987L57.6632 38.2732L57.6775 38.2218L57.6252 38.2108L51.0689 36.8396L50.4078 31.5445L51.7915 30.1546L83.1847 24.5573Z" stroke="#FEF7FF" stroke-width="0.1"/>
</g>
<g style="mix-blend-mode:multiply" opacity="0.3">
<path d="M50.1741 42.9952L45.519 42.7335L47.0882 40.003L50.1741 42.9952Z" fill="url(#paint44_linear_220_9996)" style="mix-blend-mode:multiply"/>
<path d="M50.1741 42.9952L45.519 42.7335L47.0882 40.003L50.1741 42.9952Z" stroke="#FEF7FF" stroke-width="0.1"/>
</g>
<g style="mix-blend-mode:multiply" opacity="0.3">
<path d="M65.6748 47.124L65.0313 46.8719L69.3431 37.0577L70.1936 39.7211V47.5364L65.6748 47.124Z" fill="url(#paint45_linear_220_9996)" style="mix-blend-mode:multiply"/>
<path d="M65.6748 47.124L65.0313 46.8719L69.3431 37.0577L70.1936 39.7211V47.5364L65.6748 47.124Z" stroke="#FEF7FF" stroke-width="0.1"/>
</g>
<g style="mix-blend-mode:multiply" opacity="0.3">
<path d="M50.4099 31.5625L55.7642 29.9414L54.5587 36.2852L51.0669 36.8243L50.4099 31.5625Z" fill="url(#paint46_linear_220_9996)" style="mix-blend-mode:multiply"/>
<path d="M50.4099 31.5625L55.7642 29.9414L54.5587 36.2852L51.0669 36.8243L50.4099 31.5625Z" stroke="#FEF7FF" stroke-width="0.1"/>
</g>
<path d="M28.7504 42.4797C21.331 42.4009 13.9617 41.2592 6.86835 39.09L12.8141 37.1908L46.8497 39.9389C46.8212 39.9492 46.7898 39.9605 46.7555 39.9727C46.5539 40.0442 46.2525 40.1464 45.8539 40.2691C45.0567 40.5146 43.8708 40.842 42.3171 41.1695C39.2099 41.8245 34.6317 42.4797 28.7504 42.4797Z" fill="url(#paint47_linear_220_9996)" stroke="#FEF7FF" stroke-width="0.1"/>
<path d="M0.144987 42.1654C2.40768 41.6733 5.6881 41.5585 9.35123 41.6663C13.0861 41.7761 17.2145 42.117 21.0596 42.5228C24.9046 42.9286 28.4656 43.3993 31.0654 43.7685C32.3653 43.9531 33.4249 44.1124 34.1594 44.2255C34.5267 44.282 34.8127 44.327 35.0069 44.3579L35.228 44.3932L35.2844 44.4024L35.2986 44.4047L35.3022 44.4053L35.3031 44.4054C35.3033 44.4054 35.3034 44.4055 35.3114 44.3561L35.3033 44.406L35.3109 44.4061L60.3323 44.6847L73.7721 48.3263L73.7168 48.3323C73.7167 48.3324 73.7165 48.3324 73.7164 48.3324C73.4545 48.3562 73.04 48.3941 72.4915 48.4443C68.4584 48.813 57.1826 49.8438 46.1195 50.8206L39.1862 51.4176H39.1384V51.4174L39.1342 51.4178L30.313 52.1638L22.5246 51.1443L22.5246 51.1443L21.1275 50.9602L21.1275 50.9601L21.1246 50.9599C20.4216 50.9094 19.7221 50.8182 19.0297 50.6869L19.0297 50.6869L19.0272 50.6865L18.6331 50.6318L18.6239 50.6305L18.6148 50.6326L16.9517 51.0215L15.3068 50.1396L15.3068 50.1396C13.7552 49.3086 11.9743 48.3682 10.1935 47.4279L10.1922 47.4272L0.144987 42.1654ZM0.144987 42.1654C0.955833 42.5864 5.60143 45.0005 10.1922 47.4272L0.144987 42.1654Z" fill="url(#paint48_linear_220_9996)" stroke="#FEF7FF" stroke-width="0.1"/>
<path d="M42.6478 44.3254L40.0017 43.4425L44.5476 41.735L51.2225 42.7653L52.038 43.7105L42.6478 44.3254Z" fill="url(#paint49_linear_220_9996)" stroke="#FEF7FF" stroke-width="0.1"/>
<path d="M68.7556 36.9343L57.6146 38.2099L38.9432 36.3329L54.0413 36.1355L68.7556 36.9343Z" fill="url(#paint50_linear_220_9996)" stroke="#FEF7FF" stroke-width="0.1"/>
<path d="M55.8346 29.8199L55.8242 29.8187L55.8142 29.8217L50.3505 31.4759L46.0727 30.9931L75.1638 24.53L82.9116 24.5538L62.7498 30.6448L55.8346 29.8199Z" fill="url(#paint51_linear_220_9996)" stroke="#FEF7FF" stroke-width="0.1"/>
<path d="M3.90558 48.5932L0.105331 42.1961L8.5195 44.4095L8.51945 44.4097L8.52387 44.4104L9.02221 44.4949L9.02283 44.495L12.6247 45.1518L12.625 45.1519L13.897 45.3758L13.8974 45.3758L14.0866 45.4106L14.0868 45.4106L16.5417 45.8486L16.5505 45.7993L16.5417 45.8486L23.0781 47.0131L23.0782 47.0131L39.9181 49.999L39.9179 49.9998H39.9268L40.0765 49.9998L40.0787 49.9997L48.3293 49.6315H48.3304L48.5888 49.6316L48.5912 49.6315L54.5787 49.3428L60.4914 49.0592L60.4915 49.0592L73.6596 48.4017L70.9131 51.6129L42.1146 53.1645L40.0702 53.2739H38.6627L38.132 53.2046L38.1319 53.2046L30.3236 52.2094L30.3232 52.2093L22.5248 51.1444L22.5246 51.1444L21.1275 50.9602L21.1275 50.9601L21.1246 50.9599C20.4216 50.9094 19.7221 50.8183 19.0297 50.687L19.0297 50.6869L19.0272 50.6866L18.6331 50.6318L18.6239 50.6305L18.6148 50.6327L16.9336 51.0257L16.9333 51.0258L8.97441 52.8367L3.90558 48.5932Z" fill="url(#paint52_linear_220_9996)" stroke="#FEF7FF" stroke-width="0.1"/>
<g style="mix-blend-mode:multiply" opacity="0.3">
<path d="M8.97131 52.8711H8.97738H8.97131Z" stroke="#FEF7FF" stroke-width="0.1"/>
</g>
<g style="mix-blend-mode:multiply" opacity="0.3">
<path d="M60.5014 49.0843L73.6154 48.4587L70.9132 51.6182L42.1147 53.1648L40.0703 53.2742H38.6578L38.1271 53.2049L38.127 53.2049L30.3187 52.2097L30.3183 52.2096L22.5249 51.1447L22.5247 51.1447L21.1276 50.9605L21.1276 50.9604L21.1247 50.9602C20.4217 50.9097 19.7222 50.8186 19.0298 50.6873L19.0298 50.6872L19.0273 50.6869L18.6332 50.6321L18.624 50.6308L18.6149 50.633L16.9337 51.026L16.9334 51.0261L9.06473 52.8165L11.0001 49.5976L11.0127 49.5767L11.0039 49.5538L10.1906 47.4537L10.1906 47.4536L9.05995 44.5498L12.6251 45.1522L12.6254 45.1522L13.8971 45.3761L13.8975 45.3761L14.0867 45.4109L14.0869 45.4109L16.5418 45.8489L16.5418 45.8489L23.0782 47.0134L23.0783 47.0134L39.9182 49.9993L39.918 50.0001H39.9269H40.0766V50.0001L40.0788 50L48.3294 49.6318H48.3305L48.5888 49.6319L48.5912 49.6318L54.0774 49.3681H54.0786L54.5764 49.3681L54.5787 49.368L56.0756 49.2983L56.0757 49.2983L60.5014 49.0843L60.5014 49.0843Z" fill="url(#paint53_linear_220_9996)" style="mix-blend-mode:multiply"/>
<path d="M60.5014 49.0843L73.6154 48.4587L70.9132 51.6182L42.1147 53.1648L40.0703 53.2742H38.6578L38.1271 53.2049L38.127 53.2049L30.3187 52.2097L30.3183 52.2096L22.5249 51.1447L22.5247 51.1447L21.1276 50.9605L21.1276 50.9604L21.1247 50.9602C20.4217 50.9097 19.7222 50.8186 19.0298 50.6873L19.0298 50.6872L19.0273 50.6869L18.6332 50.6321L18.624 50.6308L18.6149 50.633L16.9337 51.026L16.9334 51.0261L9.06473 52.8165L11.0001 49.5976L11.0127 49.5767L11.0039 49.5538L10.1906 47.4537L10.1906 47.4536L9.05995 44.5498L12.6251 45.1522L12.6254 45.1522L13.8971 45.3761L13.8975 45.3761L14.0867 45.4109L14.0869 45.4109L16.5418 45.8489L16.5418 45.8489L23.0782 47.0134L23.0783 47.0134L39.9182 49.9993L39.918 50.0001H39.9269H40.0766V50.0001L40.0788 50L48.3294 49.6318H48.3305L48.5888 49.6319L48.5912 49.6318L54.0774 49.3681H54.0786L54.5764 49.3681L54.5787 49.368L56.0756 49.2983L56.0757 49.2983L60.5014 49.0843L60.5014 49.0843Z" stroke="#FEF7FF" stroke-width="0.1"/>
</g>
<g style="mix-blend-mode:multiply" opacity="0.5">
<path d="M18.4306 50.6755L16.9337 51.0255L16.9334 51.0255L9.06473 52.8159L10.983 49.6255L15.2513 50.2329L15.2514 50.2329L16.2792 50.3772L16.2792 50.3772L17.2772 50.5166L17.2771 50.5171H17.2841H17.3205L18.4306 50.6755Z" fill="url(#paint54_linear_220_9996)" style="mix-blend-mode:multiply"/>
<path d="M18.4306 50.6755L16.9337 51.0255L16.9334 51.0255L9.06473 52.8159L10.983 49.6255L15.2513 50.2329L15.2514 50.2329L16.2792 50.3772L16.2792 50.3772L17.2772 50.5166L17.2771 50.5171H17.2841H17.3205L18.4306 50.6755Z" stroke="#FEF7FF" stroke-width="0.1"/>
</g>
<g style="mix-blend-mode:multiply" opacity="0.5">
<path d="M60.5014 49.0341L73.6382 48.4024L70.8882 51.6178L42.1146 53.1643L42.1146 53.1643L40.0705 53.2737L38.6581 53.2539L38.2027 53.1944L39.2213 51.4932L39.2213 51.4931L40.1057 50.0132L48.3317 49.6213L48.3322 49.6213L48.5912 49.6064L48.5917 49.6064L54.5837 49.3178L60.5014 49.0341L60.499 48.9842L60.5014 49.0341Z" fill="url(#paint55_linear_220_9996)" style="mix-blend-mode:multiply"/>
<path d="M60.5014 49.0341L73.6382 48.4024L70.8882 51.6178L42.1146 53.1643L42.1146 53.1643L40.0705 53.2737L38.6581 53.2539L38.2027 53.1944L39.2213 51.4932L39.2213 51.4931L40.1057 50.0132L48.3317 49.6213L48.3322 49.6213L48.5912 49.6064L48.5917 49.6064L54.5837 49.3178L60.5014 49.0341L60.499 48.9842L60.5014 49.0341Z" stroke="#FEF7FF" stroke-width="0.1"/>
</g>
<path d="M71.0968 28.208L68.5228 33.1761L68.5193 33.1828L68.518 33.1902L68.009 36.0098L68.1628 33.0268L69.1299 28.776L69.1433 28.7171L69.0828 28.715L64.9787 28.5726L71.0968 28.208Z" fill="url(#paint56_linear_220_9996)" stroke="#FEF7FF" stroke-width="0.1"/>
<g style="mix-blend-mode:multiply" opacity="0.5">
<path d="M79.3197 34.3975L79.3226 34.4292L79.3525 34.44L82.4546 35.5656L81.9305 35.6576L81.9012 35.6628L81.8918 35.6909L77.8748 47.6507L73.749 48.3012L71.9087 47.8065L71.9081 47.8063L71.6096 47.722L71.6093 47.7219L71.385 47.6573L71.3847 47.6572L70.726 47.473L70.726 47.473L65.4178 45.9955L69.3862 36.9911L69.4151 36.9253L69.3435 36.921L63.3983 36.5603L62.808 30.7854L68.9325 28.8165L69.0002 28.8841L70.1623 30.1127L70.2116 30.1649L70.2435 30.1005L71.1569 28.2538L71.3008 28.2103L71.3008 28.2103L73.2068 27.638L73.2068 27.638L78.3211 26.1002L78.3213 26.1002L79.6284 25.7021L79.6286 25.7021L83.1542 24.6418C83.0027 25.3226 82.3784 28.0812 81.9358 29.8615C81.9357 29.8617 81.9356 29.862 81.9356 29.8623L81.4969 31.401L79.2165 32.9684L79.1924 32.9849L79.195 33.0141L79.3197 34.3975Z" fill="url(#paint57_linear_220_9996)" style="mix-blend-mode:multiply"/>
<path d="M79.3197 34.3975L79.3226 34.4292L79.3525 34.44L82.4546 35.5656L81.9305 35.6576L81.9012 35.6628L81.8918 35.6909L77.8748 47.6507L73.749 48.3012L71.9087 47.8065L71.9081 47.8063L71.6096 47.722L71.6093 47.7219L71.385 47.6573L71.3847 47.6572L70.726 47.473L70.726 47.473L65.4178 45.9955L69.3862 36.9911L69.4151 36.9253L69.3435 36.921L63.3983 36.5603L62.808 30.7854L68.9325 28.8165L69.0002 28.8841L70.1623 30.1127L70.2116 30.1649L70.2435 30.1005L71.1569 28.2538L71.3008 28.2103L71.3008 28.2103L73.2068 27.638L73.2068 27.638L78.3211 26.1002L78.3213 26.1002L79.6284 25.7021L79.6286 25.7021L83.1542 24.6418C83.0027 25.3226 82.3784 28.0812 81.9358 29.8615C81.9357 29.8617 81.9356 29.862 81.9356 29.8623L81.4969 31.401L79.2165 32.9684L79.1924 32.9849L79.195 33.0141L79.3197 34.3975Z" stroke="#FEF7FF" stroke-width="0.1"/>
</g>
<g style="mix-blend-mode:multiply" opacity="0.3">
<path d="M82.0008 35.6791L80.158 34.7296L82.4713 35.5716L82.0008 35.6791Z" fill="url(#paint58_linear_220_9996)" style="mix-blend-mode:multiply"/>
<path d="M82.0008 35.6791L80.158 34.7296L82.4713 35.5716L82.0008 35.6791Z" stroke="#FEF7FF" stroke-width="0.1"/>
</g>
<g style="mix-blend-mode:screen" opacity="0.3">
<path d="M72.0397 33.6808L72.043 33.6456L72.0109 33.6307L71.649 33.4642L71.3486 28.1987L73.1459 27.659L71.3169 47.6109L70.7563 47.4542L72.0397 33.6808Z" fill="url(#paint59_linear_220_9996)" style="mix-blend-mode:screen"/>
<path d="M72.0397 33.6808L72.043 33.6456L72.0109 33.6307L71.649 33.4642L71.3486 28.1987L73.1459 27.659L71.3169 47.6109L70.7563 47.4542L72.0397 33.6808Z" stroke="#FEF7FF" stroke-width="0.1"/>
</g>
<g style="mix-blend-mode:screen" opacity="0.3">
<path d="M79.5205 25.7322C79.0124 27.0555 78.3917 28.947 77.7371 31.0751C78.0006 30.0407 78.2017 29.0795 78.3148 28.2385C78.4298 27.3832 78.4542 26.6488 78.3588 26.0873L79.5205 25.7322ZM75.4399 38.2534C75.8071 37.2491 76.1675 36.2246 76.5037 35.2122C76.1412 36.4599 75.7832 37.7169 75.4421 38.93C74.7566 41.3684 74.1397 43.63 73.6942 45.2819C73.4715 46.1079 73.2915 46.7815 73.1673 47.2486C73.1052 47.4821 73.057 47.6641 73.0244 47.7876L72.9872 47.9283L72.9859 47.9332L71.8924 47.7753L71.8923 47.7753L71.6267 47.7375C71.8704 47.1808 73.729 42.934 75.4399 38.2534Z" fill="url(#paint60_linear_220_9996)" style="mix-blend-mode:screen"/>
<path d="M79.5205 25.7322C79.0124 27.0555 78.3917 28.947 77.7371 31.0751C78.0006 30.0407 78.2017 29.0795 78.3148 28.2385C78.4298 27.3832 78.4542 26.6488 78.3588 26.0873L79.5205 25.7322ZM75.4399 38.2534C75.8071 37.2491 76.1675 36.2246 76.5037 35.2122C76.1412 36.4599 75.7832 37.7169 75.4421 38.93C74.7566 41.3684 74.1397 43.63 73.6942 45.2819C73.4715 46.1079 73.2915 46.7815 73.1673 47.2486C73.1052 47.4821 73.057 47.6641 73.0244 47.7876L72.9872 47.9283L72.9859 47.9332L71.8924 47.7753L71.8923 47.7753L71.6267 47.7375C71.8704 47.1808 73.729 42.934 75.4399 38.2534Z" stroke="#FEF7FF" stroke-width="0.1"/>
</g>
<g style="mix-blend-mode:multiply" opacity="0.15">
<path d="M38.6581 53.2537L38.2011 53.1941L39.1719 51.4972L39.1719 51.4971L40.0166 50.0178L40.0789 50.0144L40.0793 50.0144L48.1294 49.6309L46.1037 50.822L46.1036 50.8221L42.1025 53.1648L40.0706 53.2736L38.6581 53.2537Z" fill="url(#paint61_linear_220_9996)" style="mix-blend-mode:multiply"/>
<path d="M38.6581 53.2537L38.2011 53.1941L39.1719 51.4972L39.1719 51.4971L40.0166 50.0178L40.0789 50.0144L40.0793 50.0144L48.1294 49.6309L46.1037 50.822L46.1036 50.8221L42.1025 53.1648L40.0706 53.2736L38.6581 53.2537Z" stroke="#FEF7FF" stroke-width="0.1"/>
</g>
<g style="mix-blend-mode:multiply" opacity="0.15">
<path d="M53.6825 52.5424H53.4514C53.9627 51.5506 54.2005 50.4409 54.1402 49.327L54.5292 49.3191C54.4804 50.4414 54.1918 51.5403 53.6825 52.5424Z" fill="url(#paint62_linear_220_9996)" style="mix-blend-mode:multiply"/>
<path d="M53.6825 52.5424H53.4514C53.9627 51.5506 54.2005 50.4409 54.1402 49.327L54.5292 49.3191C54.4804 50.4414 54.1918 51.5403 53.6825 52.5424Z" stroke="#FEF7FF" stroke-width="0.1"/>
</g>
<g style="mix-blend-mode:screen" opacity="0.3">
<path d="M56.1016 49.2463L60.4194 49.038C60.0718 49.9306 59.6216 51.1533 59.2259 52.2456L55.618 52.4396L56.1016 49.2463Z" fill="url(#paint63_linear_220_9996)" style="mix-blend-mode:screen"/>
<path d="M56.1016 49.2463L60.4194 49.038C60.0718 49.9306 59.6216 51.1533 59.2259 52.2456L55.618 52.4396L56.1016 49.2463Z" stroke="#FEF7FF" stroke-width="0.1"/>
</g>
<g style="mix-blend-mode:multiply" opacity="0.15">
<path d="M12.1873 49.7051L12.6777 45.1666L14.0264 45.41C13.8321 45.8948 13.5873 46.5069 13.3437 47.1162C12.8426 48.3695 12.3464 49.6106 12.3037 49.7057C12.292 49.7317 12.2803 49.7373 12.2744 49.739C12.2662 49.7414 12.2537 49.7407 12.2361 49.7338C12.2191 49.727 12.2023 49.7163 12.1892 49.7064C12.1885 49.706 12.1879 49.7055 12.1873 49.7051Z" fill="url(#paint64_linear_220_9996)" style="mix-blend-mode:multiply"/>
<path d="M12.1873 49.7051L12.6777 45.1666L14.0264 45.41C13.8321 45.8948 13.5873 46.5069 13.3437 47.1162C12.8426 48.3695 12.3464 49.6106 12.3037 49.7057C12.292 49.7317 12.2803 49.7373 12.2744 49.739C12.2662 49.7414 12.2537 49.7407 12.2361 49.7338C12.2191 49.727 12.2023 49.7163 12.1892 49.7064C12.1885 49.706 12.1879 49.7055 12.1873 49.7051Z" stroke="#FEF7FF" stroke-width="0.1"/>
</g>
<g style="mix-blend-mode:multiply" opacity="0.15">
<path d="M19.0397 50.677L19.0397 50.677L19.0386 50.6768L17.3621 50.3981L17.3622 50.3974H17.3539H17.318L16.366 50.2408V50.1502L16.5057 47.5936L16.5057 47.5936L16.5975 45.8832L23.0136 47.0117C22.6553 47.7652 22.2045 48.6781 21.8287 49.4391L21.8003 49.4965C21.6048 49.8924 21.4312 50.2442 21.3039 50.5064C21.2403 50.6374 21.1882 50.7463 21.1507 50.8272C21.1319 50.8677 21.1167 50.9014 21.1054 50.9275C21.1025 50.9344 21.0997 50.941 21.0971 50.9472C20.4067 50.8962 19.7198 50.806 19.0397 50.677Z" fill="url(#paint65_linear_220_9996)" style="mix-blend-mode:multiply"/>
<path d="M19.0397 50.677L19.0397 50.677L19.0386 50.6768L17.3621 50.3981L17.3622 50.3974H17.3539H17.318L16.366 50.2408V50.1502L16.5057 47.5936L16.5057 47.5936L16.5975 45.8832L23.0136 47.0117C22.6553 47.7652 22.2045 48.6781 21.8287 49.4391L21.8003 49.4965C21.6048 49.8924 21.4312 50.2442 21.3039 50.5064C21.2403 50.6374 21.1882 50.7463 21.1507 50.8272C21.1319 50.8677 21.1167 50.9014 21.1054 50.9275C21.1025 50.9344 21.0997 50.941 21.0971 50.9472C20.4067 50.8962 19.7198 50.806 19.0397 50.677Z" stroke="#FEF7FF" stroke-width="0.1"/>
</g>
<g style="mix-blend-mode:multiply" opacity="0.5">
<path d="M68.0426 33.2831L67.5852 36.4772C67.1259 36.5208 66.6636 36.5217 66.2043 36.4798C66.2183 36.4514 66.2377 36.414 66.2621 36.3685C66.3163 36.2669 66.3941 36.127 66.4876 35.9614C66.6745 35.6305 66.9239 35.1983 67.1734 34.7691C67.4228 34.34 67.6722 33.9139 67.8593 33.5952C67.9306 33.4736 67.9929 33.3677 68.0426 33.2831Z" fill="url(#paint66_linear_220_9996)" style="mix-blend-mode:multiply"/>
<path d="M68.0426 33.2831L67.5852 36.4772C67.1259 36.5208 66.6636 36.5217 66.2043 36.4798C66.2183 36.4514 66.2377 36.414 66.2621 36.3685C66.3163 36.2669 66.3941 36.127 66.4876 35.9614C66.6745 35.6305 66.9239 35.1983 67.1734 34.7691C67.4228 34.34 67.6722 33.9139 67.8593 33.5952C67.9306 33.4736 67.9929 33.3677 68.0426 33.2831Z" stroke="#FEF7FF" stroke-width="0.1"/>
</g>
<g style="mix-blend-mode:multiply" opacity="0.5">
<path d="M54.1753 35.5524L54.2053 35.5474L54.2147 35.5185L55.4605 31.6806L54.5802 36.0213L52.1591 36.0773L52.3851 35.8483L54.1753 35.5524Z" fill="url(#paint67_linear_220_9996)" style="mix-blend-mode:multiply"/>
<path d="M54.1753 35.5524L54.2053 35.5474L54.2147 35.5185L55.4605 31.6806L54.5802 36.0213L52.1591 36.0773L52.3851 35.8483L54.1753 35.5524Z" stroke="#FEF7FF" stroke-width="0.1"/>
</g>
<g style="mix-blend-mode:multiply" opacity="0.5">
<path d="M17.2307 50.4268L16.3623 50.3568L16.4369 47.6927L17.2307 50.4268Z" fill="url(#paint68_linear_220_9996)" style="mix-blend-mode:multiply"/>
<path d="M17.2307 50.4268L16.3623 50.3568L16.4369 47.6927L17.2307 50.4268Z" stroke="#FEF7FF" stroke-width="0.1"/>
</g>
<g style="mix-blend-mode:multiply" opacity="0.5">
<path d="M56.1176 49.206L56.1241 49.164L56.0837 49.1508L50.1649 47.2245L57.5127 49.16L55.6473 52.2502L56.1176 49.206Z" fill="url(#paint69_linear_220_9996)" style="mix-blend-mode:multiply"/>
<path d="M56.1176 49.206L56.1241 49.164L56.0837 49.1508L50.1649 47.2245L57.5127 49.16L55.6473 52.2502L56.1176 49.206Z" stroke="#FEF7FF" stroke-width="0.1"/>
</g>
<mask id="path-74-inside-1_220_9996" fill="white">
<path fill-rule="evenodd" clip-rule="evenodd" d="M38.1186 53.2344L38.0807 53.2914L38.1186 53.2344Z"/>
</mask>
<path fill-rule="evenodd" clip-rule="evenodd" d="M38.1186 53.2344L38.0807 53.2914L38.1186 53.2344Z" fill="url(#paint70_linear_220_9996)"/>
<path d="M38.0354 53.179L37.9974 53.236L38.1639 53.3468L38.2019 53.2898L38.0354 53.179ZM38.1639 53.3468L38.2019 53.2898L38.0354 53.179L37.9974 53.236L38.1639 53.3468Z" fill="#FEF7FF" mask="url(#path-74-inside-1_220_9996)"/>
<path d="M47.1069 65.1483H47.1177L47.1275 65.1438L48.9388 64.3227L48.966 64.3103L48.968 64.2805L49.0217 63.4767L49.5756 63.892L50.5952 70.0481L50.5951 70.0482L50.5959 70.0517L51.4526 73.6111L42.713 72.736L42.3601 70.9372L46.3642 65.3015L46.3643 65.3014L46.4739 65.1483H47.1069Z" fill="url(#paint71_linear_220_9996)" stroke="#FEF7FF" stroke-width="0.1"/>
<g style="mix-blend-mode:multiply" opacity="0.5">
<path d="M46.2131 71.3985L51.0138 73.4813L42.8813 72.7511L46.2131 71.3985Z" fill="url(#paint72_linear_220_9996)" style="mix-blend-mode:multiply"/>
<path d="M46.2131 71.3985L51.0138 73.4813L42.8813 72.7511L46.2131 71.3985Z" stroke="#FEF7FF" stroke-width="0.1"/>
</g>
<g style="mix-blend-mode:multiply" opacity="0.5">
<path d="M51.4526 73.6111L42.8771 72.7524L46.2326 71.3902L46.2632 71.3777L46.2638 71.3447L46.3732 65.2889L46.474 65.1483H47.1069H47.1177L47.1275 65.1438L48.9388 64.3227L48.966 64.3103L48.968 64.2805L49.0217 63.4767L49.5756 63.892L50.5952 70.0481L50.5951 70.0482L50.5959 70.0517L51.4526 73.6111Z" fill="url(#paint73_linear_220_9996)" style="mix-blend-mode:multiply"/>
<path d="M51.4526 73.6111L42.8771 72.7524L46.2326 71.3902L46.2632 71.3777L46.2638 71.3447L46.3732 65.2889L46.474 65.1483H47.1069H47.1177L47.1275 65.1438L48.9388 64.3227L48.966 64.3103L48.968 64.2805L49.0217 63.4767L49.5756 63.892L50.5952 70.0481L50.5951 70.0482L50.5959 70.0517L51.4526 73.6111Z" stroke="#FEF7FF" stroke-width="0.1"/>
</g>
<path d="M28.8023 55.8358L30.8736 58.9177L29.3675 60.1512L27.3851 59.5711L27.1511 56.6044L28.8023 55.8358Z" fill="url(#paint74_linear_220_9996)" stroke="#FEF7FF" stroke-width="0.1"/>
<g style="mix-blend-mode:multiply" opacity="0.3">
<path d="M29.3675 60.1512L27.5165 59.6095L28.8738 59.2145L28.9103 59.2039L28.9098 59.1659L28.8719 55.9394L30.8736 58.9177L29.3675 60.1512Z" fill="url(#paint75_linear_220_9996)" style="mix-blend-mode:multiply"/>
<path d="M29.3675 60.1512L27.5165 59.6095L28.8738 59.2145L28.9103 59.2039L28.9098 59.1659L28.8719 55.9394L30.8736 58.9177L29.3675 60.1512Z" stroke="#FEF7FF" stroke-width="0.1"/>
</g>
<g style="mix-blend-mode:multiply" opacity="0.5">
<path d="M28.9098 59.1544L28.872 55.9404L30.3003 58.0795L30.3094 58.093L30.3247 58.0987L32.706 58.9729L31.9956 60.0778L29.4094 60.1556L28.9098 59.1544Z" fill="url(#paint76_linear_220_9996)" style="mix-blend-mode:multiply"/>
<path d="M28.9098 59.1544L28.872 55.9404L30.3003 58.0795L30.3094 58.093L30.3247 58.0987L32.706 58.9729L31.9956 60.0778L29.4094 60.1556L28.9098 59.1544Z" stroke="#FEF7FF" stroke-width="0.1"/>
</g>
<path d="M42.706 72.7155L42.4678 71.7611L43.5949 72.3762L42.706 72.7155Z" fill="#B7E3FD" stroke="#FEF7FF" stroke-width="0.1"/>
<path d="M27.3866 59.5432L27.3793 59.2357L28.4928 59.2213L27.3866 59.5432Z" fill="#B7E3FD" stroke="#FEF7FF" stroke-width="0.1"/>
<path style="mix-blend-mode:screen" opacity="0.5" d="M28.5905 62.8689C31.2277 62.8689 33.3655 60.7366 33.3655 58.1063C33.3655 55.476 31.2277 53.3438 28.5905 53.3438C25.9533 53.3438 23.8154 55.476 23.8154 58.1063C23.8154 60.7366 25.9533 62.8689 28.5905 62.8689Z" fill="url(#paint77_radial_220_9996)"/>
<g style="mix-blend-mode:multiply" opacity="0.15">
<path d="M25.0391 42.313L25.0328 42.3122L25.014 42.3027L24.9365 42.2637C24.8685 42.2294 24.7686 42.1792 24.6407 42.1151C24.3848 41.9869 24.0172 41.8031 23.5698 41.5811C22.675 41.137 21.461 40.5397 20.1847 39.9269C18.9084 39.314 17.5694 38.6855 16.4245 38.179C15.8794 37.9378 15.3773 37.7239 14.9466 37.5524C15.3711 37.7011 15.9762 37.913 16.7022 38.1677C18.1605 38.6792 20.1068 39.3628 22.0593 40.0514C24.0118 40.7401 25.9703 41.4336 27.4527 41.965C28.194 42.2307 28.8161 42.4558 29.259 42.6194C29.4804 42.7012 29.6568 42.7676 29.7808 42.8159C29.7951 42.8215 29.8087 42.8268 29.8216 42.8319C29.7005 42.8281 29.5262 42.8161 29.3143 42.798C28.8563 42.7588 28.2271 42.6917 27.5913 42.6196C26.9557 42.5474 26.3139 42.4703 25.831 42.4112C25.5895 42.3817 25.3878 42.3566 25.2465 42.339L25.0823 42.3184L25.0391 42.313Z" fill="url(#paint78_linear_220_9996)" style="mix-blend-mode:multiply"/>
<path d="M25.0391 42.313L25.0328 42.3122L25.014 42.3027L24.9365 42.2637C24.8685 42.2294 24.7686 42.1792 24.6407 42.1151C24.3848 41.9869 24.0172 41.8031 23.5698 41.5811C22.675 41.137 21.461 40.5397 20.1847 39.9269C18.9084 39.314 17.5694 38.6855 16.4245 38.179C15.8794 37.9378 15.3773 37.7239 14.9466 37.5524C15.3711 37.7011 15.9762 37.913 16.7022 38.1677C18.1605 38.6792 20.1068 39.3628 22.0593 40.0514C24.0118 40.7401 25.9703 41.4336 27.4527 41.965C28.194 42.2307 28.8161 42.4558 29.259 42.6194C29.4804 42.7012 29.6568 42.7676 29.7808 42.8159C29.7951 42.8215 29.8087 42.8268 29.8216 42.8319C29.7005 42.8281 29.5262 42.8161 29.3143 42.798C28.8563 42.7588 28.2271 42.6917 27.5913 42.6196C26.9557 42.5474 26.3139 42.4703 25.831 42.4112C25.5895 42.3817 25.3878 42.3566 25.2465 42.339L25.0823 42.3184L25.0391 42.313Z" stroke="#FEF7FF" stroke-width="0.1"/>
</g>
<defs>
<linearGradient id="paint0_linear_220_9996" x1="27.3296" y1="37.2756" x2="35.4941" y2="23.2897" gradientUnits="userSpaceOnUse">
<stop stop-color="#71C8FC"/>
<stop offset="1" stop-color="#58299A"/>
</linearGradient>
<linearGradient id="paint1_linear_220_9996" x1="38.3882" y1="42.3102" x2="42.0264" y2="22.9942" gradientUnits="userSpaceOnUse">
<stop stop-color="#71C8FC"/>
<stop offset="1" stop-color="#58299A"/>
</linearGradient>
<linearGradient id="paint2_linear_220_9996" x1="21.2682" y1="15.8777" x2="36.716" y2="24.7197" gradientUnits="userSpaceOnUse">
<stop stop-color="#71C8FC"/>
<stop offset="1" stop-color="#58299A"/>
</linearGradient>
<radialGradient id="paint3_radial_220_9996" cx="0" cy="0" r="1" gradientUnits="userSpaceOnUse" gradientTransform="translate(25.1327 19.8316) rotate(-22.8063) scale(8.21463 8.19961)">
<stop/>
<stop offset="1" stop-color="white"/>
</radialGradient>
<linearGradient id="paint4_linear_220_9996" x1="37.9705" y1="20.5164" x2="60.3756" y2="31.2986" gradientUnits="userSpaceOnUse">
<stop stop-color="#71C8FC"/>
<stop offset="1" stop-color="#58299A"/>
</linearGradient>
<linearGradient id="paint5_linear_220_9996" x1="27.1694" y1="26.9681" x2="42.0766" y2="36.6146" gradientUnits="userSpaceOnUse">
<stop stop-color="#D4B6FC"/>
<stop offset="1" stop-color="#C092FB"/>
</linearGradient>
<linearGradient id="paint6_linear_220_9996" x1="40.314" y1="28.6537" x2="47.5035" y2="36.2711" gradientUnits="userSpaceOnUse">
<stop stop-color="#D4B6FC"/>
<stop offset="1" stop-color="#C092FB"/>
</linearGradient>
<linearGradient id="paint7_linear_220_9996" x1="46.4607" y1="35.7423" x2="76.8123" y2="66.2274" gradientUnits="userSpaceOnUse">
<stop stop-color="#D4B6FC"/>
<stop offset="1" stop-color="#C092FB"/>
</linearGradient>
<linearGradient id="paint8_linear_220_9996" x1="28.6371" y1="13.2113" x2="21.3025" y2="10.8147" gradientUnits="userSpaceOnUse">
<stop/>
<stop offset="1" stop-color="white"/>
</linearGradient>
<linearGradient id="paint9_linear_220_9996" x1="45.1569" y1="26.2401" x2="37.9126" y2="19.4632" gradientUnits="userSpaceOnUse">
<stop/>
<stop offset="1" stop-color="white"/>
</linearGradient>
<linearGradient id="paint10_linear_220_9996" x1="27.1625" y1="40.2625" x2="45.9729" y2="12.9711" gradientUnits="userSpaceOnUse">
<stop stop-color="#4F1E95"/>
<stop offset="1"/>
</linearGradient>
<linearGradient id="paint11_linear_220_9996" x1="30.3097" y1="42.7649" x2="55.0707" y2="20.703" gradientUnits="userSpaceOnUse">
<stop stop-color="#4F1E95"/>
<stop offset="1"/>
</linearGradient>
<linearGradient id="paint12_linear_220_9996" x1="32.0076" y1="44.6748" x2="56.7685" y2="22.6129" gradientUnits="userSpaceOnUse">
<stop stop-color="#4F1E95"/>
<stop offset="1"/>
</linearGradient>
<linearGradient id="paint13_linear_220_9996" x1="19.1471" y1="31.1895" x2="41.7214" y2="21.2622" gradientUnits="userSpaceOnUse">
<stop stop-color="#D0A7FB"/>
<stop offset="1"/>
</linearGradient>
<linearGradient id="paint14_linear_220_9996" x1="33.5716" y1="35.5727" x2="42.8979" y2="27.9753" gradientUnits="userSpaceOnUse">
<stop stop-color="#D0A7FB"/>
<stop offset="1"/>
</linearGradient>
<linearGradient id="paint15_linear_220_9996" x1="35.5759" y1="94.9378" x2="50.6786" y2="26.6578" gradientUnits="userSpaceOnUse">
<stop stop-color="#00CAFF"/>
<stop offset="1" stop-color="#14002E"/>
</linearGradient>
<linearGradient id="paint16_linear_220_9996" x1="40.1962" y1="60.8536" x2="40.911" y2="43.3907" gradientUnits="userSpaceOnUse">
<stop stop-color="#B37CFA"/>
<stop offset="1" stop-color="#4F1E95"/>
</linearGradient>
<linearGradient id="paint17_linear_220_9996" x1="30.262" y1="85.9104" x2="19.7848" y2="49.2436" gradientUnits="userSpaceOnUse">
<stop stop-color="#160330"/>
<stop offset="1" stop-color="#6B30B9"/>
</linearGradient>
<linearGradient id="paint18_linear_220_9996" x1="16.7402" y1="66.4868" x2="64.5633" y2="33.1061" gradientUnits="userSpaceOnUse">
<stop stop-color="#00CAFF"/>
<stop offset="1" stop-color="#14002E"/>
</linearGradient>
<linearGradient id="paint19_linear_220_9996" x1="18.0924" y1="74.7034" x2="73.5565" y2="35.984" gradientUnits="userSpaceOnUse">
<stop stop-color="#5A189A"/>
<stop offset="1" stop-color="#190532"/>
</linearGradient>
<linearGradient id="paint20_linear_220_9996" x1="49.5717" y1="80.3916" x2="39.0945" y2="43.7248" gradientUnits="userSpaceOnUse">
<stop stop-color="#160330"/>
<stop offset="1" stop-color="#6B30B9"/>
</linearGradient>
<linearGradient id="paint21_linear_220_9996" x1="45.9643" y1="87.7019" x2="47.776" y2="63.5749" gradientUnits="userSpaceOnUse">
<stop stop-color="#271926"/>
<stop offset="1" stop-color="#14002E"/>
</linearGradient>
<linearGradient id="paint22_linear_220_9996" x1="60.8333" y1="77.1713" x2="50.3561" y2="40.5095" gradientUnits="userSpaceOnUse">
<stop stop-color="#160330"/>
<stop offset="1" stop-color="#6B30B9"/>
</linearGradient>
<linearGradient id="paint23_linear_220_9996" x1="47.8702" y1="83.9992" x2="87.0785" y2="23.5547" gradientUnits="userSpaceOnUse">
<stop stop-color="#9D4EDD"/>
<stop offset="1" stop-color="#14002E"/>
</linearGradient>
<linearGradient id="paint24_linear_220_9996" x1="49.6117" y1="68.4627" x2="60.8852" y2="45.1841" gradientUnits="userSpaceOnUse">
<stop stop-color="#5A189A"/>
<stop offset="1" stop-color="#14002E"/>
</linearGradient>
<linearGradient id="paint25_linear_220_9996" x1="55.1684" y1="65.7058" x2="56.1313" y2="42.1018" gradientUnits="userSpaceOnUse">
<stop stop-color="#B37CFA"/>
<stop offset="1" stop-color="#4F1E95"/>
</linearGradient>
<linearGradient id="paint26_linear_220_9996" x1="48.7883" y1="70.4084" x2="49.1556" y2="61.3112" gradientUnits="userSpaceOnUse">
<stop stop-color="#D4B6FC"/>
<stop offset="1" stop-color="#C092FB"/>
</linearGradient>
<linearGradient id="paint27_linear_220_9996" x1="60.5338" y1="57.8927" x2="61.0699" y2="44.7993" gradientUnits="userSpaceOnUse">
<stop stop-color="#D4B6FC"/>
<stop offset="1" stop-color="#C092FB"/>
</linearGradient>
<linearGradient id="paint28_linear_220_9996" x1="33.5851" y1="56.8325" x2="34.0765" y2="44.7493" gradientUnits="userSpaceOnUse">
<stop stop-color="#D4B6FC"/>
<stop offset="1" stop-color="#C092FB"/>
</linearGradient>
<linearGradient id="paint29_linear_220_9996" x1="35.8254" y1="66.9544" x2="43.4149" y2="57.2955" gradientUnits="userSpaceOnUse">
<stop stop-color="#271926"/>
<stop offset="1" stop-color="#14002E"/>
</linearGradient>
<linearGradient id="paint30_linear_220_9996" x1="37.9659" y1="75.843" x2="40.4284" y2="64.7177" gradientUnits="userSpaceOnUse">
<stop stop-color="#B37CFA"/>
<stop offset="1" stop-color="#4F1E95"/>
</linearGradient>
<linearGradient id="paint31_linear_220_9996" x1="35.8304" y1="80.3712" x2="56.5897" y2="56.3254" gradientUnits="userSpaceOnUse">
<stop stop-color="#271926"/>
<stop offset="1" stop-color="#14002E"/>
</linearGradient>
<linearGradient id="paint32_linear_220_9996" x1="55.8587" y1="70.9014" x2="55.9679" y2="68.1991" gradientUnits="userSpaceOnUse">
<stop stop-color="#D4B6FC"/>
<stop offset="1" stop-color="#C092FB"/>
</linearGradient>
<linearGradient id="paint33_linear_220_9996" x1="60" y1="63.3866" x2="60.0546" y2="62.0529" gradientUnits="userSpaceOnUse">
<stop stop-color="#D4B6FC"/>
<stop offset="1" stop-color="#C092FB"/>
</linearGradient>
<linearGradient id="paint34_linear_220_9996" x1="56.9114" y1="69.4232" x2="57.1993" y2="62.3315" gradientUnits="userSpaceOnUse">
<stop stop-color="#B37CFA"/>
<stop offset="1" stop-color="#4F1E95"/>
</linearGradient>
<linearGradient id="paint35_linear_220_9996" x1="58.4882" y1="66.8453" x2="70.4785" y2="70.2558" gradientUnits="userSpaceOnUse">
<stop stop-color="#D4B6FC"/>
<stop offset="1" stop-color="#C092FB"/>
</linearGradient>
<linearGradient id="paint36_linear_220_9996" x1="47.072" y1="73.0161" x2="47.1266" y2="71.6624" gradientUnits="userSpaceOnUse">
<stop stop-color="#B37CFA"/>
<stop offset="1" stop-color="#4F1E95"/>
</linearGradient>
<linearGradient id="paint37_linear_220_9996" x1="22.2835" y1="62.5653" x2="22.224" y2="62.1771" gradientUnits="userSpaceOnUse">
<stop stop-color="#D4B6FC"/>
<stop offset="1" stop-color="#C092FB"/>
</linearGradient>
<linearGradient id="paint38_linear_220_9996" x1="55.5493" y1="42.7655" x2="74.2502" y2="43.4809" gradientUnits="userSpaceOnUse">
<stop stop-color="#D4B6FC"/>
<stop offset="1" stop-color="#C092FB"/>
</linearGradient>
<linearGradient id="paint39_linear_220_9996" x1="12.3169" y1="78.037" x2="31.8532" y2="59.7171" gradientUnits="userSpaceOnUse">
<stop stop-color="#4F1E95"/>
<stop offset="1"/>
</linearGradient>
<linearGradient id="paint40_linear_220_9996" x1="18.068" y1="76.8503" x2="36.5342" y2="59.5334" gradientUnits="userSpaceOnUse">
<stop stop-color="#B37CFA"/>
<stop offset="1" stop-color="#4F1E95"/>
</linearGradient>
<linearGradient id="paint41_linear_220_9996" x1="38.4449" y1="18.5428" x2="51.3631" y2="45.1144" gradientUnits="userSpaceOnUse">
<stop stop-color="#71C8FC"/>
<stop offset="1" stop-color="#58299A"/>
</linearGradient>
<linearGradient id="paint42_linear_220_9996" x1="18.6361" y1="40.0965" x2="55.0811" y2="45.4888" gradientUnits="userSpaceOnUse">
<stop stop-color="#D4B6FC"/>
<stop offset="1" stop-color="#C092FB"/>
</linearGradient>
<linearGradient id="paint43_linear_220_9996" x1="57.7797" y1="23.1311" x2="61.6825" y2="37.2598" gradientUnits="userSpaceOnUse">
<stop stop-color="#D4B6FC"/>
<stop offset="1" stop-color="#C092FB"/>
</linearGradient>
<linearGradient id="paint44_linear_220_9996" x1="46.8174" y1="39.1311" x2="47.453" y2="41.4212" gradientUnits="userSpaceOnUse">
<stop stop-color="#D4B6FC"/>
<stop offset="1" stop-color="#C092FB"/>
</linearGradient>
<linearGradient id="paint45_linear_220_9996" x1="65.4735" y1="35.6425" x2="67.1916" y2="41.8655" gradientUnits="userSpaceOnUse">
<stop stop-color="#D4B6FC"/>
<stop offset="1" stop-color="#C092FB"/>
</linearGradient>
<linearGradient id="paint46_linear_220_9996" x1="52.3559" y1="29.5163" x2="53.3192" y2="33.0012" gradientUnits="userSpaceOnUse">
<stop stop-color="#D4B6FC"/>
<stop offset="1" stop-color="#C092FB"/>
</linearGradient>
<linearGradient id="paint47_linear_220_9996" x1="26.9489" y1="39.8524" x2="31.1338" y2="63.6291" gradientUnits="userSpaceOnUse">
<stop stop-color="#AEE0FD"/>
<stop offset="1" stop-color="#6B42A6"/>
</linearGradient>
<linearGradient id="paint48_linear_220_9996" x1="35.7505" y1="38.0707" x2="39.9801" y2="62.1063" gradientUnits="userSpaceOnUse">
<stop stop-color="#AEE0FD"/>
<stop offset="1" stop-color="#6B42A6"/>
</linearGradient>
<linearGradient id="paint49_linear_220_9996" x1="48.2695" y1="46.1426" x2="39.827" y2="36.5955" gradientUnits="userSpaceOnUse">
<stop stop-color="#AEE0FD"/>
<stop offset="1" stop-color="#6B42A6"/>
</linearGradient>
<linearGradient id="paint50_linear_220_9996" x1="49.9858" y1="23.2111" x2="63.3774" y2="71.6908" gradientUnits="userSpaceOnUse">
<stop stop-color="#AEE0FD"/>
<stop offset="1" stop-color="#6B42A6"/>
</linearGradient>
<linearGradient id="paint51_linear_220_9996" x1="62.385" y1="20.1056" x2="75.9107" y2="69.0881" gradientUnits="userSpaceOnUse">
<stop stop-color="#AEE0FD"/>
<stop offset="1" stop-color="#6B42A6"/>
</linearGradient>
<linearGradient id="paint52_linear_220_9996" x1="19.3347" y1="74.6285" x2="44.1814" y2="32.7732" gradientUnits="userSpaceOnUse">
<stop stop-color="#71C8FC"/>
<stop offset="1" stop-color="#58299A"/>
</linearGradient>
<linearGradient id="paint53_linear_220_9996" x1="2.6895" y1="39.1709" x2="69.442" y2="59.0281" gradientUnits="userSpaceOnUse">
<stop stop-color="#D4B6FC"/>
<stop offset="1" stop-color="#C092FB"/>
</linearGradient>
<linearGradient id="paint54_linear_220_9996" x1="8.31278" y1="49.835" x2="21.5296" y2="53.7655" gradientUnits="userSpaceOnUse">
<stop stop-color="#D4B6FC"/>
<stop offset="1" stop-color="#C092FB"/>
</linearGradient>
<linearGradient id="paint55_linear_220_9996" x1="36.469" y1="45.0328" x2="71.0822" y2="55.3289" gradientUnits="userSpaceOnUse">
<stop stop-color="#D4B6FC"/>
<stop offset="1" stop-color="#C092FB"/>
</linearGradient>
<linearGradient id="paint56_linear_220_9996" x1="65.7231" y1="24.2761" x2="68.6293" y2="30.8309" gradientUnits="userSpaceOnUse">
<stop stop-color="#71C8FC"/>
<stop offset="1" stop-color="#58299A"/>
</linearGradient>
<linearGradient id="paint57_linear_220_9996" x1="70.967" y1="23.3152" x2="74.3733" y2="35.6517" gradientUnits="userSpaceOnUse">
<stop stop-color="#D4B6FC"/>
<stop offset="1" stop-color="#C092FB"/>
</linearGradient>
<linearGradient id="paint58_linear_220_9996" x1="80.6619" y1="33.6367" x2="80.9846" y2="34.8067" gradientUnits="userSpaceOnUse">
<stop stop-color="#D4B6FC"/>
<stop offset="1" stop-color="#C092FB"/>
</linearGradient>
<linearGradient id="paint59_linear_220_9996" x1="71.6107" y1="26.7438" x2="71.8688" y2="34.8756" gradientUnits="userSpaceOnUse">
<stop stop-color="#71C8FC"/>
<stop offset="1" stop-color="#58299A"/>
</linearGradient>
<linearGradient id="paint60_linear_220_9996" x1="75.2832" y1="26.6297" x2="75.5363" y2="34.7614" gradientUnits="userSpaceOnUse">
<stop stop-color="#71C8FC"/>
<stop offset="1" stop-color="#58299A"/>
</linearGradient>
<linearGradient id="paint61_linear_220_9996" x1="42.3867" y1="48.4864" x2="42.9925" y2="50.6669" gradientUnits="userSpaceOnUse">
<stop stop-color="#D4B6FC"/>
<stop offset="1" stop-color="#C092FB"/>
</linearGradient>
<linearGradient id="paint62_linear_220_9996" x1="53.3837" y1="48.8052" x2="53.8852" y2="50.6224" gradientUnits="userSpaceOnUse">
<stop stop-color="#D4B6FC"/>
<stop offset="1" stop-color="#C092FB"/>
</linearGradient>
<linearGradient id="paint63_linear_220_9996" x1="57.2708" y1="48.0139" x2="57.8964" y2="50.2791" gradientUnits="userSpaceOnUse">
<stop stop-color="#71C8FC"/>
<stop offset="1" stop-color="#58299A"/>
</linearGradient>
<linearGradient id="paint64_linear_220_9996" x1="12.1996" y1="44.242" x2="12.9196" y2="46.8656" gradientUnits="userSpaceOnUse">
<stop stop-color="#D4B6FC"/>
<stop offset="1" stop-color="#C092FB"/>
</linearGradient>
<linearGradient id="paint65_linear_220_9996" x1="18.3867" y1="43.9132" x2="19.4046" y2="47.5972" gradientUnits="userSpaceOnUse">
<stop stop-color="#D4B6FC"/>
<stop offset="1" stop-color="#C092FB"/>
</linearGradient>
<linearGradient id="paint66_linear_220_9996" x1="66.5663" y1="32.7509" x2="67.0926" y2="34.6576" gradientUnits="userSpaceOnUse">
<stop stop-color="#D4B6FC"/>
<stop offset="1" stop-color="#C092FB"/>
</linearGradient>
<linearGradient id="paint67_linear_220_9996" x1="53.0345" y1="30.5016" x2="53.8141" y2="33.3194" gradientUnits="userSpaceOnUse">
<stop stop-color="#D4B6FC"/>
<stop offset="1" stop-color="#C092FB"/>
</linearGradient>
<linearGradient id="paint68_linear_220_9996" x1="15.7971" y1="46.8147" x2="16.3284" y2="48.7314" gradientUnits="userSpaceOnUse">
<stop stop-color="#D4B6FC"/>
<stop offset="1" stop-color="#C092FB"/>
</linearGradient>
<linearGradient id="paint69_linear_220_9996" x1="51.9767" y1="44.1123" x2="53.1933" y2="48.5083" gradientUnits="userSpaceOnUse">
<stop stop-color="#D4B6FC"/>
<stop offset="1" stop-color="#C092FB"/>
</linearGradient>
<linearGradient id="paint70_linear_220_9996" x1="38.0665" y1="53.2961" x2="38.0902" y2="53.2724" gradientUnits="userSpaceOnUse">
<stop stop-color="#4F1E95"/>
<stop offset="1"/>
</linearGradient>
<linearGradient id="paint71_linear_220_9996" x1="32.8566" y1="75.0464" x2="56.1878" y2="66.2524" gradientUnits="userSpaceOnUse">
<stop stop-color="#71C8FC"/>
<stop offset="1" stop-color="#58299A"/>
</linearGradient>
<linearGradient id="paint72_linear_220_9996" x1="35.7456" y1="77.336" x2="54.6439" y2="70.2118" gradientUnits="userSpaceOnUse">
<stop stop-color="#D4B6FC"/>
<stop offset="1" stop-color="#C092FB"/>
</linearGradient>
<linearGradient id="paint73_linear_220_9996" x1="32.8566" y1="75.0464" x2="56.1878" y2="66.2524" gradientUnits="userSpaceOnUse">
<stop stop-color="#B37CFA"/>
<stop offset="1" stop-color="#4F1E95"/>
</linearGradient>
<linearGradient id="paint74_linear_220_9996" x1="23.526" y1="60.0822" x2="32.2571" y2="56.7925" gradientUnits="userSpaceOnUse">
<stop stop-color="#71C8FC"/>
<stop offset="1" stop-color="#58299A"/>
</linearGradient>
<linearGradient id="paint75_linear_220_9996" x1="23.526" y1="60.0822" x2="32.2571" y2="56.7925" gradientUnits="userSpaceOnUse">
<stop stop-color="#D4B6FC"/>
<stop offset="1" stop-color="#C092FB"/>
</linearGradient>
<linearGradient id="paint76_linear_220_9996" x1="25.023" y1="59.9776" x2="34.0832" y2="56.558" gradientUnits="userSpaceOnUse">
<stop stop-color="#B37CFA"/>
<stop offset="1" stop-color="#4F1E95"/>
</linearGradient>
<radialGradient id="paint77_radial_220_9996" cx="0" cy="0" r="1" gradientUnits="userSpaceOnUse" gradientTransform="translate(28.5905 58.1063) scale(4.77505 4.76256)">
<stop stop-color="#36116A"/>
<stop offset="1"/>
</radialGradient>
<linearGradient id="paint78_linear_220_9996" x1="19.8936" y1="37.4339" x2="23.0517" y2="41.5028" gradientUnits="userSpaceOnUse">
<stop stop-color="#D4B6FC"/>
<stop offset="1" stop-color="#C092FB"/>
</linearGradient>
</defs>
</svg>
