<svg width="84" height="84" viewBox="0 0 84 84" fill="none" xmlns="http://www.w3.org/2000/svg">
<path d="M70.1121 42.7241C70.2562 42.7032 70.4023 42.7013 70.5468 42.7184C72.1647 42.8949 73.9623 45.2953 76.0446 49.2756C78.4558 48.9336 79.9188 47.5436 81.5838 46.9778C82.1153 46.7874 82.6798 46.708 83.2428 46.7445C80.6746 42.519 76.9403 41.5732 72.6445 42.202C71.9622 42.3008 71.2649 42.4393 70.5566 42.6105C70.409 42.6485 70.2614 42.6861 70.1121 42.7241Z" fill="#5A189A"/>
<path d="M65.4785 43.6982V50.8609C68.4605 53.6719 71.3861 55.7552 74.1596 55.9166C75.9113 56.0208 77.6028 55.356 79.2113 53.6286C77.0396 52.2709 75.7734 48.0209 73.6286 45.2181C71.8549 42.8938 69.4754 41.5659 65.4785 43.6982Z" fill="#5A189A"/>
<path d="M74.499 56.6867C74.5739 56.6867 74.6487 56.6867 74.7231 56.683C76.5593 56.6221 78.2557 55.7686 79.7651 54.1462C79.8413 54.0642 79.8986 53.9663 79.9327 53.8595C79.9668 53.7526 79.9769 53.6395 79.9622 53.5283C79.9476 53.417 79.9086 53.3104 79.8481 53.2161C79.7876 53.1218 79.707 53.0422 79.6122 52.983C78.4895 52.2802 77.5629 50.527 76.5813 48.6709C75.4684 46.5659 74.3173 44.3886 72.5855 43.062C70.5061 41.4686 68.0657 41.4575 65.1247 43.0273C65.0034 43.0919 64.902 43.1885 64.8313 43.3067C64.7606 43.4249 64.7233 43.5603 64.7233 43.6982V50.8608C64.7233 50.9647 64.7444 51.0674 64.7855 51.1627C64.8265 51.258 64.8866 51.3438 64.962 51.4149C68.8191 55.0499 71.7744 56.6867 74.499 56.6867ZM78.0679 53.6906C77.0038 54.6405 75.8872 55.1243 74.6735 55.1643C72.4022 55.2407 69.7165 53.7654 66.2343 50.5291V44.1643C71.21 41.7497 73.1715 45.4611 75.2452 49.3839C76.1324 51.0619 76.9794 52.6635 78.0679 53.6906Z" fill="#371A45"/>
<path d="M65.2926 44.4345C68.1133 45.0036 69.8231 47.169 71.5345 49.3373C72.1468 50.0781 72.8035 50.8307 73.6358 51.4072C73.9778 51.6376 74.3429 51.1412 74.0156 50.8821C73.3199 50.3167 72.7596 49.5772 72.2192 48.8103C71.1173 47.2168 70.0394 45.52 68.4219 44.3376C67.588 43.7235 66.655 43.2582 65.6638 42.9624C64.6563 42.6976 64.2769 44.1832 65.2926 44.4332V44.4345Z" fill="#371A45"/>
<path d="M76.0443 50.0356C76.0797 50.0356 76.115 50.033 76.15 50.0278C77.7984 49.7945 79.0252 49.12 80.1072 48.5247C81.2229 47.9118 82.1052 47.4277 83.1909 47.5033C83.3294 47.5131 83.4678 47.4844 83.5912 47.4204C83.7145 47.3563 83.8179 47.2594 83.89 47.1402C83.9621 47.021 84.0002 46.8842 84 46.7447C83.9998 46.6052 83.9614 46.4685 83.889 46.3495C80.1271 40.1596 74.1166 40.8958 69.9228 41.9884C69.7356 42.0369 69.574 42.1557 69.4712 42.3202C69.3685 42.4848 69.3324 42.6827 69.3705 42.8732C69.4085 43.0637 69.5177 43.2323 69.6756 43.3443C69.8336 43.4564 70.0283 43.5033 70.2196 43.4756C71.4134 43.3044 73.1472 45.3738 75.3754 49.6295C75.4396 49.752 75.5358 49.8545 75.6536 49.9261C75.7715 49.9976 75.9066 50.0355 76.0443 50.0356ZM81.891 46.1019C80.9802 46.3131 80.1718 46.7556 79.3814 47.1919C78.4958 47.6794 77.5833 48.1807 76.4538 48.4307C75.0258 45.7632 73.7917 43.9773 72.6451 42.9693C76.8335 42.3348 79.7737 43.3362 81.891 46.1019Z" fill="#371A45"/>
<path d="M73.4386 45.672C75.0329 45.4599 76.6565 45.3937 78.2244 45.7002C78.7376 45.7913 78.9303 45.0579 78.4407 44.883C76.8025 44.3237 75.0586 44.1603 73.3402 44.1545C72.2745 44.1954 72.3741 45.768 73.4386 45.6703V45.672Z" fill="#371A45"/>
<g opacity="0.2">
<path d="M65.4784 43.6983V50.8609C68.4605 53.6719 71.3861 55.7552 74.1595 55.9166C73.1068 52.6693 72.5571 49.0935 73.6285 45.2177C71.8549 42.8938 69.4754 41.5659 65.4784 43.6983Z" fill="#371A45"/>
</g>
<g opacity="0.2">
<path d="M70.5468 42.7186C72.1647 42.8951 73.9624 45.2954 76.0446 49.2758C78.4558 48.9338 79.9188 47.5438 81.5839 46.9779C78.3578 46.4158 75.4172 44.6593 72.6445 42.2021C71.9623 42.301 71.2649 42.4395 70.5566 42.6107L70.5468 42.7186Z" fill="#371A45"/>
</g>
<path d="M12.0866 65.0986C14.2312 69.4913 17.4712 73.2512 21.4911 76.0123C22.3394 76.5959 23.218 77.1338 24.1231 77.6238C24.5675 77.8656 25.0241 78.0961 25.4885 78.3183C29.4314 80.1932 33.7439 81.1519 38.106 81.1232C38.6598 81.1175 39.2119 81.0974 39.7625 81.0631C49.8338 80.4127 59.2859 74.5394 63.9891 64.8783C70.9202 50.6498 64.9182 33.596 50.5877 26.788C47.8965 25.5074 45.0249 24.6515 42.0741 24.2503C41.7374 24.2017 41.3983 24.1625 41.0575 24.1306C40.15 24.0391 39.2438 23.9906 38.339 23.9852C34.182 23.9664 30.0684 24.8336 26.2696 26.5297C25.6705 26.7972 25.0804 27.0849 24.4992 27.3927C23.6262 27.8558 22.7775 28.3637 21.9562 28.9142C17.7228 31.7355 14.3156 35.641 12.0862 40.2275C8.09979 48.4129 8.39296 57.5314 12.0866 65.0986Z" fill="#FEF7FF"/>
<path d="M37.9192 81.1866H38.1062C38.6588 81.1809 39.2175 81.1609 39.766 81.1266C50.1992 80.4529 59.5021 74.2381 64.0443 64.9063C67.3903 58.0365 67.8526 50.2945 65.3454 43.1057C62.8188 35.8596 57.5869 30.0444 50.6132 26.7313C47.9162 25.448 45.0384 24.5902 42.0813 24.1884C41.7592 24.1418 41.4262 24.1026 41.0647 24.0687C40.1604 23.9771 39.2439 23.9281 38.3404 23.9224C34.1749 23.9043 30.0528 24.7735 26.2458 26.4727C25.6396 26.7432 25.0427 27.0341 24.4718 27.3377C19.0777 30.1978 14.7231 34.7003 12.032 40.1999C8.16919 48.1283 8.16919 57.2129 12.032 65.1249C14.1851 69.5247 17.4315 73.2921 21.4572 76.0627C22.3073 76.6473 23.1876 77.1863 24.0945 77.6774C24.506 77.9013 24.9536 78.1297 25.4627 78.3744C29.357 80.2261 33.6117 81.1864 37.92 81.1862L37.9192 81.1866ZM38.179 24.0462H38.3417C39.2411 24.0515 40.1535 24.1005 41.0546 24.1916C41.4156 24.2256 41.7458 24.2648 42.067 24.3109C45.0118 24.7114 47.8776 25.5658 50.5631 26.8441C57.5072 30.1433 62.7163 35.9332 65.232 43.1461C67.7274 50.3035 67.2671 58.012 63.9357 64.8515C59.413 74.142 50.1492 80.3307 39.7603 81.0016C39.2138 81.0359 38.6576 81.0559 38.1075 81.0612C35.2924 81.0803 32.4896 80.6864 29.7878 79.8919C28.3243 79.4622 26.8968 78.9174 25.5184 78.2625C25.0114 78.0174 24.5657 77.7914 24.1559 77.5679C23.2528 77.0788 22.3761 76.542 21.5296 75.9598C17.5212 73.2014 14.289 69.4505 12.1454 65.0697C8.30051 57.1924 8.30051 48.1471 12.1454 40.2534C14.3738 35.6804 17.7718 31.7847 21.9915 28.9654C22.8111 28.4162 23.6581 27.9095 24.5291 27.4471C25.0984 27.1452 25.692 26.8555 26.2959 26.5859C30.0372 24.9155 34.085 24.0504 38.179 24.0462Z" fill="#371A45"/>
<path d="M63.9891 64.879C59.2866 74.5409 49.8329 80.4145 39.7616 81.0637C39.2116 81.0989 38.66 81.1189 38.1067 81.1238C33.7447 81.1504 29.4325 80.1923 25.4884 78.3202C25.0253 78.0951 24.5682 77.8654 24.123 77.6256C23.2184 77.1346 22.34 76.5963 21.4914 76.013C18.4053 73.8927 15.7692 71.1772 13.7364 68.0245C11.7036 64.8717 10.3146 61.3445 9.65012 57.6477C11.7927 61.7911 14.9216 65.338 18.7582 67.9727C19.6061 68.5573 20.4847 69.0956 21.3902 69.5853C21.8334 69.8272 22.2904 70.0564 22.7552 70.2799C26.6974 72.1559 31.01 73.1143 35.3719 73.0839C35.927 73.0785 36.4793 73.0583 37.0288 73.0234C47.0997 72.3742 56.5534 66.501 61.2558 56.8387C64.0013 51.2028 64.7157 45.1241 63.6894 39.4155C67.6652 47.0967 68.0808 56.48 63.9891 64.879Z" fill="#FEF7FF"/>
<path d="M37.9193 81.6011H38.1091C38.6703 81.5954 39.2359 81.575 39.7917 81.5402C50.3729 80.8563 59.8063 74.5524 64.4148 65.0887C67.8096 58.1192 68.2776 50.2636 65.7354 42.9694C63.1738 35.6179 57.8643 29.7182 50.7901 26.3572C48.0548 25.0559 45.1361 24.186 42.137 23.7783C41.8117 23.7314 41.4726 23.6913 41.103 23.6558C40.1885 23.5634 39.259 23.5136 38.3429 23.5079C34.1188 23.489 29.9386 24.3705 26.0784 26.0941C25.4636 26.3683 24.8585 26.6633 24.2791 26.9709C23.3917 27.4418 22.5289 27.958 21.6939 28.5174C17.3946 31.3896 13.9324 35.3585 11.6616 40.0175C7.74269 48.0614 7.74269 57.2792 11.6616 65.3081C13.8459 69.7721 17.1395 73.5944 21.2239 76.4053C22.0862 76.9981 22.9791 77.5448 23.8989 78.0429C24.3153 78.2692 24.7687 78.5005 25.2843 78.7489C29.2341 80.6274 33.5497 81.6016 37.9197 81.6011H37.9193ZM38.1791 24.4607H38.3372C39.2237 24.466 40.1235 24.5142 41.0111 24.6041C41.3681 24.6376 41.6926 24.676 42.0065 24.7213C44.9107 25.1156 47.7369 25.9577 50.3855 27.2181C57.2283 30.4695 62.3622 36.1748 64.8409 43.2844C67.2997 50.3359 66.8459 57.9313 63.5633 64.6703C59.1053 73.828 49.9736 79.9276 39.7319 80.5891C39.1932 80.623 38.6442 80.6426 38.101 80.6483C36.5971 80.6575 35.0948 80.5482 33.608 80.3215C30.8662 79.8987 28.1998 79.0793 25.6917 77.8888C25.1932 77.649 24.7532 77.4247 24.3499 77.2049C23.4592 76.7227 22.5946 76.1934 21.7598 75.6192C17.8103 72.901 14.6255 69.205 12.513 64.8885C8.72466 57.1256 8.72507 48.2146 12.513 40.4371C15.1551 35.0395 19.4289 30.6203 24.7227 27.8122C25.2826 27.5147 25.8686 27.2291 26.4634 26.9636C30.1523 25.3171 34.1431 24.4641 38.1795 24.4594L38.1791 24.4607Z" fill="#371A45"/>
<path d="M37.9192 81.8848H38.1107C38.68 81.8791 39.2492 81.8582 39.8091 81.8235C50.492 81.1334 60.0176 74.7691 64.668 65.2142C68.0962 58.1761 68.5715 50.2429 66.0013 42.8767C63.4132 35.4522 58.0537 29.4948 50.9108 26.1016C48.1492 24.7876 45.2024 23.9095 42.1744 23.4982C41.8491 23.4508 41.5035 23.4103 41.129 23.3756C40.208 23.2824 39.2696 23.2322 38.3445 23.2269C34.0802 23.2074 29.8602 24.0971 25.9633 25.8372C25.3432 26.1138 24.732 26.4117 24.1473 26.7226C18.6238 29.6524 14.1645 34.2633 11.4078 39.895C7.45072 48.0182 7.45072 57.3271 11.4078 65.434C13.6136 69.9419 16.9395 73.8016 21.064 76.6399C21.9347 77.2385 22.8362 77.7904 23.7647 78.2934C24.1847 78.5218 24.6422 78.7551 25.1618 79.0056C29.1498 80.9024 33.507 81.8861 37.9192 81.8856V81.8848ZM38.179 24.7443H38.3372C39.2147 24.7496 40.1056 24.797 40.9847 24.8861C41.3388 24.9196 41.6588 24.9572 41.9678 25.0017C44.8442 25.3923 47.6434 26.2263 50.2667 27.4744C57.0405 30.6927 62.1227 36.3404 64.5762 43.3777C67.0097 50.3573 66.5608 57.875 63.3116 64.5454C58.8978 73.612 49.8565 79.6511 39.7152 80.3061C39.1821 80.3391 38.6385 80.3588 38.1002 80.3645C33.8526 80.3898 29.6536 79.4561 25.8132 77.6324C25.32 77.395 24.8845 77.1727 24.4848 76.9553C23.6028 76.4777 22.7465 75.9536 21.9195 75.3852C18.0101 72.6943 14.8576 69.0354 12.7667 64.7623C9.01699 57.0812 9.01739 48.2585 12.7667 40.5601C14.9414 36.0974 18.2578 32.296 22.3761 29.5454C23.1772 29.0088 24.005 28.5138 24.8565 28.0623C25.4107 27.7682 25.9909 27.4854 26.5801 27.2223C30.2328 25.5919 34.1846 24.7473 38.1815 24.7427L38.179 24.7443Z" fill="#371A45"/>
<path d="M16.1242 71.2107C32.4414 83.6043 55.7833 76.2431 57.9452 56.1315C59.4159 42.4443 47.0351 30.5095 33.6861 30.0062C23.9705 29.6384 14.3062 33.4941 9.54726 48.282C9.54726 48.282 8.45958 55.146 10.1295 59.8176C11.7995 64.4892 14.22 68.749 14.22 68.749L16.1242 71.2107Z" fill="#240046"/>
<path d="M57.9444 56.1315C55.7808 76.2426 32.4414 83.6038 16.1237 71.2114L15.7383 70.7122C34.1455 74.7783 53.161 64.5448 55.7283 44.2473C57.5337 47.8505 58.3973 51.9068 57.9444 56.1315Z" fill="#160033"/>
<path d="M33.7268 80.8705C40.4065 80.8705 46.8294 78.7434 51.8006 74.8032C57.415 70.353 60.8102 64.0267 61.619 56.5081C62.3615 49.6033 60.0739 42.6686 55.1828 36.9812C49.7472 30.6631 41.724 26.7105 33.7194 26.409C29.2711 26.2407 25.2306 26.8764 21.711 28.2974L21.648 28.3228L21.5911 28.3604C17.2636 31.2512 13.7786 35.2458 11.4929 39.9352C7.54881 48.0319 7.54881 57.3101 11.4929 65.3893C13.6912 69.8828 17.0062 73.7304 21.1174 76.56C21.9852 77.1568 22.8838 77.707 23.8095 78.2082C24.2284 78.4362 24.6846 78.6691 25.2026 78.9183C26.617 79.5904 28.0819 80.1493 29.5838 80.5898L29.6847 80.6106C31.0252 80.7835 32.3753 80.8703 33.7268 80.8705ZM32.3378 27.712C32.7772 27.712 33.2211 27.7204 33.6694 27.7373C41.3137 28.0253 48.9815 31.8063 54.1821 37.8507C58.8305 43.2561 61.0062 49.8312 60.3036 56.3655C59.5339 63.5204 56.3095 69.5354 50.9829 73.7593C45.3021 78.2609 37.6229 80.278 29.9038 79.2975C28.4874 78.8792 27.1057 78.3507 25.771 77.7167C25.2762 77.4785 24.8391 77.2558 24.4382 77.0372C23.5532 76.5582 22.6942 76.0323 21.8647 75.4618C17.9419 72.7627 14.7784 69.0923 12.6802 64.8054C8.91705 57.0965 8.91746 48.2448 12.6802 40.5195C14.8524 36.0627 18.1595 32.2629 22.2657 29.5056C25.2445 28.3138 28.6287 27.712 32.3378 27.712Z" fill="#371A45"/>
<path d="M33.7637 77.9015C37.4114 77.9015 41.0266 77.1845 44.397 75.7205C52.4348 72.2293 57.5943 65.1128 58.5527 56.1957C59.2138 50.0463 57.1779 43.8703 52.8195 38.806C47.9808 33.1804 40.8351 29.6614 33.7088 29.3925C21.4292 28.9288 13.1071 35.2216 8.96497 48.0929L8.94301 48.1856C8.89788 48.4716 7.85045 55.2605 9.55293 60.0252C11.22 64.6928 13.6633 69.0106 13.6877 69.0547L13.7361 69.127L15.6879 71.6528L15.7521 71.7014C21.1316 75.7839 27.4954 77.9015 33.7637 77.9015ZM32.4821 30.5978C32.872 30.5978 33.264 30.6052 33.6612 30.6199C40.4557 30.8765 47.2717 34.2366 51.8936 39.6085C56.0268 44.4125 57.9594 50.2559 57.3353 56.0629C56.4253 64.5281 51.5321 71.2814 43.9098 74.5921C35.1742 78.3865 24.6996 76.9209 16.5548 70.7686L14.7279 68.4067C14.4884 67.9797 12.2528 63.9455 10.7024 59.6093C9.17559 55.3373 10.0518 49.0203 10.1421 48.423C13.9671 36.5903 21.48 30.5978 32.4821 30.5978Z" fill="#371A45"/>
<path d="M70.7732 55.4119C70.8545 61.0453 67.5683 65.8305 63.4294 66.0977C59.2905 66.3649 55.8665 62.0161 55.7851 56.3831C55.7851 56.348 55.7851 56.3104 55.7851 56.2748C55.7445 50.6888 59.0193 45.9633 63.1289 45.6973C66.3265 45.4902 69.0959 48.0388 70.2287 51.8055C70.5757 52.9764 70.759 54.1902 70.7732 55.4119Z" fill="#FEF7FF"/>
<path d="M70.7732 55.412C70.8545 61.0454 67.5683 65.8306 63.4294 66.0978C59.2905 66.365 55.8665 62.0161 55.7851 56.3832C55.7851 56.348 55.7851 56.3104 55.7851 56.2749C56.2483 56.8236 56.9643 57.347 57.9219 57.092C59.5971 56.6463 62.5601 52.8286 62.5601 52.8286C62.5601 52.8286 65.8829 52.3628 70.2287 51.8047C70.5758 52.9759 70.759 54.19 70.7732 55.412Z" fill="#FEF7FF"/>
<path d="M63.0591 66.8692C63.1977 66.8692 63.3372 66.8647 63.4767 66.8557C68.0047 66.5628 71.617 61.4242 71.5275 55.4014C71.4771 51.9261 70.2362 48.8075 68.123 46.8459C66.6523 45.4805 64.9108 44.821 63.081 44.9399C58.553 45.2329 54.9407 50.3715 55.0302 56.3942C55.081 59.8696 56.322 62.9882 58.4347 64.9497C59.7932 66.2106 61.3843 66.8692 63.0591 66.8692ZM63.4925 46.4455C64.7851 46.4455 66.0257 46.966 67.0983 47.9617C68.8821 49.6177 69.9731 52.4074 70.0174 55.4239C70.0938 60.6495 67.1162 65.0977 63.3795 65.3399C61.9759 65.4302 60.6194 64.9101 59.4602 63.8339C57.6764 62.178 56.585 59.3883 56.5411 56.3718C56.4647 51.1461 59.4423 46.6976 63.1786 46.4557C63.2843 46.4484 63.3888 46.4455 63.4933 46.4455H63.4925Z" fill="#371A45"/>
<path d="M65.0493 64.7865C61.6908 64.5114 59.2618 60.6695 59.6239 56.2055C59.9861 51.7414 63.0022 48.3455 66.3606 48.6206C69.7191 48.8957 72.1481 52.7375 71.786 57.2016C71.4238 61.6657 68.4077 65.0615 65.0493 64.7865Z" fill="#FEF7FF"/>
<path d="M65.4255 64.872C66.0933 64.8681 66.7534 64.728 67.3658 64.4602C69.1956 63.6765 70.6659 61.8792 71.4022 59.5287C72.7229 55.3106 71.2481 50.61 68.1144 49.0496C66.8132 48.4016 65.406 48.3665 64.0483 48.9483C62.2185 49.7315 60.7482 51.5289 60.0119 53.8798C58.6908 58.0975 60.1656 62.7985 63.2993 64.3584C63.9587 64.6932 64.6867 64.869 65.4255 64.872ZM71.2807 59.4899C70.5557 61.8049 69.1106 63.5732 67.3162 64.3421C65.9931 64.9084 64.624 64.8732 63.3562 64.2432C60.2762 62.709 58.8307 58.0783 60.1318 53.9182C60.8568 51.6032 62.3019 49.8349 64.0963 49.0664C65.419 48.4997 66.7884 48.5352 68.0562 49.1649C71.1355 50.6978 72.581 55.3302 71.2786 59.4899H71.2807Z" fill="#371A45"/>
<path d="M59.9919 60.2436C59.5922 58.7613 59.602 57.1634 59.9443 55.657C61.143 58.9595 64.2137 60.2592 67.0645 58.5497C68.9068 57.4465 70.2324 55.3371 70.7602 53.0054C70.8374 53.2133 70.9049 53.4319 70.9659 53.6566C71.9824 57.4318 70.3487 61.967 67.3178 63.7855C64.2869 65.6041 61.0076 64.0164 59.9919 60.2436Z" fill="#FEF7FF"/>
<path d="M65.5366 65.5789C65.6504 65.5789 65.7643 65.5748 65.8789 65.5666C69.3888 65.3117 72.2013 61.0531 72.1484 56.0734C72.1167 53.1227 71.0774 50.4172 69.3676 48.836C68.258 47.8096 66.9524 47.3194 65.5923 47.4182C62.0836 47.6736 59.2699 51.9317 59.3227 56.9114C59.3545 59.8621 60.3938 62.5677 62.1031 64.1485C63.1197 65.0886 64.3005 65.5789 65.5366 65.5789ZM65.9273 48.9251C66.7812 48.9251 67.6131 49.2777 68.3438 49.9538C69.7523 51.2564 70.6094 53.5493 70.6363 56.0898C70.681 60.2817 68.4979 63.8526 65.77 64.0512C64.8347 64.1186 63.9223 63.7652 63.127 63.0298C61.7185 61.7273 60.8614 59.4344 60.8341 56.8938C60.7894 52.7019 62.9729 49.131 65.7008 48.932C65.7769 48.9279 65.8521 48.9251 65.9273 48.9251Z" fill="#371A45"/>
<g opacity="0.5">
<path d="M29.8562 39.2441C29.8562 39.2441 20.8351 40.2905 16.0994 45.7155L16.0843 45.7327C15.0926 46.872 14.4218 48.2569 14.1411 49.744C13.7707 51.7027 13.8045 53.1045 13.8821 54.3372C14.12 58.0863 14.9393 59.7941 14.9393 59.7941C12.6623 57.9616 11.3079 55.7962 11.0765 52.6759C11.0546 52.3682 11.0433 52.0506 11.0428 51.7232C11.0428 51.648 11.0428 51.5732 11.046 51.498C11.046 51.498 11.046 51.4956 11.046 51.4935C11.104 50.6533 11.2126 49.8173 11.3713 48.9902C11.9328 46.0583 13.3438 42.1879 16.8772 40.1932C23.4858 36.4634 30.1425 38.8315 29.8562 39.2441Z" fill="#FEF7FF"/>
</g>
<g opacity="0.5">
<path d="M45.9718 49.7779C45.3721 47.3963 46.5586 45.0403 48.622 44.5157C50.6854 43.9911 52.8443 45.4964 53.444 47.878C54.0437 50.2595 52.8572 52.6155 50.7938 53.1401C48.7304 53.6648 46.5715 52.1594 45.9718 49.7779Z" fill="#FEF7FF"/>
</g>
<g opacity="0.5">
<path d="M50.1159 57.2115C49.7783 56.2552 50.1758 55.2407 51.0038 54.9456C51.8317 54.6505 52.7766 55.1865 53.1142 56.1429C53.4518 57.0992 53.0543 58.1137 52.2263 58.4088C51.3984 58.7039 50.4535 58.1679 50.1159 57.2115Z" fill="#FEF7FF"/>
</g>
<path d="M50.0558 35.2146C35.7903 39.4454 21.4979 46.0569 9.51434 53.497C9.70179 52.0776 10.1279 50.7698 10.968 49.6564C20.2427 43.9266 31.9051 38.723 44.6641 33.7629L50.0558 35.2146Z" fill="#FFC14D"/>
<path d="M9.51422 54.0666C9.6195 54.0667 9.72271 54.0373 9.81226 53.9817C22.2171 46.2801 36.5672 39.8091 50.2163 35.7593C50.3349 35.7243 50.4388 35.6513 50.5123 35.5513C50.5857 35.4514 50.6246 35.3301 50.6231 35.2059C50.6216 35.0817 50.5797 34.9614 50.5038 34.8634C50.428 34.7653 50.3223 34.6948 50.2029 34.6627L44.8108 33.2107C44.6945 33.1795 44.5714 33.1863 44.4591 33.2299C29.7573 38.947 19.0208 44.0125 10.6698 49.1707C10.6099 49.2078 10.5574 49.2558 10.5149 49.3121C9.68215 50.4152 9.17064 51.7635 8.95107 53.4235C8.9404 53.504 8.94697 53.5858 8.97036 53.6635C8.99375 53.7412 9.03341 53.813 9.08666 53.874C9.13992 53.935 9.20555 53.9839 9.27916 54.0173C9.35276 54.0508 9.43263 54.068 9.5134 54.0679L9.51422 54.0666ZM47.9909 35.2474C35.2274 39.2216 21.9679 45.2337 10.3169 52.3355C10.547 51.4689 10.8914 50.7249 11.3574 50.0827C19.6014 45.0017 30.205 40.0011 44.6957 34.3584L47.9909 35.2474Z" fill="#371A45"/>
<path d="M23.0511 41.5455C20.0698 42.0096 16.9206 43.5009 13.6873 45.5058C12.9989 45.9328 12.6203 46.7814 12.7521 47.6198C13.3295 51.3304 15.3767 53.3071 18.6552 53.8301C19.8181 54.0164 21.0042 53.6082 21.8988 52.7641C25.7819 49.1006 26.6678 45.598 24.5564 42.2564C24.2217 41.7302 23.6411 41.4528 23.0511 41.5455Z" fill="#FFC14D"/>
<g opacity="0.5">
<path d="M13.6873 45.5049C16.9207 43.5 20.0711 42.0087 23.0511 41.5446C23.596 41.4596 24.1307 41.6929 24.4718 42.1444C21.5088 42.6192 18.3808 44.1023 15.169 46.0941C14.4806 46.5206 14.102 47.3696 14.2338 48.208C14.6465 50.8588 15.8098 52.6247 17.6359 53.6085C14.9523 52.8572 13.2673 50.9279 12.7521 47.6189C12.6203 46.7805 12.9989 45.9319 13.6873 45.5049Z" fill="#FEF7FF"/>
</g>
<g opacity="0.2">
<path d="M16.9231 52.4339C18.086 52.6198 19.2721 52.2121 20.1667 51.368C23.7904 47.949 24.8035 44.6705 23.2061 41.5324C23.7412 41.5071 24.2511 41.7775 24.5552 42.2576C26.6663 45.5989 25.7805 49.1015 21.8976 52.7653C21.0031 53.6094 19.817 54.0175 18.6541 53.8312C16.8621 53.5452 15.4386 52.8225 14.4213 51.6217C15.1515 52.0151 15.9867 52.284 16.9231 52.4339Z" fill="#FFC14D"/>
</g>
<path d="M67.495 59.4045L65.4787 60.7626C67.4711 63.7044 67.6154 65.6614 64.5548 65.9106H64.3198L61.3455 65.8355C68.1094 74.0739 73.5426 64.5391 67.495 59.4045Z" fill="#FEDA24"/>
<g opacity="0.2">
<path d="M66.8592 59.8327L67.4951 59.4045C72.5212 63.6721 69.6168 70.9773 64.6082 68.5933C68.3295 68.977 70.1808 63.6488 66.8592 59.8327Z" fill="#371A45"/>
</g>
<path d="M66.5188 69.8181C66.8248 69.819 67.1299 69.7852 67.4284 69.7172C69.0284 69.3495 70.249 68.0257 70.6943 66.1814C71.1822 64.1529 70.7284 61.156 67.983 58.823C67.8575 58.7166 67.701 58.6541 67.537 58.645C67.3731 58.6358 67.2106 58.6805 67.0742 58.7724L65.0578 60.1309C64.9751 60.1867 64.9041 60.2585 64.8491 60.342C64.794 60.4255 64.7559 60.5191 64.7371 60.6175C64.7182 60.7158 64.7188 60.817 64.739 60.9151C64.7591 61.0132 64.7984 61.1063 64.8545 61.1891C66.3501 63.3954 66.2203 64.2464 66.0955 64.5091C65.889 64.9426 65.1339 65.0967 64.5244 65.149H64.3211L61.3658 65.0742C61.2212 65.0718 61.0788 65.1105 60.9552 65.186C60.8316 65.2615 60.7317 65.3706 60.6673 65.5007C60.6035 65.6319 60.5787 65.7786 60.5958 65.9236C60.6129 66.0685 60.6712 66.2054 60.7636 66.3179C63.1151 69.1836 65.1648 69.8181 66.5188 69.8181ZM67.4251 60.365C69.2736 62.179 69.5826 64.3412 69.2248 65.8235C68.9178 67.0966 68.1196 67.9988 67.0901 68.2365C65.9316 68.5046 64.5382 67.9293 63.1362 66.6386L64.5549 66.668C64.5752 66.668 64.5955 66.668 64.6155 66.6656C66.0845 66.5467 67.0409 66.0417 67.4585 65.1649C67.9436 64.1463 67.6455 62.8042 66.5188 60.9754L67.4251 60.365Z" fill="#371A45"/>
<path d="M12.7777 36.3639C30.018 32.8191 53.8282 36.6638 67.3606 46.7449V44.2473C50.6599 27.6254 24.902 19.6529 12.7777 36.3639Z" fill="#5A189A"/>
<g opacity="0.2">
<path d="M18.9444 30.5439C31.2077 29.8469 44.1659 31.7872 53.7827 36.5692C54.7081 37.0292 55.771 36.2738 55.6494 35.2438C55.0094 34.742 54.3599 34.2517 53.7009 33.7729C58.5778 36.579 63.2445 40.1487 67.3606 44.2454V46.743C53.829 36.6639 30.0184 32.8193 12.7777 36.3641C14.5615 33.9053 16.6425 31.985 18.9444 30.5439Z" fill="#371A45"/>
</g>
<path d="M67.3607 47.5046C67.46 47.5047 67.5583 47.4851 67.6501 47.447C67.7418 47.4089 67.8252 47.3529 67.8954 47.2824C67.9656 47.2118 68.0213 47.128 68.0593 47.0358C68.0972 46.9436 68.1167 46.8448 68.1166 46.745V44.2474C68.1166 44.1471 68.0968 44.0477 68.0584 43.955C68.0199 43.8624 67.9635 43.7783 67.8925 43.7077C62.3578 38.1989 55.8947 33.665 49.2023 30.5958C42.2342 27.4012 35.3528 25.97 29.302 26.4582C22.1636 27.0339 16.2385 30.3045 12.1667 35.9167C12.0769 36.0405 12.0265 36.1887 12.022 36.3418C12.0176 36.495 12.0593 36.6459 12.1418 36.7747C12.2243 36.9036 12.3436 37.0044 12.4841 37.0639C12.6246 37.1233 12.7797 37.1388 12.9291 37.1081C30.9012 33.4133 54.1089 37.8182 66.9106 47.355C67.0407 47.4523 67.1985 47.5048 67.3607 47.5046ZM66.6048 44.5653V45.2713C53.7779 36.4462 32.1097 32.2751 14.6283 35.2446C18.3719 30.9072 23.3395 28.4623 29.4228 27.972C40.8733 27.0498 55.4365 33.5551 66.6048 44.5653Z" fill="#371A45"/>
<path d="M15.1795 34.5212C19.636 32.7014 24.5808 32.2883 29.332 33.0707C29.8146 33.1398 29.9561 32.4293 29.4719 32.3141C27.0456 31.7972 24.5434 31.5578 22.0394 31.6767C19.5225 31.7954 17.0352 32.2737 14.6526 33.0973C14.5581 33.1311 14.4712 33.1834 14.3971 33.2512C14.3229 33.3191 14.2629 33.401 14.2206 33.4924C14.1782 33.5837 14.1544 33.6826 14.1504 33.7833C14.1465 33.884 14.1625 33.9845 14.1975 34.0789C14.2326 34.1733 14.286 34.2597 14.3546 34.3332C14.4232 34.4067 14.5057 34.4658 14.5972 34.5069C14.6887 34.5481 14.7875 34.5705 14.8877 34.573C14.988 34.5754 15.0877 34.5578 15.1812 34.5212H15.1795Z" fill="#371A45"/>
<path d="M0.758347 35.3488C0.696129 37.8002 2.17578 39.7732 4.34139 40.8387C6.08981 41.7029 8.2855 41.9742 10.4836 41.4275L12.7777 36.3645C20.6887 23.3796 46.7703 23.9847 67.3606 44.2475C78.0138 43.4536 80.6612 32.1795 70.1122 29.4012C58.0643 24.7165 55.7853 13.8297 47.7779 6.61265C45.6802 4.74589 42.9551 3.47564 39.9482 2.88688C34.2919 1.77761 27.6377 3.07483 22.2798 7.31907C19.8515 9.24263 17.9653 11.7701 16.7162 14.6129C13.6149 21.6583 9.76312 27.6227 4.21859 30.2167C2.20791 31.1597 0.814865 33.1212 0.758347 35.3488Z" fill="#5A189A"/>
<path d="M0.758362 35.3487C0.671349 38.8027 3.64977 41.3138 7.29705 41.6664C-0.143906 39.8397 0.563591 34.3252 5.44535 32.1794C12.4057 30.1226 15.8354 23.25 18.848 15.8054C19.7703 13.5224 21.2518 11.5105 23.1548 9.95672C26.9253 6.88099 30.9695 5.46856 35.2405 5.4228C40.9839 5.36355 46.3605 8.31671 49.5166 13.1399C53.4631 19.1713 57.9228 24.3385 63.1026 28.2902C64.4485 29.3173 65.9639 30.0879 67.5648 30.6276C74.8541 33.088 78.0667 36.5715 73.8314 41.9345C78.5074 38.2863 77.989 31.475 70.1122 29.4011C58.0643 24.7164 55.7853 13.8296 47.7779 6.61256C41.7304 1.23166 30.4856 0.819412 22.2798 7.3198C19.8515 9.24336 17.9653 11.7708 16.7162 14.6136C13.615 21.659 9.76315 27.6234 4.21861 30.2174C2.20792 31.1596 0.81488 33.1211 0.758362 35.3487Z" fill="#FEDA24"/>
<g opacity="0.5">
<path d="M71.2291 31.1633C59.1817 26.4786 56.9022 15.5917 48.8949 8.37555C42.8474 2.99383 31.603 2.58199 23.3972 9.08197C20.9685 11.0055 19.0826 13.5354 17.8331 16.3758C14.7319 23.4212 10.8801 29.386 5.33558 31.98C4.44936 32.3941 3.6741 33.0144 3.07401 33.7896C1.92738 34.9818 1.46871 36.4473 1.90298 37.823C1.95329 38.3307 2.07471 38.8288 2.26363 39.3024C1.29306 38.2446 0.718521 36.8918 0.759178 35.3487C0.815697 33.1211 2.20875 31.1596 4.21944 30.2174C9.76356 27.6234 13.6154 21.659 16.7162 14.6136C17.9653 11.7708 19.8515 9.24335 22.2798 7.3198C30.4856 0.819412 41.7304 1.23166 47.7779 6.61256C55.7853 13.8288 58.0651 24.7156 70.1122 29.4003C73.487 30.2885 75.5099 32.0466 76.3536 34.0527C75.2554 32.8106 73.5663 31.7806 71.2291 31.1633Z" fill="#FEF7FF"/>
<path d="M75.4779 36.1143C76.0024 36.6752 76.3826 37.2726 76.6062 37.9095C76.2122 39.3967 75.2672 40.8145 73.8315 41.9344C75.608 39.6848 76.0735 37.7657 75.4779 36.1143Z" fill="#FEF7FF"/>
<path d="M7.29712 41.6681C5.78494 41.5218 4.38864 41.0033 3.27738 40.2017C3.1681 39.9955 3.07865 39.7794 3.01023 39.5562C3.91128 40.4313 5.3149 41.1798 7.29712 41.6681Z" fill="#FEF7FF"/>
</g>
<path d="M67.3607 45.007C67.3794 45.007 67.3981 45.007 67.4168 45.007C73.9148 44.5228 77.221 40.4902 77.5414 36.9483C77.8146 33.9461 76.0658 30.2019 70.3444 28.6796C63.0014 25.8114 59.4663 20.6614 55.7243 15.2094C53.5571 12.0466 51.3142 8.78008 48.2821 6.04796C45.1683 3.27784 40.6366 1.71505 35.8325 1.75059C30.7881 1.79145 25.8088 3.55648 21.8118 6.72251C19.3486 8.67262 17.3493 11.2948 16.0241 14.306C12.4138 22.5114 8.56122 27.3485 3.90025 29.5298C1.59396 30.6093 0.0638885 32.8854 0.00208282 35.3316C-0.0491486 37.3654 0.839294 39.2257 2.50314 40.5682C4.65817 42.3059 7.70775 42.904 10.6662 42.1674C10.7768 42.1398 10.8798 42.0874 10.9673 42.0141C11.0549 41.9409 11.1249 41.8487 11.1721 41.7445L13.4462 36.7236C16.1579 32.3044 21.2052 29.4297 27.6646 28.6257C40.115 27.0768 55.1233 33.2703 66.8317 44.792C66.9734 44.9302 67.1632 45.0073 67.3607 45.007ZM36.0062 3.26967C40.3776 3.26967 44.4771 4.69231 47.2762 7.18215C50.1696 9.79089 52.3625 12.9831 54.4797 16.0698C58.1953 21.4805 62.0357 27.0755 69.8398 30.1096C69.8663 30.12 69.8935 30.1287 69.9211 30.1357C73.9709 31.2021 76.3146 33.759 76.0373 36.8061C75.7771 39.6718 73.0386 42.9347 67.6408 43.4593C61.4803 37.4598 54.3943 32.8066 47.1286 29.9932C40.3219 27.3579 33.5275 26.363 27.4787 27.116C20.5343 27.9801 15.0841 31.1237 12.1329 35.9673C12.1168 35.9937 12.1023 36.0209 12.0894 36.049L9.95142 40.7692C7.59064 41.2546 5.12821 40.7353 3.44973 39.3801C2.16199 38.3411 1.47483 36.9156 1.51386 35.3663C1.56103 33.4942 2.74833 31.7431 4.53864 30.9055C9.54929 28.5615 13.6398 23.4817 17.407 14.9205C18.6329 12.1349 20.4798 9.71285 22.7478 7.91636C26.4826 4.95789 31.1338 3.30807 35.8443 3.27048L36.0062 3.26967Z" fill="#371A45"/>
<path d="M73.8306 42.6932C73.9444 42.6935 74.0568 42.6679 74.1594 42.6184C74.262 42.5688 74.3521 42.4966 74.4231 42.4072C76.2142 40.1404 76.8391 38.0306 76.2809 36.1368C75.5388 33.62 72.7665 31.5833 67.8051 29.9098C66.2193 29.3754 64.7933 28.6277 63.5605 27.6867C58.6909 23.97 54.3036 19.074 50.148 12.7224C46.8061 7.61522 41.2246 4.60159 35.2336 4.66328C30.6698 4.71109 26.4451 6.29308 22.6779 9.36595C20.6769 11.0018 19.1187 13.1182 18.1474 15.5195C15.3313 22.4823 12.0146 29.4477 5.23149 31.4509C5.20068 31.4599 5.17052 31.4709 5.14122 31.484C2.43076 32.677 0.805542 34.8993 1.00031 37.1456C1.21378 39.5876 3.44688 41.5046 7.13076 42.4076C7.32558 42.4553 7.53126 42.4232 7.70256 42.3185C7.87387 42.2138 7.99677 42.045 8.04421 41.8493C8.09166 41.6535 8.05978 41.4468 7.95558 41.2747C7.85138 41.1026 7.68339 40.9791 7.48858 40.9314C4.47438 40.1939 2.65846 38.766 2.50639 37.0124C2.36977 35.4365 3.62375 33.8255 5.7056 32.8928C13.1018 30.682 16.5995 23.3808 19.5482 16.0898C20.4235 13.9263 21.8276 12.0194 23.6306 10.5455C27.1754 7.65403 30.976 6.22689 35.2495 6.18276C35.3044 6.18276 35.3605 6.18276 35.4154 6.18276C40.8326 6.18276 45.8575 8.93041 48.8847 13.5579C53.1378 20.0546 57.6378 25.0735 62.646 28.8957C64.0102 29.9363 65.5842 30.7617 67.322 31.3471C71.7199 32.8323 74.2478 34.5879 74.8309 36.5671C75.2412 37.9582 74.7057 39.6048 73.239 41.4613C73.1506 41.5732 73.0954 41.7078 73.0797 41.8497C73.064 41.9916 73.0884 42.1351 73.1502 42.2638C73.212 42.3924 73.3086 42.5009 73.4289 42.5768C73.5493 42.6528 73.6885 42.6931 73.8306 42.6932Z" fill="#371A45"/>
<path d="M8.9585 41.6758L7.33206 41.6702C7.87295 41.7204 8.41726 41.7223 8.9585 41.6758Z" fill="#FEDA24"/>
<path d="M7.29662 41.668C7.30013 41.67 7.30407 41.6713 7.30815 41.6716H7.33325C7.32097 41.6713 7.30872 41.6701 7.29662 41.668Z" fill="#FEDA24"/>
<g opacity="0.2">
<path d="M4.3414 40.8386C6.08982 41.7027 8.28551 41.974 10.4837 41.4273L12.7777 36.3643C20.6887 23.3795 46.7703 23.9846 67.3606 44.2473C78.0138 43.4534 80.6612 32.1793 70.1122 29.401C58.0643 24.7163 55.7853 13.8295 47.7779 6.61249C45.6802 4.74572 42.9551 3.47547 39.9482 2.88672C47.209 5.93058 53.4664 12.3946 58.3233 23.6348C59.531 26.4319 56.7867 29.305 53.9445 28.2378C42.5298 23.9596 32.1206 23.9711 22.4124 26.979C17.7254 28.4315 13.7304 31.4794 10.8878 35.494C9.41183 37.5823 7.097 39.306 4.3414 40.8386Z" fill="#371A45"/>
</g>
<g opacity="0.5">
<path d="M22.8217 13.9709C22.4564 13.3352 24.1529 11.6639 26.6109 10.2379C29.069 8.81195 31.3577 8.17129 31.7229 8.80699C32.0882 9.44268 30.3917 11.114 27.9337 12.54C25.4756 13.966 23.1869 14.6066 22.8217 13.9709Z" fill="#FEF7FF"/>
</g>
<path d="M23.8026 44.0096C24.1306 44.823 24.1451 45.7301 23.8432 46.5537C23.79 46.698 23.6517 46.796 23.4948 46.7527C23.3569 46.7147 23.2431 46.5484 23.2968 46.4026C23.5671 45.6774 23.5526 44.876 23.2561 44.1611C23.1971 44.019 23.3195 43.8478 23.4541 43.8106C23.6168 43.7656 23.7436 43.867 23.803 44.0096H23.8026Z" fill="#371A45"/>
<path d="M23.171 48.3893C22.9421 49.0098 22.6244 49.5935 22.2281 50.122C22.1387 50.2405 21.9797 50.3149 21.8402 50.2242C21.7239 50.149 21.6426 49.9615 21.7385 49.8348C21.9267 49.5866 22.0968 49.3251 22.2476 49.0524C22.3233 48.9162 22.394 48.7763 22.4599 48.6328C22.531 48.4788 22.5627 48.4015 22.6225 48.2377C22.6746 48.0988 22.8165 47.9885 22.9714 48.0387C23.1064 48.0829 23.2251 48.2402 23.1694 48.3893H23.171Z" fill="#371A45"/>
<path d="M20.9375 51.4507C20.3488 52.1608 19.3859 52.5073 18.4861 52.3038C18.3365 52.2703 18.249 52.0967 18.2881 51.9537C18.3092 51.8815 18.3574 51.8205 18.4225 51.7834C18.4876 51.7462 18.5645 51.736 18.6369 51.7547C18.8039 51.7928 18.9757 51.8053 19.1464 51.7919C19.3238 51.7774 19.4985 51.7389 19.6657 51.6775C20.0062 51.5486 20.3067 51.3313 20.5366 51.0479C20.6346 50.9298 20.8363 50.9461 20.9375 51.0479C21.0538 51.1651 21.0359 51.3339 20.9375 51.4507Z" fill="#371A45"/>
<path d="M16.7348 51.6397C16.1831 51.4385 15.6872 51.1078 15.2885 50.6751C15.1881 50.5656 15.1726 50.3792 15.2885 50.2722C15.3979 50.1713 15.5821 50.1554 15.6894 50.2722C15.7774 50.3682 15.8705 50.4593 15.9684 50.5451C15.9936 50.5672 16.0188 50.5884 16.0444 50.6097L16.079 50.6379C16.1347 50.6832 16.0493 50.6158 16.0826 50.6407C16.1359 50.6816 16.1892 50.7196 16.2453 50.7568C16.3515 50.8285 16.4617 50.894 16.5754 50.9529C16.6296 50.9801 16.6854 51.0074 16.7426 51.0346C16.773 51.0481 16.7759 51.0546 16.745 51.0346C16.7581 51.0412 16.7717 51.0466 16.7856 51.0509C16.8194 51.0648 16.8531 51.0775 16.8873 51.0918C17.0264 51.1425 17.1349 51.2875 17.0853 51.4419C17.041 51.5792 16.8857 51.6957 16.7365 51.6409L16.7348 51.6397Z" fill="#371A45"/>
<path d="M19.218 54.4457C20.3252 54.4457 21.4137 54.002 22.2859 53.1792C26.3776 49.3186 27.3018 45.5389 25.0337 41.9512C24.5816 41.2358 23.7692 40.855 22.9641 40.9804C20.2126 41.409 17.0808 42.7299 13.3896 45.0188C12.5077 45.5658 12.0259 46.6457 12.191 47.7059C12.7907 51.5616 14.9356 53.8116 18.565 54.3926C18.7809 54.4276 18.9993 54.4453 19.218 54.4457ZM23.2747 42.0971C23.5911 42.0971 23.8895 42.2674 24.0766 42.5632C26.0381 45.6684 25.1984 48.8691 21.5096 52.3502C20.7257 53.0897 19.7169 53.4247 18.7447 53.2687C15.6138 52.7673 13.8353 50.8904 13.3124 47.5311C13.2168 46.9182 13.488 46.2988 13.9865 45.9895C17.5464 43.7832 20.5403 42.5126 23.1389 42.1081C23.1838 42.1008 23.2292 42.0972 23.2747 42.0971Z" fill="#371A45"/>
<path d="M14.3427 48.9356C14.1727 48.4641 14.0026 47.9924 13.8324 47.5203C13.7816 47.3798 13.8889 47.202 14.0304 47.1698C14.1028 47.1517 14.1794 47.1622 14.2442 47.1993C14.3091 47.2363 14.3573 47.297 14.3789 47.3687L14.8896 48.7844C14.94 48.9246 14.8327 49.1023 14.6916 49.1346C14.6191 49.1528 14.5425 49.1423 14.4775 49.1053C14.4125 49.0682 14.3643 49.0075 14.3427 48.9356Z" fill="#371A45"/>
</svg>
